#N canvas 0 22 274 333 10;
#X obj 25 21 display 150 50 output;
#N canvas 222 277 366 305 guts 0;
#X msg 40 244 these are my words;
#X obj 40 272 s output;
#X msg 59 218 hello 32 f;
#X obj 13 13 loadbang;
#X obj 40 87 metro 3000;
#X obj 40 62 delay 3000;
#X msg 79 192 lots of words that should force a line break;
#X obj 40 164 sel 0 1;
#X obj 40 137 f;
#X obj 83 137 + 1;
#X msg 55 114 0;
#X obj 13 38 t b b;
#X connect 0 0 1 0;
#X connect 2 0 1 0;
#X connect 3 0 11 0;
#X connect 4 0 8 0;
#X connect 5 0 4 0;
#X connect 6 0 1 0;
#X connect 7 0 0 0;
#X connect 7 1 2 0;
#X connect 7 2 10 0;
#X connect 7 2 6 0;
#X connect 8 0 9 0;
#X connect 8 0 7 0;
#X connect 9 0 8 1;
#X connect 10 0 8 1;
#X connect 11 0 0 0;
#X connect 11 1 5 0;
#X restore 75 110 pd guts;
