#N canvas 631 221 509 306 10;
#X obj 283 206 osc~ 440;
#X obj 283 247 *~;
#X obj 283 268 dac~;
#X obj 298 227 r volume;
#X obj 381 205 loadbang;
#X msg 381 226 \; pd dsp 1;
#X obj 62 17 bng 32 250 50 0 sendtest receivetest hello! 38 16 0 10
-262144 -1 -1;
#X obj 62 69 bng 32 250 50 0 empty sendtest hello_two! 38 16 0 10 -262144
-1 -1;
#X connect 0 0 1 0;
#X connect 1 0 2 0;
#X connect 1 0 2 1;
#X connect 3 0 1 1;
#X connect 4 0 5 0;
