#N canvas 300 251 509 306 10;
#X obj 283 206 osc~ 440;
#X obj 283 247 *~;
#X obj 283 268 dac~;
#X obj 298 227 r volume;
#X obj 381 205 loadbang;
#X msg 381 226 \; pd dsp 1;
#X obj 66 115 tgl 32 0 volume menubang-hello empty 17 7 0 10 -262144
-1 -1 0 1;
#X obj 66 16 menubang hello;
#X obj 126 115 tgl 32 0 volume menubang-what_is_up empty 17 7 0 10
-262144 -1 -1 0 1;
#X obj 66 52 menubang what_is_up;
#X connect 0 0 1 0;
#X connect 1 0 2 0;
#X connect 1 0 2 1;
#X connect 3 0 1 1;
#X connect 4 0 5 0;
