#N canvas 592 121 364 526 10;
#X obj 11 91 tgl 30 0 runlocate empty run 7 15 0 10 -262144 -1 -1 0
1;
#X text 8 7 location (aka GPS) events require extra battery & cpu \,
;
#X obj 11 136 cnv 15 340 120 empty empty locate 20 12 0 14 -233017
-66577 0;
#X floatatom 20 162 10 0 0 1 latitude lat -;
#X floatatom 20 186 10 0 0 1 longitude lon -;
#X symbolatom 20 235 25 0 0 1 timestamp timestamp -;
#X floatatom 20 211 10 0 0 1 altitude_(m) alt -;
#X floatatom 167 141 10 0 0 1 speed_(mps) speed -;
#X floatatom 167 187 10 0 0 1 horz_accuracy_(m) haccuracy -;
#X floatatom 167 211 10 0 0 1 vert_accuracy_(m) vaccuracy -;
#X text 47 97 turn them on by sending a msg to #pdparty: locate 1;
#X obj 20 477 hsl 320 30 0 127 0 0 filter-out filter-in distance_filter_0_-_1000m
8 15 0 10 -262144 -1 -1 0 1;
#X obj 18 336 hradio 54 1 0 6 accuracy-out accuracy-in empty 0 -8 0
10 -262144 -1 -1 1;
#X text 10 398 navigation;
#X text 86 398 best;
#X text 143 398 10m;
#X text 195 398 100m;
#X text 251 397 1km;
#X text 307 398 3km;
#X text 8 282 are dependent on the desired accuracy & distance filter
;
#X text 9 28 so they are off by default;
#X text 9 57 your device should have a gps chip for best results;
#X text 8 264 the speed of location events & overall resource usage
;
#N canvas 556 333 497 326 guts 0;
#X obj 238 24 r runlocate;
#X obj 238 86 s #pdparty;
#X msg 238 58 locate \$1;
#X obj 351 25 loadbang;
#X msg 351 60 \; accuracy-in set 1 \; filter-in set 0;
#X obj 238 136 r accuracy-out;
#X obj 368 137 r filter-out;
#X obj 238 259 s #pdparty;
#X msg 368 216 locate filter \$1;
#N canvas 651 529 319 192 type 0;
#X obj 16 9 inlet;
#X obj 16 38 sel 0 1 2 3 4 5;
#X msg 16 84 navigation;
#X msg 103 84 best;
#X msg 152 83 10m;
#X msg 191 83 100m;
#X msg 238 83 1km;
#X msg 280 83 3km;
#X obj 16 133 symbol;
#X obj 16 167 outlet;
#X connect 0 0 1 0;
#X connect 1 0 2 0;
#X connect 1 1 3 0;
#X connect 1 2 4 0;
#X connect 1 3 5 0;
#X connect 1 4 6 0;
#X connect 1 5 7 0;
#X connect 2 0 8 0;
#X connect 3 0 8 0;
#X connect 4 0 8 0;
#X connect 5 0 8 0;
#X connect 6 0 8 0;
#X connect 7 0 8 0;
#X connect 8 0 9 0;
#X restore 238 183 pd type;
#X msg 238 216 locate accuracy \$1;
#X obj 16 17 r #locate;
#X obj 145 86 s timestamp;
#X obj 16 291 s lat;
#X obj 34 265 s lon;
#X obj 71 208 s speed;
#X obj 52 236 s alt;
#X obj 126 116 s vaccuracy;
#X obj 108 146 s haccuracy;
#X obj 16 50 unpack f f f f f f f s;
#X obj 89 179 s course;
#X connect 0 0 2 0;
#X connect 2 0 1 0;
#X connect 3 0 4 0;
#X connect 5 0 9 0;
#X connect 6 0 8 0;
#X connect 8 0 7 0;
#X connect 9 0 10 0;
#X connect 10 0 7 0;
#X connect 11 0 19 0;
#X connect 19 0 13 0;
#X connect 19 1 14 0;
#X connect 19 2 16 0;
#X connect 19 3 15 0;
#X connect 19 4 20 0;
#X connect 19 5 18 0;
#X connect 19 6 17 0;
#X connect 19 7 12 0;
#X restore 304 138 pd guts;
#X text 15 311 accuracy (default "best") \, "navigation" is *intensive*
;
#X text 12 448 your pos has changed beyond this value \, 0 = no filter
;
#X text 12 432 distance filter threshold (default 0) \, events occur
when;
#X floatatom 167 163 10 0 0 1 course_(degrees) speed -;
