#N canvas 137 104 480 266 10;
#X obj 204 145 osc~ 440;
#X obj 204 186 *~;
#X obj 204 207 dac~;
#X obj 363 6 loadbang;
#X msg 363 27 \; pd dsp 1;
#X floatatom 16 13 5 0 0 0 - - test;
#X obj 16 31 r test;
#X obj 16 52 print;
#X obj 272 145 osc~;
#X obj 272 103 r test;
#X obj 272 124 mtof;
#X connect 0 0 1 0;
#X connect 1 0 2 0;
#X connect 1 0 2 1;
#X connect 3 0 4 0;
#X connect 6 0 7 0;
#X connect 8 0 1 1;
#X connect 9 0 10 0;
#X connect 10 0 8 0;
