#N canvas 303 38 916 442 10;
#X declare -path .;
#X declare -path rj;
#N canvas 0 22 588 274 LICENSE 0;
#X text 79 84 (c) 2008 Reality Jockey;
#X text 57 36 Released under the GNU General Public License ver. 3
or later. See the file LICENSE.txt for the full text.;
#X restore 571 80 pd LICENSE;
#X obj 571 108 OVERVIEW;
#X text 27 23 RjDj Scene Template - _main.pd;
#X obj 571 24 declare -path .;
#X obj 571 52 declare -path rj;
#X text 639 108 of all RjDj abstractions;
#X obj 69 128 loadbang;
#X obj 68 270 rj_image mark.gif;
#X obj 241 174 loadbang;
#X obj 266 255 rj_image jerry.gif;
#X floatatom 256 53 5 0 0 0 - - -;
#X obj 143 185 * 100;
#X obj 143 210 + 50;
#X msg 407 201 scale \$1 \$1;
#X obj 256 25 c_lfo move 0.1 50 sine;
#X msg 69 154 visible 1;
#X msg 241 200 visible 1 \, move 100 100;
#X obj 499 130 loadbang;
#X obj 498 272 rj_image mark.gif;
#X msg 499 156 visible 1 \, move 10 200;
#X obj 520 199 metro 250;
#X obj 520 223 tgl 15 0 empty empty empty 17 7 0 10 -262144 -1 -1 0
1;
#X msg 520 243 visible \$1;
#X obj 344 123 * 0.75;
#X msg 344 172 alpha \$1;
#N canvas 0 22 547 442 TOUCH 0;
#X obj 193 170 list split 1;
#X obj 95 170 list split 1;
#X msg 227 231 move \$1 \$2;
#X msg 95 323 visible \$1;
#X obj 25 181 loadbang;
#X msg 25 260 0;
#X obj 95 70 route down xy up;
#X obj 157 100 list split 1;
#X obj 157 130 sel 1;
#X text 201 132 Hides the image when untouched;
#X text 167 324 Shows the image when touched;
#X text 299 231 Moves the image according to touch xy;
#X obj 95 395 rj_image jerry.gif;
#X obj 95 40 r #touch;
#X connect 0 0 3 0;
#X connect 0 1 2 0;
#X connect 1 0 3 0;
#X connect 1 1 2 0;
#X connect 2 0 12 0;
#X connect 3 0 12 0;
#X connect 4 0 5 0;
#X connect 5 0 3 0;
#X connect 6 0 1 0;
#X connect 6 1 0 0;
#X connect 6 2 7 0;
#X connect 7 0 8 0;
#X connect 8 0 5 0;
#X connect 13 0 6 0;
#X restore 719 154 pd TOUCH EXAMPLE;
#X msg 143 232 move \$1 \$1;
#X msg 80 215 rotate \$1;
#X obj 344 148 + 0.25;
#X obj 80 189 * 180;
#X obj 161 142 r \$0-lfo;
#X obj 256 79 s \$0-lfo;
#X obj 407 94 r \$0-lfo;
#X obj 626 205 loadbang;
#X msg 626 231 visible 1 \, move 100 200;
#X obj 547 323 loadbang;
#X obj 703 329 metro 1000;
#X msg 704 375 text hello;
#X msg 794 374 text world;
#X obj 711 351 tgl 15 0 empty empty empty 17 7 0 10 -262144 -1 -1 0
1;
#X obj 752 351 sel 0 1;
#X obj 229 319 * 100;
#X obj 229 344 + 50;
#X obj 229 291 r \$0-lfo;
#X obj 151 321 loadbang;
#X msg 151 347 visible 1;
#X obj 176 407 rj_text position;
#X obj 547 397 rj_text text;
#X obj 626 271 rj_text blink;
#X obj 299 323 loadbang;
#X obj 449 297 r \$0-lfo;
#X obj 449 324 * 10;
#X obj 449 348 + 5;
#X msg 547 349 visible 1 \, move 160 200;
#X msg 299 349 visible 1 \, move 160 100;
#X msg 229 366 move 260 \$1;
#X msg 449 371 size \$1;
#X obj 366 406 rj_text size;
#X obj 407 172 + 0.1;
#X obj 407 147 * 1.9;
#X connect 6 0 15 0;
#X connect 8 0 16 0;
#X connect 10 0 31 0;
#X connect 11 0 12 0;
#X connect 12 0 26 0;
#X connect 13 0 9 0;
#X connect 14 0 10 0;
#X connect 15 0 7 0;
#X connect 16 0 9 0;
#X connect 17 0 19 0;
#X connect 17 0 20 0;
#X connect 19 0 18 0;
#X connect 20 0 21 0;
#X connect 21 0 22 0;
#X connect 22 0 18 0;
#X connect 22 0 48 0;
#X connect 23 0 28 0;
#X connect 24 0 9 0;
#X connect 26 0 7 0;
#X connect 27 0 7 0;
#X connect 28 0 24 0;
#X connect 29 0 27 0;
#X connect 30 0 11 0;
#X connect 30 0 29 0;
#X connect 32 0 23 0;
#X connect 32 0 59 0;
#X connect 33 0 34 0;
#X connect 34 0 48 0;
#X connect 35 0 53 0;
#X connect 35 0 36 0;
#X connect 36 0 39 0;
#X connect 37 0 47 0;
#X connect 38 0 47 0;
#X connect 39 0 40 0;
#X connect 40 0 37 0;
#X connect 40 1 38 0;
#X connect 41 0 42 0;
#X connect 42 0 55 0;
#X connect 43 0 41 0;
#X connect 44 0 45 0;
#X connect 45 0 46 0;
#X connect 49 0 54 0;
#X connect 50 0 51 0;
#X connect 51 0 52 0;
#X connect 52 0 56 0;
#X connect 53 0 47 0;
#X connect 54 0 57 0;
#X connect 55 0 46 0;
#X connect 56 0 57 0;
#X connect 58 0 13 0;
#X connect 59 0 58 0;
