#N canvas 478 260 425 320 10;
#X obj 56 92 inlet;
#X obj 240 94 loadbang;
#X obj 340 178 symbol \$1;
#X obj 231 210 pack s s s;
#X obj 259 178 symbol load;
#X obj 113 236 list;
#X text 57 41 Hackish implementation of rj_image as an abstraction
for pd-for-android.;
#X obj 169 178 symbol \$0-img;
#X obj 133 207 symbol;
#X obj 240 123 spigot 1;
#X obj 240 147 t b b b b;
#X msg 303 147 0;
#X obj 56 129 t b a b;
#X obj 140 265 s rj_image;
#X connect 0 0 12 0;
#X connect 1 0 9 0;
#X connect 2 0 3 2;
#X connect 3 0 13 0;
#X connect 4 0 3 1;
#X connect 5 0 13 0;
#X connect 7 0 3 0;
#X connect 7 0 8 1;
#X connect 8 0 5 0;
#X connect 9 0 10 0;
#X connect 10 0 7 0;
#X connect 10 1 4 0;
#X connect 10 2 2 0;
#X connect 10 3 11 0;
#X connect 11 0 9 1;
#X connect 12 0 8 0;
#X connect 12 1 5 1;
#X connect 12 2 9 0;
