#N canvas 28 259 437 322 10;
#X obj 56 92 inlet;
#X obj 240 94 loadbang;
#X obj 340 175 symbol \$1;
#X obj 231 207 pack s s s;
#X obj 113 233 list;
#X obj 133 204 symbol;
#X text 57 42 Hackish implementation of rj_text as an abstraction for
pd-for-android.;
#X obj 259 175 symbol text;
#X obj 169 175 symbol \$0-txt;
#X obj 56 132 t b a b;
#X obj 240 144 t b b b b;
#X msg 311 143 0;
#X obj 240 119 spigot 1;
#X obj 140 262 s rj_text;
#X connect 0 0 9 0;
#X connect 1 0 12 0;
#X connect 2 0 3 2;
#X connect 3 0 13 0;
#X connect 4 0 13 0;
#X connect 5 0 4 0;
#X connect 7 0 3 1;
#X connect 8 0 3 0;
#X connect 8 0 5 1;
#X connect 9 0 5 0;
#X connect 9 1 4 1;
#X connect 9 2 12 0;
#X connect 10 0 8 0;
#X connect 10 1 7 0;
#X connect 10 2 2 0;
#X connect 10 3 11 0;
#X connect 11 0 12 1;
#X connect 12 0 10 0;
