#N canvas 495 109 603 328 10;
#X obj 123 102 metro 150;
#X obj 122 122 i;
#X obj 148 122 + 1;
#X obj 123 64 tgl 15 0 empty empty empty 17 7 0 10 -262144 -1 -1 1
1;
#X msg 164 73 150;
#X msg 194 74 50;
#X msg 223 73 10;
#X msg 253 73 2;
#X msg 407 115 10 \$1;
#X floatatom 407 93 5 0 0 0 - - -;
#X obj 408 27 metro 150;
#X obj 407 47 i;
#X obj 433 47 + 1;
#X obj 408 0 tgl 15 0 empty empty empty 17 7 0 10 -262144 -1 -1 0 1
;
#X msg 449 -2 150;
#X msg 479 -1 50;
#X msg 508 -2 10;
#X msg 538 -2 2;
#X obj 407 70 mod 80;
#X floatatom 69 141 5 0 0 0 - - -;
#X text 38 -2 1 : launch droidnetreceive test patch on your phone;
#X text 38 9 2 : set the ip address of the phone into a "connect" message
;
#X text 38 31 4 : send messages prefixed by "canvas";
#X text 38 20 3 : connect;
#X floatatom 294 268 5 0 0 0 - - -;
#X msg 122 148 broadcast canvas label count=\$1;
#X msg 265 175 broadcast canvas label hello;
#X msg 407 136 broadcast canvas pos \$1 \$2;
#X obj 265 297 print;
#X obj 265 239 netserver 33445;
#X obj 166 262 route action;
#X connect 0 0 1 0;
#X connect 1 0 2 0;
#X connect 1 0 25 0;
#X connect 1 0 19 0;
#X connect 2 0 1 1;
#X connect 3 0 0 0;
#X connect 4 0 0 1;
#X connect 5 0 0 1;
#X connect 6 0 0 1;
#X connect 7 0 0 1;
#X connect 8 0 27 0;
#X connect 9 0 8 0;
#X connect 10 0 11 0;
#X connect 11 0 12 0;
#X connect 11 0 18 0;
#X connect 12 0 11 1;
#X connect 13 0 10 0;
#X connect 14 0 10 1;
#X connect 15 0 10 1;
#X connect 16 0 10 1;
#X connect 17 0 10 1;
#X connect 18 0 9 0;
#X connect 25 0 29 0;
#X connect 26 0 29 0;
#X connect 27 0 29 0;
#X connect 29 0 28 0;
#X connect 29 0 30 0;
#X connect 29 1 24 0;
#X connect 30 0 3 0;
