#N canvas 286 138 647 397 10;
#X obj 106 40 inlet;
#X obj 197 36 inlet;
#X text 197 12 period;
#X text 101 15 how many;
#X obj 106 91 *;
#X obj 106 117 delay;
#X obj 106 159 0;
#X obj 106 229 outlet;
#X obj 106 205 metro;
#X obj 106 61 t f b;
#X obj 106 138 t b b;
#X connect 0 0 9 0;
#X connect 1 0 4 1;
#X connect 1 0 8 1;
#X connect 4 0 5 0;
#X connect 5 0 10 0;
#X connect 6 0 8 0;
#X connect 8 0 7 0;
#X connect 9 0 4 0;
#X connect 9 1 8 0;
#X connect 10 0 6 0;
