#N canvas 192 41 888 625 10;
#X obj 102 66 inlet~;
#X obj 103 460 outlet~;
#X obj 503 67 inlet;
#X obj 103 420 *~;
#N canvas 501 344 604 532 vol 0;
#X obj 77 16 inlet~;
#X obj 105 86 moses 80;
#X obj 159 184 - 80;
#X obj 184 20 inlet;
#X obj 235 21 inlet;
#X obj 161 259 * -1;
#X obj 162 284 + 100;
#X floatatom 121 287 5 0 0 0 - - -;
#X floatatom 113 56 5 0 0 0 - - -;
#X text 235 196 x - x/r;
#X text 232 215 (x*r - x)/ r;
#X text 234 234 x*(r-1)/r;
#X obj 160 210 * 1;
#X obj 197 184 - 1;
#X floatatom 235 45 5 0 0 0 - - -;
#X obj 163 316 dbtorms;
#X obj 122 436 outlet;
#X obj 51 438 outlet;
#X msg 83 314 1;
#X obj 127 146 moses;
#X obj 178 147 f;
#X msg 158 122 0;
#X obj 160 233 / 2;
#X obj 121 380 moses 0;
#X obj 122 350 t f f;
#X obj 42 145 timer;
#X obj 41 119 t b b;
#X floatatom 43 174 5 0 0 0 - - -;
#X obj 76 38 env~ 512 256;
#X connect 0 0 28 0;
#X connect 1 0 18 0;
#X connect 1 0 21 0;
#X connect 1 1 19 0;
#X connect 2 0 12 0;
#X connect 3 0 1 1;
#X connect 3 0 2 1;
#X connect 4 0 14 0;
#X connect 5 0 6 0;
#X connect 5 0 7 0;
#X connect 6 0 15 0;
#X connect 8 0 1 0;
#X connect 12 0 22 0;
#X connect 13 0 12 1;
#X connect 14 0 13 0;
#X connect 14 0 22 1;
#X connect 15 0 24 0;
#X connect 18 0 24 0;
#X connect 19 0 20 0;
#X connect 19 1 2 0;
#X connect 20 0 19 1;
#X connect 21 0 19 1;
#X connect 22 0 5 0;
#X connect 23 0 16 0;
#X connect 23 1 17 0;
#X connect 24 0 23 1;
#X connect 24 1 23 0;
#X connect 25 0 27 0;
#X connect 26 0 25 0;
#X connect 26 1 25 1;
#X connect 28 0 1 0;
#X restore 336 246 pd vol;
#X obj 336 384 line~;
#X obj 528 340 pack 0 20;
#X obj 336 343 pack 0 200;
#X obj 588 314 r \$0-attack;
#X obj 403 317 r \$0-release;
#X text 93 29 compression;
#X obj 375 221 r \$0-ratio;
#X obj 355 197 r \$0-thresh;
#X obj 102 206 /;
#X obj 102 162 samplerate~;
#X floatatom 413 280 5 0 0 0 - - -;
#X floatatom 355 284 5 0 0 0 - - -;
#X obj 102 254 delread~ \$0-del 10;
#X obj 102 139 loadbang;
#X obj 335 69 inlet~;
#X text 340 47 sidechain;
#X msg 102 184 1000 \$1;
#X text 155 228 env~ window duration;
#X msg 174 136 bang;
#X floatatom 42 254 5 0 0 0 - - -;
#X obj 103 112 delwrite~ \$0-del 100;
#X msg 34 147 22050;
#X obj 102 228 * 256;
#X obj 503 99 u_dispatch \$0 attack;
#X obj 503 121 u_dispatch \$0 release;
#X obj 503 145 u_dispatch \$0 ratio;
#X obj 503 170 u_dispatch \$0 thresh;
#X obj 550 67 u_loader e_scompress-\$1 \$0;
#N canvas 172 83 586 377 LICENSE-GPL 0;
#X text 57 88 This program is free software: you can redistribute it
and/or modify it under the terms of the GNU General Public License
as published by the Free Software Foundation \, either version 3 of
the License \, or (at your option) any later version.;
#X text 58 168 This program is distributed in the hope that it will
be useful \, but WITHOUT ANY WARRANTY \; without even the implied warranty
of MERCHANTABILITY or FITNESS FOR A PARTICULAR PURPOSE. See the GNU
General Public License for more details.;
#X text 57 261 You should have received a copy of the GNU General Public
License along with this program. If not \, see <http://www.gnu.org/licenses/>.
;
#X text 61 54 Copyright (C) 2009 \, Reality Jockey Ltd.;
#X text 60 325 See the file LICENSE.txt for the full license text.
;
#X restore 602 29 pd LICENSE-GPL;
#X connect 0 0 25 0;
#X connect 2 0 28 0;
#X connect 3 0 1 0;
#X connect 4 0 7 0;
#X connect 4 0 16 0;
#X connect 4 1 6 0;
#X connect 4 1 15 0;
#X connect 5 0 3 1;
#X connect 6 0 5 0;
#X connect 7 0 5 0;
#X connect 8 0 6 1;
#X connect 9 0 7 1;
#X connect 11 0 4 2;
#X connect 12 0 4 1;
#X connect 13 0 27 0;
#X connect 14 0 21 0;
#X connect 17 0 3 0;
#X connect 18 0 14 0;
#X connect 19 0 4 0;
#X connect 21 0 13 0;
#X connect 23 0 14 0;
#X connect 26 0 21 0;
#X connect 27 0 17 0;
#X connect 27 0 24 0;
#X connect 28 0 29 0;
#X connect 29 0 30 0;
#X connect 30 0 31 0;
