#N canvas 0 0 723 514 10;
#X obj 307 142 samplerate~;
#X obj 307 204 / 1000;
#X obj 353 38 loadbang;
#X obj 135 134 inlet;
#X obj 135 228 outlet;
#X obj 307 38 inlet;
#X obj 353 75 f \$1;
#X obj 307 105 select 0;
#X obj 135 183 * 44.1;
#X connect 0 0 1 0;
#X connect 1 0 8 1;
#X connect 2 0 6 0;
#X connect 3 0 8 0;
#X connect 5 0 7 0;
#X connect 6 0 7 0;
#X connect 7 0 0 0;
#X connect 7 1 1 0;
#X connect 8 0 4 0;
