#N canvas 0 0 723 514 10;
#X obj 307 142 samplerate~;
#X obj 307 204 / 1000;
#X obj 356 47 loadbang;
#X obj 135 134 inlet;
#X obj 135 228 outlet;
#X obj 135 183 / 44.1;
#X obj 307 51 inlet;
#X obj 356 73 f \$1;
#X obj 307 105 select 0;
#X floatatom 312 229 5 0 0 0 - - -;
#X connect 0 0 1 0;
#X connect 1 0 5 1;
#X connect 1 0 9 0;
#X connect 2 0 7 0;
#X connect 3 0 5 0;
#X connect 5 0 4 0;
#X connect 6 0 8 0;
#X connect 7 0 8 0;
#X connect 8 0 0 0;
#X connect 8 1 1 0;
