#N canvas 60 12 904 772 10;
#X obj 203 540 select 1;
#X obj 455 415 tgl 15 0 empty empty empty 17 7 0 10 -262144 -1 -1 1
1;
#X obj 212 411 tgl 15 0 empty empty empty 17 7 0 10 -262144 -1 -1 0
1;
#X obj 436 540 select 1;
#X obj 436 386 > \$2;
#X obj 203 387 < \$1;
#X obj 436 630 outlet;
#X obj 203 629 outlet;
#X obj 203 69 inlet;
#X obj 432 67 inlet;
#X obj 512 308 unpack 0 0;
#X obj 480 192 t b a;
#N canvas 0 0 456 362 demux 0;
#X obj 83 76 inlet;
#X obj 255 69 inlet;
#X obj 255 210 unpack 0 0;
#X msg 255 131 1 0;
#X msg 282 151 0 1;
#X msg 309 167 1 1;
#X obj 83 251 spigot 1;
#X obj 170 256 spigot 1;
#X obj 170 282 outlet;
#X obj 83 281 outlet;
#X obj 255 98 select 0 1 2;
#X connect 0 0 6 0;
#X connect 0 0 7 0;
#X connect 1 0 10 0;
#X connect 2 0 6 1;
#X connect 2 1 7 1;
#X connect 3 0 2 0;
#X connect 4 0 2 0;
#X connect 5 0 2 0;
#X connect 6 0 9 0;
#X connect 7 0 8 0;
#X connect 10 0 3 0;
#X connect 10 1 4 0;
#X connect 10 2 5 0;
#X restore 203 321 pd demux;
#X msg 314 284 0;
#X msg 256 286 1;
#X msg 432 285 2;
#X obj 477 571 delay;
#X obj 242 570 delay;
#X obj 224 252 t b b;
#X obj 203 288 f;
#X obj 282 254 t b b;
#X obj 528 215 s \$0-dead-period;
#X obj 509 541 r \$0-dead-period;
#X obj 274 546 r \$0-dead-period;
#X obj 432 91 list trim;
#X obj 432 118 route reset list dead;
#N canvas 172 83 586 377 LICENSE-GPL 0;
#X text 57 88 This program is free software: you can redistribute it
and/or modify it under the terms of the GNU General Public License
as published by the Free Software Foundation \, either version 3 of
the License \, or (at your option) any later version.;
#X text 58 168 This program is distributed in the hope that it will
be useful \, but WITHOUT ANY WARRANTY \; without even the implied warranty
of MERCHANTABILITY or FITNESS FOR A PARTICULAR PURPOSE. See the GNU
General Public License for more details.;
#X text 57 261 You should have received a copy of the GNU General Public
License along with this program. If not \, see <http://www.gnu.org/licenses/>.
;
#X text 61 54 Copyright (C) 2009 \, Reality Jockey Ltd.;
#X text 60 325 See the file LICENSE.txt for the full license text.
;
#X restore 602 59 pd LICENSE-GPL;
#X obj 528 192 max;
#X obj 203 495 change -1;
#X obj 436 496 change -1;
#X msg 218 464 set -1;
#X obj 282 194 r \$0-detect-low;
#X obj 224 170 r \$0-detect-high;
#X obj 477 603 s \$0-detect-low;
#X obj 242 592 s \$0-detect-high;
#X msg 446 468 set -1;
#N canvas 0 0 408 315 detect 0;
#X obj 69 107 r \$0-detect-low;
#X obj 54 86 r \$0-detect-high;
#X obj 54 155 outlet;
#X obj 54 131 b;
#X connect 0 0 3 0;
#X connect 1 0 3 0;
#X connect 3 0 2 0;
#X restore 446 446 pd detect;
#N canvas 0 0 408 315 detect 0;
#X obj 69 107 r \$0-detect-low;
#X obj 54 86 r \$0-detect-high;
#X obj 54 155 outlet;
#X obj 54 131 b;
#X connect 0 0 3 0;
#X connect 1 0 3 0;
#X connect 3 0 2 0;
#X restore 218 442 pd detect;
#X text 407 306 open both;
#X obj 540 146 loadbang;
#X obj 540 167 f \$3;
#X connect 0 0 7 0;
#X connect 0 0 17 0;
#X connect 3 0 6 0;
#X connect 3 0 16 0;
#X connect 4 0 1 0;
#X connect 4 0 29 0;
#X connect 5 0 2 0;
#X connect 5 0 28 0;
#X connect 8 0 19 0;
#X connect 9 0 24 0;
#X connect 10 0 5 1;
#X connect 10 1 4 1;
#X connect 11 0 15 0;
#X connect 11 1 10 0;
#X connect 12 0 5 0;
#X connect 12 1 4 0;
#X connect 13 0 12 1;
#X connect 14 0 12 1;
#X connect 15 0 12 1;
#X connect 16 0 33 0;
#X connect 17 0 34 0;
#X connect 18 0 19 0;
#X connect 18 1 14 0;
#X connect 19 0 12 0;
#X connect 20 0 19 0;
#X connect 20 1 13 0;
#X connect 22 0 16 1;
#X connect 23 0 17 1;
#X connect 24 0 25 0;
#X connect 25 0 15 0;
#X connect 25 1 11 0;
#X connect 25 2 27 0;
#X connect 27 0 21 0;
#X connect 28 0 0 0;
#X connect 29 0 3 0;
#X connect 30 0 28 0;
#X connect 31 0 20 0;
#X connect 32 0 18 0;
#X connect 35 0 29 0;
#X connect 36 0 35 0;
#X connect 37 0 30 0;
#X connect 39 0 40 0;
#X connect 40 0 27 0;
