#N canvas 485 385 650 375 10;
#X obj 123 22 inlet;
#X obj 123 246 tabplay~;
#X obj 123 300 outlet~;
#X obj 200 300 outlet;
#X obj 280 102 inlet;
#X obj 280 172 route loop;
#X obj 220 246 spigot \$1;
#N canvas 172 83 586 377 LICENSE-GPL 0;
#X text 57 88 This program is free software: you can redistribute it
and/or modify it under the terms of the GNU General Public License
as published by the Free Software Foundation \, either version 3 of
the License \, or (at your option) any later version.;
#X text 58 168 This program is distributed in the hope that it will
be useful \, but WITHOUT ANY WARRANTY \; without even the implied warranty
of MERCHANTABILITY or FITNESS FOR A PARTICULAR PURPOSE. See the GNU
General Public License for more details.;
#X text 57 261 You should have received a copy of the GNU General Public
License along with this program. If not \, see <http://www.gnu.org/licenses/>.
;
#X text 61 54 Copyright (C) 2009 \, Reality Jockey Ltd.;
#X text 60 325 See the file LICENSE.txt for the full license text.
;
#X restore 350 46 pd LICENSE-GPL;
#X obj 180 198 m_ms2sm;
#X obj 123 121 list split 1;
#X obj 180 176 route float;
#X msg 123 195 set \$1;
#X obj 123 100 list;
#X obj 123 73 t b a;
#X connect 0 0 13 0;
#X connect 1 0 2 0;
#X connect 1 1 3 0;
#X connect 1 1 6 0;
#X connect 4 0 5 0;
#X connect 5 0 6 1;
#X connect 6 0 12 0;
#X connect 8 0 1 0;
#X connect 9 0 11 0;
#X connect 9 1 10 0;
#X connect 10 0 8 0;
#X connect 10 1 1 0;
#X connect 11 0 1 0;
#X connect 12 0 9 0;
#X connect 13 0 12 0;
#X connect 13 1 12 1;
