#N struct 1014-symarray float x array symbols 1014-sym;
#N struct 1014-sym symbol name float on;
#N struct 1015-symarray float x array symbols 1015-sym;
#N struct 1015-sym symbol name float on;
#N struct 1016-symarray float x array symbols 1016-sym;
#N struct 1016-sym symbol name float on;
#N struct 1018-symarray float x array symbols 1018-sym;
#N struct 1018-sym symbol name float on;
#N canvas 178 6 790 878 10;
#X floatatom 399 678 5 0 0 0 - - -;
#X symbolatom 391 733 10 0 0 0 - - -;
#X floatatom 90 655 5 0 0 0 - - -;
#X symbolatom 149 727 10 0 0 0 - - -;
#X obj 149 754 bng 15 250 50 0 empty empty empty 17 7 0 10 -262144
-1 -1;
#X msg 167 661 reset;
#X msg 172 562 notfound.wav 2 \, otherfile 3;
#X obj 391 754 bng 15 250 50 0 empty empty empty 17 7 0 10 -262144
-1 -1;
#X obj 149 531 list append 0;
#X obj 237 506 hradio 15 1 0 8 empty empty empty 0 -8 0 10 -262144
-1 -1 0;
#X obj 149 507 openpanel;
#X msg 149 486 bang;
#X msg 301 659 dump;
#X obj 265 733 print;
#X obj 149 701 u_multisamplebank;
#X obj 149 596 list prepend open;
#X obj 149 619 list trim;
#X msg 391 653 open filenname.wav 12 \, open filenname.wav 200;
#X text 106 114 If no first argument was supplied \, the internal \$0
variable is used as a prefix.;
#X text 106 152 You can lookup the names of the available tables by
an index number.;
#X text 105 224 Inlet 0:;
#X text 121 279 float: look up the table name stored at index <float>
;
#X text 121 298 reset: delete all tables.;
#X msg 162 641 delete 2;
#X text 100 409 Inlet 1:;
#X obj 311 426 m_symbolarray;
#X text 413 425 that maps indices to table names.;
#X obj 146 825 m_symbolarray;
#X text 140 804 Also see:;
#X text 120 247 open <filename> <index>: open a file and load it into
a table called "prefix-index". Index must be a number.;
#X text 121 319 delete <index>: resize table <index> to 1 and remove
it from the index-lookup. Saves a bit of memory.;
#X text 119 425 Internally connected to an;
#X msg 239 660 size \$1;
#X obj 391 707 u_multisamplebank xxx;
#X floatatom 239 640 5 0 0 0 - - -;
#X text 92 19 u_multisamplebank - samplebank for many mono files;
#X text 105 55 [u_multisamplebank] can be used to load many mono files
into tables. The tables will be dynamically created and filled. They
get automatic names that are constructed from the first argument and
an index number supplied by you.;
#X obj 255 825 u_samplebank;
#X obj 356 825 s_playtable;
#X obj 446 825 s_fplaytable;
#X text 107 203 Argument: <table prefix \, will be the internal \$0
if null>;
#X text 120 351 size <index>: report size of table at <index> in samples
to 2nd outlet. Will be 0 for a non-existing table \, 1 for an existing
table without data and greater for an actually loaded sample.;
#X connect 0 0 33 0;
#X connect 1 0 7 0;
#X connect 2 0 14 0;
#X connect 3 0 4 0;
#X connect 5 0 14 0;
#X connect 6 0 15 0;
#X connect 8 0 15 0;
#X connect 9 0 8 1;
#X connect 10 0 8 0;
#X connect 11 0 10 0;
#X connect 12 0 14 1;
#X connect 14 0 3 0;
#X connect 14 1 13 0;
#X connect 15 0 16 0;
#X connect 16 0 14 0;
#X connect 17 0 33 0;
#X connect 23 0 14 0;
#X connect 32 0 14 0;
#X connect 33 0 1 0;
#X connect 34 0 32 0;
