#N canvas 227 381 852 486 10;
#X obj 101 107 inlet~;
#X obj 102 287 outlet~;
#X obj 368 104 inlet;
#X obj 274 287 outlet~;
#X obj 275 107 inlet~;
#X text 61 41 A quick way to convert a mono effect into a stereo effect.
Works for effects with 1 audio in and 1 audio out.;
#X obj 102 253 \$1 \$2 \$3 \$4 \$5;
#X obj 274 251 \$1 \$2 \$3 \$4 \$5;
#N canvas 172 83 586 377 LICENSE-GPL 0;
#X text 57 88 This program is free software: you can redistribute it
and/or modify it under the terms of the GNU General Public License
as published by the Free Software Foundation \, either version 3 of
the License \, or (at your option) any later version.;
#X text 58 168 This program is distributed in the hope that it will
be useful \, but WITHOUT ANY WARRANTY \; without even the implied warranty
of MERCHANTABILITY or FITNESS FOR A PARTICULAR PURPOSE. See the GNU
General Public License for more details.;
#X text 57 261 You should have received a copy of the GNU General Public
License along with this program. If not \, see <http://www.gnu.org/licenses/>.
;
#X text 61 54 Copyright (C) 2009 \, Reality Jockey Ltd.;
#X text 60 325 See the file LICENSE.txt for the full license text.
;
#X restore 592 49 pd LICENSE-GPL;
#X connect 0 0 6 0;
#X connect 2 0 6 1;
#X connect 2 0 7 1;
#X connect 4 0 7 0;
#X connect 6 0 1 0;
#X connect 7 0 3 0;
