#N canvas 716 230 455 477 10;
#X obj 31 203 readsf~ 2;
#X obj 154 172 adc~;
#X obj 146 335 *~ 1;
#X obj 59 334 *~ 0;
#X obj 102 334 *~ 0;
#X obj 111 307 == 0;
#X obj 30 133 inlet;
#X msg 31 179 open \$1 \, 1;
#X obj 31 157 symbol;
#X obj 189 336 *~ 1;
#X obj 59 411 *~;
#X obj 125 411 *~;
#X obj 59 436 outlet~;
#X obj 125 436 outlet~;
#X obj 317 273 line~;
#X msg 317 249 \$1 10;
#X obj 144 37 r input_soundfile;
#X msg 212 105 0;
#X obj 257 107 inlet;
#X obj 222 157 float;
#X obj 309 39 r input_live;
#X msg 309 107 1;
#X obj 112 119 hsl 50 15 0 1 0 0 empty \$0-micvol empty -2 -8 0 10
-4034 -1 -1 4900 1;
#X text 114 119 volume;
#X obj 270 159 r #transport;
#X obj 270 180 route play;
#X obj 350 159 r #micvolume;
#X obj 317 224 * 1;
#X msg 369 225 set \$1;
#X obj 369 249 s \$0-micvol;
#X obj 350 180 t b f f;
#X connect 0 0 3 0;
#X connect 0 1 4 0;
#X connect 0 2 8 0;
#X connect 1 0 2 0;
#X connect 1 1 9 0;
#X connect 2 0 10 0;
#X connect 3 0 10 0;
#X connect 4 0 11 0;
#X connect 5 0 4 1;
#X connect 5 0 3 1;
#X connect 6 0 8 0;
#X connect 7 0 0 0;
#X connect 8 0 7 0;
#X connect 9 0 11 0;
#X connect 10 0 12 0;
#X connect 11 0 13 0;
#X connect 14 0 11 1;
#X connect 14 0 10 1;
#X connect 15 0 14 0;
#X connect 16 0 8 0;
#X connect 16 0 17 0;
#X connect 17 0 19 0;
#X connect 18 0 19 0;
#X connect 19 0 5 0;
#X connect 19 0 2 1;
#X connect 19 0 9 1;
#X connect 20 0 21 0;
#X connect 21 0 19 0;
#X connect 22 0 27 0;
#X connect 24 0 25 0;
#X connect 25 0 27 0;
#X connect 26 0 30 0;
#X connect 27 0 15 0;
#X connect 28 0 29 0;
#X connect 30 0 27 0;
#X connect 30 1 27 1;
#X connect 30 2 28 0;
#X coords 0 -1 1 1 110 40 1 100 100;
