#N canvas 600 92 678 641 10;
#X obj 92 536 dac~;
#X obj 451 185 r #transport;
#X obj 500 317 sel 1;
#X obj 187 505 *~;
#X obj 92 504 *~;
#X obj 226 472 line~;
#X obj 500 370 float 0.5;
#X msg 500 394 \$1 300;
#X obj 500 350 del 200;
#X msg 226 381 0 20;
#X obj 297 331 catch~ \$0-dummy;
#X obj 241 310 throw~ \$0-dummy;
#X obj 353 310 throw~ \$0-dummy;
#X msg 241 282 set rec1;
#X msg 353 280 set rec2;
#X obj 295 434 pack 0 20;
#X obj 114 121 hsl 50 15 0 1 0 0 \$0-vol \$0-vol volume 5 8 1 10 -4034
-1 -1 4900 1;
#X obj 295 385 r \$0-vol;
#X obj 92 148 inlet~;
#X obj 187 149 inlet~;
#X obj 92 201 clip~ -1 1;
#X obj 187 202 clip~ -1 1;
#X obj 92 176 hip~ 3;
#X obj 187 176 hip~ 3;
#X text 241 178 fight DC;
#X text 267 203 clip it like an iPhod;
#X obj 451 208 route record play;
#X obj 584 301 r #volume;
#X obj 584 322 route set;
#N canvas 0 22 450 300 meter 0;
#X obj 22 27 inlet~;
#X obj 26 69 env~;
#X obj 192 113 f;
#X msg 191 76 0;
#X obj 116 111 moses 0;
#X obj 162 174 outlet;
#X obj 194 51 del 1500;
#X msg 194 29 bang;
#X obj 89 28 inlet~;
#X obj 93 70 env~;
#X connect 0 0 1 0;
#X connect 1 0 4 0;
#X connect 2 0 4 1;
#X connect 3 0 4 1;
#X connect 4 1 2 0;
#X connect 4 1 5 0;
#X connect 4 1 7 0;
#X connect 6 0 3 0;
#X connect 7 0 6 0;
#X connect 8 0 9 0;
#X connect 9 0 4 0;
#X restore 23 250 pd meter;
#X obj 23 272 int;
#X obj 23 293 - 100;
#X obj 169 121 nbx 3 14 -1e+37 1e+37 0 0 empty \$0-meter empty 0 -8
0 10 -262144 -1 -1 -100 256;
#X obj 23 319 s \$0-meter;
#X obj 584 395 s \$0-vol;
#X msg 584 370 set \$1;
#X obj 295 410 route float;
#X connect 1 0 26 0;
#X connect 2 0 8 0;
#X connect 2 1 9 0;
#X connect 3 0 0 1;
#X connect 4 0 0 0;
#X connect 5 0 3 1;
#X connect 5 0 4 1;
#X connect 6 0 7 0;
#X connect 7 0 5 0;
#X connect 8 0 6 0;
#X connect 9 0 5 0;
#X connect 13 0 11 0;
#X connect 14 0 12 0;
#X connect 15 0 5 0;
#X connect 17 0 36 0;
#X connect 18 0 22 0;
#X connect 19 0 23 0;
#X connect 20 0 4 0;
#X connect 20 0 11 0;
#X connect 21 0 3 0;
#X connect 21 0 12 0;
#X connect 22 0 20 0;
#X connect 22 0 29 0;
#X connect 23 0 21 0;
#X connect 23 0 29 1;
#X connect 26 0 14 0;
#X connect 26 0 13 0;
#X connect 26 1 2 0;
#X connect 27 0 28 0;
#X connect 28 0 6 0;
#X connect 28 0 35 0;
#X connect 29 0 30 0;
#X connect 30 0 31 0;
#X connect 31 0 33 0;
#X connect 35 0 34 0;
#X connect 36 0 15 0;
#X coords 0 -1 1 1 110 40 1 100 100;
