#N struct 1003template-marker float a float b;
#N canvas 634 39 509 306 10;
#X obj 283 206 osc~ 440;
#X obj 283 268 dac~;
#X obj 437 15 loadbang;
#X msg 437 36 \; pd dsp 1;
#X obj 18 14 touch 200 200 xy;
#X obj 283 64 r xy;
#X obj 283 138 unpack f f;
#X obj 283 181 mtof;
#X obj 283 247 *~ 0;
#X obj 283 161 * 128;
#X obj 335 268 print;
#X obj 335 247 pack f f;
#X obj 283 87 route -1;
#X msg 283 109 0 0;
#X obj 340 162 clip 0 1;
#X obj 340 183 t f f;
#X obj 340 203 *;
#X connect 0 0 8 0;
#X connect 2 0 3 0;
#X connect 5 0 12 0;
#X connect 6 0 9 0;
#X connect 6 1 14 0;
#X connect 7 0 0 0;
#X connect 7 0 11 0;
#X connect 8 0 1 0;
#X connect 8 0 1 1;
#X connect 9 0 7 0;
#X connect 11 0 10 0;
#X connect 12 0 13 0;
#X connect 12 1 6 0;
#X connect 13 0 6 0;
#X connect 14 0 15 0;
#X connect 15 0 16 0;
#X connect 15 1 16 1;
#X connect 16 0 8 1;
#X connect 16 0 11 1;
