#N canvas 137 104 480 266 10;
#X obj 341 178 osc~ 440;
#X obj 341 219 *~;
#X obj 341 240 dac~;
#X obj 413 9 loadbang;
#X msg 413 30 \; pd dsp 1;
#X obj 409 178 osc~;
#X obj 409 157 mtof;
#X obj 15 14 numberbox 64 32 numreceive numsend 0 10 5;
#X obj 100 183 s numreceive;
#X obj 409 116 r numsend;
#X obj 100 99 loadbang;
#X obj 100 140 metro 2000;
#X obj 100 161 f;
#X obj 130 161 + 1;
#X obj 100 120 delay 3000;
#X obj 409 137 * 12;
#X connect 0 0 1 0;
#X connect 1 0 2 0;
#X connect 1 0 2 1;
#X connect 3 0 4 0;
#X connect 5 0 1 1;
#X connect 6 0 5 0;
#X connect 9 0 15 0;
#X connect 10 0 14 0;
#X connect 11 0 12 0;
#X connect 12 0 13 0;
#X connect 12 0 8 0;
#X connect 13 0 12 1;
#X connect 14 0 11 0;
#X connect 15 0 6 0;
