#N canvas 203 57 494 319 10;
#X declare -path .;
#X declare -path ../pd;
#X declare -path ../../pd;
#X declare -path./pd;
#N canvas 0 22 895 577 guts 0;
#N canvas 0 22 588 274 LICENSE 0;
#X text 57 36 Released under the GNU General Public License ver. 3
or later. See the file LICENSE.txt for the full text.;
#X text 79 84 (c) 2016 Dan Wilcox;
#X restore 571 80 pd LICENSE;
#X obj 71 83 soundinput;
#X obj 73 491 soundoutput;
#X obj 571 24 declare -path .;
#N canvas 0 22 448 215 more_paths 0;
#X text 27 19 You can add more paths here as well \, like the path
to soundoutput.pd on your computer etc.;
#X obj 36 57 declare -path ../pd;
#X obj 35 79 declare -path ../../pd;
#X restore 571 52 pd more_paths;
#X text 77 263 put your music here;
#X text 455 119 note: [soundinput] & [soundoutput] are included in
the scene folder since PdDroidParty doesnt use them by default.;
#X obj 570 162 declare -path./pd;
#X restore 359 105 pd guts;
#X text 26 182 and PdParty will scale on the device;
#X text 25 261 sends/receives or PdParty will ignore them;
#X text 26 237 UIs *must* communicate through;
#X text 27 61 place UIs here in the main patch;
#X text 27 106 place core dsp etc in a subpatch;
#X text 26 157 size this in landscape;
#X text 27 23 DroidParty Scene Template - droidparty_main.pd;
