#N canvas 0 22 435 234 10;
#X obj 12 22 r goo2_rcv;
#X obj 12 62 list prepend /edit;
#X obj 12 96 packOSC;
#X obj 12 190 udpsend;
#X msg 36 125 connect 127.0.0.1 8088;
#X msg 42 156 disconnect;
#X obj 95 88 list trim;
#X obj 209 39 hsl 128 15 0 127 0 0 empty empty empty -2 -8 0 10 -262144
-1 -1 0 1;
#X connect 0 0 1 0;
#X connect 1 0 6 0;
#X connect 2 0 3 0;
#X connect 4 0 3 0;
#X connect 5 0 3 0;
#X connect 6 0 2 0;
