#N canvas 500 71 405 253 10;
#X obj 126 185 print pdparty;
#X obj 231 27 tgl 15 0 empty empty print_all_messages 17 7 0 10 -262144
-1 -1 0 1;
#X obj 126 26 tgl 15 0 empty empty listen 17 7 0 10 -262144 -1 -1 0
1;
#X obj 126 156 route print;
#N canvas 0 23 417 316 oscreceive 0;
#X obj 110 133 oscparse;
#X obj 110 162 list trim;
#X obj 130 235 spigot;
#X obj 110 287 outlet;
#X obj 163 201 inlet;
#X obj 130 261 print OSC;
#X msg 110 71 listen 0;
#X obj 110 45 sel 0;
#X obj 110 106 netreceive -u -b;
#X obj 110 16 inlet;
#X msg 175 72 listen 8888;
#X connect 0 0 1 0;
#X connect 1 0 2 0;
#X connect 1 0 3 0;
#X connect 2 0 5 0;
#X connect 4 0 2 1;
#X connect 6 0 8 0;
#X connect 7 0 6 0;
#X connect 7 1 10 0;
#X connect 8 0 0 0;
#X connect 9 0 7 0;
#X connect 10 0 8 0;
#X coords 0 316 1 315 140 40 0;
#X restore 126 56 pd oscreceive 8888;
#X obj 184 124 s \$0-vsl-in;
#X obj 43 27 vsl 30 200 0 127 0 0 empty \$0-vsl-in empty 0 -9 0 10
-262144 -1 -1 0 1;
#X obj 126 94 route pdparty slider;
#X text 123 216 receieve OSC messages from flood.pd;
#X connect 1 0 4 1;
#X connect 2 0 4 0;
#X connect 3 0 0 0;
#X connect 4 0 7 0;
#X connect 7 0 3 0;
#X connect 7 1 5 0;
