#N canvas 182 109 774 354 10;
#X obj 13 323 s #touch;
#X obj 56 298 s #accelerate;
#X obj 320 144 print pdparty;
#X obj 188 216 s #locate;
#X text 137 46 receives PdParty events over OSC;
#X text 137 72 useful for patch development & debugging;
#X obj 232 191 s #heading;
#X obj 276 166 s #key;
#X obj 118 16 tgl 15 0 empty empty print_all_messages 17 7 0 10 -262144
-1 -1 0 1;
#X obj 13 15 tgl 15 0 empty empty listen 17 7 0 10 -262144 -1 -1 0
1;
#N canvas 0 23 417 316 oscreceive 0;
#X obj 110 133 oscparse;
#X obj 110 162 list trim;
#X obj 130 235 spigot;
#X obj 110 287 outlet;
#X obj 163 201 inlet;
#X obj 130 261 print OSC;
#X msg 110 71 listen 0;
#X obj 110 45 sel 0;
#X obj 110 106 netreceive -u -b;
#X obj 110 16 inlet;
#X msg 175 72 listen 8888;
#X connect 0 0 1 0;
#X connect 1 0 2 0;
#X connect 1 0 3 0;
#X connect 2 0 5 0;
#X connect 4 0 2 1;
#X connect 6 0 8 0;
#X connect 7 0 6 0;
#X connect 7 1 10 0;
#X connect 8 0 0 0;
#X connect 9 0 7 0;
#X connect 10 0 8 0;
#X coords 0 316 1 315 140 40 0;
#X restore 13 45 pd oscreceive 8888;
#X obj 13 78 route pdparty;
#X obj 13 110 route touch accelerate gyro magnet locate heading key
print;
#X obj 100 270 s #gyro;
#X obj 144 243 s #magnet;
#X msg 512 254 disconnect;
#X obj 435 22 key;
#X obj 435 48 spigot;
#X obj 468 23 tgl 15 0 empty empty send_keys 17 7 0 10 -262144 -1 -1
0 1;
#X msg 512 228 connect 127.0.0.1 8088;
#N canvas 0 23 356 247 oscsend 0;
#X obj 71 59 inlet;
#X obj 71 146 netsend -u -b;
#X obj 71 119 list trim;
#X obj 71 92 list prepend send;
#X obj 71 174 outlet;
#X obj 201 119 inlet;
#X connect 0 0 3 0;
#X connect 1 0 4 0;
#X connect 2 0 1 0;
#X connect 3 0 2 0;
#X connect 5 0 1 0;
#X restore 435 298 pd oscsend;
#X obj 435 324 tgl 15 0 empty empty connected 17 7 0 10 -262144 -1
-1 1 1;
#X obj 435 78 oscformat pdparty key;
#X symbolatom 512 179 20 0 0 0 - - -, f 20;
#X msg 512 203 connect \$1 8088;
#X obj 512 152 bng 15 250 50 0 empty empty empty 17 7 0 10 -262144
-1 -1;
#X text 533 153 type hostname/ip below and hit enter;
#X text 568 21 sends PdParty events over OSC;
#N canvas 0 22 315 201 messages 0;
#X obj 25 22 r #pdparty;
#X obj 25 48 list;
#X obj 144 22 r #rjdj;
#X obj 144 73 oscformat pdparty rjdj;
#X obj 144 49 list;
#X obj 25 72 oscformat pdparty;
#X obj 25 151 outlet;
#X connect 0 0 1 0;
#X connect 1 0 5 0;
#X connect 2 0 4 0;
#X connect 3 0 6 0;
#X connect 4 0 3 0;
#X connect 5 0 6 0;
#X restore 460 110 pd messages;
#X connect 8 0 10 1;
#X connect 9 0 10 0;
#X connect 10 0 11 0;
#X connect 11 0 12 0;
#X connect 12 0 0 0;
#X connect 12 1 1 0;
#X connect 12 2 13 0;
#X connect 12 3 14 0;
#X connect 12 4 3 0;
#X connect 12 5 6 0;
#X connect 12 6 7 0;
#X connect 12 7 2 0;
#X connect 15 0 20 1;
#X connect 16 0 17 0;
#X connect 17 0 22 0;
#X connect 18 0 17 1;
#X connect 19 0 20 1;
#X connect 20 0 21 0;
#X connect 22 0 20 0;
#X connect 23 0 24 0;
#X connect 24 0 20 1;
#X connect 25 0 23 0;
#X connect 28 0 20 0;
