#N canvas 731 242 595 378 10;
#X declare -lib mrpeach;
#X obj 163 342 import mrpeach;
#X obj 362 343 udpsend;
#X msg 419 312 disconnect;
#X obj 362 267 packOSC;
#X obj 16 165 unpackOSC;
#X obj 44 206 print;
#X obj 288 171 key;
#X obj 288 197 spigot;
#X obj 321 172 tgl 15 0 empty empty send_keys 17 7 0 10 -262144 -1
-1 0 1;
#X msg 420 224 /slider \$1;
#X obj 420 196 r \$0-vsl-out;
#X obj 400 27 vsl 15 128 0 127 0 0 \$0-vsl-out \$0-vsl-in sends_to_PdParty
0 -9 0 10 -262144 -1 -1 0 1;
#X obj 83 280 s \$0-bang-in;
#X obj 459 84 bng 15 250 50 0 \$0-bang-out \$0-bang-in recvs_from_PdParty
17 7 0 10 -262144 -1 -1;
#X obj 16 139 udpreceive 8888;
#X msg 288 226 /pd/key \$1;
#X obj 16 249 routeOSC /pdparty /bang;
#X obj 16 340 print pdparty;
#X msg 419 291 connect 127.0.0.1 8088;
#X obj 16 311 routeOSC /print;
#N canvas 969 317 189 290 autoconnect 0;
#X obj 22 17 inlet;
#X obj 49 234 outlet;
#X obj 22 49 route from;
#X obj 22 154 spigot;
#X obj 22 178 t b a;
#X msg 22 201 0;
#X msg 22 72 connect \$1.\$2.\$3.\$4 \$5;
#X msg 55 126 1;
#X obj 55 101 loadbang;
#X connect 0 0 2 0;
#X connect 2 0 6 0;
#X connect 3 0 4 0;
#X connect 4 0 5 0;
#X connect 4 1 1 0;
#X connect 5 0 3 1;
#X connect 6 0 3 0;
#X connect 7 0 3 1;
#X connect 8 0 7 0;
#X restore 268 300 pd autoconnect;
#X text 9 8 this patch is for testing basic OSC comm with the PdParty
OSC test scene in tests/pdparty/OSC;
#X text 9 52 enable OSC with send port 888 \, open the test in PdParty
on your device \, and hit the bang;
#X text 10 93 the bang receives from the test running on PdParty &
the slider sends from here to the slider on PdParty;
#X connect 2 0 1 0;
#X connect 3 0 1 0;
#X connect 4 0 16 0;
#X connect 4 0 5 0;
#X connect 6 0 7 0;
#X connect 7 0 15 0;
#X connect 8 0 7 1;
#X connect 9 0 3 0;
#X connect 10 0 9 0;
#X connect 14 0 4 0;
#X connect 14 1 20 0;
#X connect 15 0 3 0;
#X connect 16 0 19 0;
#X connect 16 1 12 0;
#X connect 18 0 1 0;
#X connect 19 0 17 0;
#X connect 20 0 1 0;
