#N canvas 0 22 430 253 10;
#X msg 37 150 connect 127.0.0.1 8088;
#X msg 43 181 disconnect;
#X obj 213 108 hsl 128 15 0 127 0 0 empty empty empty -2 -8 0 10 -262144
-1 -1 0 1;
#X obj 210 81 bng 15 250 50 0 empty empty empty 17 7 0 10 -262144 -1
-1;
#X obj 239 81 tgl 15 0 empty empty empty 17 7 0 10 -262144 -1 -1 0
1;
#X text 130 49 open gui help patches and use the edit subpatch;
#X obj 270 82 nbx 5 14 -1e+37 1e+37 0 0 empty empty empty 0 -8 0 10
-262144 -1 -1 0 256;
#X obj 211 138 hradio 15 1 0 8 empty empty empty 0 -8 0 10 -262144
-1 -1 0;
#X obj 226 170 cnv 15 100 60 empty empty empty 20 12 0 14 -233017 -66577
0;
#X obj 361 99 vu 15 120 empty empty -1 -8 0 10 -66577 -1 1 0;
#N canvas 178 108 265 220 receives 0;
#X obj 12 22 r goo2_rcv;
#X obj 12 125 list prepend /edit;
#X obj 12 154 list trim;
#X obj 12 182 outlet;
#X obj 91 22 r foo5_rcv;
#X text 24 2 slider;
#X text 112 2 bang;
#X obj 171 22 r foo10_rcv;
#X text 186 2 canvas;
#X text 175 47 numberbox2;
#X obj 170 67 r goo14_rcv;
#X obj 170 108 r foo7_rcv;
#X text 194 89 vu;
#X obj 162 145 r hradio_rcv;
#X obj 163 183 r foo6_rcv;
#X text 175 164 toggle;
#X connect 0 0 1 0;
#X connect 1 0 2 0;
#X connect 2 0 3 0;
#X connect 4 0 1 0;
#X connect 7 0 1 0;
#X connect 10 0 1 0;
#X connect 11 0 1 0;
#X connect 13 0 1 0;
#X connect 14 0 1 0;
#X restore 13 54 pd receives;
#X text 12 13 for use with the iem gui edit tests;
#X obj 13 215 mrpeach/udpsend;
#X obj 13 110 mrpeach/packOSC;
#X connect 0 0 12 0;
#X connect 1 0 12 0;
#X connect 10 0 13 0;
#X connect 13 0 12 0;
