#N canvas 542 222 396 371 10;
#X obj 51 117 print;
#X obj 51 91 spigot;
#X obj 84 67 tgl 15 0 empty empty empty 17 7 0 10 -262144 -1 -1 0 1
;
#X obj 13 332 s #touch;
#X obj 68 307 s #accelerate;
#X obj 290 208 print pdparty;
#X obj 124 280 s #locate;
#X text 129 71 receives PdParty events over OSC;
#X text 130 104 useful for patch development & debugging;
#X obj 179 255 s #heading;
#X obj 235 230 s #key;
#X obj 13 15 mrpeach/udpreceive 8888;
#X obj 13 142 mrpeach/routeOSC /pdparty;
#X obj 13 41 mrpeach/unpackOSC;
#X obj 13 174 routeOSC /touch /accelerate /locate /heading /key /print
;
#X connect 1 0 0 0;
#X connect 2 0 1 1;
#X connect 11 0 13 0;
#X connect 12 0 14 0;
#X connect 13 0 1 0;
#X connect 13 0 12 0;
#X connect 14 0 3 0;
#X connect 14 1 4 0;
#X connect 14 2 6 0;
#X connect 14 3 9 0;
#X connect 14 4 10 0;
#X connect 14 5 5 0;
