#N canvas 500 71 688 375 10;
#X msg 432 282 disconnect;
#X obj 296 251 r \$0-vsl-out;
#X obj 470 27 vsl 15 128 0 127 0 0 \$0-vsl-out \$0-vsl-in sends_to_PdParty
0 -9 0 10 -262144 -1 -1 0 1;
#X obj 68 279 s \$0-bang-in;
#X obj 529 84 bng 15 250 50 0 \$0-bang-out \$0-bang-in recvs_from_PdParty
17 7 0 10 -262144 -1 -1;
#X obj 16 340 print pdparty;
#X msg 432 261 connect 127.0.0.1 8088;
#X text 9 8 this patch is for testing basic OSC comm with the PdParty
OSC test scene in tests/pdparty/OSC;
#X text 10 93 the bang receives from the test running on PdParty &
the slider sends from here to the slider on PdParty;
#X obj 121 142 tgl 15 0 empty empty print_all_messages 17 7 0 10 -262144
-1 -1 0 1;
#X obj 16 141 tgl 15 0 empty empty listen 17 7 0 10 -262144 -1 -1 0
1;
#X obj 16 249 route pdparty bang;
#X obj 16 311 route print;
#X obj 296 275 oscformat slider;
#N canvas 0 23 356 247 oscsend 0;
#X obj 71 59 inlet;
#X obj 71 146 netsend -u -b;
#X obj 71 119 list trim;
#X obj 71 92 list prepend send;
#X obj 71 174 outlet;
#X obj 201 119 inlet;
#X connect 0 0 3 0;
#X connect 1 0 4 0;
#X connect 2 0 1 0;
#X connect 3 0 2 0;
#X connect 5 0 1 0;
#X restore 288 316 pd oscsend;
#X obj 288 342 tgl 15 0 empty empty connected 17 7 0 10 -262144 -1
-1 0 1;
#N canvas 0 23 417 316 oscreceive 0;
#X obj 110 133 oscparse;
#X obj 110 162 list trim;
#X obj 130 235 spigot;
#X obj 110 287 outlet;
#X obj 163 201 inlet;
#X obj 130 261 print OSC;
#X msg 110 71 listen 0;
#X obj 110 45 sel 0;
#X obj 110 106 netreceive -u -b;
#X obj 110 16 inlet;
#X msg 175 72 listen 8888;
#X connect 0 0 1 0;
#X connect 1 0 2 0;
#X connect 1 0 3 0;
#X connect 2 0 5 0;
#X connect 4 0 2 1;
#X connect 6 0 8 0;
#X connect 7 0 6 0;
#X connect 7 1 10 0;
#X connect 8 0 0 0;
#X connect 9 0 7 0;
#X connect 10 0 8 0;
#X coords 0 316 1 315 140 40 0;
#X restore 16 171 pd oscreceive 8888;
#X symbolatom 432 212 20 0 0 0 - - -;
#X msg 432 236 connect \$1 8088;
#X obj 432 185 bng 15 250 50 0 empty empty empty 17 7 0 10 -262144
-1 -1;
#X text 453 186 type hostname/ip below and hit enter;
#X text 9 52 enable OSC with send port 8888 \, open the test in PdParty
on your device \, and hit the bang;
#X obj 288 186 tgl 15 0 empty empty send_keys 17 7 0 10 -262144 -1
-1 0 1;
#N canvas 91 27 335 186 key 0;
#X obj 50 19 inlet;
#X obj 17 19 key;
#X obj 17 65 spigot;
#X obj 17 95 oscformat pdparty key;
#X obj 170 66 spigot;
#X obj 170 20 keyup;
#X obj 170 96 oscformat pdparty keyup;
#X obj 17 147 outlet;
#X connect 0 0 2 1;
#X connect 0 0 4 1;
#X connect 1 0 2 0;
#X connect 2 0 3 0;
#X connect 3 0 7 0;
#X connect 4 0 6 0;
#X connect 5 0 4 0;
#X connect 6 0 7 0;
#X restore 288 214 pd key messages;
#X connect 0 0 14 1;
#X connect 1 0 13 0;
#X connect 6 0 14 1;
#X connect 9 0 16 1;
#X connect 10 0 16 0;
#X connect 11 0 12 0;
#X connect 11 1 3 0;
#X connect 12 0 5 0;
#X connect 13 0 14 0;
#X connect 14 0 15 0;
#X connect 16 0 11 0;
#X connect 17 0 18 0;
#X connect 18 0 14 1;
#X connect 19 0 17 0;
#X connect 22 0 23 0;
#X connect 23 0 14 0;
