#N canvas 0 22 395 353 10;
#X msg 94 251 disconnect;
#X obj 17 19 key;
#X obj 17 45 spigot;
#X obj 50 20 tgl 15 0 empty empty send_keys 17 7 0 10 -262144 -1 -1
0 1;
#X msg 94 225 connect 127.0.0.1 8088;
#N canvas 0 23 356 247 oscsend 0;
#X obj 71 59 inlet;
#X obj 71 146 netsend -u -b;
#X obj 71 119 list trim;
#X obj 71 92 list prepend send;
#X obj 71 174 outlet;
#X obj 201 119 inlet;
#X connect 0 0 3 0;
#X connect 1 0 4 0;
#X connect 2 0 1 0;
#X connect 3 0 2 0;
#X connect 5 0 1 0;
#X restore 17 295 pd oscsend;
#X obj 17 321 tgl 15 0 empty empty connected 17 7 0 10 -262144 -1 -1
0 1;
#X obj 17 75 oscformat pdparty key;
#X symbolatom 94 176 20 0 0 0 - - -, f 20;
#X msg 94 200 connect \$1 8088;
#X obj 94 149 bng 15 250 50 0 empty empty empty 17 7 0 10 -262144 -1
-1;
#X text 115 150 type hostname/ip below and hit enter;
#X text 114 47 sends PdParty events over OSC;
#N canvas 0 22 315 201 messages 0;
#X obj 25 22 r #pdparty;
#X obj 25 48 list;
#X obj 144 22 r #rjdj;
#X obj 144 73 oscformat pdparty rjdj;
#X obj 144 49 list;
#X obj 25 72 oscformat pdparty;
#X obj 25 151 outlet;
#X connect 0 0 1 0;
#X connect 1 0 5 0;
#X connect 2 0 4 0;
#X connect 3 0 6 0;
#X connect 4 0 3 0;
#X connect 5 0 6 0;
#X restore 42 107 pd messages;
#X text 121 107 <- control messages are currently disabled;
#X text 139 121 this may change in the future;
#X connect 0 0 5 1;
#X connect 1 0 2 0;
#X connect 2 0 7 0;
#X connect 3 0 2 1;
#X connect 4 0 5 1;
#X connect 5 0 6 0;
#X connect 7 0 5 0;
#X connect 8 0 9 0;
#X connect 9 0 5 1;
#X connect 10 0 8 0;
#X connect 13 0 5 0;
