#N canvas 0 23 569 253 10;
#X msg 78 159 connect 127.0.0.1 8088;
#X msg 83 184 disconnect;
#X obj 342 104 hsl 128 15 0 127 0 0 empty empty empty -2 -8 0 10 -262144
-1 -1 0 1;
#X obj 339 77 bng 15 250 50 0 empty empty empty 17 7 0 10 -262144 -1
-1;
#X obj 368 77 tgl 15 0 empty empty empty 17 7 0 10 -262144 -1 -1 0
1;
#X text 265 37 open gui help patches and use the edit subpatch;
#X obj 399 78 nbx 5 14 -1e+37 1e+37 0 0 empty empty empty 0 -8 0 10
-262144 -1 -1 0 256;
#X obj 340 134 hradio 15 1 0 8 empty empty empty 0 -8 0 10 -262144
-1 -1 0;
#X obj 355 166 cnv 15 100 60 empty empty empty 20 12 0 14 -233017 -66577
0;
#X obj 490 95 vu 15 120 empty empty -1 -8 0 10 -66577 -1 1 0;
#N canvas 178 108 267 251 receives 0;
#X obj 12 22 r goo2_rcv;
#X obj 12 214 outlet;
#X obj 91 22 r foo5_rcv;
#X text 24 2 slider;
#X text 112 2 bang;
#X obj 171 22 r foo10_rcv;
#X text 186 2 canvas;
#X text 175 47 numberbox2;
#X obj 170 108 r foo7_rcv;
#X text 194 89 vu;
#X obj 162 145 r hradio_rcv;
#X obj 163 183 r foo6_rcv;
#X text 175 164 toggle;
#X obj 170 67 r goo4_rcv;
#X obj 12 155 list;
#X obj 12 183 oscformat edit;
#X connect 0 0 14 0;
#X connect 2 0 14 0;
#X connect 5 0 14 0;
#X connect 8 0 14 0;
#X connect 10 0 14 0;
#X connect 11 0 14 0;
#X connect 13 0 14 0;
#X connect 14 0 15 0;
#X connect 15 0 1 0;
#X restore 13 54 pd receives;
#X text 12 13 for use with the iem gui edit tests;
#N canvas 0 23 356 247 oscsend 0;
#X obj 71 59 inlet;
#X obj 71 146 netsend -u -b;
#X obj 71 119 list trim;
#X obj 71 92 list prepend send;
#X obj 71 174 outlet;
#X obj 201 119 inlet;
#X connect 0 0 3 0;
#X connect 1 0 4 0;
#X connect 2 0 1 0;
#X connect 3 0 2 0;
#X connect 5 0 1 0;
#X restore 13 213 pd oscsend;
#X symbolatom 70 109 20 0 0 0 - - -, f 20;
#X msg 70 133 connect \$1 8088;
#X obj 70 82 bng 15 250 50 0 empty empty empty 17 7 0 10 -262144 -1
-1;
#X text 88 82 type hostname/ip below and hit enter;
#X connect 0 0 12 1;
#X connect 1 0 12 1;
#X connect 10 0 12 0;
#X connect 13 0 14 0;
#X connect 14 0 12 1;
#X connect 15 0 13 0;
