#N canvas 542 222 394 340 10;
#X declare -lib mrpeach;
#X obj 13 41 unpackOSC;
#X obj 58 97 print;
#X obj 58 71 spigot;
#X obj 91 47 tgl 15 0 empty empty empty 17 7 0 10 -262144 -1 -1 0 1
;
#X obj 13 315 s #touch;
#X obj 68 290 s #accelerate;
#X obj 13 15 udpreceive 8888;
#X obj 290 187 print pdparty;
#X obj 124 263 s #locate;
#X obj 13 125 routeOSC /pdparty;
#X obj 13 157 routeOSC /touch /accelerate /locate /heading /key /print
;
#X text 124 45 receives PdParty events over OSC;
#X text 125 78 useful for patch development & debugging;
#X obj 289 15 import mrpeach;
#X obj 179 238 s #heading;
#X obj 235 215 s #key;
#X connect 0 0 2 0;
#X connect 0 0 9 0;
#X connect 2 0 1 0;
#X connect 3 0 2 1;
#X connect 6 0 0 0;
#X connect 9 0 10 0;
#X connect 10 0 4 0;
#X connect 10 1 5 0;
#X connect 10 2 8 0;
#X connect 10 3 14 0;
#X connect 10 4 15 0;
#X connect 10 5 7 0;
