#N canvas 125 412 620 266 10;
#X msg 78 159 connect 127.0.0.1 8088;
#X msg 83 184 disconnect;
#X obj 342 94 hsl 128 15 0 127 0 0 empty empty empty -2 -8 0 10 #fcfcfc
#000000 #000000 0 1;
#X obj 339 67 bng 15 250 50 0 empty empty empty 17 7 0 10 #fcfcfc #000000
#000000;
#X obj 368 67 tgl 15 0 empty empty empty 17 7 0 10 #fcfcfc #000000
#000000 0 1;
#X text 265 37 open gui help patches and use the edit subpatch;
#X obj 399 68 nbx 5 14 -1e+37 1e+37 0 0 empty empty empty 0 -8 0 10
#fcfcfc #000000 #000000 0 256;
#X obj 340 124 hradio 15 1 0 8 empty empty empty 0 -8 0 10 #fcfcfc
#000000 #000000 0;
#X obj 355 156 cnv 15 100 60 empty empty empty 20 12 0 14 #e0e0e0 #404040
0;
#X obj 490 85 vu 15 120 empty empty -1 -8 0 10 #404040 #000000 1 0
;
#N canvas 178 108 267 251 receives 0;
#X obj 12 22 r goo2_rcv;
#X obj 12 214 outlet;
#X obj 91 22 r foo5_rcv;
#X text 24 2 slider;
#X text 112 2 bang;
#X obj 171 22 r foo10_rcv;
#X text 186 2 canvas;
#X text 175 47 numberbox2;
#X obj 170 108 r foo7_rcv;
#X text 194 89 vu;
#X obj 162 145 r hradio_rcv;
#X obj 163 183 r foo6_rcv;
#X text 175 164 toggle;
#X obj 170 67 r goo4_rcv;
#X obj 12 155 list;
#X obj 12 183 oscformat edit;
#X obj 162 213 r knob_rcv;
#X connect 0 0 14 0;
#X connect 2 0 14 0;
#X connect 5 0 14 0;
#X connect 8 0 14 0;
#X connect 10 0 14 0;
#X connect 11 0 14 0;
#X connect 13 0 14 0;
#X connect 14 0 15 0;
#X connect 15 0 1 0;
#X connect 16 0 14 0;
#X restore 13 54 pd receives;
#N canvas 0 23 356 247 oscsend 0;
#X obj 71 59 inlet;
#X obj 71 146 netsend -u -b;
#X obj 71 119 list trim;
#X obj 71 92 list prepend send;
#X obj 71 174 outlet;
#X obj 201 119 inlet;
#X connect 0 0 3 0;
#X connect 1 0 4 0;
#X connect 2 0 1 0;
#X connect 3 0 2 0;
#X connect 5 0 1 0;
#X restore 13 213 pd oscsend;
#X symbolatom 70 109 20 0 0 0 - - - 0;
#X msg 70 133 connect \$1 8088;
#X obj 70 82 bng 15 250 50 0 empty empty empty 17 7 0 10 #fcfcfc #000000
#000000;
#X text 88 82 type hostname/ip below and hit enter;
#N canvas 414 233 674 536 knob 0;
#X obj 32 220 f;
#X msg 10 199 bang;
#X floatatom 48 198 3 63 88 0 - - - 0;
#X floatatom 83 220 3 0 37 0 - - - 0;
#X obj 32 243 pack 0 0;
#X text 110 220 y-label;
#X text 76 198 x-label;
#X obj 279 246 f;
#X msg 257 225 bang;
#X floatatom 295 224 3 -10 10 0 - - - 0;
#X floatatom 330 246 3 -10 10 0 - - - 0;
#X obj 279 269 pack 0 0;
#X obj 292 358 f;
#X msg 270 337 bang;
#X floatatom 308 336 3 20 60 0 - - - 0;
#X floatatom 343 358 3 150 200 0 - - - 0;
#X obj 292 381 pack 0 0;
#X text 323 224 x-delta;
#X text 357 246 y-delta;
#X text 336 336 x-position;
#X text 370 358 y-position;
#X obj 52 335 f;
#X msg 30 314 bang;
#X floatatom 68 313 3 0 2 0 - - - 0;
#X floatatom 103 335 3 4 36 0 - - - 0;
#X obj 52 358 pack 0 0;
#X text 96 313 font;
#X text 132 335 height;
#X floatatom 476 188 1 0 1 0 - - - 0;
#X text 523 401 no init;
#X text 493 453 init value on loadbang;
#X text 520 188 steady;
#X obj 486 291 f;
#X msg 464 270 bang;
#X floatatom 502 269 3 55 440 0 - - - 0;
#X floatatom 537 291 6 440 3520 0 - - - 0;
#X obj 486 314 pack 0 0;
#X text 530 269 left-range-bound;
#X text 586 291 right-range-bound;
#X text 269 448 linear / logarithmical;
#X obj 275 133 f;
#X msg 250 112 bang;
#X floatatom 291 111 3 15 73 0 - - - 0;
#X floatatom 326 133 3 8 50 0 - - - 0;
#X obj 275 156 pack 0 0;
#X obj 47 100 pack 0 0 0;
#X obj 47 72 f;
#X msg 24 24 bang;
#X floatatom 63 22 3 0 29 0 - - - 0;
#X floatatom 79 42 3 0 29 0 - - - 0;
#X floatatom 112 58 3 0 29 0 - - - 0;
#X text 91 22 background;
#X text 106 42 front-color;
#X text 140 59 label-color;
#X msg 277 22 back;
#X msg 277 42 front;
#X msg 277 62 label;
#X msg 239 22 bang;
#N canvas 15 207 606 448 RGB_____________ 0;
#X obj 97 56 inlet;
#X obj 262 53 inlet;
#X obj 339 55 inlet;
#X obj 405 56 inlet;
#X obj 97 270 bang;
#X msg 77 295 0;
#X msg 104 295 1;
#X obj 146 268 bang;
#X msg 132 295 0;
#X msg 160 295 1;
#X obj 196 269 bang;
#X msg 187 295 0;
#X msg 214 295 1;
#X obj 265 313 spigot;
#X obj 312 313 spigot;
#X obj 359 313 spigot;
#X obj 249 385 outlet;
#X text 93 33 select;
#X text 267 28 red;
#X text 337 30 green;
#X text 409 30 blue;
#X obj 405 102 t b f;
#X obj 339 160 +;
#X obj 339 185 t b f;
#X obj 339 216 +;
#X obj 296 385 outlet;
#X obj 343 385 outlet;
#X obj 28 180 loadbang;
#X obj 97 135 route back front label bang;
#X obj 343 362 f;
#X obj 296 361 f;
#X obj 249 361 f;
#X obj 262 79 * -65536;
#X obj 339 80 * -256;
#X obj 405 80 * -1;
#X obj 339 247 - 1;
#X obj 235 168 t b b b b;
#X connect 0 0 28 0;
#X connect 1 0 32 0;
#X connect 2 0 33 0;
#X connect 3 0 34 0;
#X connect 4 0 5 0;
#X connect 4 0 6 0;
#X connect 5 0 14 1;
#X connect 5 0 15 1;
#X connect 6 0 13 1;
#X connect 7 0 8 0;
#X connect 7 0 9 0;
#X connect 8 0 13 1;
#X connect 8 0 15 1;
#X connect 9 0 14 1;
#X connect 10 0 11 0;
#X connect 10 0 12 0;
#X connect 11 0 13 1;
#X connect 11 0 14 1;
#X connect 12 0 15 1;
#X connect 13 0 31 1;
#X connect 14 0 30 1;
#X connect 15 0 29 1;
#X connect 21 0 22 0;
#X connect 21 1 22 1;
#X connect 22 0 23 0;
#X connect 23 0 24 0;
#X connect 23 1 24 1;
#X connect 24 0 35 0;
#X connect 27 0 6 0;
#X connect 28 0 4 0;
#X connect 28 1 7 0;
#X connect 28 2 10 0;
#X connect 28 3 36 0;
#X connect 29 0 26 0;
#X connect 30 0 25 0;
#X connect 31 0 16 0;
#X connect 32 0 24 0;
#X connect 33 0 22 0;
#X connect 34 0 21 0;
#X connect 35 0 15 0;
#X connect 35 0 14 0;
#X connect 35 0 13 0;
#X connect 36 0 31 0;
#X connect 36 1 30 0;
#X connect 36 2 29 0;
#X connect 36 3 35 0;
#X restore 277 82 pd RGB_____________;
#X floatatom 319 52 3 0 255 0 - - - 0;
#X floatatom 362 52 3 0 255 0 - - - 0;
#X floatatom 405 53 3 0 255 0 - - - 0;
#X text 34 -1 preset-colors;
#X text 290 1 RGB-colors;
#X text 319 34 red;
#X text 355 33 green;
#X text 403 33 blue;
#X msg 47 154 \; knob_rcv color \$1 \$2 \$3;
#X msg 32 268 \; knob_rcv label_pos \$1 \$2;
#X msg 52 383 \; knob_rcv label_font \$1 \$2;
#X msg 34 427 \; knob_rcv label blabla;
#X msg 34 463 \; knob_rcv label log.freq.;
#X msg 279 294 \; knob_rcv delta \$1 \$2;
#X msg 275 181 \; knob_rcv size \$1 \$2;
#X text 319 111 size;
#X text 357 133 mouse;
#X msg 292 406 \; knob_rcv pos \$1 \$2;
#X msg 269 466 \; knob_rcv lin;
#X msg 363 465 \; knob_rcv log;
#X msg 502 420 \; knob_rcv init 0;
#X msg 503 471 \; knob_rcv init 1;
#X msg 486 339 \; knob_rcv range \$1 \$2;
#X msg 476 212 \; knob_rcv steady \$1;
#X msg 476 105 \; knob_rcv receive knoba_rcv;
#X msg 476 143 \; knoba_rcv receive kob_rcv;
#X msg 475 21 \; knob_rcv send knoba_snd;
#X msg 475 59 \; knoba_rcv send knob_snd;
#X connect 0 0 4 0;
#X connect 1 0 0 0;
#X connect 2 0 0 1;
#X connect 3 0 4 1;
#X connect 4 0 68 0;
#X connect 7 0 11 0;
#X connect 8 0 7 0;
#X connect 9 0 7 1;
#X connect 10 0 11 1;
#X connect 11 0 72 0;
#X connect 12 0 16 0;
#X connect 13 0 12 0;
#X connect 14 0 12 1;
#X connect 15 0 16 1;
#X connect 16 0 76 0;
#X connect 21 0 25 0;
#X connect 22 0 21 0;
#X connect 23 0 21 1;
#X connect 24 0 25 1;
#X connect 25 0 69 0;
#X connect 28 0 82 0;
#X connect 32 0 36 0;
#X connect 33 0 32 0;
#X connect 34 0 32 1;
#X connect 35 0 36 1;
#X connect 36 0 81 0;
#X connect 40 0 44 0;
#X connect 41 0 40 0;
#X connect 42 0 40 1;
#X connect 43 0 44 1;
#X connect 44 0 73 0;
#X connect 45 0 67 0;
#X connect 46 0 45 0;
#X connect 47 0 46 0;
#X connect 48 0 46 1;
#X connect 49 0 45 1;
#X connect 50 0 45 2;
#X connect 54 0 58 0;
#X connect 55 0 58 0;
#X connect 56 0 58 0;
#X connect 57 0 58 0;
#X connect 58 0 45 0;
#X connect 58 1 45 1;
#X connect 58 2 45 2;
#X connect 59 0 58 1;
#X connect 60 0 58 2;
#X connect 61 0 58 3;
#X restore 488 221 pd knob;
#X text 12 13 for use with the iem gui edit tests scenes in tests/gui
;
#X connect 0 0 11 1;
#X connect 1 0 11 1;
#X connect 10 0 11 0;
#X connect 12 0 13 0;
#X connect 13 0 11 1;
#X connect 14 0 12 0;
