#N canvas 542 222 658 390 10;
#X declare -lib mrpeach;
#X obj 170 15 import mrpeach;
#X obj 313 208 udpsend;
#X msg 364 177 disconnect;
#X obj 313 132 packOSC;
#X obj 13 41 unpackOSC;
#X obj 58 94 print;
#X obj 58 66 spigot;
#X obj 91 42 tgl 15 0 empty empty empty 17 7 0 10 -262144 -1 -1 1 1
;
#X obj 13 362 s #touch;
#X obj 68 337 s #accelerate;
#X obj 313 27 key;
#X obj 313 53 spigot;
#X obj 346 28 tgl 15 0 empty empty empty 17 7 0 10 -262144 -1 -1 0
1;
#X msg 434 101 /slider \$1;
#X obj 434 73 r \$0-vsl-out;
#X obj 528 82 vsl 15 128 0 127 0 0 \$0-vsl-out \$0-vsl-in sends_to_PdParty
0 -9 0 10 -262144 -1 -1 0 1;
#X obj 80 156 s \$0-bang-in;
#X obj 528 37 bng 15 250 50 0 \$0-bang-out \$0-bang-in recvs_from_PdParty
17 7 0 10 -262144 -1 -1;
#X obj 13 15 udpreceive 8888;
#X msg 313 101 /pd/key \$1;
#X obj 13 125 routeOSC /pdparty /bang;
#X obj 236 259 print pdparty;
#X obj 123 43 route from;
#X obj 268 152 spigot;
#X obj 268 176 t b a;
#X msg 268 199 0;
#X msg 364 156 connect 127.0.0.1 8088;
#X msg 123 66 connect \$1.\$2.\$3.\$4 \$5;
#X msg 252 120 1;
#X obj 252 95 loadbang;
#X obj 13 227 routeOSC /touch /accelerate /locate /key /print;
#X obj 124 310 s #locate;
#X obj 180 285 s #key;
#X connect 2 0 1 0;
#X connect 3 0 1 0;
#X connect 4 0 6 0;
#X connect 4 0 20 0;
#X connect 6 0 5 0;
#X connect 7 0 6 1;
#X connect 10 0 11 0;
#X connect 11 0 19 0;
#X connect 12 0 11 1;
#X connect 13 0 3 0;
#X connect 14 0 13 0;
#X connect 18 0 4 0;
#X connect 18 1 22 0;
#X connect 19 0 3 0;
#X connect 20 0 30 0;
#X connect 20 1 16 0;
#X connect 22 0 27 0;
#X connect 23 0 24 0;
#X connect 24 0 25 0;
#X connect 24 1 1 0;
#X connect 25 0 23 1;
#X connect 26 0 1 0;
#X connect 27 0 23 0;
#X connect 28 0 23 1;
#X connect 29 0 28 0;
#X connect 30 0 8 0;
#X connect 30 1 9 0;
#X connect 30 2 31 0;
#X connect 30 3 32 0;
#X connect 30 4 21 0;
