#N canvas 1040 350 304 456 10;
#X obj 18 18 inlet;
#X obj 18 88 s #pdparty;
#X text 112 52 request 1 timestamp;
#X obj 18 123 r #time;
#X obj 18 161 unpack f f f f f f f f f f;
#X obj 18 424 outlet year;
#X obj 35 398 outlet month;
#X obj 52 373 outlet day of the month;
#X obj 69 347 outlet day of the week;
#X obj 86 319 outlet day of the year;
#X obj 103 293 outlet time zone;
#X obj 120 267 outlet hour;
#X obj 137 242 outlet minute;
#X obj 154 216 outlet second;
#X obj 171 191 outlet millisecond;
#X msg 18 53 time;
#X connect 0 0 15 0;
#X connect 3 0 4 0;
#X connect 4 0 5 0;
#X connect 4 1 6 0;
#X connect 4 2 7 0;
#X connect 4 3 8 0;
#X connect 4 4 9 0;
#X connect 4 5 10 0;
#X connect 4 6 11 0;
#X connect 4 7 12 0;
#X connect 4 8 13 0;
#X connect 4 9 14 0;
#X connect 15 0 1 0;
