#N canvas 0 0 1030 491 10;
#X obj 119 373 outlet;
#X obj 330 41 inlet;
#X obj 255 41 inlet;
#X obj 119 41 inlet;
#X obj 119 105 random 65536;
#X obj 119 291 * 1;
#X obj 119 138 / 65536;
#X obj 343 74 loadbang;
#X obj 255 140 t a a;
#X obj 330 140 t b a;
#X obj 296 264 -;
#X obj 314 239 swap;
#X obj 119 324 +;
#X obj 407 208 f 1;
#X obj 314 209 f 0;
#N canvas 0 0 369 317 default 0;
#X obj 72 104 select 0;
#X obj 72 80 f \$1;
#X obj 72 152 outlet;
#X obj 145 105 select 0;
#X obj 145 153 outlet;
#X obj 145 81 f \$2;
#X obj 72 57 t b b;
#X obj 72 33 inlet;
#X msg 72 129 bang;
#X msg 145 130 bang;
#X connect 0 0 8 0;
#X connect 0 1 2 0;
#X connect 1 0 0 0;
#X connect 3 0 9 0;
#X connect 3 1 4 0;
#X connect 5 0 3 0;
#X connect 6 0 1 0;
#X connect 6 1 5 0;
#X connect 7 0 6 0;
#X connect 8 0 2 0;
#X connect 9 0 4 0;
#X restore 343 102 pd default;
#X connect 1 0 9 0;
#X connect 2 0 8 0;
#X connect 3 0 4 0;
#X connect 4 0 6 0;
#X connect 5 0 12 0;
#X connect 6 0 5 0;
#X connect 7 0 15 0;
#X connect 8 0 12 1;
#X connect 8 1 14 0;
#X connect 9 0 14 0;
#X connect 9 1 13 0;
#X connect 10 0 5 1;
#X connect 11 0 10 0;
#X connect 11 1 10 1;
#X connect 12 0 0 0;
#X connect 13 0 11 1;
#X connect 14 0 11 0;
#X connect 15 0 8 0;
#X connect 15 1 9 0;
