#N canvas 403 285 640 344 10;
#X obj 112 202 outlet~;
#X obj 112 166 r~ \$1;
#X obj 112 60 inlet;
#X obj 112 111 list;
#X msg 112 133 set \$1;
#X obj 112 85 route set;
#X connect 1 0 0 0;
#X connect 2 0 5 0;
#X connect 3 0 4 0;
#X connect 4 0 1 0;
#X connect 5 0 3 0;
#X connect 5 1 3 0;
