#N canvas 142 128 707 357 10;
#N canvas 0 0 450 300 xf 0;
#X obj 76 87 inlet~;
#X obj 142 87 inlet~;
#X obj 77 198 outlet~;
#X obj 141 136 -~;
#X obj 141 156 *~;
#X obj 201 127 inlet~;
#X connect 0 0 3 1;
#X connect 0 0 2 0;
#X connect 1 0 3 0;
#X connect 3 0 4 0;
#X connect 4 0 2 0;
#X connect 5 0 4 1;
#X restore 180 216 pd xf;
#N canvas 0 0 450 300 xf 0;
#X obj 76 87 inlet~;
#X obj 142 87 inlet~;
#X obj 77 198 outlet~;
#X obj 141 136 -~;
#X obj 141 156 *~;
#X obj 201 127 inlet~;
#X connect 0 0 3 1;
#X connect 0 0 2 0;
#X connect 1 0 3 0;
#X connect 3 0 4 0;
#X connect 4 0 2 0;
#X connect 5 0 4 1;
#X restore 181 249 pd xf;
#X obj 213 126 min~ 0.33333;
#X obj 213 148 *~ 3;
#X obj 371 112 -~ 0.33333;
#X obj 371 136 *~ 3;
#X obj 535 135 *~ 3;
#X obj 371 89 clip~ 0.3333 0.66666;
#X obj 534 87 max~ 0.666666;
#X obj 534 111 -~ 0.666666;
#N canvas 0 0 450 300 xf 0;
#X obj 76 87 inlet~;
#X obj 142 87 inlet~;
#X obj 77 198 outlet~;
#X obj 141 136 -~;
#X obj 141 156 *~;
#X obj 201 127 inlet~;
#X connect 0 0 3 1;
#X connect 0 0 2 0;
#X connect 1 0 3 0;
#X connect 3 0 4 0;
#X connect 4 0 2 0;
#X connect 5 0 4 1;
#X restore 182 273 pd xf;
#X text 347 303 3 way wrapped xfader \, ajf 2009;
#X obj 69 36 inlet~;
#X obj 131 37 inlet~;
#X obj 195 37 inlet~;
#X obj 371 29 inlet~;
#X obj 182 301 outlet~;
#X obj 370 51 wrap~;
#X connect 0 0 1 0;
#X connect 1 0 10 0;
#X connect 2 0 3 0;
#X connect 3 0 0 2;
#X connect 4 0 5 0;
#X connect 5 0 1 2;
#X connect 6 0 10 2;
#X connect 7 0 4 0;
#X connect 8 0 9 0;
#X connect 9 0 6 0;
#X connect 10 0 16 0;
#X connect 12 0 0 0;
#X connect 12 0 10 1;
#X connect 13 0 0 1;
#X connect 14 0 1 1;
#X connect 15 0 17 0;
#X connect 17 0 2 0;
#X connect 17 0 7 0;
#X connect 17 0 8 0;
