#N canvas 327 150 573 486 10;
#X obj 104 376 outlet;
#X obj 104 33 inlet;
#X obj 178 32 inlet;
#X obj 104 180 t a b;
#X obj 104 345 spigot;
#X obj 143 218 random 10000;
#X obj 245 196 * 100;
#X obj 260 132 loadbang;
#X obj 245 161 f \$1;
#N canvas 228 198 627 317 LICENSE-BSD 0;
#X text 121 56 This software is copyrighted by Miller Puckette \, Reality
Jockey Ltd. and others. The terms (the "Standard Improved BSD License")
apply to all files associated with the software unless explicitly disclaimed
in individual files.;
#X text 123 148 See the file LICENSE.txt for the full license text.
;
#X restore 319 30 pd LICENSE-BSD;
#X obj 143 321 <;
#X obj 178 71 list trim;
#X obj 178 93 route seed;
#X msg 178 117 seed \$1;
#X connect 1 0 3 0;
#X connect 2 0 11 0;
#X connect 3 0 4 0;
#X connect 3 1 5 0;
#X connect 4 0 0 0;
#X connect 5 0 10 0;
#X connect 6 0 10 1;
#X connect 7 0 8 0;
#X connect 8 0 6 0;
#X connect 10 0 4 1;
#X connect 11 0 12 0;
#X connect 12 0 13 0;
#X connect 12 1 8 0;
#X connect 13 0 5 0;
