#N canvas 148 65 943 552 10;
#X obj 550 150 noise~;
#X msg 625 121 ONE;
#X msg 660 122 TWO;
#X msg 681 149 set ONE;
#X text 480 92 Sending to busses;
#X text 483 28 First create busses. Bus names are globally visible.
;
#X text 711 118 renaming bus target;
#N canvas 282 261 702 587 REFERENCE 0;
#X text 114 140 Summary: send to a named audio bus (mono);
#X text 114 121 Name: c_tobus;
#X text 115 178 Argument 0: name of bus to send audio to.;
#X text 114 194 Inlet 0: audio signal to send;
#X text 114 209 Inlet 1: set <name>: rename target bus to <name>. <name>:
rename target bus to <name> when <name> is not equal to "set";
#X text 112 264 Description: [c_tobus] is meant to be used together
with the [c_bus] object to send audio to a bus. Please see the [c_bus]
help file for details.;
#X coords 0 -1 1 1 450 450 1 100 100;
#X restore 18 39 pd REFERENCE;
#X text 18 16 c_tobus - send to a named audio bus;
#X obj 566 65 c_bus \$0-MYBUS;
#X obj 551 182 c_tobus \$0-MYBUS;
#X obj 489 463 c_bus \$0-xxx;
#X obj 589 463 c_tobus \$0-xxx;
#X obj 701 463 c_frombus \$0-xxx;
#X text 488 440 Also see:;
#X connect 0 0 10 0;
#X connect 1 0 10 1;
#X connect 2 0 10 1;
#X connect 3 0 10 1;
