#N canvas 424 475 475 359 10;
#X obj 105 65 env~;
#X obj 105 175 / 10000;
#X obj 105 195 swap 1;
#X obj 105 218 -;
#X obj 85 294 *~;
#X obj 105 240 * 9;
#X obj 105 261 lop~ 10;
#X obj 84 35 inlet~;
#X obj 85 318 outlet~;
#X text 179 127 feedforward AGC (ajf);
#X text 171 8 Soft Leveller;
#X obj 228 84 rmstodb;
#X obj 228 104 dbtopow;
#X obj 105 111 t a a;
#X obj 105 136 *;
#X obj 105 88 max;
#X text 163 89 was:;
#X connect 0 0 15 0;
#X connect 1 0 2 0;
#X connect 2 0 3 0;
#X connect 2 1 3 1;
#X connect 3 0 5 0;
#X connect 4 0 8 0;
#X connect 5 0 6 0;
#X connect 6 0 4 1;
#X connect 7 0 0 0;
#X connect 7 0 4 0;
#X connect 11 0 12 0;
#X connect 13 0 14 0;
#X connect 13 1 14 1;
#X connect 14 0 1 0;
#X connect 15 0 13 0;
