#N canvas 513 326 767 536 10;
#X obj 193 76 inlet~;
#X obj 195 491 outlet~;
#X obj 253 360 phasor~;
#X obj 194 389 samphold~;
#X obj 253 107 samplerate~;
#X obj 253 74 loadbang;
#X floatatom 305 452 10 0 0 0 - - -;
#X msg 325 73 bang;
#X obj 411 70 inlet;
#X obj 267 291 t b a;
#X obj 253 327 / 1;
#X obj 279 184 loadbang;
#X msg 267 259 1;
#X obj 267 236 moses 1;
#X obj 267 209 f \$2;
#X obj 267 164 r \$0-alias;
#X obj 294 326 r \$0-freq;
#X obj 195 461 c_xfade;
#X msg 241 439 \$1 10;
#X obj 241 418 r \$0-dry;
#X obj 411 98 u_dispatch \$0 alias;
#X obj 411 119 u_dispatch \$0 freq;
#X obj 411 142 u_dispatch \$0 dry;
#X obj 467 71 u_loader e_alias-\$1 \$0;
#N canvas 172 83 586 377 LICENSE-GPL 0;
#X text 57 88 This program is free software: you can redistribute it
and/or modify it under the terms of the GNU General Public License
as published by the Free Software Foundation \, either version 3 of
the License \, or (at your option) any later version.;
#X text 58 168 This program is distributed in the hope that it will
be useful \, but WITHOUT ANY WARRANTY \; without even the implied warranty
of MERCHANTABILITY or FITNESS FOR A PARTICULAR PURPOSE. See the GNU
General Public License for more details.;
#X text 57 261 You should have received a copy of the GNU General Public
License along with this program. If not \, see <http://www.gnu.org/licenses/>.
;
#X text 61 54 Copyright (C) 2009 \, Reality Jockey Ltd.;
#X text 60 325 See the file LICENSE.txt for the full license text.
;
#X restore 572 29 pd LICENSE-GPL;
#X connect 0 0 3 0;
#X connect 0 0 17 1;
#X connect 2 0 3 1;
#X connect 3 0 17 0;
#X connect 4 0 10 0;
#X connect 5 0 4 0;
#X connect 7 0 4 0;
#X connect 8 0 20 0;
#X connect 9 0 10 0;
#X connect 9 1 10 1;
#X connect 10 0 6 0;
#X connect 10 0 2 0;
#X connect 11 0 14 0;
#X connect 12 0 9 0;
#X connect 13 0 12 0;
#X connect 13 1 9 0;
#X connect 14 0 13 0;
#X connect 15 0 14 0;
#X connect 16 0 2 0;
#X connect 17 0 1 0;
#X connect 18 0 17 2;
#X connect 19 0 18 0;
#X connect 20 0 21 0;
#X connect 21 0 22 0;
