#N canvas 0 0 1041 577 10;
#X obj 373 92 mtof;
#X obj 481 157 r \$0-feedback;
#X obj 714 61 inlet;
#X obj 714 108 route save;
#X obj 714 85 list trim;
#X obj 714 154 outlet;
#X obj 781 160 u_dispatch \$0 delr;
#X obj 781 184 u_dispatch \$0 dell;
#X obj 781 209 u_dispatch \$0 feedback;
#X obj 781 232 u_dispatch \$0 bpitch;
#X obj 373 46 r \$0-bpitch;
#X obj 533 301 r \$0-basedur;
#X obj 781 255 u_dispatch \$0 basedur;
#X obj 80 213 inlet~;
#X obj 56 505 outlet~;
#X obj 377 214 inlet~;
#X obj 355 506 outlet~;
#X obj 714 129 u_loader e_dubdel-\$1 \$0;
#X obj 460 302 r \$0-delr;
#X obj 159 314 r \$0-dell;
#X obj 460 354 swap 1000;
#X obj 159 365 swap 1000;
#X obj 460 382 /;
#X obj 159 395 /;
#X obj 167 225 bp~ 5400 2;
#X obj 442 238 bp~ 5400 2;
#X obj 481 182 / 2;
#X obj 207 147 r \$0-feedback;
#X obj 207 172 / 2;
#X text 511 182 because of 2 delaylines;
#X obj 442 215 *~ 0.1;
#X obj 168 202 *~ 0.1;
#X obj 781 277 u_dispatch \$0 bq;
#X obj 509 215 r \$0-bq;
#X obj 234 205 r \$0-bq;
#X obj 460 422 vd~ \$0-dubby-r;
#X obj 159 434 vd~ \$0-dubby-l;
#X obj 355 482 c_xfade;
#X obj 57 481 c_xfade;
#X obj 118 482 r \$0-dry;
#X obj 118 504 pack 0 10;
#X obj 421 481 r \$0-dry;
#X obj 421 503 pack 0 10;
#X obj 781 298 u_dispatch \$0 dry;
#X obj 533 323 t b a;
#X obj 233 314 r \$0-basedur;
#X obj 233 336 t b a;
#X obj 440 271 delwrite~ \$0-dubby-r 6000;
#X obj 167 271 delwrite~ \$0-dubby-l 6000;
#N canvas 172 83 586 377 LICENSE-GPL 0;
#X text 57 88 This program is free software: you can redistribute it
and/or modify it under the terms of the GNU General Public License
as published by the Free Software Foundation \, either version 3 of
the License \, or (at your option) any later version.;
#X text 58 168 This program is distributed in the hope that it will
be useful \, but WITHOUT ANY WARRANTY \; without even the implied warranty
of MERCHANTABILITY or FITNESS FOR A PARTICULAR PURPOSE. See the GNU
General Public License for more details.;
#X text 57 261 You should have received a copy of the GNU General Public
License along with this program. If not \, see <http://www.gnu.org/licenses/>.
;
#X text 61 54 Copyright (C) 2009 \, Reality Jockey Ltd.;
#X text 60 325 See the file LICENSE.txt for the full license text.
;
#X restore 912 29 pd LICENSE-GPL;
#X connect 0 0 24 1;
#X connect 0 0 25 1;
#X connect 1 0 26 0;
#X connect 2 0 4 0;
#X connect 3 0 17 0;
#X connect 3 1 6 0;
#X connect 4 0 3 0;
#X connect 6 0 7 0;
#X connect 7 0 8 0;
#X connect 8 0 9 0;
#X connect 9 0 12 0;
#X connect 10 0 0 0;
#X connect 11 0 44 0;
#X connect 12 0 32 0;
#X connect 13 0 38 1;
#X connect 13 0 48 0;
#X connect 15 0 37 1;
#X connect 15 0 47 0;
#X connect 17 0 5 0;
#X connect 18 0 20 0;
#X connect 19 0 21 0;
#X connect 20 0 22 0;
#X connect 20 1 22 1;
#X connect 21 0 23 0;
#X connect 21 1 23 1;
#X connect 22 0 35 0;
#X connect 23 0 36 0;
#X connect 24 0 48 0;
#X connect 25 0 47 0;
#X connect 26 0 30 1;
#X connect 27 0 28 0;
#X connect 28 0 31 1;
#X connect 30 0 25 0;
#X connect 31 0 24 0;
#X connect 32 0 43 0;
#X connect 33 0 25 2;
#X connect 34 0 24 2;
#X connect 35 0 31 0;
#X connect 35 0 37 0;
#X connect 36 0 30 0;
#X connect 36 0 38 0;
#X connect 37 0 16 0;
#X connect 38 0 14 0;
#X connect 39 0 40 0;
#X connect 40 0 38 2;
#X connect 41 0 42 0;
#X connect 42 0 37 2;
#X connect 44 0 20 0;
#X connect 44 1 20 1;
#X connect 45 0 46 0;
#X connect 46 0 21 0;
#X connect 46 1 21 1;
