#N canvas 93 20 574 454 10;
#X obj 30 218 samphold~;
#X obj 30 288 *~;
#X obj 30 63 sig~;
#X obj 30 368 outlet~;
#X obj 30 248 vd~ \$1;
#X obj 144 96 phasor~ 5;
#X obj 147 217 samphold~;
#X obj 147 287 *~;
#X obj 147 247 vd~ \$1;
#N canvas 0 0 450 300 cosenv 0;
#X obj 92 107 cos~;
#X obj 92 128 *~ 0.5;
#X obj 93 148 +~ 0.5;
#X obj 93 60 -~ 0.5;
#X obj 92 82 wrap~;
#X obj 93 37 inlet~;
#X obj 94 184 outlet~;
#X connect 0 0 1 0;
#X connect 1 0 2 0;
#X connect 2 0 6 0;
#X connect 3 0 4 0;
#X connect 4 0 0 0;
#X connect 5 0 3 0;
#X restore 143 186 pd cosenv;
#X obj 248 138 +~ 0.5;
#X obj 247 161 wrap~;
#X text 301 146 half out of phase;
#N canvas 0 0 450 300 cosenv 0;
#X obj 92 107 cos~;
#X obj 92 128 *~ 0.5;
#X obj 93 148 +~ 0.5;
#X obj 93 60 -~ 0.5;
#X obj 92 82 wrap~;
#X obj 93 37 inlet~;
#X obj 94 184 outlet~;
#X connect 0 0 1 0;
#X connect 1 0 2 0;
#X connect 2 0 6 0;
#X connect 3 0 4 0;
#X connect 4 0 0 0;
#X connect 5 0 3 0;
#X restore 247 187 pd cosenv;
#X obj 144 31 inlet;
#X obj 30 33 inlet;
#X obj 144 51 swap 1000;
#X obj 144 72 /;
#X connect 0 0 4 0;
#X connect 1 0 3 0;
#X connect 2 0 0 0;
#X connect 2 0 6 0;
#X connect 4 0 1 0;
#X connect 5 0 0 1;
#X connect 5 0 9 0;
#X connect 5 0 10 0;
#X connect 6 0 8 0;
#X connect 7 0 3 0;
#X connect 8 0 7 0;
#X connect 9 0 1 1;
#X connect 10 0 11 0;
#X connect 11 0 6 1;
#X connect 11 0 13 0;
#X connect 13 0 7 1;
#X connect 14 0 16 0;
#X connect 15 0 2 0;
#X connect 16 0 17 0;
#X connect 16 1 17 1;
#X connect 17 0 5 0;
