#N canvas 270 214 868 518 10;
#X obj 74 38 inlet~;
#X obj 414 28 inlet;
#X obj 96 127 rpole~;
#X obj 96 102 rzero_rev~;
#X obj 96 176 rpole~;
#X obj 96 151 rzero_rev~;
#X obj 96 224 rpole~;
#X obj 96 199 rzero_rev~;
#X obj 96 273 rpole~;
#X obj 96 248 rzero_rev~;
#X obj 73 403 +~;
#X obj 73 430 outlet~;
#X obj 528 30 u_loader e_phaser-\$1 \$0;
#X obj 414 62 u_dispatch \$0 freq;
#X obj 403 180 r \$0-freq;
#X obj 403 211 phasor~ 0.3;
#X text 339 129 replacement for: expr~ 1 - 0.03 - 0.6*abs($v1-0.5)*abs($v1-0.5)
;
#X obj 345 211 sig~ 1;
#X obj 345 237 -~;
#X obj 346 281 min~;
#X obj 346 306 *~;
#X obj 270 360 -~;
#X obj 271 330 sig~ 0.97;
#X obj 414 84 u_dispatch \$0 depth;
#X obj 406 300 line~;
#X obj 489 250 loadbang;
#X obj 489 271 f 0.6;
#X obj 346 333 *~;
#X obj 406 245 r \$0-depth;
#X obj 406 271 pack 0 10;
#N canvas 228 198 627 317 LICENSE-BSD 0;
#X text 121 56 This software is copyrighted by Miller Puckette \, Reality
Jockey Ltd. and others. The terms (the "Standard Improved BSD License")
apply to all files associated with the software unless explicitly disclaimed
in individual files.;
#X text 123 148 See the file LICENSE.txt for the full license text.
;
#X restore 727 19 pd LICENSE-BSD;
#X obj 96 323 rpole~;
#X obj 96 298 rzero_rev~;
#X obj 96 373 rpole~;
#X obj 96 348 rzero_rev~;
#X connect 0 0 3 0;
#X connect 0 0 10 0;
#X connect 1 0 13 0;
#X connect 2 0 5 0;
#X connect 3 0 2 0;
#X connect 4 0 7 0;
#X connect 5 0 4 0;
#X connect 6 0 9 0;
#X connect 7 0 6 0;
#X connect 8 0 32 0;
#X connect 9 0 8 0;
#X connect 10 0 11 0;
#X connect 13 0 23 0;
#X connect 14 0 15 0;
#X connect 15 0 19 1;
#X connect 15 0 18 1;
#X connect 17 0 18 0;
#X connect 18 0 19 0;
#X connect 19 0 20 0;
#X connect 19 0 20 1;
#X connect 20 0 27 0;
#X connect 21 0 3 1;
#X connect 21 0 2 1;
#X connect 21 0 5 1;
#X connect 21 0 4 1;
#X connect 21 0 7 1;
#X connect 21 0 6 1;
#X connect 21 0 9 1;
#X connect 21 0 8 1;
#X connect 21 0 32 1;
#X connect 21 0 31 1;
#X connect 21 0 34 1;
#X connect 21 0 33 1;
#X connect 22 0 21 0;
#X connect 24 0 27 1;
#X connect 25 0 26 0;
#X connect 26 0 24 0;
#X connect 27 0 21 1;
#X connect 28 0 29 0;
#X connect 29 0 24 0;
#X connect 31 0 34 0;
#X connect 32 0 31 0;
#X connect 33 0 10 1;
#X connect 34 0 33 0;
