#N canvas 365 233 469 396 10;
#X obj 98 268 outlet;
#X obj 98 17 r #accelerate;
#X obj 98 73 spigot 1;
#X obj 151 49 inlet;
#X obj 98 122 t b b;
#X msg 161 184 1;
#X obj 98 184 del 150;
#X msg 98 205 0;
#X obj 98 235 change -1;
#X connect 1 0 2 0;
#X connect 2 0 4 0;
#X connect 3 0 2 1;
#X connect 4 0 6 0;
#X connect 4 1 5 0;
#X connect 5 0 8 0;
#X connect 6 0 7 0;
#X connect 7 0 8 0;
#X connect 8 0 0 0;
