#N canvas 130 140 985 524 10;
#N canvas 377 58 582 570 REFERENCE 0;
#X text 24 51 Summary:;
#X text 24 91 Argument 0:;
#X text 24 124 Inlet 0:;
#X text 24 144 Inlet 1:;
#X text 24 164 Outlet 0:;
#X text 24 184 Outlet 1:;
#X text 24 434 Tags:;
#X text 24 334 See also:;
#X text 24 234 Description: Receives compass data from iDevice;
#X text 24 31 Name: r_#compass;
#X coords 0 -1 1 1 450 450 1 10 10;
#X restore 5 48 pd REFERENCE;
#X obj 5 18 cnv 15 450 20 empty empty empty 20 12 0 14 -261234 -66577
0;
#X floatatom 502 145 10 0 0 1 Direction - -;
#X obj 502 74 r_#compass;
#X text 637 145 <- Compass outputs an angle (0-359 degrees) moving
;
#X text 655 158 clockwise.;
#X text 655 178 e.g:;
#X text 745 180 North - 0;
#X text 745 200 East - 89;
#X text 745 220 South - 179;
#X text 745 240 West - 269;
#X obj 8 20 r_#compass;
#X text 129 21 - receives compass data;
#X connect 3 0 2 0;
