#N canvas 130 140 952 521 10;
#N canvas 377 58 582 570 REFERENCE 0;
#X text 24 51 Summary:;
#X text 24 91 Argument 0:;
#X text 24 124 Inlet 0:;
#X text 24 144 Inlet 1:;
#X text 24 164 Outlet 0:;
#X text 24 184 Outlet 1:;
#X text 24 434 Tags:;
#X text 24 334 See also:;
#X text 24 31 Name: r_#time;
#X text 24 234 Description: Receives time and data information from
iDevice;
#X coords 0 -1 1 1 450 450 1 10 10;
#X restore 5 48 pd REFERENCE;
#X obj 5 18 cnv 15 450 20 empty empty empty 20 12 0 14 -261234 -66577
0;
#X obj 542 105 unpack f f f f f f f f f f;
#X obj 542 74 r_#time;
#X floatatom 542 412 5 0 0 1 Year - -;
#X floatatom 559 382 5 0 0 1 Month - -;
#X floatatom 576 352 5 0 0 1 Day_of_the_Month - -;
#X floatatom 593 322 5 0 0 1 Day_of_the_Week - -;
#X floatatom 610 292 5 0 0 1 Day_of_the_Year - -;
#X floatatom 627 262 5 0 0 1 Time_Zone - -;
#X floatatom 644 232 5 0 0 1 Hour - -;
#X floatatom 661 202 5 0 0 1 Minute - -;
#X floatatom 678 172 5 0 0 1 Second - -;
#X floatatom 695 142 5 0 0 1 Millisecond - -;
#X text 626 74 <- Receives time and date data from iDevice;
#X obj 8 20 r_#time;
#X text 129 21 - receives time and data information;
#X connect 2 0 4 0;
#X connect 2 1 5 0;
#X connect 2 2 6 0;
#X connect 2 3 7 0;
#X connect 2 4 8 0;
#X connect 2 5 9 0;
#X connect 2 6 10 0;
#X connect 2 7 11 0;
#X connect 2 8 12 0;
#X connect 2 9 13 0;
#X connect 3 0 2 0;
