#N canvas 130 140 525 347 10;
#X obj 43 275 outlet;
#X obj 43 116 t b;
#X obj 43 86 metro 50;
#X obj 43 56 loadbang;
#X obj 43 186 pack f f f f f f f f f f;
#X obj 43 146 rj_time;
#X obj 73 226 r #time;
#X text 98 146 This external is only instantiated on an iDevice;
#X text 128 220 Send from 'get_sensor.pd' patch. This ensures that
development and testing can be carried out on the desktop.;
#X connect 1 0 5 0;
#X connect 2 0 1 0;
#X connect 3 0 2 0;
#X connect 4 0 0 0;
#X connect 5 0 4 0;
#X connect 5 1 4 1;
#X connect 5 2 4 2;
#X connect 5 3 4 3;
#X connect 5 4 4 4;
#X connect 5 5 4 5;
#X connect 5 6 4 6;
#X connect 5 7 4 7;
#X connect 5 8 4 8;
#X connect 5 9 4 9;
#X connect 6 0 0 0;
