#N canvas 184 0 767 629 8;
#X obj 457 33 inlet;
#X obj 268 44 mtof;
#X obj 268 -34 inlet;
#X obj 335 81 / 127;
#X obj 304 143 sqrt;
#X obj 304 122 / 2000;
#X obj 335 101 s \$0-envelopes;
#N canvas 0 0 262 827 dispatchers 0;
#X obj 97 -53 u_dispatch \$0 env1a;
#X obj 97 -29 u_dispatch \$0 env1d;
#X obj 97 -8 u_dispatch \$0 env1s;
#X obj 97 14 u_dispatch \$0 env1r;
#X obj 97 39 u_dispatch \$0 env2a;
#X obj 97 63 u_dispatch \$0 env2d;
#X obj 97 84 u_dispatch \$0 env2s;
#X obj 97 106 u_dispatch \$0 env2r;
#X obj 97 129 u_dispatch \$0 env3a;
#X obj 97 153 u_dispatch \$0 env3d;
#X obj 97 174 u_dispatch \$0 env3s;
#X obj 97 196 u_dispatch \$0 env3r;
#X obj 97 220 u_dispatch \$0 osc1a;
#X obj 97 241 u_dispatch \$0 osc1b;
#X obj 97 263 u_dispatch \$0 osc1c;
#X obj 97 284 u_dispatch \$0 osc1d;
#X obj 97 306 u_dispatch \$0 osc2a;
#X obj 97 327 u_dispatch \$0 osc2b;
#X obj 97 349 u_dispatch \$0 osc2c;
#X obj 97 370 u_dispatch \$0 osc2d;
#X obj 97 390 u_dispatch \$0 osc3a;
#X obj 97 411 u_dispatch \$0 osc3b;
#X obj 97 433 u_dispatch \$0 osc3c;
#X obj 97 454 u_dispatch \$0 osc3d;
#X obj 97 476 u_dispatch \$0 mod1a;
#X obj 97 497 u_dispatch \$0 mod1b;
#X obj 97 519 u_dispatch \$0 mod1c;
#X obj 97 540 u_dispatch \$0 mod1d;
#X obj 97 561 u_dispatch \$0 mod2a;
#X obj 97 582 u_dispatch \$0 mod2b;
#X obj 97 604 u_dispatch \$0 mod2c;
#X obj 97 625 u_dispatch \$0 mod2d;
#X obj 97 646 u_dispatch \$0 mod3a;
#X obj 97 667 u_dispatch \$0 mod3b;
#X obj 97 688 u_dispatch \$0 mod3c;
#X obj 97 710 u_dispatch \$0 mod3d;
#X obj 97 -78 inlet;
#X connect 0 0 1 0;
#X connect 1 0 2 0;
#X connect 2 0 3 0;
#X connect 3 0 4 0;
#X connect 4 0 5 0;
#X connect 5 0 6 0;
#X connect 6 0 7 0;
#X connect 7 0 8 0;
#X connect 8 0 9 0;
#X connect 9 0 10 0;
#X connect 10 0 11 0;
#X connect 11 0 12 0;
#X connect 12 0 13 0;
#X connect 13 0 14 0;
#X connect 14 0 15 0;
#X connect 15 0 16 0;
#X connect 16 0 17 0;
#X connect 17 0 18 0;
#X connect 18 0 19 0;
#X connect 19 0 20 0;
#X connect 20 0 21 0;
#X connect 21 0 22 0;
#X connect 22 0 23 0;
#X connect 23 0 24 0;
#X connect 24 0 25 0;
#X connect 25 0 26 0;
#X connect 26 0 27 0;
#X connect 27 0 28 0;
#X connect 28 0 29 0;
#X connect 29 0 30 0;
#X connect 30 0 31 0;
#X connect 31 0 32 0;
#X connect 32 0 33 0;
#X connect 33 0 34 0;
#X connect 34 0 35 0;
#X connect 36 0 0 0;
#X restore 524 139 pd dispatchers;
#X obj 57 480 outlet~;
#X obj 304 163 sig~;
#X obj 304 183 s~ \$0-keyscale;
#X obj 224 234 sig~;
#X obj 457 83 route save;
#X obj 457 139 outlet;
#N canvas 0 0 901 408 envelopes 0;
#X obj 499 192 t a a;
#X obj 60 184 t a a b;
#X obj 276 189 t a a b;
#X obj 116 74 r \$0-env1a;
#X obj 144 94 r \$0-env1d;
#X obj 172 112 r \$0-env1s;
#X obj 200 130 r \$0-env1r;
#X obj 332 71 r \$0-env2a;
#X obj 360 88 r \$0-env2d;
#X obj 60 54 r \$0-envelopes;
#X obj 276 51 r \$0-envelopes;
#X obj 499 52 r \$0-envelopes;
#X obj 555 72 r \$0-env3a;
#X obj 583 90 r \$0-env3d;
#X obj 611 108 r \$0-env3s;
#X obj 640 126 r \$0-env3r;
#X obj 116 122 * 2000;
#X obj 144 142 * 4000;
#X obj 172 164 * 100;
#X obj 201 185 * 7000;
#X obj 332 122 * 2000;
#X obj 360 142 * 4000;
#X obj 388 164 * 100;
#X obj 417 185 * 7000;
#X obj 555 122 * 2000;
#X obj 583 142 * 4000;
#X obj 611 164 * 100;
#X obj 640 185 * 7000;
#X obj 388 106 r \$0-env2s;
#X obj 417 125 r \$0-env2r;
#X obj 60 210 c_adsr 1 10 100 50 300;
#X obj 276 215 c_adsr 1 10 100 50 300;
#X obj 499 216 c_adsr 1 10 100 50 400;
#X obj 59 235 s~ \$0-e1;
#X obj 275 237 s~ \$0-e2;
#X obj 499 240 s~ \$0-e3;
#X connect 0 0 32 0;
#X connect 0 1 32 1;
#X connect 1 0 30 0;
#X connect 1 1 30 1;
#X connect 2 0 31 0;
#X connect 2 1 31 1;
#X connect 3 0 16 0;
#X connect 4 0 17 0;
#X connect 5 0 18 0;
#X connect 6 0 19 0;
#X connect 7 0 20 0;
#X connect 8 0 21 0;
#X connect 9 0 1 0;
#X connect 10 0 2 0;
#X connect 11 0 0 0;
#X connect 12 0 24 0;
#X connect 13 0 25 0;
#X connect 14 0 26 0;
#X connect 15 0 27 0;
#X connect 16 0 30 2;
#X connect 17 0 30 3;
#X connect 18 0 30 4;
#X connect 19 0 30 5;
#X connect 20 0 31 2;
#X connect 21 0 31 3;
#X connect 22 0 31 4;
#X connect 23 0 31 5;
#X connect 24 0 32 2;
#X connect 25 0 32 3;
#X connect 26 0 32 4;
#X connect 27 0 32 5;
#X connect 28 0 22 0;
#X connect 29 0 23 0;
#X connect 30 0 33 0;
#X connect 31 0 34 0;
#X connect 32 0 35 0;
#X restore 416 -10 pd envelopes;
#X obj 457 60 list trim;
#X obj 248 314 *~ -1;
#X obj 226 365 min~;
#X obj 248 339 +~ 1;
#X obj 226 290 phasor~ 6;
#X obj 226 409 *~;
#X obj 226 387 -~ 0.25;
#X obj 243 457 *~;
#X obj 254 236 sig~;
#X obj 254 199 r \$0-mod1b;
#X obj 260 429 r~ \$0-keyscale;
#N canvas 0 0 848 695 vibdel 0;
#X obj 392 194 f 0;
#X msg 392 219 0 \, 1 \$1;
#X obj 409 161 * 3000;
#X obj 394 247 line~;
#X obj 377 105 inlet trig;
#X obj 290 121 inlet~;
#X obj 295 327 outlet~;
#X obj 302 284 *~;
#X obj 410 137 inlet fadein;
#X obj 359 284 *~;
#X connect 0 0 1 0;
#X connect 1 0 3 0;
#X connect 2 0 0 1;
#X connect 3 0 9 1;
#X connect 3 0 9 0;
#X connect 4 0 0 0;
#X connect 5 0 7 0;
#X connect 7 0 6 0;
#X connect 8 0 2 0;
#X connect 9 0 7 1;
#X restore 245 267 pd vibdel;
#X obj 291 247 r \$0-mod1c;
#X obj 244 478 +~;
#X obj 255 216 * 100;
#X obj 206 179 r \$0-mod1a;
#X obj 457 106 u_loader s_cwc-\$1 \$0;
#X obj 130 56 sig~;
#X obj 245 145 *~ 0.5;
#X obj 60 388 * 500;
#X obj 30 415 hip~;
#X obj 62 410 + 5;
#X obj 31 434 hip~;
#X obj 268 -11 t a b b b b;
#X msg 390 76 0;
#X obj 333 29 > 0;
#X obj 268 13 unpack f f f;
#X obj 336 49 sel 1;
#X obj 370 410 *~;
#X obj 383 387 sig~;
#X obj 384 364 r \$0-mod1d;
#X obj 92 444 sig~;
#X obj 92 425 + 1;
#X obj 92 406 * 5;
#X obj 243 497 s~ \$0-f0;
#N canvas 0 0 926 640 mix4 0;
#X obj 40 289 inlet~;
#X obj 159 490 outlet~;
#X obj 90 288 inlet~;
#X obj 141 287 inlet~;
#X obj 191 286 inlet~;
#X obj 131 412 *~;
#X obj 158 412 *~;
#X obj 187 412 *~;
#X obj 214 412 *~;
#X obj 158 463 *~ 0.25;
#X obj 234 310 sig~;
#X obj 294 309 sig~;
#X obj 354 308 sig~;
#X obj 413 309 sig~;
#X obj 235 288 r \$0-mod3a;
#X obj 295 288 r \$0-mod3b;
#X obj 355 286 r \$0-mod3c;
#X obj 414 288 r \$0-mod3d;
#X connect 0 0 5 0;
#X connect 2 0 6 0;
#X connect 3 0 7 0;
#X connect 4 0 8 0;
#X connect 5 0 9 0;
#X connect 6 0 9 0;
#X connect 7 0 9 0;
#X connect 8 0 9 0;
#X connect 9 0 1 0;
#X connect 10 0 5 1;
#X connect 11 0 6 1;
#X connect 12 0 7 1;
#X connect 13 0 8 1;
#X connect 14 0 10 0;
#X connect 15 0 11 0;
#X connect 16 0 12 0;
#X connect 17 0 13 0;
#X coords 0 0 1 1 100 100 0;
#X restore 31 304 pd mix4;
#X obj 84 16 phasor~;
#X obj 93 -39 r~ \$0-f0;
#X obj 27 9 r~ \$0-e1;
#N canvas 0 0 814 605 4hosc 0;
#X obj 175 115 cos~;
#N canvas 0 0 1024 516 fdb 0;
#X obj 147 106 *~;
#X obj 148 133 -~ 0.5;
#X obj 148 158 *~ 2;
#X obj 151 70 inlet~;
#X obj 149 226 outlet~;
#X obj 203 226 outlet~;
#X obj 235 76 inlet~;
#X obj 203 187 *~;
#X connect 0 0 1 0;
#X connect 1 0 2 0;
#X connect 2 0 4 0;
#X connect 2 0 7 0;
#X connect 3 0 0 0;
#X connect 3 0 0 1;
#X connect 6 0 7 1;
#X connect 7 0 5 0;
#X restore 176 242 pd fdb;
#N canvas 0 0 1024 516 fdb 0;
#X obj 147 106 *~;
#X obj 148 133 -~ 0.5;
#X obj 148 158 *~ 2;
#X obj 151 70 inlet~;
#X obj 149 226 outlet~;
#X obj 203 226 outlet~;
#X obj 235 76 inlet~;
#X obj 203 187 *~;
#X connect 0 0 1 0;
#X connect 1 0 2 0;
#X connect 2 0 4 0;
#X connect 2 0 7 0;
#X connect 3 0 0 0;
#X connect 3 0 0 1;
#X connect 6 0 7 1;
#X connect 7 0 5 0;
#X restore 174 205 pd fdb;
#N canvas 0 0 1024 516 fdb 0;
#X obj 147 106 *~;
#X obj 148 133 -~ 0.5;
#X obj 148 158 *~ 2;
#X obj 151 70 inlet~;
#X obj 149 226 outlet~;
#X obj 203 226 outlet~;
#X obj 235 76 inlet~;
#X obj 203 187 *~;
#X connect 0 0 1 0;
#X connect 1 0 2 0;
#X connect 2 0 4 0;
#X connect 2 0 7 0;
#X connect 3 0 0 0;
#X connect 3 0 0 1;
#X connect 6 0 7 1;
#X connect 7 0 5 0;
#X restore 174 167 pd fdb;
#X obj 175 59 inlet~;
#X obj 250 274 *~ 0.2;
#X obj 251 300 outlet~;
#X text 316 258 ajf2006;
#X obj 232 153 *~;
#X text 301 240 4 harmonic oscillator;
#X obj 230 90 sig~;
#X obj 290 89 sig~;
#X obj 350 88 sig~;
#X obj 409 89 sig~;
#X obj 231 69 r \$0-osc2a;
#X obj 291 68 r \$0-osc2b;
#X obj 351 67 r \$0-osc2c;
#X obj 410 68 r \$0-osc2d;
#X connect 0 0 3 0;
#X connect 0 0 8 0;
#X connect 1 1 5 0;
#X connect 2 0 1 0;
#X connect 2 1 5 0;
#X connect 3 0 2 0;
#X connect 3 1 5 0;
#X connect 4 0 0 0;
#X connect 5 0 6 0;
#X connect 8 0 5 0;
#X connect 10 0 8 1;
#X connect 11 0 3 1;
#X connect 12 0 2 1;
#X connect 13 0 1 1;
#X connect 14 0 10 0;
#X connect 15 0 11 0;
#X connect 16 0 12 0;
#X connect 17 0 13 0;
#X restore 8 162 pd 4hosc;
#N canvas 0 30 800 516 csaw 0;
#X obj 203 -48 *~;
#X obj 203 -21 -~ 0.5;
#X obj 203 -1 *~ 2;
#X obj 330 34 *~;
#X obj 264 1 *~;
#X obj 264 27 *~ 4;
#X obj 264 51 -~;
#X obj 289 1 *~ 3;
#X obj 215 27 *~;
#X obj 216 51 -~ 0.5;
#X obj 216 71 *~ 2;
#X obj 331 64 *~;
#X obj 332 86 *~ 16;
#X obj 332 113 -~;
#X obj 357 62 *~ 20;
#X obj 332 136 +~;
#X obj 358 112 *~ 5;
#X obj 270 81 *~;
#X obj 271 105 -~ 0.5;
#X obj 271 125 *~ 2;
#X obj 184 305 outlet~;
#X text 343 -119 C(t) = T3(t)+T2(t)+T1(t)+T0(t) = (4t^3-3t)+(2t^2-1)+t+1
;
#X text 393 -64 for sawtooth = 0.5(2x^2-1) + 1/3(4x^3-3x) + 1/4(8x^4
-8x + 1)...;
#X text 310 -81 Chebyshev sawtooth generator;
#X obj 183 259 *~ 0.4;
#X text 505 38 Fake filter by scaling harmonics in ratio;
#X obj 403 112 *~ 0.5;
#X obj 473 112 *~ 0.333;
#X obj 560 112 *~ 0.25;
#X obj 642 111 *~ 0.2;
#X obj 712 111 *~ 0.1666;
#X obj 712 134 clip~ 0 0.166;
#X obj 642 134 clip~ 0 0.2;
#X obj 560 135 clip~ 0 0.25;
#X obj 473 135 clip~ 0 0.3333;
#X obj 403 136 clip~ 0 0.5;
#X obj 473 64 *~;
#X obj 560 66 *~;
#X obj 642 67 *~;
#X obj 712 67 *~;
#X obj 202 185 *~;
#X obj 247 185 *~;
#X obj 324 185 *~;
#X obj 375 186 *~;
#X obj 419 186 *~;
#X obj 461 193 sig~ 1;
#X obj 461 216 -~;
#X text 502 205 scale gain for fewer harmonics;
#X obj 460 239 +~ 0.5;
#X obj 183 283 *~;
#X obj 146 35 wrap~;
#X obj 146 77 cos~;
#X obj 131 115 *~;
#X obj 132 156 +~;
#X obj 146 15 *~;
#X obj 104 -52 -~;
#X obj 105 -75 sig~ 1;
#X obj 103 29 *~;
#X obj 102 51 min~ 1;
#X obj 182 -114 cos~;
#X obj 180 -147 inlet~;
#X obj 337 -55 *~ 10;
#X obj 234 -119 inlet~ resonance;
#X obj 455 -3 inlet~ filter cutoff;
#X obj 104 0 *~;
#X obj 145 56 -~ 0.25;
#X text 310 -97 Harmonic oscillator with inbuilt packet resonance;
#X text 234 255 ajf 2009;
#X text 25 107 packet resonance;
#X connect 0 0 1 0;
#X connect 0 0 4 0;
#X connect 1 0 2 0;
#X connect 2 0 8 0;
#X connect 2 0 8 1;
#X connect 2 0 40 0;
#X connect 3 0 11 0;
#X connect 4 0 5 0;
#X connect 4 0 3 0;
#X connect 4 0 14 0;
#X connect 5 0 6 0;
#X connect 6 0 17 0;
#X connect 6 0 17 1;
#X connect 6 0 41 0;
#X connect 7 0 6 1;
#X connect 8 0 9 0;
#X connect 9 0 10 0;
#X connect 10 0 42 0;
#X connect 11 0 12 0;
#X connect 12 0 13 0;
#X connect 13 0 15 0;
#X connect 14 0 13 1;
#X connect 15 0 43 0;
#X connect 16 0 15 1;
#X connect 17 0 18 0;
#X connect 18 0 19 0;
#X connect 19 0 44 0;
#X connect 24 0 49 0;
#X connect 26 0 35 0;
#X connect 27 0 34 0;
#X connect 28 0 33 0;
#X connect 29 0 32 0;
#X connect 30 0 31 0;
#X connect 31 0 44 1;
#X connect 32 0 43 1;
#X connect 33 0 42 1;
#X connect 34 0 41 1;
#X connect 35 0 40 1;
#X connect 36 0 27 0;
#X connect 36 0 37 0;
#X connect 36 0 37 1;
#X connect 37 0 28 0;
#X connect 37 0 38 0;
#X connect 37 0 38 1;
#X connect 38 0 29 0;
#X connect 38 0 39 0;
#X connect 38 0 39 1;
#X connect 39 0 30 0;
#X connect 40 0 24 0;
#X connect 41 0 24 0;
#X connect 42 0 24 0;
#X connect 43 0 24 0;
#X connect 44 0 24 0;
#X connect 45 0 46 0;
#X connect 46 0 48 0;
#X connect 48 0 49 1;
#X connect 49 0 20 0;
#X connect 50 0 65 0;
#X connect 51 0 52 1;
#X connect 52 0 53 0;
#X connect 53 0 24 0;
#X connect 54 0 50 0;
#X connect 55 0 64 0;
#X connect 56 0 55 0;
#X connect 57 0 58 0;
#X connect 58 0 52 0;
#X connect 59 0 0 0;
#X connect 59 0 0 1;
#X connect 59 0 4 1;
#X connect 59 0 7 0;
#X connect 59 0 3 1;
#X connect 59 0 11 1;
#X connect 59 0 16 0;
#X connect 59 0 53 1;
#X connect 60 0 54 0;
#X connect 60 0 55 1;
#X connect 60 0 59 0;
#X connect 61 0 54 1;
#X connect 62 0 64 1;
#X connect 63 0 26 0;
#X connect 63 0 36 0;
#X connect 63 0 36 1;
#X connect 63 0 46 1;
#X connect 63 0 61 0;
#X connect 64 0 57 0;
#X connect 64 0 57 1;
#X connect 65 0 51 0;
#X restore 98 115 pd csaw;
#X obj 130 36 r \$0-osc1a;
#X obj 190 23 sig~;
#X obj 190 3 r \$0-osc1b;
#X obj 200 44 r~ \$0-e3;
#X obj 69 138 *~;
#X obj 38 212 r~ \$0-e2;
#X obj 25 235 *~;
#X obj 84 73 +~;
#X obj 146 -23 r~ \$0-fbfm;
#X obj 57 462 *~;
#X obj 208 207 * 20;
#X obj 370 433 *~ 2;
#X obj 114 182 min~;
#X obj 125 140 *~ -1;
#X obj 125 162 +~ 1;
#X obj 116 205 *~ 2;
#X obj 116 225 *~;
#X obj 119 246 cos~;
#X obj 123 271 hip~ 20;
#X obj 69 273 vd~ \$0-x;
#X obj 68 255 +~ 10;
#X obj 122 291 delwrite~ \$0-x 20;
#X obj 68 237 *~ 2;
#X obj 60 365 r \$0-mod2a;
#X obj 92 386 r \$0-mod2b;
#X obj 132 507 s~ \$0-fbfm;
#X obj 131 486 *~;
#X obj 144 456 sig~;
#X obj 144 436 r \$0-osc1c;
#X obj 146 90 *~;
#X obj 46 -89 r \$0-osc3a;
#X obj -16 -21 r \$0-osc3b;
#N canvas 0 0 264 236 oct 0;
#X obj 141 40 * 4;
#X obj 142 60 int;
#X obj 142 83 - 2;
#X obj 142 105 swap 2;
#X obj 143 128 pow;
#X obj 138 14 inlet;
#X obj 142 155 outlet;
#X connect 0 0 1 0;
#X connect 1 0 2 0;
#X connect 2 0 3 0;
#X connect 3 0 4 0;
#X connect 3 1 4 1;
#X connect 4 0 6 0;
#X connect 5 0 0 0;
#X restore 48 -64 pd oct;
#X obj 53 -41 sig~;
#X obj -17 30 sig~;
#X obj 60 -13 *~;
#N canvas 0 0 264 236 2ct 0;
#X obj 141 40 * 4;
#X obj 142 60 int;
#X obj 142 105 swap 2;
#X obj 143 128 pow;
#X obj 138 14 inlet;
#X obj 142 155 outlet;
#X connect 0 0 1 0;
#X connect 1 0 2 0;
#X connect 2 0 3 0;
#X connect 2 1 3 1;
#X connect 3 0 5 0;
#X connect 4 0 0 0;
#X restore -17 2 pd 2ct;
#X obj 19 96 *~;
#X obj 19 116 wrap~;
#X obj 147 -1 +~;
#X obj 343 -81 r \$0-mod2c;
#X obj 245 115 line~;
#X obj 245 91 pack f 0;
#X obj 343 -62 * 1000;
#X text 198 512 ajf2010;
#X obj 368 231 env~;
#X obj 412 292 switch~;
#X msg 412 200 1;
#X obj 368 253 > 1;
#X connect 0 0 15 0;
#X connect 1 0 5 0;
#X connect 1 0 98 0;
#X connect 2 0 38 0;
#X connect 3 0 6 0;
#X connect 4 0 9 0;
#X connect 5 0 4 0;
#X connect 9 0 10 0;
#X connect 11 0 19 0;
#X connect 12 0 31 0;
#X connect 12 1 7 0;
#X connect 15 0 12 0;
#X connect 16 0 18 0;
#X connect 17 0 21 0;
#X connect 17 0 43 0;
#X connect 18 0 17 1;
#X connect 19 0 16 0;
#X connect 19 0 17 0;
#X connect 20 0 22 0;
#X connect 21 0 20 0;
#X connect 21 0 78 0;
#X connect 22 0 28 0;
#X connect 23 0 26 0;
#X connect 24 0 29 0;
#X connect 25 0 22 1;
#X connect 26 0 20 1;
#X connect 27 0 26 2;
#X connect 28 0 49 0;
#X connect 29 0 23 0;
#X connect 30 0 66 0;
#X connect 31 0 13 0;
#X connect 32 0 55 1;
#X connect 33 0 28 1;
#X connect 34 0 36 0;
#X connect 35 0 37 0;
#X connect 36 0 35 1;
#X connect 36 0 37 1;
#X connect 37 0 65 0;
#X connect 38 0 41 0;
#X connect 38 1 26 1;
#X connect 38 4 103 0;
#X connect 39 0 19 1;
#X connect 40 0 42 0;
#X connect 41 0 1 0;
#X connect 41 1 3 0;
#X connect 41 2 40 0;
#X connect 42 0 39 0;
#X connect 43 0 67 0;
#X connect 44 0 43 1;
#X connect 45 0 44 0;
#X connect 46 0 65 1;
#X connect 47 0 46 0;
#X connect 48 0 47 0;
#X connect 50 0 35 0;
#X connect 51 0 63 0;
#X connect 51 0 68 0;
#X connect 51 0 69 0;
#X connect 51 0 93 0;
#X connect 52 0 91 1;
#X connect 53 0 60 0;
#X connect 54 0 62 0;
#X connect 54 0 82 0;
#X connect 55 0 60 1;
#X connect 56 0 32 0;
#X connect 57 0 85 0;
#X connect 58 0 57 0;
#X connect 59 0 72 1;
#X connect 59 0 85 1;
#X connect 60 0 50 1;
#X connect 61 0 62 1;
#X connect 62 0 50 0;
#X connect 63 0 55 0;
#X connect 64 0 95 0;
#X connect 65 0 8 0;
#X connect 65 0 101 0;
#X connect 66 0 11 0;
#X connect 67 0 95 1;
#X connect 68 0 71 0;
#X connect 69 0 70 0;
#X connect 70 0 68 1;
#X connect 71 0 72 0;
#X connect 72 0 73 0;
#X connect 73 0 74 0;
#X connect 74 0 50 2;
#X connect 74 0 77 0;
#X connect 75 0 50 3;
#X connect 76 0 75 0;
#X connect 78 0 76 0;
#X connect 79 0 34 0;
#X connect 80 0 48 0;
#X connect 82 0 81 0;
#X connect 83 0 82 1;
#X connect 84 0 83 0;
#X connect 85 0 55 2;
#X connect 86 0 88 0;
#X connect 87 0 92 0;
#X connect 88 0 89 0;
#X connect 89 0 91 0;
#X connect 90 0 93 1;
#X connect 91 0 51 0;
#X connect 92 0 90 0;
#X connect 93 0 94 0;
#X connect 94 0 54 0;
#X connect 95 0 63 1;
#X connect 96 0 99 0;
#X connect 97 0 33 0;
#X connect 98 0 97 0;
#X connect 99 0 98 1;
#X connect 101 0 104 0;
#X connect 103 0 102 0;
#X connect 104 0 102 0;
