#N canvas 0 0 1024 684 8;
#X obj 141 160 sig~;
#X obj 646 86 inlet;
#X obj 162 133 mtof;
#X obj 162 18 inlet;
#X obj 229 133 / 127;
#X obj 198 195 sqrt;
#X obj 198 174 / 2000;
#X obj 229 153 s \$0-envelopes;
#N canvas 0 0 262 827 dispatchers 0;
#X obj 97 -53 u_dispatch \$0 env1a;
#X obj 97 -29 u_dispatch \$0 env1d;
#X obj 97 -8 u_dispatch \$0 env1s;
#X obj 97 14 u_dispatch \$0 env1r;
#X obj 97 39 u_dispatch \$0 env2a;
#X obj 97 63 u_dispatch \$0 env2d;
#X obj 97 84 u_dispatch \$0 env2s;
#X obj 97 106 u_dispatch \$0 env2r;
#X obj 97 129 u_dispatch \$0 env3a;
#X obj 97 153 u_dispatch \$0 env3d;
#X obj 97 174 u_dispatch \$0 env3s;
#X obj 97 196 u_dispatch \$0 env3r;
#X obj 97 220 u_dispatch \$0 osc1a;
#X obj 97 241 u_dispatch \$0 osc1b;
#X obj 97 263 u_dispatch \$0 osc1c;
#X obj 97 284 u_dispatch \$0 osc1d;
#X obj 97 306 u_dispatch \$0 osc2a;
#X obj 97 327 u_dispatch \$0 osc2b;
#X obj 97 349 u_dispatch \$0 osc2c;
#X obj 97 370 u_dispatch \$0 osc2d;
#X obj 97 390 u_dispatch \$0 osc3a;
#X obj 97 411 u_dispatch \$0 osc3b;
#X obj 97 433 u_dispatch \$0 osc3c;
#X obj 97 454 u_dispatch \$0 osc3d;
#X obj 97 476 u_dispatch \$0 mod1a;
#X obj 97 497 u_dispatch \$0 mod1b;
#X obj 97 519 u_dispatch \$0 mod1c;
#X obj 97 540 u_dispatch \$0 mod1d;
#X obj 97 561 u_dispatch \$0 mod2a;
#X obj 97 582 u_dispatch \$0 mod2b;
#X obj 97 604 u_dispatch \$0 mod2c;
#X obj 97 625 u_dispatch \$0 mod2d;
#X obj 97 646 u_dispatch \$0 mod3a;
#X obj 97 667 u_dispatch \$0 mod3b;
#X obj 97 688 u_dispatch \$0 mod3c;
#X obj 97 710 u_dispatch \$0 mod3d;
#X obj 97 -78 inlet;
#X connect 0 0 1 0;
#X connect 1 0 2 0;
#X connect 2 0 3 0;
#X connect 3 0 4 0;
#X connect 4 0 5 0;
#X connect 5 0 6 0;
#X connect 6 0 7 0;
#X connect 7 0 8 0;
#X connect 8 0 9 0;
#X connect 9 0 10 0;
#X connect 10 0 11 0;
#X connect 11 0 12 0;
#X connect 12 0 13 0;
#X connect 13 0 14 0;
#X connect 14 0 15 0;
#X connect 15 0 16 0;
#X connect 16 0 17 0;
#X connect 17 0 18 0;
#X connect 18 0 19 0;
#X connect 19 0 20 0;
#X connect 20 0 21 0;
#X connect 21 0 22 0;
#X connect 22 0 23 0;
#X connect 23 0 24 0;
#X connect 24 0 25 0;
#X connect 25 0 26 0;
#X connect 26 0 27 0;
#X connect 27 0 28 0;
#X connect 28 0 29 0;
#X connect 29 0 30 0;
#X connect 30 0 31 0;
#X connect 31 0 32 0;
#X connect 32 0 33 0;
#X connect 33 0 34 0;
#X connect 34 0 35 0;
#X connect 36 0 0 0;
#X restore 713 192 pd dispatchers;
#X obj 198 215 sig~;
#X obj 198 235 s~ \$0-keyscale;
#X obj 79 391 sig~;
#X obj 646 136 route save;
#X obj 646 192 outlet;
#N canvas 0 0 901 408 envelopes 0;
#X obj 499 192 t a a;
#X obj 60 184 t a a b;
#X obj 276 189 t a a b;
#X obj 116 74 r \$0-env1a;
#X obj 144 94 r \$0-env1d;
#X obj 172 112 r \$0-env1s;
#X obj 200 130 r \$0-env1r;
#X obj 332 71 r \$0-env2a;
#X obj 360 88 r \$0-env2d;
#X obj 60 54 r \$0-envelopes;
#X obj 276 51 r \$0-envelopes;
#X obj 499 52 r \$0-envelopes;
#X obj 555 72 r \$0-env3a;
#X obj 583 90 r \$0-env3d;
#X obj 611 108 r \$0-env3s;
#X obj 640 126 r \$0-env3r;
#X obj 116 122 * 2000;
#X obj 144 142 * 4000;
#X obj 172 164 * 100;
#X obj 201 185 * 7000;
#X obj 332 122 * 2000;
#X obj 360 142 * 4000;
#X obj 388 164 * 100;
#X obj 417 185 * 7000;
#X obj 555 122 * 2000;
#X obj 583 142 * 4000;
#X obj 611 164 * 100;
#X obj 640 185 * 7000;
#X obj 388 106 r \$0-env2s;
#X obj 417 125 r \$0-env2r;
#X obj 60 210 c_adsr 1 10 100 50 300;
#X obj 276 215 c_adsr 1 10 100 50 300;
#X obj 499 216 c_adsr 1 10 100 50 400;
#X obj 59 235 s~ \$0-e1;
#X obj 275 237 s~ \$0-e2;
#X obj 499 240 s~ \$0-e3;
#X connect 0 0 32 0;
#X connect 0 1 32 1;
#X connect 1 0 30 0;
#X connect 1 1 30 1;
#X connect 2 0 31 0;
#X connect 2 1 31 1;
#X connect 3 0 16 0;
#X connect 4 0 17 0;
#X connect 5 0 18 0;
#X connect 6 0 19 0;
#X connect 7 0 20 0;
#X connect 8 0 21 0;
#X connect 9 0 1 0;
#X connect 10 0 2 0;
#X connect 11 0 0 0;
#X connect 12 0 24 0;
#X connect 13 0 25 0;
#X connect 14 0 26 0;
#X connect 15 0 27 0;
#X connect 16 0 30 2;
#X connect 17 0 30 3;
#X connect 18 0 30 4;
#X connect 19 0 30 5;
#X connect 20 0 31 2;
#X connect 21 0 31 3;
#X connect 22 0 31 4;
#X connect 23 0 31 5;
#X connect 24 0 32 2;
#X connect 25 0 32 3;
#X connect 26 0 32 4;
#X connect 27 0 32 5;
#X connect 28 0 22 0;
#X connect 29 0 23 0;
#X connect 30 0 33 0;
#X connect 31 0 34 0;
#X connect 32 0 35 0;
#X restore 237 42 pd envelopes;
#X obj 646 113 list trim;
#X obj 79 448 *~;
#X obj 123 500 *~;
#X obj 148 288 sig~;
#X obj 148 251 r \$0-mod1b;
#X obj 134 480 r~ \$0-keyscale;
#N canvas 0 0 848 695 vibdel 0;
#X obj 392 194 f 0;
#X msg 392 219 0 \, 1 \$1;
#X obj 409 161 * 3000;
#X obj 394 247 line~;
#X obj 377 105 inlet trig;
#X obj 290 121 inlet~;
#X obj 295 327 outlet~;
#X obj 302 284 *~;
#X obj 410 137 inlet fadein;
#X obj 359 284 *~;
#X connect 0 0 1 0;
#X connect 1 0 3 0;
#X connect 2 0 0 1;
#X connect 3 0 9 1;
#X connect 3 0 9 0;
#X connect 4 0 0 0;
#X connect 5 0 7 0;
#X connect 7 0 6 0;
#X connect 8 0 2 0;
#X connect 9 0 7 1;
#X restore 148 319 pd vibdel;
#X obj 191 291 r \$0-mod1c;
#X obj 124 521 +~;
#X obj 149 268 * 100;
#X obj 79 356 r \$0-mod1a;
#X obj 646 159 u_loader s_ejun-\$1 \$0;
#X obj 139 197 *~ 0.5;
#X obj 162 41 t a b b b b;
#X obj 227 81 > 0;
#X obj 162 65 unpack f f f;
#X obj 230 101 sel 1;
#X obj 123 550 s~ \$0-f0;
#N canvas 0 0 450 300 lfo 0;
#X obj 99 104 *~ -1;
#X obj 77 155 min~;
#X obj 99 129 +~ 1;
#X obj 77 80 phasor~ 6;
#X obj 77 177 -~ 0.25;
#X obj 77 199 *~ 2;
#X obj 77 221 outlet~;
#X obj 132 34 t b;
#X msg 132 54 0;
#X obj 132 14 inlet phasesync;
#X obj 78 54 inlet~ f;
#X connect 0 0 2 0;
#X connect 1 0 4 0;
#X connect 2 0 1 1;
#X connect 3 0 0 0;
#X connect 3 0 1 0;
#X connect 4 0 5 0;
#X connect 5 0 6 0;
#X connect 7 0 8 0;
#X connect 8 0 3 1;
#X connect 9 0 7 0;
#X connect 10 0 3 0;
#X restore 79 410 pd lfo;
#X obj 379 620 *~;
#X text 425 546 ajf;
#X obj 421 604 r~ \$0-e1;
#X obj 379 660 outlet~;
#X obj 349 212 r~ \$0-f0;
#X obj 79 374 * 10;
#X obj 521 393 r \$0-mod2a;
#X obj 521 413 sig~;
#X obj 501 507 r \$0-mod3a;
#X obj 501 525 * 4000;
#X obj 378 379 s_blsaw;
#X obj 532 355 s_blsaw;
#X obj 532 314 -~;
#X obj 378 487 *~ 0.33;
#X obj 520 473 +~ 30;
#X obj 378 512 vcf~ 1.6;
#X obj 348 337 *~;
#N canvas 0 0 348 187 oct 0;
#X obj 86 133 pow;
#X obj 86 108 swap 2;
#X obj 88 65 - 2;
#X obj 88 13 inlet;
#X obj 86 162 outlet;
#X obj 166 11 loadbang;
#X msg 166 36 2;
#X obj 87 88 int;
#X obj 87 42 * 4;
#X connect 0 0 4 0;
#X connect 1 0 0 0;
#X connect 1 1 0 1;
#X connect 2 0 7 0;
#X connect 3 0 8 0;
#X connect 5 0 6 0;
#X connect 6 0 8 0;
#X connect 7 0 1 0;
#X connect 8 0 2 0;
#X restore 360 295 pd oct;
#X obj 360 316 sig~;
#X obj 533 334 *~;
#N canvas 0 0 348 187 oct 0;
#X obj 88 114 pow;
#X obj 88 89 swap 2;
#X obj 88 65 - 2;
#X obj 88 13 inlet;
#X obj 88 143 outlet;
#X obj 166 11 loadbang;
#X msg 166 36 2;
#X obj 87 42 * 6;
#X connect 0 0 4 0;
#X connect 1 0 0 0;
#X connect 1 1 0 1;
#X connect 2 0 1 0;
#X connect 3 0 7 0;
#X connect 5 0 6 0;
#X connect 6 0 7 0;
#X connect 7 0 2 0;
#X restore 554 293 pd oct;
#X obj 554 314 sig~;
#X text 166 633 improved junoish \, ajf 2010;
#X obj 378 529 vcf~ 1.6;
#X obj 441 364 s_blsquare;
#X obj 440 312 *~;
#N canvas 0 0 348 187 oct 0;
#X obj 88 114 pow;
#X obj 88 89 swap 2;
#X obj 88 65 - 2;
#X obj 88 13 inlet;
#X obj 88 143 outlet;
#X obj 166 11 loadbang;
#X msg 166 36 2;
#X obj 86 42 * 4;
#X connect 0 0 4 0;
#X connect 1 0 0 0;
#X connect 1 1 0 1;
#X connect 2 0 1 0;
#X connect 3 0 7 0;
#X connect 5 0 6 0;
#X connect 6 0 7 0;
#X connect 7 0 2 0;
#X restore 452 262 pd oct;
#X obj 452 283 sig~;
#X obj 378 569 *~;
#X obj 473 554 sig~;
#X obj 472 536 + 1;
#X obj 471 518 * 5;
#X obj 430 473 r \$0-mod2b;
#X text 429 461 resonance;
#X obj 554 272 r \$0-osc3a;
#X obj 361 265 r \$0-osc1a;
#N canvas 0 0 450 300 xf 0;
#X obj 76 87 inlet~;
#X obj 142 87 inlet~;
#X obj 77 198 outlet~;
#X obj 141 136 -~;
#X obj 141 156 *~;
#X obj 201 87 inlet~;
#X connect 0 0 3 1;
#X connect 0 0 2 0;
#X connect 1 0 3 0;
#X connect 3 0 4 0;
#X connect 4 0 2 0;
#X connect 5 0 4 1;
#X restore 377 437 pd xf;
#X obj 400 396 r \$0-osc1b;
#X obj 399 414 sig~;
#N canvas 0 0 450 300 xf 0;
#X obj 76 87 inlet~;
#X obj 142 87 inlet~;
#X obj 77 198 outlet~;
#X obj 141 136 -~;
#X obj 141 156 *~;
#X obj 201 87 inlet~;
#X connect 0 0 3 1;
#X connect 0 0 2 0;
#X connect 1 0 3 0;
#X connect 3 0 4 0;
#X connect 4 0 2 0;
#X connect 5 0 4 1;
#X restore 378 463 pd xf;
#X obj 429 430 sig~;
#X obj 430 412 r \$0-osc2b;
#X obj 545 140 r \$0-osc2c;
#X obj 546 159 sig~;
#X obj 557 102 r~ \$0-keyscale;
#X obj 557 121 *~ 30;
#X obj 546 180 *~;
#X obj 546 211 *~;
#X obj 575 356 r~ \$0-e2;
#X obj 479 284 r \$0-osc2d;
#X obj 452 237 r \$0-osc2a;
#X obj 377 549 vcf~ 1.6;
#X obj 575 418 *~;
#X obj 520 433 +~;
#X obj 589 396 sig~;
#X obj 589 376 r \$0-mod2c;
#X obj 520 453 *~ 5000;
#X obj 501 554 + 10;
#X obj 379 586 hip~ 10;
#X obj 379 603 hip~ 10;
#X obj 200 358 *~;
#X obj 213 338 sig~;
#X obj 463 324 *~;
#X text 274 318 pwm mod;
#X obj 213 318 r \$0-mod1d;
#X obj 199 381 +~ 0.5;
#X obj 479 302 *~ 0.25;
#X obj 463 343 +~ 0.02;
#X obj 430 496 * 4;
#X obj 430 518 + 0.125;
#X obj 573 179 r~ \$0-e3;
#X obj 237 380 r \$0-osc2c;
#X obj 238 399 sig~;
#X obj 249 342 r~ \$0-keyscale;
#X obj 238 420 *~;
#X obj 239 438 *~;
#X obj 249 359 *~ 2;
#N canvas 0 0 450 300 xf 0;
#X obj 76 87 inlet~;
#X obj 142 87 inlet~;
#X obj 77 198 outlet~;
#X obj 141 136 -~;
#X obj 141 156 *~;
#X obj 201 87 inlet~;
#X connect 0 0 3 1;
#X connect 0 0 2 0;
#X connect 1 0 3 0;
#X connect 3 0 4 0;
#X connect 4 0 2 0;
#X connect 5 0 4 1;
#X restore 228 463 pd xf;
#X obj 260 435 sig~;
#X obj 260 416 r \$0-mod2d;
#X text 340 28 A Juno/Jupiter style analogue voice engine for 80s style
synthesiser sounds \, ajf 2010;
#X obj 475 584 r \$0-mod3b;
#X obj 475 618 sig~;
#X obj 475 600 * 3;
#X obj 380 639 *~;
#X connect 0 0 27 0;
#X connect 1 0 15 0;
#X connect 2 0 0 0;
#X connect 2 0 6 0;
#X connect 3 0 28 0;
#X connect 4 0 7 0;
#X connect 5 0 9 0;
#X connect 6 0 5 0;
#X connect 9 0 10 0;
#X connect 11 0 33 0;
#X connect 12 0 26 0;
#X connect 12 1 8 0;
#X connect 15 0 12 0;
#X connect 16 0 17 0;
#X connect 17 0 23 0;
#X connect 18 0 21 0;
#X connect 19 0 24 0;
#X connect 20 0 17 1;
#X connect 21 0 16 1;
#X connect 22 0 21 2;
#X connect 23 0 32 0;
#X connect 24 0 18 0;
#X connect 25 0 39 0;
#X connect 26 0 13 0;
#X connect 27 0 23 1;
#X connect 28 0 30 0;
#X connect 28 1 21 1;
#X connect 29 0 31 0;
#X connect 30 0 2 0;
#X connect 30 1 4 0;
#X connect 30 2 29 0;
#X connect 31 0 33 1;
#X connect 33 0 16 0;
#X connect 33 0 94 0;
#X connect 34 0 118 0;
#X connect 36 0 34 1;
#X connect 38 0 50 0;
#X connect 38 0 59 0;
#X connect 38 0 46 0;
#X connect 39 0 11 0;
#X connect 40 0 41 0;
#X connect 41 0 87 0;
#X connect 42 0 43 0;
#X connect 43 0 91 0;
#X connect 44 0 70 0;
#X connect 45 0 73 1;
#X connect 46 0 53 0;
#X connect 47 0 49 0;
#X connect 48 0 49 1;
#X connect 48 0 57 1;
#X connect 48 0 85 1;
#X connect 49 0 57 0;
#X connect 50 0 44 0;
#X connect 51 0 52 0;
#X connect 52 0 50 1;
#X connect 53 0 45 0;
#X connect 54 0 55 0;
#X connect 55 0 53 1;
#X connect 57 0 85 0;
#X connect 58 0 70 1;
#X connect 59 0 58 0;
#X connect 60 0 61 0;
#X connect 61 0 59 1;
#X connect 62 0 92 0;
#X connect 63 0 62 1;
#X connect 64 0 63 0;
#X connect 65 0 64 0;
#X connect 66 0 65 0;
#X connect 66 0 102 0;
#X connect 68 0 54 0;
#X connect 69 0 51 0;
#X connect 70 0 73 0;
#X connect 71 0 72 0;
#X connect 72 0 70 2;
#X connect 73 0 47 0;
#X connect 74 0 73 2;
#X connect 75 0 74 0;
#X connect 76 0 77 0;
#X connect 77 0 80 0;
#X connect 78 0 79 0;
#X connect 79 0 80 1;
#X connect 80 0 81 0;
#X connect 81 0 46 1;
#X connect 82 0 86 0;
#X connect 83 0 100 0;
#X connect 84 0 60 0;
#X connect 85 0 62 0;
#X connect 86 0 87 1;
#X connect 87 0 90 0;
#X connect 88 0 86 1;
#X connect 89 0 88 0;
#X connect 90 0 48 0;
#X connect 91 0 92 1;
#X connect 91 0 93 1;
#X connect 92 0 93 0;
#X connect 93 0 34 0;
#X connect 94 0 99 0;
#X connect 95 0 94 1;
#X connect 96 0 101 0;
#X connect 98 0 95 0;
#X connect 99 0 111 0;
#X connect 100 0 96 1;
#X connect 101 0 58 1;
#X connect 102 0 103 0;
#X connect 103 0 49 2;
#X connect 103 0 57 2;
#X connect 103 0 85 2;
#X connect 104 0 81 1;
#X connect 104 0 109 1;
#X connect 105 0 106 0;
#X connect 106 0 108 0;
#X connect 107 0 110 0;
#X connect 108 0 109 0;
#X connect 109 0 111 1;
#X connect 110 0 108 1;
#X connect 111 0 96 0;
#X connect 112 0 111 2;
#X connect 113 0 112 0;
#X connect 115 0 117 0;
#X connect 116 0 118 1;
#X connect 117 0 116 0;
#X connect 118 0 37 0;
