#N canvas 0 22 813 445 10;
#X obj 85 291 outlet~;
#X obj 267 292 outlet~;
#X obj 157 41 inlet;
#X obj 305 41 inlet;
#X obj 368 292 outlet;
#X obj 86 242 s_fplaytable \$1;
#X obj 266 240 s_fplaytable \$1;
#N canvas 172 83 586 377 LICENSE-GPL 0;
#X text 57 88 This program is free software: you can redistribute it
and/or modify it under the terms of the GNU General Public License
as published by the Free Software Foundation \, either version 3 of
the License \, or (at your option) any later version.;
#X text 58 168 This program is distributed in the hope that it will
be useful \, but WITHOUT ANY WARRANTY \; without even the implied warranty
of MERCHANTABILITY or FITNESS FOR A PARTICULAR PURPOSE. See the GNU
General Public License for more details.;
#X text 57 261 You should have received a copy of the GNU General Public
License along with this program. If not \, see <http://www.gnu.org/licenses/>.
;
#X text 61 54 Copyright (C) 2009 \, Reality Jockey Ltd.;
#X text 60 325 See the file LICENSE.txt for the full license text.
;
#X restore 531 66 pd LICENSE-GPL;
#X obj 157 70 list split 1;
#X msg 86 177 symbol \$1-1;
#X msg 266 180 symbol \$1-2;
#X obj 266 218 list append;
#X obj 86 221 list append;
#X connect 2 0 8 0;
#X connect 3 0 5 1;
#X connect 3 0 6 1;
#X connect 5 0 0 0;
#X connect 6 0 1 0;
#X connect 6 1 4 0;
#X connect 8 0 9 0;
#X connect 8 0 10 0;
#X connect 8 1 11 1;
#X connect 8 1 12 1;
#X connect 9 0 12 0;
#X connect 10 0 11 0;
#X connect 11 0 6 0;
#X connect 12 0 5 0;
