#N canvas 129 48 912 615 8;
#X obj 60 194 sig~;
#X obj 610 87 inlet;
#X obj 126 137 mtof;
#X obj 126 19 inlet;
#X obj 193 137 / 127;
#X obj 162 194 sqrt;
#X obj 162 173 / 2000;
#X obj 193 158 s \$0-envelopes;
#N canvas 0 0 262 827 dispatchers 0;
#X obj 97 -53 u_dispatch \$0 env1a;
#X obj 97 -29 u_dispatch \$0 env1d;
#X obj 97 -8 u_dispatch \$0 env1s;
#X obj 97 14 u_dispatch \$0 env1r;
#X obj 97 39 u_dispatch \$0 env2a;
#X obj 97 63 u_dispatch \$0 env2d;
#X obj 97 84 u_dispatch \$0 env2s;
#X obj 97 106 u_dispatch \$0 env2r;
#X obj 97 129 u_dispatch \$0 env3a;
#X obj 97 153 u_dispatch \$0 env3d;
#X obj 97 174 u_dispatch \$0 env3s;
#X obj 97 196 u_dispatch \$0 env3r;
#X obj 97 220 u_dispatch \$0 osc1a;
#X obj 97 241 u_dispatch \$0 osc1b;
#X obj 97 263 u_dispatch \$0 osc1c;
#X obj 97 284 u_dispatch \$0 osc1d;
#X obj 97 306 u_dispatch \$0 osc2a;
#X obj 97 327 u_dispatch \$0 osc2b;
#X obj 97 349 u_dispatch \$0 osc2c;
#X obj 97 370 u_dispatch \$0 osc2d;
#X obj 97 390 u_dispatch \$0 osc3a;
#X obj 97 411 u_dispatch \$0 osc3b;
#X obj 97 433 u_dispatch \$0 osc3c;
#X obj 97 454 u_dispatch \$0 osc3d;
#X obj 97 476 u_dispatch \$0 mod1a;
#X obj 97 497 u_dispatch \$0 mod1b;
#X obj 97 519 u_dispatch \$0 mod1c;
#X obj 97 540 u_dispatch \$0 mod1d;
#X obj 97 561 u_dispatch \$0 mod2a;
#X obj 97 582 u_dispatch \$0 mod2b;
#X obj 97 604 u_dispatch \$0 mod2c;
#X obj 97 625 u_dispatch \$0 mod2d;
#X obj 97 646 u_dispatch \$0 mod3a;
#X obj 97 667 u_dispatch \$0 mod3b;
#X obj 97 688 u_dispatch \$0 mod3c;
#X obj 97 710 u_dispatch \$0 mod3d;
#X obj 97 -78 inlet;
#X connect 0 0 1 0;
#X connect 1 0 2 0;
#X connect 2 0 3 0;
#X connect 3 0 4 0;
#X connect 4 0 5 0;
#X connect 5 0 6 0;
#X connect 6 0 7 0;
#X connect 7 0 8 0;
#X connect 8 0 9 0;
#X connect 9 0 10 0;
#X connect 10 0 11 0;
#X connect 11 0 12 0;
#X connect 12 0 13 0;
#X connect 13 0 14 0;
#X connect 14 0 15 0;
#X connect 15 0 16 0;
#X connect 16 0 17 0;
#X connect 17 0 18 0;
#X connect 18 0 19 0;
#X connect 19 0 20 0;
#X connect 20 0 21 0;
#X connect 21 0 22 0;
#X connect 22 0 23 0;
#X connect 23 0 24 0;
#X connect 24 0 25 0;
#X connect 25 0 26 0;
#X connect 26 0 27 0;
#X connect 27 0 28 0;
#X connect 28 0 29 0;
#X connect 29 0 30 0;
#X connect 30 0 31 0;
#X connect 31 0 32 0;
#X connect 32 0 33 0;
#X connect 33 0 34 0;
#X connect 34 0 35 0;
#X connect 36 0 0 0;
#X restore 667 192 pd dispatchers;
#X obj 162 215 sig~;
#X obj 162 236 s~ \$0-keyscale;
#X obj 43 399 sig~;
#X obj 610 137 route save;
#X obj 610 193 outlet;
#N canvas 0 0 901 408 envelopes 0;
#X obj 499 192 t a a;
#X obj 60 184 t a a b;
#X obj 276 189 t a a b;
#X obj 116 74 r \$0-env1a;
#X obj 144 94 r \$0-env1d;
#X obj 172 112 r \$0-env1s;
#X obj 200 130 r \$0-env1r;
#X obj 332 71 r \$0-env2a;
#X obj 360 88 r \$0-env2d;
#X obj 60 54 r \$0-envelopes;
#X obj 276 51 r \$0-envelopes;
#X obj 499 52 r \$0-envelopes;
#X obj 555 72 r \$0-env3a;
#X obj 583 90 r \$0-env3d;
#X obj 611 108 r \$0-env3s;
#X obj 640 126 r \$0-env3r;
#X obj 116 122 * 2000;
#X obj 144 142 * 4000;
#X obj 172 164 * 100;
#X obj 201 185 * 7000;
#X obj 332 122 * 2000;
#X obj 360 142 * 4000;
#X obj 388 164 * 100;
#X obj 417 185 * 7000;
#X obj 555 122 * 2000;
#X obj 583 142 * 4000;
#X obj 611 164 * 100;
#X obj 640 185 * 7000;
#X obj 388 106 r \$0-env2s;
#X obj 417 125 r \$0-env2r;
#X obj 60 210 c_adsr 1 10 100 50 300;
#X obj 276 215 c_adsr 1 10 100 50 300;
#X obj 499 216 c_adsr 1 10 100 50 400;
#X obj 59 235 s~ \$0-e1;
#X obj 275 237 s~ \$0-e2;
#X obj 499 240 s~ \$0-e3;
#X connect 0 0 32 0;
#X connect 0 1 32 1;
#X connect 1 0 30 0;
#X connect 1 1 30 1;
#X connect 2 0 31 0;
#X connect 2 1 31 1;
#X connect 3 0 16 0;
#X connect 4 0 17 0;
#X connect 5 0 18 0;
#X connect 6 0 19 0;
#X connect 7 0 20 0;
#X connect 8 0 21 0;
#X connect 9 0 1 0;
#X connect 10 0 2 0;
#X connect 11 0 0 0;
#X connect 12 0 24 0;
#X connect 13 0 25 0;
#X connect 14 0 26 0;
#X connect 15 0 27 0;
#X connect 16 0 30 2;
#X connect 17 0 30 3;
#X connect 18 0 30 4;
#X connect 19 0 30 5;
#X connect 20 0 31 2;
#X connect 21 0 31 3;
#X connect 22 0 31 4;
#X connect 23 0 31 5;
#X connect 24 0 32 2;
#X connect 25 0 32 3;
#X connect 26 0 32 4;
#X connect 27 0 32 5;
#X connect 28 0 22 0;
#X connect 29 0 23 0;
#X connect 30 0 33 0;
#X connect 31 0 34 0;
#X connect 32 0 35 0;
#X restore 201 42 pd envelopes;
#X obj 610 116 list trim;
#X obj 43 449 *~;
#X obj 87 501 *~;
#X obj 112 294 sig~;
#X obj 112 252 r \$0-mod1b;
#X obj 113 503 r~ \$0-keyscale;
#N canvas 0 0 848 695 vibdel 0;
#X obj 392 194 f 0;
#X msg 392 219 0 \, 1 \$1;
#X obj 409 161 * 3000;
#X obj 394 247 line~;
#X obj 377 105 inlet trig;
#X obj 290 121 inlet~;
#X obj 295 327 outlet~;
#X obj 302 284 *~;
#X obj 410 137 inlet fadein;
#X obj 359 284 *~;
#X connect 0 0 1 0;
#X connect 1 0 3 0;
#X connect 2 0 0 1;
#X connect 3 0 9 1;
#X connect 3 0 9 0;
#X connect 4 0 0 0;
#X connect 5 0 7 0;
#X connect 7 0 6 0;
#X connect 8 0 2 0;
#X connect 9 0 7 1;
#X restore 112 315 pd vibdel;
#X obj 155 289 r \$0-mod1c;
#X obj 87 522 +~;
#X obj 112 273 * 100;
#X obj 43 357 r \$0-mod1a;
#X obj 610 158 u_loader s_hstr-\$1 \$0;
#X obj 60 215 *~ 0.5;
#X obj 126 40 t a b b b b;
#X obj 191 82 > 0;
#X obj 126 61 unpack f f f;
#X obj 191 103 sel 1;
#X obj 87 551 s~ \$0-f0;
#N canvas 0 0 450 300 lfo 0;
#X obj 99 104 *~ -1;
#X obj 77 155 min~;
#X obj 99 129 +~ 1;
#X obj 77 80 phasor~ 6;
#X obj 77 177 -~ 0.25;
#X obj 77 199 *~ 2;
#X obj 77 221 outlet~;
#X obj 132 34 t b;
#X msg 132 54 0;
#X obj 132 14 inlet phasesync;
#X obj 78 54 inlet~ f;
#X connect 0 0 2 0;
#X connect 1 0 4 0;
#X connect 2 0 1 1;
#X connect 3 0 0 0;
#X connect 3 0 1 0;
#X connect 4 0 5 0;
#X connect 5 0 6 0;
#X connect 7 0 8 0;
#X connect 8 0 3 1;
#X connect 9 0 7 0;
#X connect 10 0 3 0;
#X restore 43 420 pd lfo;
#X text 439 413 ajf;
#X obj 414 486 outlet~;
#X obj 436 143 r~ \$0-f0;
#X obj 43 378 * 10;
#X obj 536 293 r \$0-mod3a;
#X obj 536 314 * 4000;
#X obj 536 335 + 10;
#X obj 414 361 hip~ 10;
#X obj 414 382 hip~ 10;
#X obj 510 361 r \$0-mod3b;
#X obj 510 403 sig~;
#X obj 415 414 *~;
#N canvas 172 83 586 377 LICENSE-GPL 0;
#X text 57 88 This program is free software: you can redistribute it
and/or modify it under the terms of the GNU General Public License
as published by the Free Software Foundation \, either version 3 of
the License \, or (at your option) any later version.;
#X text 58 168 This program is distributed in the hope that it will
be useful \, but WITHOUT ANY WARRANTY \; without even the implied warranty
of MERCHANTABILITY or FITNESS FOR A PARTICULAR PURPOSE. See the GNU
General Public License for more details.;
#X text 57 261 You should have received a copy of the GNU General Public
License along with this program. If not \, see <http://www.gnu.org/licenses/>.
;
#X text 61 54 Copyright (C) 2009 \, Reality Jockey Ltd.;
#X text 60 325 See the file LICENSE.txt for the full license text.
;
#X restore 658 87 pd LICENSE-GPL;
#X text 199 541 cascade waveshaper \, ajf 2010;
#X text 304 31 A cascade waveshaping instrument;
#X obj 48 32 r \$0-osc2a;
#X obj 48 53 * 4;
#X obj 48 74 - 2;
#X obj 48 95 int;
#X obj 48 137 pow;
#X obj 48 116 swap 2;
#X obj 60 173 * 1;
#N canvas 0 0 1440 816 twinsaw 0;
#X obj 365 625 outlet~;
#X obj 267 449 *~ 2048;
#X obj 461 441 *~ 2048;
#X obj 267 394 phasor~;
#X obj 460 416 phasor~;
#X obj 284 248 +~ 1;
#X obj 283 227 osc~ 3.3;
#X obj 585 255 osc~ 5;
#X obj 267 470 tabread~ \$0-saw1;
#X obj 251 141 inlet~ f;
#X obj 283 192 * 20;
#X obj 282 173 r \$0-osc1a;
#X obj 365 145 r \$0-osc1b;
#X obj 363 185 sig~;
#X obj 363 167 * 10;
#X obj 378 202 r~ \$0-keyscale;
#X obj 364 223 *~;
#X obj 283 268 *~;
#X obj 587 234 * 20;
#X obj 586 215 r \$0-osc1c;
#X obj 585 296 *~;
#X obj 653 230 sig~;
#X obj 653 212 * 10;
#X obj 668 247 r~ \$0-keyscale;
#X obj 654 268 *~;
#X obj 655 190 r \$0-osc1d;
#X obj 368 601 *~;
#X obj 382 580 r~ \$0-e1;
#X obj 460 462 tabread~ \$0-saw2;
#N canvas 0 0 450 300 xf 0;
#X obj 76 87 inlet~;
#X obj 142 87 inlet~;
#X obj 77 198 outlet~;
#X obj 141 136 -~;
#X obj 141 156 *~;
#X obj 201 87 inlet~;
#X connect 0 0 3 1;
#X connect 0 0 2 0;
#X connect 1 0 3 0;
#X connect 3 0 4 0;
#X connect 4 0 2 0;
#X connect 5 0 4 1;
#X restore 368 550 pd xf;
#X obj 272 351 +~;
#X obj 461 380 -~;
#X obj 584 385 +~ 0.5;
#X obj 515 137 sig~;
#X obj 483 177 *~;
#X obj 328 314 *~;
#X obj 514 118 r \$0-osc3a;
#X obj 571 342 *~;
#X obj 453 120 r~ \$0-e2;
#X obj 302 292 +~;
#X obj 627 124 inlet~ noise;
#X connect 1 0 8 0;
#X connect 2 0 28 0;
#X connect 3 0 1 0;
#X connect 4 0 2 0;
#X connect 5 0 17 0;
#X connect 6 0 5 0;
#X connect 7 0 20 0;
#X connect 8 0 29 0;
#X connect 9 0 30 0;
#X connect 9 0 31 0;
#X connect 10 0 6 0;
#X connect 11 0 10 0;
#X connect 12 0 14 0;
#X connect 13 0 16 0;
#X connect 14 0 13 0;
#X connect 15 0 16 1;
#X connect 16 0 17 1;
#X connect 17 0 39 0;
#X connect 18 0 7 0;
#X connect 19 0 18 0;
#X connect 20 0 37 1;
#X connect 21 0 24 0;
#X connect 22 0 21 0;
#X connect 23 0 24 1;
#X connect 24 0 20 1;
#X connect 25 0 22 0;
#X connect 26 0 0 0;
#X connect 27 0 26 1;
#X connect 28 0 29 1;
#X connect 29 0 26 0;
#X connect 30 0 3 0;
#X connect 31 0 4 0;
#X connect 32 0 29 2;
#X connect 33 0 34 1;
#X connect 34 0 35 1;
#X connect 34 0 37 0;
#X connect 35 0 30 1;
#X connect 35 0 31 1;
#X connect 36 0 33 0;
#X connect 37 0 32 0;
#X connect 38 0 34 0;
#X connect 39 0 35 0;
#X connect 40 0 39 1;
#X restore 414 282 pd twinsaw;
#N canvas 0 0 509 352 noise 0;
#X obj 179 29 noise~;
#X obj 179 53 lop~ 6;
#X obj 180 77 lop~ 6;
#X obj 312 30 * 100;
#X obj 177 129 *~;
#X obj 311 48 sig~;
#X obj 343 47 r~ \$0-keyscale;
#X obj 330 81 *~;
#X obj 251 16 r \$0-osc2b;
#X obj 313 11 r \$0-osc2c;
#X obj 138 244 *~;
#X obj 78 139 r~ \$0-e3;
#X obj 138 275 outlet~;
#X obj 251 40 * 2000;
#X connect 0 0 1 0;
#X connect 1 0 2 0;
#X connect 2 0 4 0;
#X connect 3 0 5 0;
#X connect 4 0 10 1;
#X connect 5 0 7 0;
#X connect 6 0 7 1;
#X connect 7 0 4 1;
#X connect 8 0 13 0;
#X connect 9 0 3 0;
#X connect 10 0 12 0;
#X connect 11 0 10 0;
#X connect 13 0 1 1;
#X connect 13 0 2 1;
#X restore 499 251 pd noise;
#N canvas 0 0 450 300 xf 0;
#X obj 76 87 inlet~;
#X obj 142 87 inlet~;
#X obj 77 198 outlet~;
#X obj 141 136 -~;
#X obj 141 156 *~;
#X obj 201 87 inlet~;
#X connect 0 0 3 1;
#X connect 0 0 2 0;
#X connect 1 0 3 0;
#X connect 3 0 4 0;
#X connect 4 0 2 0;
#X connect 5 0 4 1;
#X restore 504 184 pd xf;
#N canvas 0 0 739 486 formant 0;
#X obj 241 197 bp~ 1 1;
#X obj 287 196 bp~ 1 1;
#X obj 335 195 bp~ 1 1;
#X obj 282 263 outlet~;
#X obj 240 106 inlet~;
#X obj 450 98 + 0.5;
#X obj 450 77 * 10;
#X obj 450 56 r \$0-mod2a;
#X obj 259 21 r \$0-mod2b;
#X obj 258 43 * 1000;
#X obj 257 64 + 20;
#X obj 319 21 r \$0-mod2b;
#X obj 317 64 + 700;
#X obj 318 43 * 1500;
#X obj 380 20 r \$0-mod2b;
#X obj 377 63 + 2000;
#X obj 379 42 * 4000;
#X connect 0 0 3 0;
#X connect 1 0 3 0;
#X connect 2 0 3 0;
#X connect 4 0 0 0;
#X connect 4 0 1 0;
#X connect 4 0 2 0;
#X connect 5 0 2 2;
#X connect 5 0 1 2;
#X connect 5 0 0 2;
#X connect 6 0 5 0;
#X connect 7 0 6 0;
#X connect 8 0 9 0;
#X connect 9 0 10 0;
#X connect 10 0 0 1;
#X connect 11 0 13 0;
#X connect 12 0 1 1;
#X connect 13 0 12 0;
#X connect 14 0 16 0;
#X connect 15 0 2 1;
#X connect 16 0 15 0;
#X restore 415 435 pd formant;
#N canvas 75 49 1110 434 waveselect 0;
#X msg 96 209 normalize;
#X msg 187 195 sinesum 2048 1 0.4 0.36 0.22 0.18 0.06 0.015 0.01;
#X msg 169 173 sinesum 2048 1 0.7 0.35 0.16 0.09 0.04;
#X msg 203 214 sinesum 2048 1 0.5 0.33 0.25 0.15 0.075 0.034 0.011
0.008 0.0023 0.0015;
#X msg 217 250 sinesum 2048 1 0.6 0.3 0.12 0.15 0.075 0.034 0.0221
0.011;
#X msg 234 278 sinesum 2048 1 0.4 0.5 0.3 0.2 0.07 0.05 0.02 0.01 0.007
0.005;
#X obj 92 129 t b f;
#X obj 169 123 sel 0 1 2 3 4;
#X obj 100 19 r \$0-osc3b;
#X obj 99 46 * 5;
#X obj 98 71 int;
#X msg 555 223 normalize;
#X obj 590 357 s \$0-saw2;
#X msg 646 209 sinesum 2048 1 0.4 0.36 0.22 0.18 0.06 0.015 0.01;
#X msg 628 187 sinesum 2048 1 0.7 0.35 0.16 0.09 0.04;
#X msg 662 228 sinesum 2048 1 0.5 0.33 0.25 0.15 0.075 0.034 0.011
0.008 0.0023 0.0015;
#X msg 676 264 sinesum 2048 1 0.6 0.3 0.12 0.15 0.075 0.034 0.0221
0.011;
#X msg 693 292 sinesum 2048 1 0.4 0.5 0.3 0.2 0.07 0.05 0.02 0.01 0.007
0.005;
#X obj 551 143 t b f;
#X obj 628 137 sel 0 1 2 3 4;
#X obj 552 53 * 5;
#X obj 551 78 int;
#X obj 554 26 r \$0-osc3c;
#X obj 131 343 s \$0-saw1;
#X obj 102 99 change;
#X obj 545 112 change;
#X connect 0 0 23 0;
#X connect 1 0 23 0;
#X connect 2 0 23 0;
#X connect 3 0 23 0;
#X connect 4 0 23 0;
#X connect 5 0 23 0;
#X connect 6 0 0 0;
#X connect 6 1 7 0;
#X connect 7 0 2 0;
#X connect 7 1 1 0;
#X connect 7 2 3 0;
#X connect 7 3 4 0;
#X connect 7 4 5 0;
#X connect 8 0 9 0;
#X connect 9 0 10 0;
#X connect 10 0 24 0;
#X connect 11 0 12 0;
#X connect 13 0 12 0;
#X connect 14 0 12 0;
#X connect 15 0 12 0;
#X connect 16 0 12 0;
#X connect 17 0 12 0;
#X connect 18 0 11 0;
#X connect 18 1 19 0;
#X connect 19 0 14 0;
#X connect 19 1 13 0;
#X connect 19 2 15 0;
#X connect 19 3 16 0;
#X connect 19 4 17 0;
#X connect 20 0 21 0;
#X connect 21 0 25 0;
#X connect 22 0 20 0;
#X connect 24 0 6 0;
#X connect 25 0 18 0;
#X restore 614 240 pd waveselect;
#X obj 464 314 *~ 0.1;
#X obj 303 319 *~;
#X obj 314 294 sig~;
#X obj 314 273 r \$0-osc2d;
#X obj 413 171 +~;
#X obj 375 88 delread~ \$0-fbd 8;
#X obj 303 340 delwrite~ \$0-fbd 10;
#X obj 374 120 *~ 2;
#X obj 510 382 * 2;
#X obj 731 240 table \$0-saw1;
#X obj 731 261 table \$0-saw2;
#X connect 0 0 27 0;
#X connect 1 0 15 0;
#X connect 2 0 6 0;
#X connect 2 0 55 0;
#X connect 3 0 28 0;
#X connect 4 0 7 0;
#X connect 5 0 9 0;
#X connect 6 0 5 0;
#X connect 9 0 10 0;
#X connect 11 0 33 0;
#X connect 12 0 26 0;
#X connect 12 1 8 0;
#X connect 15 0 12 0;
#X connect 16 0 17 0;
#X connect 17 0 23 0;
#X connect 18 0 21 0;
#X connect 19 0 24 0;
#X connect 20 0 17 1;
#X connect 21 0 16 1;
#X connect 22 0 21 2;
#X connect 23 0 32 0;
#X connect 24 0 18 0;
#X connect 25 0 37 0;
#X connect 26 0 13 0;
#X connect 27 0 23 1;
#X connect 28 0 30 0;
#X connect 28 1 21 1;
#X connect 29 0 31 0;
#X connect 30 0 2 0;
#X connect 30 1 4 0;
#X connect 30 2 29 0;
#X connect 31 0 33 1;
#X connect 33 0 16 0;
#X connect 36 0 65 1;
#X connect 37 0 11 0;
#X connect 38 0 39 0;
#X connect 39 0 40 0;
#X connect 40 0 41 1;
#X connect 40 0 42 1;
#X connect 41 0 42 0;
#X connect 42 0 45 0;
#X connect 43 0 69 0;
#X connect 44 0 45 1;
#X connect 45 0 59 0;
#X connect 49 0 50 0;
#X connect 50 0 51 0;
#X connect 51 0 52 0;
#X connect 52 0 54 0;
#X connect 53 0 55 1;
#X connect 54 0 53 0;
#X connect 54 1 53 1;
#X connect 55 0 0 0;
#X connect 56 0 41 0;
#X connect 56 0 62 0;
#X connect 57 0 61 0;
#X connect 59 0 35 0;
#X connect 61 0 41 0;
#X connect 62 0 67 0;
#X connect 63 0 62 1;
#X connect 64 0 63 0;
#X connect 65 0 56 0;
#X connect 66 0 68 0;
#X connect 68 0 65 0;
#X connect 69 0 44 0;
