#N canvas 67 36 1178 666 8;
#X obj 938 99 inlet;
#X obj 125 274 mtof;
#X obj 155 121 inlet;
#X obj 183 235 / 127;
#X obj 125 315 sqrt;
#X obj 125 294 / 2000;
#X obj 183 262 s \$0-envelopes;
#N canvas 0 0 262 827 dispatchers 0;
#X obj 97 -53 u_dispatch \$0 env1a;
#X obj 97 -29 u_dispatch \$0 env1d;
#X obj 97 -8 u_dispatch \$0 env1s;
#X obj 97 14 u_dispatch \$0 env1r;
#X obj 97 39 u_dispatch \$0 env2a;
#X obj 97 63 u_dispatch \$0 env2d;
#X obj 97 84 u_dispatch \$0 env2s;
#X obj 97 106 u_dispatch \$0 env2r;
#X obj 97 129 u_dispatch \$0 env3a;
#X obj 97 153 u_dispatch \$0 env3d;
#X obj 97 174 u_dispatch \$0 env3s;
#X obj 97 196 u_dispatch \$0 env3r;
#X obj 97 220 u_dispatch \$0 osc1a;
#X obj 97 241 u_dispatch \$0 osc1b;
#X obj 97 263 u_dispatch \$0 osc1c;
#X obj 97 284 u_dispatch \$0 osc1d;
#X obj 97 306 u_dispatch \$0 osc2a;
#X obj 97 327 u_dispatch \$0 osc2b;
#X obj 97 349 u_dispatch \$0 osc2c;
#X obj 97 370 u_dispatch \$0 osc2d;
#X obj 97 390 u_dispatch \$0 osc3a;
#X obj 97 411 u_dispatch \$0 osc3b;
#X obj 97 433 u_dispatch \$0 osc3c;
#X obj 97 454 u_dispatch \$0 osc3d;
#X obj 97 476 u_dispatch \$0 mod1a;
#X obj 97 497 u_dispatch \$0 mod1b;
#X obj 97 519 u_dispatch \$0 mod1c;
#X obj 97 540 u_dispatch \$0 mod1d;
#X obj 97 561 u_dispatch \$0 mod2a;
#X obj 97 582 u_dispatch \$0 mod2b;
#X obj 97 604 u_dispatch \$0 mod2c;
#X obj 97 625 u_dispatch \$0 mod2d;
#X obj 97 646 u_dispatch \$0 mod3a;
#X obj 97 667 u_dispatch \$0 mod3b;
#X obj 97 688 u_dispatch \$0 mod3c;
#X obj 97 710 u_dispatch \$0 mod3d;
#X obj 97 -78 inlet;
#X connect 0 0 1 0;
#X connect 1 0 2 0;
#X connect 2 0 3 0;
#X connect 3 0 4 0;
#X connect 4 0 5 0;
#X connect 5 0 6 0;
#X connect 6 0 7 0;
#X connect 7 0 8 0;
#X connect 8 0 9 0;
#X connect 9 0 10 0;
#X connect 10 0 11 0;
#X connect 11 0 12 0;
#X connect 12 0 13 0;
#X connect 13 0 14 0;
#X connect 14 0 15 0;
#X connect 15 0 16 0;
#X connect 16 0 17 0;
#X connect 17 0 18 0;
#X connect 18 0 19 0;
#X connect 19 0 20 0;
#X connect 20 0 21 0;
#X connect 21 0 22 0;
#X connect 22 0 23 0;
#X connect 23 0 24 0;
#X connect 24 0 25 0;
#X connect 25 0 26 0;
#X connect 26 0 27 0;
#X connect 27 0 28 0;
#X connect 28 0 29 0;
#X connect 29 0 30 0;
#X connect 30 0 31 0;
#X connect 31 0 32 0;
#X connect 32 0 33 0;
#X connect 33 0 34 0;
#X connect 34 0 35 0;
#X connect 36 0 0 0;
#X restore 994 198 pd dispatchers;
#X obj 125 335 sig~;
#X obj 125 355 s~ \$0-keyscale;
#X obj 937 141 route save;
#X obj 937 197 outlet;
#N canvas 0 0 901 408 envelopes 0;
#X obj 60 184 t a a b;
#X obj 276 189 t a a b;
#X obj 116 74 r \$0-env1a;
#X obj 144 94 r \$0-env1d;
#X obj 172 112 r \$0-env1s;
#X obj 200 130 r \$0-env1r;
#X obj 332 71 r \$0-env2a;
#X obj 360 88 r \$0-env2d;
#X obj 60 54 r \$0-envelopes;
#X obj 276 51 r \$0-envelopes;
#X obj 116 122 * 2000;
#X obj 144 142 * 4000;
#X obj 172 164 * 100;
#X obj 201 185 * 7000;
#X obj 332 122 * 2000;
#X obj 360 142 * 4000;
#X obj 388 164 * 100;
#X obj 417 185 * 7000;
#X obj 388 106 r \$0-env2s;
#X obj 417 125 r \$0-env2r;
#X obj 60 210 c_adsr 1 10 100 50 300;
#X obj 276 215 c_adsr 1 10 100 50 300;
#X obj 59 235 s~ \$0-e1;
#X obj 275 237 s~ \$0-e2;
#X obj 516 186 t a a b;
#X obj 516 48 r \$0-envelopes;
#X obj 572 119 * 2000;
#X obj 600 139 * 4000;
#X obj 628 161 * 100;
#X obj 657 182 * 7000;
#X obj 516 212 c_adsr 1 10 100 50 300;
#X obj 572 68 r \$0-env3a;
#X obj 600 85 r \$0-env3d;
#X obj 628 103 r \$0-env3s;
#X obj 657 122 r \$0-env3r;
#X obj 514 234 s~ \$0-e3;
#X connect 0 0 20 0;
#X connect 0 1 20 1;
#X connect 1 0 21 0;
#X connect 1 1 21 1;
#X connect 2 0 10 0;
#X connect 3 0 11 0;
#X connect 4 0 12 0;
#X connect 5 0 13 0;
#X connect 6 0 14 0;
#X connect 7 0 15 0;
#X connect 8 0 0 0;
#X connect 9 0 1 0;
#X connect 10 0 20 2;
#X connect 11 0 20 3;
#X connect 12 0 20 4;
#X connect 13 0 20 5;
#X connect 14 0 21 2;
#X connect 15 0 21 3;
#X connect 16 0 21 4;
#X connect 17 0 21 5;
#X connect 18 0 16 0;
#X connect 19 0 17 0;
#X connect 20 0 22 0;
#X connect 21 0 23 0;
#X connect 24 0 30 0;
#X connect 24 1 30 1;
#X connect 25 0 24 0;
#X connect 26 0 30 2;
#X connect 27 0 30 3;
#X connect 28 0 30 4;
#X connect 29 0 30 5;
#X connect 30 0 35 0;
#X connect 31 0 26 0;
#X connect 32 0 27 0;
#X connect 33 0 28 0;
#X connect 34 0 29 0;
#X restore 232 144 pd envelopes;
#X obj 937 118 list trim;
#X obj 155 144 t a b b b b;
#X obj 220 202 > 0;
#X obj 155 186 unpack f f f;
#X obj 223 222 sel 1;
#X obj 491 728 outlet~;
#N canvas 172 83 586 377 LICENSE-GPL 0;
#X text 57 88 This program is free software: you can redistribute it
and/or modify it under the terms of the GNU General Public License
as published by the Free Software Foundation \, either version 3 of
the License \, or (at your option) any later version.;
#X text 58 168 This program is distributed in the hope that it will
be useful \, but WITHOUT ANY WARRANTY \; without even the implied warranty
of MERCHANTABILITY or FITNESS FOR A PARTICULAR PURPOSE. See the GNU
General Public License for more details.;
#X text 57 261 You should have received a copy of the GNU General Public
License along with this program. If not \, see <http://www.gnu.org/licenses/>.
;
#X text 61 54 Copyright (C) 2009 \, Reality Jockey Ltd.;
#X text 60 325 See the file LICENSE.txt for the full license text.
;
#X restore 232 125 pd LICENSE-GPL;
#X obj 83 149 * 4;
#X obj 83 171 - 2;
#X obj 82 194 int;
#X obj 81 233 pow;
#X obj 80 212 swap 2;
#X obj 69 256 * 1;
#X obj 731 689 r \$0-mod3b;
#X obj 731 709 * 3;
#X obj 731 727 sig~;
#X obj 257 576 *~;
#X obj 83 128 r \$0-osc3a;
#X text 488 744 ajf 2010;
#X obj 69 278 s \$0-f0;
#X obj 168 165 s \$0-trigvib;
#X obj 223 240 s \$0-lfophzsync;
#X obj 547 552 *~;
#X obj 559 531 sig~;
#X obj 490 582 *~;
#X obj 559 510 r \$0-osc2d;
#X obj 270 556 *~;
#X obj 282 535 sig~;
#X obj 282 514 r \$0-osc1d;
#X text 1003 105 Noizer \, sound effects synth;
#X obj 254 334 s_noish;
#X obj 472 241 s_pinknoise;
#N canvas 0 0 699 616 phasefilt 0;
#X obj 74 38 inlet~;
#X obj 96 127 rpole~;
#X obj 96 102 rzero_rev~;
#X obj 96 176 rpole~;
#X obj 96 151 rzero_rev~;
#X obj 96 224 rpole~;
#X obj 96 199 rzero_rev~;
#X obj 96 273 rpole~;
#X obj 96 248 rzero_rev~;
#X obj 73 303 +~;
#X obj 72 331 outlet~;
#X obj 225 202 -~;
#X obj 226 172 sig~ 0.97;
#X obj 240 149 inlet~;
#X connect 0 0 2 0;
#X connect 0 0 9 0;
#X connect 1 0 4 0;
#X connect 2 0 1 0;
#X connect 3 0 6 0;
#X connect 4 0 3 0;
#X connect 5 0 8 0;
#X connect 6 0 5 0;
#X connect 7 0 9 1;
#X connect 8 0 7 0;
#X connect 9 0 10 0;
#X connect 11 0 2 1;
#X connect 11 0 1 1;
#X connect 11 0 4 1;
#X connect 11 0 3 1;
#X connect 11 0 6 1;
#X connect 11 0 5 1;
#X connect 11 0 8 1;
#X connect 11 0 7 1;
#X connect 12 0 11 0;
#X connect 13 0 11 1;
#X restore 491 650 pd phasefilt;
#N canvas 0 0 304 188 band 0;
#X obj 60 140 e_beequad;
#X obj 102 119 u_bandpass1 1000 100;
#X obj 37 114 inlet~;
#X obj 42 165 outlet~;
#X obj 199 88 inlet bw;
#X obj 103 90 inlet f;
#X connect 0 0 3 0;
#X connect 1 0 0 1;
#X connect 2 0 0 0;
#X connect 4 0 1 1;
#X connect 5 0 1 0;
#X restore 256 425 pd band;
#N canvas 0 0 450 300 crunch 0;
#X obj 139 48 inlet~;
#X obj 160 231 outlet~;
#X obj 136 110 -~;
#X obj 194 49 inlet~;
#X obj 137 83 max~;
#X obj 146 170 *~;
#X obj 211 115 *~;
#X obj 210 90 *~ 6;
#X obj 211 136 +~ 2;
#X obj 161 198 hip~ 5;
#X obj 47 94 min~;
#X obj 99 104 *~ -1;
#X obj 46 121 +~;
#X connect 0 0 4 0;
#X connect 0 0 10 0;
#X connect 2 0 5 0;
#X connect 3 0 2 1;
#X connect 3 0 4 1;
#X connect 3 0 7 0;
#X connect 3 0 11 0;
#X connect 4 0 2 0;
#X connect 5 0 9 0;
#X connect 6 0 8 0;
#X connect 7 0 6 0;
#X connect 7 0 6 1;
#X connect 8 0 5 1;
#X connect 9 0 1 0;
#X connect 10 0 12 0;
#X connect 11 0 12 1;
#X connect 11 0 10 1;
#X connect 12 0 5 0;
#X restore 473 284 pd crunch;
#N canvas 0 0 304 188 band 0;
#X obj 60 140 e_beequad;
#X obj 102 119 u_bandpass1 1000 100;
#X obj 37 114 inlet~;
#X obj 42 165 outlet~;
#X obj 199 88 inlet bw;
#X obj 103 90 inlet f;
#X connect 0 0 3 0;
#X connect 1 0 0 1;
#X connect 2 0 0 0;
#X connect 4 0 1 1;
#X connect 5 0 1 0;
#X restore 491 422 pd band;
#N canvas 0 0 304 188 band 0;
#X obj 60 140 e_beequad;
#X obj 102 119 u_bandpass1 1000 100;
#X obj 37 114 inlet~;
#X obj 42 165 outlet~;
#X obj 199 88 inlet bw;
#X obj 103 90 inlet f;
#X connect 0 0 3 0;
#X connect 1 0 0 1;
#X connect 2 0 0 0;
#X connect 4 0 1 1;
#X connect 5 0 1 0;
#X restore 724 432 pd band;
#X obj 269 496 r~ \$0-e1;
#X obj 546 492 r~ \$0-e2;
#X obj 782 539 *~;
#X obj 794 518 sig~;
#X obj 725 569 *~;
#X obj 781 480 r~ \$0-e3;
#X obj 794 497 r \$0-osc3d;
#X obj 254 279 r \$0-osc1a;
#X obj 312 259 r \$0-osc1b;
#X obj 327 297 r \$0-f0;
#X obj 326 319 t b f;
#X obj 381 279 r \$0-osc1c;
#X obj 254 307 * 5000;
#X obj 382 320 + 1;
#X obj 382 299 * 500;
#X obj 505 345 r \$0-f0;
#X obj 504 367 t b f;
#X obj 560 368 + 1;
#X obj 560 347 * 500;
#X obj 490 307 r \$0-osc2b;
#X obj 559 327 r \$0-osc2c;
#X obj 491 328 * 2;
#X obj 507 393 *;
#X obj 313 279 * 2;
#X obj 329 345 *;
#X obj 561 245 r \$0-osc2a;
#X obj 561 265 sig~;
#X obj 724 160 osc~;
#X obj 741 226 s~ \$0-fbfm;
#X obj 732 68 r~ \$0-fbfm;
#X obj 718 132 +~;
#X obj 731 88 *~ 300;
#X obj 752 140 * 10;
#X obj 752 161 + 1;
#X obj 741 204 *~;
#X obj 752 180 sig~;
#X obj 749 357 r \$0-f0;
#X obj 748 379 t b f;
#X obj 807 380 + 1;
#X obj 807 359 * 500;
#X obj 735 340 * 2;
#X obj 751 405 *;
#X obj 734 319 r \$0-osc3b;
#X obj 806 339 r \$0-osc3c;
#X obj 752 121 r \$0-osc3a;
#X obj 717 44 sig~;
#X obj 491 706 *~;
#X obj 491 626 *~ 1;
#X obj 636 529 sig~;
#X obj 636 510 r \$0-mod1a;
#X obj 624 553 *~;
#X obj 623 488 r~ \$0-e1;
#X obj 428 524 sig~;
#X obj 416 548 *~;
#X obj 415 483 r~ \$0-e2;
#X obj 428 505 r \$0-mod1b;
#X obj 415 569 *~ 10000;
#X obj 490 682 vcf~ 12;
#X obj 393 507 +~ 0.1;
#X obj 605 613 r \$0-mod1c;
#X obj 605 635 * 10;
#X obj 605 654 + 0.5;
#X obj 428 593 +~;
#X obj 381 85 osc~ 1;
#X obj 381 25 r \$0-mod2a;
#X obj 381 45 * 30;
#X obj 381 63 + 0.12;
#X obj 381 104 +~ 1;
#X obj 439 25 r \$0-mod2b;
#X obj 440 95 sig~;
#X obj 440 73 * 3000;
#X obj 382 128 *~;
#X obj 937 164 u_loader s_noiz-\$1 \$0;
#X connect 0 0 13 0;
#X connect 1 0 5 0;
#X connect 1 0 25 0;
#X connect 2 0 14 0;
#X connect 3 0 6 0;
#X connect 4 0 8 0;
#X connect 5 0 4 0;
#X connect 8 0 9 0;
#X connect 10 0 122 0;
#X connect 10 1 7 0;
#X connect 13 0 10 0;
#X connect 14 0 16 0;
#X connect 14 1 33 0;
#X connect 15 0 17 0;
#X connect 16 0 1 0;
#X connect 16 1 3 0;
#X connect 16 2 15 0;
#X connect 17 0 34 0;
#X connect 20 0 21 0;
#X connect 21 0 22 0;
#X connect 22 0 24 0;
#X connect 23 0 25 1;
#X connect 24 0 23 0;
#X connect 24 1 23 1;
#X connect 25 0 32 0;
#X connect 26 0 27 0;
#X connect 27 0 28 0;
#X connect 28 0 96 1;
#X connect 29 0 97 0;
#X connect 30 0 20 0;
#X connect 35 0 37 1;
#X connect 36 0 35 1;
#X connect 37 0 97 0;
#X connect 38 0 36 0;
#X connect 39 0 29 1;
#X connect 40 0 39 1;
#X connect 41 0 40 0;
#X connect 43 0 46 0;
#X connect 44 0 47 0;
#X connect 45 0 107 0;
#X connect 46 0 29 0;
#X connect 47 0 48 0;
#X connect 48 0 37 0;
#X connect 49 0 54 0;
#X connect 50 0 39 0;
#X connect 51 0 35 0;
#X connect 52 0 54 1;
#X connect 53 0 52 1;
#X connect 54 0 97 0;
#X connect 55 0 52 0;
#X connect 56 0 53 0;
#X connect 57 0 62 0;
#X connect 58 0 73 0;
#X connect 59 0 60 0;
#X connect 60 0 74 0;
#X connect 60 1 74 1;
#X connect 61 0 64 0;
#X connect 62 0 43 0;
#X connect 63 0 46 2;
#X connect 64 0 63 0;
#X connect 65 0 66 0;
#X connect 66 0 72 0;
#X connect 66 1 72 1;
#X connect 67 0 48 2;
#X connect 68 0 67 0;
#X connect 69 0 71 0;
#X connect 70 0 68 0;
#X connect 71 0 72 0;
#X connect 72 0 48 1;
#X connect 73 0 74 0;
#X connect 74 0 46 1;
#X connect 75 0 76 0;
#X connect 76 0 47 1;
#X connect 77 0 84 0;
#X connect 77 0 49 0;
#X connect 79 0 81 0;
#X connect 80 0 77 0;
#X connect 81 0 80 1;
#X connect 82 0 83 0;
#X connect 83 0 85 0;
#X connect 84 0 78 0;
#X connect 85 0 84 1;
#X connect 86 0 87 0;
#X connect 87 0 91 0;
#X connect 87 1 91 1;
#X connect 88 0 49 2;
#X connect 89 0 88 0;
#X connect 90 0 91 0;
#X connect 91 0 49 1;
#X connect 91 0 95 0;
#X connect 92 0 90 0;
#X connect 93 0 89 0;
#X connect 94 0 82 0;
#X connect 95 0 80 0;
#X connect 96 0 18 0;
#X connect 97 0 45 0;
#X connect 98 0 100 1;
#X connect 99 0 98 0;
#X connect 100 0 45 1;
#X connect 101 0 100 0;
#X connect 102 0 103 1;
#X connect 103 0 106 0;
#X connect 104 0 108 0;
#X connect 105 0 102 0;
#X connect 106 0 112 0;
#X connect 107 0 96 0;
#X connect 108 0 103 0;
#X connect 109 0 110 0;
#X connect 110 0 111 0;
#X connect 111 0 107 2;
#X connect 112 0 107 1;
#X connect 113 0 117 0;
#X connect 114 0 115 0;
#X connect 115 0 116 0;
#X connect 116 0 113 0;
#X connect 117 0 121 0;
#X connect 118 0 120 0;
#X connect 119 0 121 1;
#X connect 120 0 119 0;
#X connect 121 0 112 1;
#X connect 122 0 11 0;
