#N canvas 279 230 450 300 10;
#X obj 116 86 list;
#X msg 203 167 set \, adddollar \$1;
#X obj 116 259 outlet;
#X obj 116 57 inlet;
#X obj 171 88 f \$1;
#X obj 217 58 loadbang;
#X obj 171 57 inlet;
#X obj 171 111 moses;
#X obj 203 133 + 1;
#X msg 171 145 set;
#X msg 116 227 \$1;
#N canvas 228 198 627 317 LICENSE-BSD 0;
#X text 121 56 This software is copyrighted by Miller Puckette \, Reality
Jockey Ltd. and others. The terms (the "Standard Improved BSD License")
apply to all files associated with the software unless explicitly disclaimed
in individual files.;
#X text 123 148 See the file LICENSE.txt for the full license text.
;
#X restore 313 30 pd LICENSE-BSD;
#X connect 0 0 10 0;
#X connect 1 0 10 0;
#X connect 3 0 0 0;
#X connect 4 0 7 0;
#X connect 5 0 4 0;
#X connect 6 0 4 0;
#X connect 7 0 9 0;
#X connect 7 1 8 0;
#X connect 8 0 1 0;
#X connect 9 0 10 0;
#X connect 10 0 2 0;
