#N canvas 1449 154 914 526 10;
#X floatatom 674 155 5 0 0 1 Bandwidth - -;
#X floatatom 574 155 5 0 0 1 Frequency - -;
#N canvas 0 22 450 300 show 0;
#X obj 41 39 inlet;
#X obj 186 36 inlet;
#X obj 41 124 outlet;
#X msg 186 76 set;
#X obj 41 59 list prepend set;
#X obj 41 83 list trim;
#X connect 0 0 4 0;
#X connect 1 0 3 0;
#X connect 3 0 2 0;
#X connect 4 0 5 0;
#X connect 5 0 2 0;
#X restore 574 283 pd show;
#X msg 574 344 1.99557 -0.998816 0.000811275 0.00162255 0.000811275
;
#X obj 574 231 u_lowpass;
#X obj 523 340 noise~;
#X obj 523 360 *~ 0.3;
#X obj 523 380 e_beequad;
#X obj 523 415 soundoutput;
#X msg 632 283 reset;
#N canvas 66 308 582 570 REFERENCE 0;
#X text 24 31 Name: u_lowpass;
#X text 24 434 Tags: Audio \, Filter;
#X text 24 344 See also: [e_beequad] [u_lowpassq] [u_bandpass1] [u_bandpass1q]
[u_bandpass2] [u_highpass] [u_highpassq];
#X text 24 61 Summary: Compute biquad coefficients for a resonant lowpass
filter. Designed to be used with [e_beequad] or [biquad~].;
#X text 24 108 Inlet 0: <float> - Frequency;
#X text 24 128 Inlet 1: <float> - Bandwidth \, expressed in octaves.
A bandwidth of 100 is equivalent to one octave.;
#X text 24 178 Outlet 0: Computed coefficients in a list.;
#X text 24 214 Description: Compute biquad coefficients for a resonant
lowpass filter. Designed to be used with [biquad~] or [e_beequad] (the
rjlib version) \, u_lowpass has a frequency and bandwidth (expressed
in octaves) control. Both inlets are hot and trigger new coefficients.
;
#X coords 0 -1 1 1 450 450 1 10 10;
#X restore 15 58 pd REFERENCE;
#X obj 15 28 cnv 15 450 20 empty empty empty 20 12 0 14 -261234 -66577
0;
#X text 478 61 Example:;
#X text 548 495 RjDj Library (https://github.com/rjdj/rjlib) - 2011
;
#X obj 18 30 u_lowpass;
#X text 99 30 - Compute biquad coefficients for a resonant lowpass
filter.;
#X obj 574 77 loadbang;
#X obj 574 313 t b a;
#X obj 574 99 t b b;
#X msg 674 132 3;
#X msg 574 132 200;
#X connect 0 0 4 1;
#X connect 1 0 4 0;
#X connect 2 0 17 0;
#X connect 3 0 7 1;
#X connect 4 0 2 0;
#X connect 5 0 6 0;
#X connect 6 0 7 0;
#X connect 7 0 8 0;
#X connect 7 0 8 1;
#X connect 9 0 2 1;
#X connect 16 0 18 0;
#X connect 17 0 3 0;
#X connect 17 1 3 0;
#X connect 18 0 20 0;
#X connect 18 1 19 0;
#X connect 19 0 0 0;
#X connect 20 0 1 0;
