#N canvas 0 0 475 404 10;
#X obj 118 143 s RJ_SCENE_SAVE;
#X obj 119 165 r RJ_SCENE;
#X msg 118 117 save;
#X obj 119 249 list trim;
#X obj 119 307 u_cocollect;
#X obj 119 276 route \$1-\$2;
#X obj 95 43 inlet;
#X obj 95 74 t b b b;
#X obj 119 340 outlet;
#X msg 189 190 1;
#X msg 95 186 0;
#X obj 119 211 spigot;
#X connect 1 0 11 0;
#X connect 2 0 0 0;
#X connect 3 0 5 0;
#X connect 4 0 8 0;
#X connect 5 0 4 0;
#X connect 6 0 7 0;
#X connect 7 0 10 0;
#X connect 7 1 2 0;
#X connect 7 2 4 1;
#X connect 7 2 9 0;
#X connect 9 0 11 1;
#X connect 10 0 11 1;
#X connect 11 0 3 0;
