#N canvas 0 0 792 449 10;
#X obj 69 26 inlet;
#X obj 178 24 inlet;
#X obj 277 152 list length;
#X obj 245 121 t a a;
#X msg 277 174 resize \$1;
#X obj 277 248 s \$0-probs;
#X obj 277 270 table \$0-probs 16;
#X obj 245 207 list prepend 0;
#X obj 69 204 c_pass;
#X obj 69 61 list split 1;
#X obj 69 169 list;
#X obj 69 105 t b a;
#X obj 108 171 tabread \$0-probs;
#X obj 69 289 outlet;
#X obj 108 147 mod;
#X obj 178 71 list trim;
#X obj 178 93 route seed;
#X msg 178 117 seed \$1;
#X connect 0 0 9 0;
#X connect 1 0 15 0;
#X connect 2 0 4 0;
#X connect 2 0 14 1;
#X connect 3 0 7 0;
#X connect 3 1 2 0;
#X connect 4 0 5 0;
#X connect 7 0 5 0;
#X connect 8 0 13 0;
#X connect 9 0 11 0;
#X connect 9 1 10 1;
#X connect 10 0 8 0;
#X connect 11 0 10 0;
#X connect 11 1 14 0;
#X connect 12 0 8 1;
#X connect 14 0 12 0;
#X connect 15 0 16 0;
#X connect 16 0 17 0;
#X connect 16 1 3 0;
#X connect 17 0 8 1;
