#N canvas 390 202 763 543 10;
#N canvas 61 48 355 384 cospan 0;
#X obj 74 252 *~;
#X obj 107 252 *~;
#X obj 146 90 cos~;
#X obj 182 89 -~ 0.25;
#X obj 183 110 cos~;
#X obj 74 135 inlet~;
#X obj 181 28 inlet~;
#X obj 108 278 outlet~;
#X obj 73 301 outlet~;
#X obj 182 54 *~ 0.25;
#X connect 0 0 8 0;
#X connect 1 0 7 0;
#X connect 2 0 0 1;
#X connect 3 0 4 0;
#X connect 4 0 1 1;
#X connect 5 0 0 0;
#X connect 5 0 1 0;
#X connect 6 0 9 0;
#X connect 9 0 2 0;
#X connect 9 0 3 0;
#X restore 156 365 pd cospan;
#X obj 484 193 -~ 1;
#X obj 484 218 *~;
#X obj 484 143 min~;
#X obj 509 96 *~ -1;
#X obj 509 121 +~ 1;
#X obj 484 168 *~ 4;
#X obj 484 243 *~;
#X obj 485 42 *~ 2;
#X obj 485 67 wrap~;
#X obj 324 131 min~;
#X obj 348 80 *~ -1;
#X obj 348 105 +~ 1;
#X obj 324 156 *~ 2;
#X obj 323 55 wrap~;
#X obj 323 30 -~ 0.25;
#X obj 176 146 +~ 300;
#X obj 176 121 *~ 6000;
#X obj 156 260 *~;
#X obj 173 236 +~ 0.5;
#X obj 484 268 *~ 0.5;
#X obj 484 293 +~ 0.5;
#X obj 173 211 *~;
#X msg 273 414 2.3;
#X obj 273 392 loadbang;
#N canvas 176 34 741 502 interaural 0;
#X obj 237 250 vd~ \$0-l;
#X obj 376 254 vd~ \$0-r;
#X obj 302 207 -~;
#X obj 238 197 *~ 5;
#X obj 374 202 *~ 5;
#X obj 41 23 inlet~;
#X obj 97 25 inlet~;
#X obj 238 26 inlet~;
#X obj 236 395 outlet~;
#X obj 376 395 outlet~;
#X obj 303 176 sig~ 1;
#X obj 303 275 +~ 1900;
#X obj 463 244 +~ 1900;
#X obj 303 250 *~ 2000;
#X obj 463 219 *~ 2000;
#X obj 97 63 delwrite~ \$0-r 40;
#X obj 42 93 delwrite~ \$0-l 40;
#X obj 238 223 +~ 20;
#X obj 375 227 +~ 20;
#X obj 374 181 +~;
#X obj 237 171 +~;
#X obj 236 365 vcf~ 1;
#X obj 375 369 vcf~ 1;
#X obj 393 26 inlet~;
#X text 393 9 bf;
#X obj 519 27 inlet;
#X text 516 8 width;
#X connect 0 0 21 0;
#X connect 1 0 22 0;
#X connect 2 0 13 0;
#X connect 2 0 19 0;
#X connect 3 0 17 0;
#X connect 4 0 18 0;
#X connect 5 0 16 0;
#X connect 6 0 15 0;
#X connect 7 0 2 1;
#X connect 7 0 14 0;
#X connect 7 0 20 0;
#X connect 10 0 2 0;
#X connect 11 0 21 1;
#X connect 12 0 22 1;
#X connect 13 0 11 0;
#X connect 14 0 12 0;
#X connect 17 0 0 0;
#X connect 18 0 1 0;
#X connect 19 0 4 0;
#X connect 20 0 3 0;
#X connect 21 0 8 0;
#X connect 22 0 9 0;
#X connect 23 0 19 1;
#X connect 23 0 20 1;
#X connect 25 0 4 1;
#X connect 25 0 3 1;
#X restore 156 402 pd interaural;
#X obj 485 17 inlet~;
#X text 323 7 front back filter;
#X text 202 210 front gain makeup;
#X text 60 174 back filter;
#X text 525 190 circular panner;
#X text 257 432 iitd left-right delay;
#X text 187 268 equal power pan;
#X obj 244 460 outlet~;
#X obj 156 460 outlet~;
#X obj 156 175 vcf~ 1;
#X obj 156 18 inlet~;
#X connect 0 0 25 0;
#X connect 0 1 25 1;
#X connect 1 0 2 0;
#X connect 1 0 2 1;
#X connect 1 0 7 1;
#X connect 2 0 7 0;
#X connect 3 0 6 0;
#X connect 4 0 5 0;
#X connect 5 0 3 1;
#X connect 6 0 1 0;
#X connect 7 0 20 0;
#X connect 8 0 9 0;
#X connect 9 0 4 0;
#X connect 9 0 3 0;
#X connect 9 0 15 0;
#X connect 10 0 13 0;
#X connect 11 0 12 0;
#X connect 12 0 10 1;
#X connect 13 0 17 0;
#X connect 13 0 22 1;
#X connect 13 0 22 0;
#X connect 13 0 25 3;
#X connect 14 0 11 0;
#X connect 14 0 10 0;
#X connect 15 0 14 0;
#X connect 16 0 35 1;
#X connect 17 0 16 0;
#X connect 18 0 0 0;
#X connect 19 0 18 1;
#X connect 20 0 21 0;
#X connect 21 0 0 1;
#X connect 21 0 25 2;
#X connect 22 0 19 0;
#X connect 23 0 25 4;
#X connect 24 0 23 0;
#X connect 25 0 34 0;
#X connect 25 1 33 0;
#X connect 26 0 8 0;
#X connect 35 0 18 0;
#X connect 36 0 35 0;
