#N canvas 216 405 817 377 10;
#X obj 117 32 inlet~;
#X obj 195 33 inlet~;
#X obj 118 241 outlet~;
#X obj 512 54 inlet;
#X obj 213 142 line~;
#X msg 213 119 \$1 10;
#X obj 512 172 u_dispatch \$0 lpfreq1;
#X obj 512 195 u_dispatch \$0 delay1;
#X obj 512 217 u_dispatch \$0 delayfreq1;
#X obj 512 241 u_dispatch \$0 lpfreq2;
#X obj 512 264 u_dispatch \$0 delay2;
#X obj 512 286 u_dispatch \$0 delayfreq2;
#X obj 213 85 r \$0-delay1;
#X obj 361 142 line~;
#X msg 361 119 \$1 10;
#X obj 361 85 r \$0-delay2;
#X obj 346 33 inlet~;
#X obj 271 32 inlet~;
#N canvas 0 0 1057 597 two_delaylines_cross_connected 0;
#X obj 57 84 inlet~;
#X obj 860 45 block~ 16;
#X obj 503 83 inlet~;
#X obj 504 114 vd~ \$0-del1;
#X obj 94 338 outlet~;
#X obj 503 163 lop~ 10000;
#X obj 57 458 delwrite~ \$0-del1 \$2;
#X obj 780 90 inlet~;
#X obj 781 121 vd~ \$0-del2;
#X obj 307 458 delwrite~ \$0-del2 \$2;
#X obj 339 334 outlet~;
#X obj 307 86 inlet~;
#X obj 583 163 r \$0-lpfreq1;
#X obj 859 164 r \$0-lpfreq2;
#X obj 781 164 lop~ 10000;
#X obj 504 229 *~ 0;
#X obj 529 208 clip -1 1;
#X obj 628 227 *~ 0;
#X obj 653 206 clip -1 1;
#X obj 903 239 *~ 0;
#X obj 928 218 clip -1 1;
#X obj 782 238 *~ 0;
#X obj 807 217 clip -1 1;
#X obj 781 144 clip~ -1 1;
#X obj 504 138 clip~ -1 1;
#X obj 529 187 r \$0-feedback1;
#X obj 653 185 r \$0-x-feedback1;
#X obj 807 196 r \$0-x-feedback2;
#X obj 928 197 r \$0-feedback2;
#X connect 0 0 6 0;
#X connect 0 0 4 0;
#X connect 2 0 3 0;
#X connect 3 0 24 0;
#X connect 5 0 15 0;
#X connect 5 0 17 0;
#X connect 7 0 8 0;
#X connect 8 0 23 0;
#X connect 11 0 9 0;
#X connect 11 0 10 0;
#X connect 12 0 5 1;
#X connect 13 0 14 1;
#X connect 14 0 19 0;
#X connect 14 0 21 0;
#X connect 15 0 6 0;
#X connect 15 0 4 0;
#X connect 16 0 15 1;
#X connect 17 0 9 0;
#X connect 17 0 4 0;
#X connect 18 0 17 1;
#X connect 19 0 9 0;
#X connect 19 0 10 0;
#X connect 20 0 19 1;
#X connect 21 0 6 0;
#X connect 21 0 10 0;
#X connect 22 0 21 1;
#X connect 23 0 14 0;
#X connect 24 0 5 0;
#X connect 25 0 16 0;
#X connect 26 0 18 0;
#X connect 27 0 22 0;
#X connect 28 0 20 0;
#X restore 118 183 pd two_delaylines_cross_connected;
#N canvas 0 0 450 300 conversions 0;
#X obj 57 72 swap 1000;
#X obj 57 102 /;
#X text 140 71 delay time can be set as frequency as well.;
#X obj 57 131 s \$0-delay1;
#X obj 58 183 swap 1000;
#X obj 58 213 /;
#X obj 58 154 r \$0-delayfreq2;
#X obj 58 242 s \$0-delay2;
#X obj 57 43 r \$0-delayfreq1;
#X connect 0 0 1 0;
#X connect 0 1 1 1;
#X connect 1 0 3 0;
#X connect 4 0 5 0;
#X connect 4 1 5 1;
#X connect 5 0 7 0;
#X connect 6 0 4 0;
#X connect 8 0 0 0;
#X restore 512 329 pd conversions;
#X obj 346 247 outlet~;
#X obj 563 55 u_loader e_pingpong-\$1 \$0;
#X obj 512 81 u_dispatch \$0 feedback1;
#X obj 512 105 u_dispatch \$0 feedback2;
#X obj 512 125 u_dispatch \$0 x-feedback1;
#X obj 512 149 u_dispatch \$0 x-feedback2;
#N canvas 172 83 586 377 LICENSE-GPL 0;
#X text 57 88 This program is free software: you can redistribute it
and/or modify it under the terms of the GNU General Public License
as published by the Free Software Foundation \, either version 3 of
the License \, or (at your option) any later version.;
#X text 58 168 This program is distributed in the hope that it will
be useful \, but WITHOUT ANY WARRANTY \; without even the implied warranty
of MERCHANTABILITY or FITNESS FOR A PARTICULAR PURPOSE. See the GNU
General Public License for more details.;
#X text 57 261 You should have received a copy of the GNU General Public
License along with this program. If not \, see <http://www.gnu.org/licenses/>.
;
#X text 61 54 Copyright (C) 2009 \, Reality Jockey Ltd.;
#X text 60 325 See the file LICENSE.txt for the full license text.
;
#X restore 672 19 pd LICENSE-GPL;
#X connect 0 0 18 0;
#X connect 1 0 18 1;
#X connect 3 0 22 0;
#X connect 4 0 18 2;
#X connect 5 0 4 0;
#X connect 6 0 7 0;
#X connect 7 0 8 0;
#X connect 8 0 9 0;
#X connect 9 0 10 0;
#X connect 10 0 11 0;
#X connect 12 0 5 0;
#X connect 13 0 18 3;
#X connect 14 0 13 0;
#X connect 15 0 14 0;
#X connect 16 0 18 3;
#X connect 17 0 18 2;
#X connect 18 0 2 0;
#X connect 18 1 20 0;
#X connect 22 0 23 0;
#X connect 23 0 24 0;
#X connect 24 0 25 0;
#X connect 25 0 6 0;
