#N canvas 488 377 450 300 10;
#X obj 98 121 /;
#X obj 98 151 atan;
#X obj 98 241 outlet;
#X obj 98 17 r #accelerate;
#X obj 98 73 spigot 1;
#X obj 151 49 inlet;
#X msg 98 98 \$1 \$3;
#X connect 0 0 1 0;
#X connect 1 0 2 0;
#X connect 3 0 4 0;
#X connect 4 0 6 0;
#X connect 5 0 4 1;
#X connect 6 0 0 0;
