#N canvas 396 250 586 354 10;
#X obj 68 135 s \$0-freq;
#X obj 68 116 mtof;
#X obj 120 55 unpack 0 0;
#X obj 187 79 s \$0-vel;
#X obj 120 31 inlet;
#X obj 68 92 stripnote;
#N canvas 0 0 974 605 \$0-synth 0;
#N canvas 333 113 496 556 op1 0;
#N canvas 424 366 478 366 pmosc 0;
#X obj 119 199 cos~;
#X obj 119 167 +~;
#X obj 120 273 outlet~;
#X obj 119 115 phasor~;
#X obj 119 86 inlet~;
#X obj 136 146 inlet~;
#X obj 160 199 inlet~;
#X obj 120 236 *~;
#X text 38 21 phase-modulation oscillator;
#X text 38 57 signal inlets: 1: freq \, 2: phase \, 3: amp;
#X connect 0 0 7 0;
#X connect 1 0 0 0;
#X connect 3 0 1 0;
#X connect 4 0 3 0;
#X connect 5 0 1 1;
#X connect 6 0 7 1;
#X connect 7 0 2 0;
#X restore 99 316 pd pmosc;
#X obj 153 223 / 127;
#X obj 153 245 t a a;
#X obj 153 195 r \$0-vel;
#X obj 153 271 c_adsr 1 1 1500 0 40;
#N canvas 320 255 558 413 demux4~ 0;
#N canvas 318 221 450 300 vol 0;
#X obj 92 102 inlet~;
#X obj 93 234 outlet~;
#X obj 92 175 *~;
#X obj 143 146 pack 0 10;
#X obj 143 168 line~;
#X obj 143 102 inlet;
#X connect 0 0 2 0;
#X connect 2 0 1 0;
#X connect 3 0 4 0;
#X connect 4 0 2 1;
#X connect 5 0 3 0;
#X restore 58 235 pd vol;
#N canvas 318 221 450 300 vol 0;
#X obj 92 102 inlet~;
#X obj 93 234 outlet~;
#X obj 92 175 *~;
#X obj 143 146 pack 0 10;
#X obj 143 168 line~;
#X obj 143 102 inlet;
#X connect 0 0 2 0;
#X connect 2 0 1 0;
#X connect 3 0 4 0;
#X connect 4 0 2 1;
#X connect 5 0 3 0;
#X restore 135 235 pd vol;
#N canvas 318 221 450 300 vol 0;
#X obj 92 102 inlet~;
#X obj 93 234 outlet~;
#X obj 92 175 *~;
#X obj 143 146 pack 0 10;
#X obj 143 168 line~;
#X obj 143 102 inlet;
#X connect 0 0 2 0;
#X connect 2 0 1 0;
#X connect 3 0 4 0;
#X connect 4 0 2 1;
#X connect 5 0 3 0;
#X restore 192 236 pd vol;
#N canvas 318 221 450 300 vol 0;
#X obj 92 102 inlet~;
#X obj 93 234 outlet~;
#X obj 92 175 *~;
#X obj 143 146 pack 0 10;
#X obj 143 168 line~;
#X obj 143 102 inlet;
#X connect 0 0 2 0;
#X connect 2 0 1 0;
#X connect 3 0 4 0;
#X connect 4 0 2 1;
#X connect 5 0 3 0;
#X restore 251 237 pd vol;
#X obj 276 60 inlet;
#X obj 276 92 unpack 0 0 0 0;
#X obj 57 51 inlet~;
#X obj 59 260 outlet~;
#X obj 134 260 outlet~;
#X obj 193 260 outlet~;
#X obj 252 260 outlet~;
#X connect 0 0 7 0;
#X connect 1 0 8 0;
#X connect 2 0 9 0;
#X connect 3 0 10 0;
#X connect 4 0 5 0;
#X connect 5 0 0 1;
#X connect 5 1 1 1;
#X connect 5 2 2 1;
#X connect 5 3 3 1;
#X connect 6 0 0 0;
#X connect 6 0 1 0;
#X connect 6 0 2 0;
#X connect 6 0 3 0;
#X restore 98 340 pd demux4~;
#X text 213 93 4 volumes;
#X obj 207 218 r \$0-A1;
#X obj 235 239 r \$0-D1;
#X obj 262 219 r \$0-S1;
#X obj 290 239 r \$0-R1;
#X obj 98 41 inlet~;
#X obj 125 65 inlet~;
#X obj 28 476 outlet~;
#X obj 165 94 inlet;
#X text 176 64 phase;
#X text 149 43 freq;
#X obj 119 437 throw~ \$0-op2;
#X obj 164 377 throw~ \$0-op4;
#X obj 142 407 throw~ \$0-op3;
#X obj 97 476 throw~ \$0-op1;
#X connect 0 0 5 0;
#X connect 0 0 13 0;
#X connect 1 0 2 0;
#X connect 2 0 4 0;
#X connect 2 1 4 1;
#X connect 3 0 1 0;
#X connect 4 0 0 2;
#X connect 5 0 20 0;
#X connect 5 1 17 0;
#X connect 5 2 19 0;
#X connect 5 3 18 0;
#X connect 7 0 4 2;
#X connect 8 0 4 3;
#X connect 9 0 4 4;
#X connect 10 0 4 5;
#X connect 11 0 0 0;
#X connect 12 0 0 1;
#X connect 14 0 5 1;
#X restore 147 260 pd op1;
#N canvas 333 113 496 556 op2 0;
#N canvas 424 366 478 366 pmosc 0;
#X obj 119 199 cos~;
#X obj 119 167 +~;
#X obj 120 273 outlet~;
#X obj 119 115 phasor~;
#X obj 119 86 inlet~;
#X obj 136 146 inlet~;
#X obj 160 199 inlet~;
#X obj 120 236 *~;
#X text 38 21 phase-modulation oscillator;
#X text 38 57 signal inlets: 1: freq \, 2: phase \, 3: amp;
#X connect 0 0 7 0;
#X connect 1 0 0 0;
#X connect 3 0 1 0;
#X connect 4 0 3 0;
#X connect 5 0 1 1;
#X connect 6 0 7 1;
#X connect 7 0 2 0;
#X restore 99 316 pd pmosc;
#X obj 153 223 / 127;
#X obj 153 245 t a a;
#X obj 153 195 r \$0-vel;
#X obj 153 271 c_adsr 1 1 1500 0 40;
#N canvas 320 255 558 413 demux4~ 0;
#N canvas 318 221 450 300 vol 0;
#X obj 92 102 inlet~;
#X obj 93 234 outlet~;
#X obj 92 175 *~;
#X obj 143 146 pack 0 10;
#X obj 143 168 line~;
#X obj 143 102 inlet;
#X connect 0 0 2 0;
#X connect 2 0 1 0;
#X connect 3 0 4 0;
#X connect 4 0 2 1;
#X connect 5 0 3 0;
#X restore 58 235 pd vol;
#N canvas 318 221 450 300 vol 0;
#X obj 92 102 inlet~;
#X obj 93 234 outlet~;
#X obj 92 175 *~;
#X obj 143 146 pack 0 10;
#X obj 143 168 line~;
#X obj 143 102 inlet;
#X connect 0 0 2 0;
#X connect 2 0 1 0;
#X connect 3 0 4 0;
#X connect 4 0 2 1;
#X connect 5 0 3 0;
#X restore 135 235 pd vol;
#N canvas 318 221 450 300 vol 0;
#X obj 92 102 inlet~;
#X obj 93 234 outlet~;
#X obj 92 175 *~;
#X obj 143 146 pack 0 10;
#X obj 143 168 line~;
#X obj 143 102 inlet;
#X connect 0 0 2 0;
#X connect 2 0 1 0;
#X connect 3 0 4 0;
#X connect 4 0 2 1;
#X connect 5 0 3 0;
#X restore 192 236 pd vol;
#N canvas 318 221 450 300 vol 0;
#X obj 92 102 inlet~;
#X obj 93 234 outlet~;
#X obj 92 175 *~;
#X obj 143 146 pack 0 10;
#X obj 143 168 line~;
#X obj 143 102 inlet;
#X connect 0 0 2 0;
#X connect 2 0 1 0;
#X connect 3 0 4 0;
#X connect 4 0 2 1;
#X connect 5 0 3 0;
#X restore 251 237 pd vol;
#X obj 276 60 inlet;
#X obj 276 92 unpack 0 0 0 0;
#X obj 57 51 inlet~;
#X obj 59 260 outlet~;
#X obj 134 260 outlet~;
#X obj 193 260 outlet~;
#X obj 252 260 outlet~;
#X connect 0 0 7 0;
#X connect 1 0 8 0;
#X connect 2 0 9 0;
#X connect 3 0 10 0;
#X connect 4 0 5 0;
#X connect 5 0 0 1;
#X connect 5 1 1 1;
#X connect 5 2 2 1;
#X connect 5 3 3 1;
#X connect 6 0 0 0;
#X connect 6 0 1 0;
#X connect 6 0 2 0;
#X connect 6 0 3 0;
#X restore 98 340 pd demux4~;
#X text 213 93 4 volumes;
#X obj 98 41 inlet~;
#X obj 125 65 inlet~;
#X obj 36 472 outlet~;
#X obj 165 94 inlet;
#X text 176 64 phase;
#X text 149 43 freq;
#X obj 164 377 throw~ \$0-op4;
#X obj 142 407 throw~ \$0-op3;
#X obj 290 239 r \$0-R2;
#X obj 262 219 r \$0-S2;
#X obj 207 218 r \$0-A2;
#X obj 235 239 r \$0-D2;
#X obj 119 437 throw~ \$0-op2;
#X obj 98 473 throw~ \$0-op1;
#X connect 0 0 5 0;
#X connect 0 0 9 0;
#X connect 1 0 2 0;
#X connect 2 0 4 0;
#X connect 2 1 4 1;
#X connect 3 0 1 0;
#X connect 4 0 0 2;
#X connect 5 0 20 0;
#X connect 5 1 19 0;
#X connect 5 2 14 0;
#X connect 5 3 13 0;
#X connect 7 0 0 0;
#X connect 8 0 0 1;
#X connect 10 0 5 1;
#X connect 15 0 4 5;
#X connect 16 0 4 4;
#X connect 17 0 4 2;
#X connect 18 0 4 3;
#X restore 344 260 pd op2;
#X obj 362 237 catch~ \$0-op2;
#X obj 607 240 catch~ \$0-op3;
#N canvas 333 113 496 556 op3 0;
#N canvas 424 366 478 366 pmosc 0;
#X obj 119 199 cos~;
#X obj 119 167 +~;
#X obj 120 273 outlet~;
#X obj 119 115 phasor~;
#X obj 119 86 inlet~;
#X obj 136 146 inlet~;
#X obj 160 199 inlet~;
#X obj 120 236 *~;
#X text 38 21 phase-modulation oscillator;
#X text 38 57 signal inlets: 1: freq \, 2: phase \, 3: amp;
#X connect 0 0 7 0;
#X connect 1 0 0 0;
#X connect 3 0 1 0;
#X connect 4 0 3 0;
#X connect 5 0 1 1;
#X connect 6 0 7 1;
#X connect 7 0 2 0;
#X restore 99 316 pd pmosc;
#X obj 153 223 / 127;
#X obj 153 245 t a a;
#X obj 153 195 r \$0-vel;
#X obj 153 271 c_adsr 1 1 1500 0 40;
#N canvas 320 255 558 413 demux4~ 0;
#N canvas 318 221 450 300 vol 0;
#X obj 92 102 inlet~;
#X obj 93 234 outlet~;
#X obj 92 175 *~;
#X obj 143 146 pack 0 10;
#X obj 143 168 line~;
#X obj 143 102 inlet;
#X connect 0 0 2 0;
#X connect 2 0 1 0;
#X connect 3 0 4 0;
#X connect 4 0 2 1;
#X connect 5 0 3 0;
#X restore 58 235 pd vol;
#N canvas 318 221 450 300 vol 0;
#X obj 92 102 inlet~;
#X obj 93 234 outlet~;
#X obj 92 175 *~;
#X obj 143 146 pack 0 10;
#X obj 143 168 line~;
#X obj 143 102 inlet;
#X connect 0 0 2 0;
#X connect 2 0 1 0;
#X connect 3 0 4 0;
#X connect 4 0 2 1;
#X connect 5 0 3 0;
#X restore 135 235 pd vol;
#N canvas 318 221 450 300 vol 0;
#X obj 92 102 inlet~;
#X obj 93 234 outlet~;
#X obj 92 175 *~;
#X obj 143 146 pack 0 10;
#X obj 143 168 line~;
#X obj 143 102 inlet;
#X connect 0 0 2 0;
#X connect 2 0 1 0;
#X connect 3 0 4 0;
#X connect 4 0 2 1;
#X connect 5 0 3 0;
#X restore 192 236 pd vol;
#N canvas 318 221 450 300 vol 0;
#X obj 92 102 inlet~;
#X obj 93 234 outlet~;
#X obj 92 175 *~;
#X obj 143 146 pack 0 10;
#X obj 143 168 line~;
#X obj 143 102 inlet;
#X connect 0 0 2 0;
#X connect 2 0 1 0;
#X connect 3 0 4 0;
#X connect 4 0 2 1;
#X connect 5 0 3 0;
#X restore 251 237 pd vol;
#X obj 276 60 inlet;
#X obj 276 92 unpack 0 0 0 0;
#X obj 57 51 inlet~;
#X obj 59 260 outlet~;
#X obj 134 260 outlet~;
#X obj 193 260 outlet~;
#X obj 252 260 outlet~;
#X connect 0 0 7 0;
#X connect 1 0 8 0;
#X connect 2 0 9 0;
#X connect 3 0 10 0;
#X connect 4 0 5 0;
#X connect 5 0 0 1;
#X connect 5 1 1 1;
#X connect 5 2 2 1;
#X connect 5 3 3 1;
#X connect 6 0 0 0;
#X connect 6 0 1 0;
#X connect 6 0 2 0;
#X connect 6 0 3 0;
#X restore 98 340 pd demux4~;
#X text 213 93 4 volumes;
#X obj 98 41 inlet~;
#X obj 125 65 inlet~;
#X obj 26 467 outlet~;
#X obj 165 94 inlet;
#X text 176 64 phase;
#X text 149 43 freq;
#X obj 164 377 throw~ \$0-op4;
#X obj 290 239 r \$0-R3;
#X obj 262 219 r \$0-S3;
#X obj 235 239 r \$0-D3;
#X obj 207 218 r \$0-A3;
#X obj 142 407 throw~ \$0-op3;
#X obj 119 437 throw~ \$0-op2;
#X obj 98 465 throw~ \$0-op1;
#X connect 0 0 5 0;
#X connect 0 0 9 0;
#X connect 1 0 2 0;
#X connect 2 0 4 0;
#X connect 2 1 4 1;
#X connect 3 0 1 0;
#X connect 4 0 0 2;
#X connect 5 0 20 0;
#X connect 5 1 19 0;
#X connect 5 2 18 0;
#X connect 5 3 13 0;
#X connect 7 0 0 0;
#X connect 8 0 0 1;
#X connect 10 0 5 1;
#X connect 14 0 4 5;
#X connect 15 0 4 4;
#X connect 16 0 4 3;
#X connect 17 0 4 2;
#X restore 589 263 pd op3;
#X obj 840 241 catch~ \$0-op4;
#N canvas 333 113 496 556 op4 0;
#N canvas 424 366 478 366 pmosc 0;
#X obj 119 199 cos~;
#X obj 119 167 +~;
#X obj 120 273 outlet~;
#X obj 119 115 phasor~;
#X obj 119 86 inlet~;
#X obj 136 146 inlet~;
#X obj 160 199 inlet~;
#X obj 120 236 *~;
#X text 38 21 phase-modulation oscillator;
#X text 38 57 signal inlets: 1: freq \, 2: phase \, 3: amp;
#X connect 0 0 7 0;
#X connect 1 0 0 0;
#X connect 3 0 1 0;
#X connect 4 0 3 0;
#X connect 5 0 1 1;
#X connect 6 0 7 1;
#X connect 7 0 2 0;
#X restore 99 316 pd pmosc;
#X obj 153 223 / 127;
#X obj 153 245 t a a;
#X obj 153 195 r \$0-vel;
#X obj 153 271 c_adsr 1 1 1500 0 40;
#N canvas 320 255 558 413 demux4~ 0;
#N canvas 318 221 450 300 vol 0;
#X obj 92 102 inlet~;
#X obj 93 234 outlet~;
#X obj 92 175 *~;
#X obj 143 146 pack 0 10;
#X obj 143 168 line~;
#X obj 143 102 inlet;
#X connect 0 0 2 0;
#X connect 2 0 1 0;
#X connect 3 0 4 0;
#X connect 4 0 2 1;
#X connect 5 0 3 0;
#X restore 58 235 pd vol;
#N canvas 318 221 450 300 vol 0;
#X obj 92 102 inlet~;
#X obj 93 234 outlet~;
#X obj 92 175 *~;
#X obj 143 146 pack 0 10;
#X obj 143 168 line~;
#X obj 143 102 inlet;
#X connect 0 0 2 0;
#X connect 2 0 1 0;
#X connect 3 0 4 0;
#X connect 4 0 2 1;
#X connect 5 0 3 0;
#X restore 135 235 pd vol;
#N canvas 318 221 450 300 vol 0;
#X obj 92 102 inlet~;
#X obj 93 234 outlet~;
#X obj 92 175 *~;
#X obj 143 146 pack 0 10;
#X obj 143 168 line~;
#X obj 143 102 inlet;
#X connect 0 0 2 0;
#X connect 2 0 1 0;
#X connect 3 0 4 0;
#X connect 4 0 2 1;
#X connect 5 0 3 0;
#X restore 192 236 pd vol;
#N canvas 318 221 450 300 vol 0;
#X obj 92 102 inlet~;
#X obj 93 234 outlet~;
#X obj 92 175 *~;
#X obj 143 146 pack 0 10;
#X obj 143 168 line~;
#X obj 143 102 inlet;
#X connect 0 0 2 0;
#X connect 2 0 1 0;
#X connect 3 0 4 0;
#X connect 4 0 2 1;
#X connect 5 0 3 0;
#X restore 251 237 pd vol;
#X obj 276 60 inlet;
#X obj 276 92 unpack 0 0 0 0;
#X obj 57 51 inlet~;
#X obj 59 260 outlet~;
#X obj 134 260 outlet~;
#X obj 193 260 outlet~;
#X obj 252 260 outlet~;
#X connect 0 0 7 0;
#X connect 1 0 8 0;
#X connect 2 0 9 0;
#X connect 3 0 10 0;
#X connect 4 0 5 0;
#X connect 5 0 0 1;
#X connect 5 1 1 1;
#X connect 5 2 2 1;
#X connect 5 3 3 1;
#X connect 6 0 0 0;
#X connect 6 0 1 0;
#X connect 6 0 2 0;
#X connect 6 0 3 0;
#X restore 98 340 pd demux4~;
#X text 213 93 4 volumes;
#X obj 98 41 inlet~;
#X obj 125 65 inlet~;
#X obj 35 466 outlet~;
#X obj 165 94 inlet;
#X text 176 64 phase;
#X text 149 43 freq;
#X obj 290 239 r \$0-R4;
#X obj 262 219 r \$0-S4;
#X obj 235 239 r \$0-D4;
#X obj 207 218 r \$0-A4;
#X obj 164 377 throw~ \$0-op4;
#X obj 142 407 throw~ \$0-op3;
#X obj 119 437 throw~ \$0-op2;
#X obj 98 464 throw~ \$0-op1;
#X connect 0 0 5 0;
#X connect 0 0 9 0;
#X connect 1 0 2 0;
#X connect 2 0 4 0;
#X connect 2 1 4 1;
#X connect 3 0 1 0;
#X connect 4 0 0 2;
#X connect 5 0 20 0;
#X connect 5 1 19 0;
#X connect 5 2 18 0;
#X connect 5 3 17 0;
#X connect 7 0 0 0;
#X connect 8 0 0 1;
#X connect 10 0 5 1;
#X connect 13 0 4 5;
#X connect 14 0 4 4;
#X connect 15 0 4 3;
#X connect 16 0 4 2;
#X restore 822 264 pd op4;
#X obj 165 237 catch~ \$0-op1;
#X obj 444 443 outlet~;
#X obj 147 176 r \$0-freq;
#X obj 345 158 r \$0-freq;
#X obj 590 159 r \$0-freq;
#X obj 822 160 r \$0-freq;
#X obj 822 211 *~ 0;
#X obj 590 210 *~ 0;
#X obj 345 209 *~ 0;
#X obj 847 190 r \$0-ratio4;
#X obj 172 196 r \$0-ratio1;
#X obj 370 188 r \$0-ratio2;
#X obj 147 217 *~ 1;
#N canvas 318 221 450 300 vol 0;
#X obj 92 102 inlet~;
#X obj 93 234 outlet~;
#X obj 92 175 *~;
#X obj 143 146 pack 0 10;
#X obj 143 168 line~;
#X obj 143 102 inlet;
#X connect 0 0 2 0;
#X connect 2 0 1 0;
#X connect 3 0 4 0;
#X connect 4 0 2 1;
#X connect 5 0 3 0;
#X restore 146 292 pd vol;
#N canvas 318 221 450 300 vol 0;
#X obj 92 102 inlet~;
#X obj 93 234 outlet~;
#X obj 92 175 *~;
#X obj 143 146 pack 0 10;
#X obj 143 168 line~;
#X obj 143 102 inlet;
#X connect 0 0 2 0;
#X connect 2 0 1 0;
#X connect 3 0 4 0;
#X connect 4 0 2 1;
#X connect 5 0 3 0;
#X restore 344 290 pd vol;
#N canvas 318 221 450 300 vol 0;
#X obj 92 102 inlet~;
#X obj 93 234 outlet~;
#X obj 92 175 *~;
#X obj 143 146 pack 0 10;
#X obj 143 168 line~;
#X obj 143 102 inlet;
#X connect 0 0 2 0;
#X connect 2 0 1 0;
#X connect 3 0 4 0;
#X connect 4 0 2 1;
#X connect 5 0 3 0;
#X restore 589 292 pd vol;
#N canvas 318 221 450 300 vol 0;
#X obj 92 102 inlet~;
#X obj 93 234 outlet~;
#X obj 92 175 *~;
#X obj 143 146 pack 0 10;
#X obj 143 168 line~;
#X obj 143 102 inlet;
#X connect 0 0 2 0;
#X connect 2 0 1 0;
#X connect 3 0 4 0;
#X connect 4 0 2 1;
#X connect 5 0 3 0;
#X restore 821 296 pd vol;
#X obj 199 291 r \$0-vol1;
#X obj 871 298 r \$0-vol4;
#X obj 639 293 r \$0-vol3;
#X obj 398 289 r \$0-vol2;
#X obj 203 262 r \$0-index1;
#X obj 402 260 r \$0-index2;
#X obj 643 264 r \$0-index3;
#X obj 874 263 r \$0-index4;
#X obj 615 189 r \$0-ratio3;
#X connect 0 0 20 0;
#X connect 1 0 21 0;
#X connect 2 0 1 1;
#X connect 3 0 4 1;
#X connect 4 0 22 0;
#X connect 5 0 6 1;
#X connect 6 0 23 0;
#X connect 7 0 0 1;
#X connect 9 0 19 0;
#X connect 10 0 15 0;
#X connect 11 0 14 0;
#X connect 12 0 13 0;
#X connect 13 0 6 0;
#X connect 14 0 4 0;
#X connect 15 0 1 0;
#X connect 16 0 13 1;
#X connect 17 0 19 1;
#X connect 18 0 15 1;
#X connect 19 0 0 0;
#X connect 20 0 8 0;
#X connect 21 0 8 0;
#X connect 22 0 8 0;
#X connect 23 0 8 0;
#X connect 24 0 20 1;
#X connect 25 0 23 1;
#X connect 26 0 22 1;
#X connect 27 0 21 1;
#X connect 28 0 0 2;
#X connect 29 0 1 2;
#X connect 30 0 4 2;
#X connect 31 0 6 2;
#X connect 32 0 14 1;
#X restore 76 173 pd \$0-synth;
#X obj 302 112 u_loader s_fm4-\$1 \$0;
#X obj 302 35 inlet;
#X obj 302 141 outlet;
#X obj 76 226 outlet~;
#X obj 122 204 outlet~;
#X obj 302 62 route save;
#N canvas 225 92 530 804 dispatchers 0;
#X obj 83 46 u_dispatch \$0 A1;
#X obj 83 69 u_dispatch \$0 D1;
#X obj 83 93 u_dispatch \$0 S1;
#X obj 83 117 u_dispatch \$0 R1;
#X obj 83 146 u_dispatch \$0 A2;
#X obj 83 169 u_dispatch \$0 D2;
#X obj 83 193 u_dispatch \$0 S2;
#X obj 83 217 u_dispatch \$0 R2;
#X obj 83 243 u_dispatch \$0 A3;
#X obj 83 266 u_dispatch \$0 D3;
#X obj 83 290 u_dispatch \$0 S3;
#X obj 83 314 u_dispatch \$0 R3;
#X obj 83 339 u_dispatch \$0 A4;
#X obj 83 362 u_dispatch \$0 D4;
#X obj 83 386 u_dispatch \$0 S4;
#X obj 83 410 u_dispatch \$0 R4;
#X obj 83 439 u_dispatch \$0 vol1;
#X obj 83 461 u_dispatch \$0 vol2;
#X obj 83 486 u_dispatch \$0 vol3;
#X obj 83 510 u_dispatch \$0 vol4;
#X obj 83 18 inlet;
#X obj 83 540 u_dispatch \$0 ratio1;
#X obj 83 611 u_dispatch \$0 ratio4;
#X obj 83 587 u_dispatch \$0 ratio3;
#X obj 83 562 u_dispatch \$0 ratio2;
#X obj 83 641 u_dispatch \$0 index1;
#X obj 83 663 u_dispatch \$0 index2;
#X obj 83 688 u_dispatch \$0 index3;
#X obj 83 712 u_dispatch \$0 index4;
#X connect 0 0 1 0;
#X connect 1 0 2 0;
#X connect 2 0 3 0;
#X connect 3 0 4 0;
#X connect 4 0 5 0;
#X connect 5 0 6 0;
#X connect 6 0 7 0;
#X connect 7 0 8 0;
#X connect 8 0 9 0;
#X connect 9 0 10 0;
#X connect 10 0 11 0;
#X connect 11 0 12 0;
#X connect 12 0 13 0;
#X connect 13 0 14 0;
#X connect 14 0 15 0;
#X connect 15 0 16 0;
#X connect 16 0 17 0;
#X connect 17 0 18 0;
#X connect 18 0 19 0;
#X connect 19 0 21 0;
#X connect 20 0 0 0;
#X connect 21 0 24 0;
#X connect 22 0 25 0;
#X connect 23 0 22 0;
#X connect 24 0 23 0;
#X connect 25 0 26 0;
#X connect 26 0 27 0;
#X connect 27 0 28 0;
#X restore 369 88 pd dispatchers;
#N canvas 172 83 586 377 LICENSE-GPL 0;
#X text 57 88 This program is free software: you can redistribute it
and/or modify it under the terms of the GNU General Public License
as published by the Free Software Foundation \, either version 3 of
the License \, or (at your option) any later version.;
#X text 58 168 This program is distributed in the hope that it will
be useful \, but WITHOUT ANY WARRANTY \; without even the implied warranty
of MERCHANTABILITY or FITNESS FOR A PARTICULAR PURPOSE. See the GNU
General Public License for more details.;
#X text 57 261 You should have received a copy of the GNU General Public
License along with this program. If not \, see <http://www.gnu.org/licenses/>.
;
#X text 61 54 Copyright (C) 2009 \, Reality Jockey Ltd.;
#X text 60 325 See the file LICENSE.txt for the full license text.
;
#X restore 432 29 pd LICENSE-GPL;
#X connect 1 0 0 0;
#X connect 2 1 3 0;
#X connect 4 0 2 0;
#X connect 4 0 5 0;
#X connect 5 0 1 0;
#X connect 6 0 10 0;
#X connect 6 0 11 0;
#X connect 7 0 9 0;
#X connect 8 0 12 0;
#X connect 12 0 7 0;
#X connect 12 1 13 0;
