#N canvas 386 327 771 588 10;
#X obj 192 330 textfile;
#X obj 192 31 inlet;
#X obj 286 490 outlet;
#X obj 192 488 outlet;
#X msg 273 283 rewind;
#X obj 192 94 route dump numdump;
#N canvas 568 427 300 269 demux 0;
#X obj 111 159 spigot;
#X obj 30 158 spigot 1;
#X obj 83 119 unpack 0 0;
#X obj 83 55 select 0 1;
#X msg 83 81 1 0;
#X msg 121 81 0 1;
#X obj 30 183 outlet;
#X obj 111 183 outlet;
#X obj 30 118 inlet;
#X obj 83 32 inlet;
#X connect 0 0 7 0;
#X connect 1 0 6 0;
#X connect 2 0 1 1;
#X connect 2 1 0 1;
#X connect 3 0 4 0;
#X connect 3 1 5 0;
#X connect 4 0 2 0;
#X connect 5 0 2 0;
#X connect 8 0 1 0;
#X connect 8 0 0 0;
#X connect 9 0 3 0;
#X restore 192 372 pd demux;
#N canvas 0 0 386 287 enumerate 0;
#N canvas 473 338 450 300 count 0;
#X obj 131 154 f 0;
#X obj 156 153 + 1;
#X msg 147 133 0;
#X obj 131 183 outlet;
#X obj 131 59 inlet;
#X obj 131 96 b;
#X obj 178 61 inlet;
#X obj 178 98 b;
#X connect 0 0 1 0;
#X connect 0 0 3 0;
#X connect 1 0 0 1;
#X connect 2 0 0 1;
#X connect 4 0 5 0;
#X connect 5 0 0 0;
#X connect 6 0 7 0;
#X connect 7 0 2 0;
#X restore 137 130 pd count;
#X obj 56 155 list prepend;
#X obj 56 100 t a b;
#X obj 56 71 inlet;
#X obj 190 76 inlet;
#X obj 56 191 outlet;
#X connect 0 0 1 1;
#X connect 1 0 5 0;
#X connect 2 0 1 0;
#X connect 2 1 0 0;
#X connect 3 0 2 0;
#X connect 4 0 0 1;
#X restore 245 403 pd enumerate;
#X msg 351 283 0;
#X msg 386 282 1;
#N canvas 228 198 627 317 LICENSE-BSD 0;
#X text 121 56 This software is copyrighted by Miller Puckette \, Reality
Jockey Ltd. and others. The terms (the "Standard Improved BSD License")
apply to all files associated with the software unless explicitly disclaimed
in individual files.;
#X text 123 148 See the file LICENSE.txt for the full license text.
;
#X restore 506 45 pd LICENSE-BSD;
#N canvas 0 0 526 400 muntil 0;
#X obj 161 81 inlet;
#X obj 161 110 route bang float;
#X obj 315 82 inlet;
#X text 314 64 stop;
#X obj 161 161 until;
#X obj 193 140 b;
#X obj 161 246 outlet;
#X obj 236 160 t b f;
#X obj 236 186 metro;
#X msg 315 138 stop;
#X connect 0 0 1 0;
#X connect 1 0 4 0;
#X connect 1 1 7 0;
#X connect 2 0 5 0;
#X connect 2 0 9 0;
#X connect 4 0 6 0;
#X connect 5 0 4 1;
#X connect 7 0 8 0;
#X connect 7 1 8 1;
#X connect 8 0 6 0;
#X connect 9 0 8 0;
#X restore 192 286 pd muntil;
#X obj 192 117 t a b b;
#X obj 253 117 t a b b b;
#N canvas 0 0 450 300 read-file 0;
#X obj 66 116 select 0;
#X obj 66 88 list append \$1;
#X obj 176 116 select 0;
#X obj 176 88 list append \$2;
#X obj 119 148 list append;
#X obj 119 171 list prepend read;
#X obj 119 196 list trim;
#X obj 66 17 loadbang;
#X obj 66 47 t b b;
#X obj 119 223 outlet;
#X text 299 90 "cr" or empty;
#X connect 0 1 4 0;
#X connect 1 0 0 0;
#X connect 2 1 4 1;
#X connect 3 0 2 0;
#X connect 4 0 5 0;
#X connect 5 0 6 0;
#X connect 6 0 9 0;
#X connect 7 0 8 0;
#X connect 8 0 1 0;
#X connect 8 1 3 0;
#X restore 87 283 pd read-file;
#X connect 0 0 6 0;
#X connect 0 1 2 0;
#X connect 0 1 11 1;
#X connect 1 0 5 0;
#X connect 4 0 0 0;
#X connect 5 0 12 0;
#X connect 5 1 13 0;
#X connect 5 2 0 0;
#X connect 6 0 3 0;
#X connect 6 1 7 0;
#X connect 7 0 3 0;
#X connect 8 0 6 1;
#X connect 9 0 6 1;
#X connect 11 0 0 0;
#X connect 12 0 11 0;
#X connect 12 1 4 0;
#X connect 12 2 8 0;
#X connect 13 0 11 0;
#X connect 13 1 4 0;
#X connect 13 2 9 0;
#X connect 13 3 7 1;
#X connect 14 0 0 0;
