#N canvas 0 22 294 378 10;
#X obj 92 90 bng 30 250 50 0 google-out empty google.com 40 7 0 10
-262144 -1 -1;
#X obj 92 155 bng 30 250 50 0 local-out empty local_file 40 7 0 10
-262144 -1 -1;
#X text 9 16 Open a file or external link in a web view;
#X text 9 34 by sending openurl <url> <title> to #pdparty;
#N canvas 0 22 315 263 guts 0;
#X obj 29 183 s #pdparty;
#X obj 29 46 r google-out;
#X obj 68 113 r local-out;
#X msg 29 76 openurl http://google.com Google;
#X msg 68 140 openurl local.html Hello World;
#X connect 1 0 3 0;
#X connect 2 0 4 0;
#X connect 3 0 0 0;
#X connect 4 0 0 0;
#X restore 89 247 pd guts;
