#N canvas 577 335 332 293 10;
#X obj 78 235 s \$1-p\$2-rcv;
#X obj 78 135 line;
#X obj 123 139 line;
#X msg 78 210 pos \$1 \$2;
#X obj 78 188 pack f f;
#X obj 123 167 + 193;
#X obj 78 165 + 261;
#X floatatom 43 147 5 0 0 0 - - -;
#X text 31 168 232;
#X obj 161 183 t b f;
#X floatatom 161 166 5 0 0 0 - - -;
#X obj 72 83 random 232;
#X obj 85 18 r \$1-movebang;
#X floatatom 175 142 5 0 0 0 - - -;
#X obj 85 39 random 10;
#X obj 85 61 sel 0;
#X obj 160 84 random 80;
#X obj 70 103 pack f 6000;
#X obj 160 106 pack f 6000;
#X obj 193 35 random 232;
#X obj 218 55 random 80;
#X obj 194 -2 loadbang;
#X obj 194 16 t b b;
#X connect 1 0 6 0;
#X connect 2 0 5 0;
#X connect 3 0 0 0;
#X connect 4 0 3 0;
#X connect 5 0 4 1;
#X connect 6 0 4 0;
#X connect 7 0 6 0;
#X connect 9 0 4 0;
#X connect 9 1 5 0;
#X connect 10 0 9 0;
#X connect 11 0 17 0;
#X connect 12 0 14 0;
#X connect 14 0 15 0;
#X connect 15 0 11 0;
#X connect 15 0 16 0;
#X connect 16 0 18 0;
#X connect 17 0 1 0;
#X connect 18 0 2 0;
#X connect 19 0 1 0;
#X connect 20 0 2 0;
#X connect 21 0 22 0;
#X connect 22 0 19 0;
#X connect 22 1 20 0;
