#N canvas 650 59 480 266 10;
#X obj 204 145 osc~ 440;
#X obj 204 186 *~;
#X obj 204 207 dac~;
#X obj 363 6 loadbang;
#X msg 363 27 \; pd dsp 1;
#X floatatom 16 13 5 0 0 0 - pos test;
#X obj 272 145 osc~;
#X obj 272 103 r test;
#X obj 272 124 mtof;
#X obj 360 101 loadbang;
#X obj 360 122 metro 100;
#X obj 360 143 f;
#X obj 387 143 + 1;
#X obj 360 164 mod 100;
#X obj 360 206 s pos;
#X msg 340 73 bang;
#X obj 360 184 / 10;
#X connect 0 0 1 0;
#X connect 1 0 2 0;
#X connect 1 0 2 1;
#X connect 3 0 4 0;
#X connect 6 0 1 1;
#X connect 7 0 8 0;
#X connect 8 0 6 0;
#X connect 9 0 10 0;
#X connect 10 0 11 0;
#X connect 11 0 12 0;
#X connect 11 0 13 0;
#X connect 12 0 11 1;
#X connect 13 0 16 0;
#X connect 15 0 10 0;
#X connect 16 0 14 0;
