#N canvas 137 104 480 266 10;
#X obj 25 12 hsl 256 32 0 1 0 0 volume pos empty -2 -8 0 10 -262144
-1 -1 7905 1;
#X obj 363 6 loadbang;
#X msg 363 27 \; pd dsp 1;
#X obj 360 101 loadbang;
#X obj 360 122 metro 100;
#X obj 360 143 f;
#X obj 387 143 + 1;
#X obj 360 164 mod 100;
#X obj 360 185 / 100;
#X obj 360 206 s pos;
#X msg 340 73 bang;
#X connect 1 0 2 0;
#X connect 3 0 4 0;
#X connect 4 0 5 0;
#X connect 5 0 6 0;
#X connect 5 0 7 0;
#X connect 6 0 5 1;
#X connect 7 0 8 0;
#X connect 8 0 9 0;
#X connect 10 0 4 0;
