#N canvas 505 114 416 234 10;
#X obj 39 72 cnv 15 340 60 empty empty [key] 20 12 0 14 -233017 -66577
0;
#X floatatom 63 103 5 0 0 1 - key -, f 5;
#X text 158 75 try a usb/bluetooth keyboard;
#X obj 122 96 bng 30 250 50 0 empty q q 13 15 0 10 -262144 -1 -1;
#X obj 164 96 bng 30 250 50 0 empty w w 13 15 0 10 -262144 -1 -1;
#X obj 208 96 bng 30 250 50 0 empty e e 13 15 0 10 -262144 -1 -1;
#X obj 251 96 bng 30 250 50 0 empty r r 13 15 0 10 -262144 -1 -1;
#X obj 295 96 bng 30 250 50 0 empty t t 13 15 0 10 -262144 -1 -1;
#X obj 340 96 bng 30 250 50 0 empty y y 13 15 0 10 -262144 -1 -1;
#N canvas 814 111 303 150 key 0;
#X obj 21 25 key;
#X obj 72 55 route 113 119 101 114 116 121;
#X obj 72 86 s q;
#X obj 100 86 s w;
#X obj 129 86 s e;
#X obj 157 86 s r;
#X obj 186 86 s t;
#X obj 214 86 s y;
#X obj 21 55 s key;
#X obj 72 25 r key;
#X connect 0 0 8 0;
#X connect 1 0 2 0;
#X connect 1 1 3 0;
#X connect 1 2 4 0;
#X connect 1 3 5 0;
#X connect 1 4 6 0;
#X connect 1 5 7 0;
#X connect 9 0 1 0;
#X restore 107 76 pd key;
