#N canvas 487 150 251 366 10;
#X obj 10 28 cnv 15 230 180 empty empty stylus 20 12 0 14 #e0e0e0 #404040 0;
#X floatatom 17 73 0 0 0 1 id touch_down_id - 0;
#X floatatom 63 73 5 0 0 1 x touch_down_x - 0;
#X floatatom 114 73 5 0 0 1 y touch_down_y - 0;
#X floatatom 18 121 0 0 0 1 id touch_xy_id - 0;
#X floatatom 64 121 5 0 0 1 x touch_xy_x - 0;
#X floatatom 115 121 5 0 0 1 y touch_xy_y - 0;
#X floatatom 18 167 0 0 0 1 id touch_up_id - 0;
#X floatatom 64 167 5 0 0 1 x touch_up_x - 0;
#X floatatom 115 167 5 0 0 1 y touch_up_y - 0;
#X text 16 53 down;
#X text 17 147 up;
#X text 16 99 xy;
#X floatatom 164 73 5 0 0 1 radius touch_down_r - 0;
#X floatatom 164 121 5 0 0 1 radius touch_xy_r - 0;
#X floatatom 164 167 5 0 0 1 radius touch_up_r - 0;
#X floatatom 164 93 5 0 0 1 force touch_down_f - 0;
#X floatatom 164 141 5 0 0 1 force touch_xy_f - 0;
#X floatatom 164 187 5 0 0 1 force touch_up_f - 0;
#N canvas 266 123 770 326 stylus 0;
#X obj 84 227 s touch_down_y;
#X obj 64 251 s touch_down_x;
#X obj 45 276 s touch_down_id;
#X obj 537 276 s touch_up_id;
#X obj 556 251 s touch_up_x;
#X obj 576 227 s touch_up_y;
#X obj 45 57 route down xy up;
#X obj 327 227 s touch_xy_y;
#X obj 307 251 s touch_xy_x;
#X obj 288 276 s touch_xy_id;
#X obj 103 202 s touch_down_r;
#X obj 346 202 s touch_xy_r;
#X obj 595 202 s touch_up_r;
#X obj 615 177 s touch_up_f;
#X obj 366 177 s touch_xy_f;
#X obj 123 177 s touch_down_f;
#X msg 378 57 \; #pdparty touch extended \$1;
#X obj 378 24 loadbang;
#X obj 45 24 r #stylus;
#X obj 45 101 unpack f f f f f f f;
#X obj 288 101 unpack f f f f f f f;
#X obj 537 101 unpack f f f f f f f;
#X obj 162 128 s touch_down_el;
#X obj 142 153 s touch_down_az;
#X obj 405 128 s touch_xy_el;
#X obj 385 153 s touch_xy_az;
#X obj 654 128 s touch_up_el;
#X obj 634 153 s touch_up_az;
#X connect 6 0 19 0;
#X connect 6 1 20 0;
#X connect 6 2 21 0;
#X connect 17 0 16 0;
#X connect 18 0 6 0;
#X connect 19 0 2 0;
#X connect 19 1 1 0;
#X connect 19 2 0 0;
#X connect 19 3 10 0;
#X connect 19 4 15 0;
#X connect 19 5 23 0;
#X connect 19 6 22 0;
#X connect 20 0 9 0;
#X connect 20 1 8 0;
#X connect 20 2 7 0;
#X connect 20 3 11 0;
#X connect 20 4 14 0;
#X connect 20 5 25 0;
#X connect 20 6 24 0;
#X connect 21 0 3 0;
#X connect 21 1 4 0;
#X connect 21 2 5 0;
#X connect 21 3 12 0;
#X connect 21 4 13 0;
#X connect 21 5 27 0;
#X connect 21 6 26 0;
#X restore 96 35 pd stylus;
#X floatatom 63 93 5 0 0 1 az touch_down_az - 0;
#X floatatom 114 93 5 0 0 1 el touch_down_az - 0;
#X floatatom 64 141 5 0 0 1 az touch_xy_az - 0;
#X floatatom 115 141 5 0 0 1 el touch_xy_el - 0;
#X floatatom 64 187 5 0 0 1 az touch_up_az - 0;
#X floatatom 115 187 5 0 0 1 el touch_up_el - 0;
#X text 14 5 normalized stylus events;
#X text 165 35 no fingers!;
