#N canvas 63 135 333 432 12;
#X obj 10 10 cnv 19 150 200 empty ViewPort empty 2 10 0 12 #e0e0e0 #404040 0;
#N canvas 208 233 254 282 guts 0;
#X obj 28 68 r \$0-slider1;
#X obj 28 131 s \$0-vu1;
#X obj 28 100 expr ($f1 / 127) * 112 - 100;
#N canvas 545 249 534 392 ViewPort 0;
#X obj 22 49 r \$0-next-view;
#X obj 63 117 + 1;
#X obj 22 314 s ViewPort;
#X obj 22 151 route 0 1 2 3;
#X msg 366 49 vis_size w h;
#X msg 366 77 pos x y;
#X msg 134 150 0;
#X text 20 10 move ViewPort cnv between 4 locations;
#X text 362 10 useful cnv messages:;
#X obj 135 49 loadbang;
#X obj 22 117 f;
#X msg 135 77 0;
#X obj 367 312 s ViewPort;
#X obj 367 187 r \$0-visible;
#X obj 367 218 sel 0 1;
#X msg 367 279 size \$1;
#X msg 367 245 0;
#X msg 400 245 19;
#X text 363 133 hide ViewPort cnv by setting size < 1, f 19;
#X msg 22 188 pos 10 10 \, vis_size 150 200;
#X msg 44 216 pos 170 10 \, vis_size 150 200;
#X msg 66 244 pos 10 220 \, vis_size 150 200;
#X msg 88 274 pos 170 220 \, vis_size 150 200;
#X text 19 352 note: ViewPort cnv *not* drawn in PdParty!;
#X connect 0 0 10 0;
#X connect 1 0 10 1;
#X connect 3 0 19 0;
#X connect 3 1 20 0;
#X connect 3 2 21 0;
#X connect 3 3 22 0;
#X connect 3 3 6 0;
#X connect 6 0 10 1;
#X connect 9 0 11 0;
#X connect 10 0 1 0;
#X connect 10 0 3 0;
#X connect 11 0 10 0;
#X connect 13 0 14 0;
#X connect 14 0 16 0;
#X connect 14 1 17 0;
#X connect 15 0 12 0;
#X connect 16 0 15 0;
#X connect 17 0 15 0;
#X connect 19 0 2 0;
#X connect 20 0 2 0;
#X connect 21 0 2 0;
#X connect 22 0 2 0;
#X restore 27 25 pd ViewPort;
#X text 113 24 <--;
#X obj 28 236 s \$0-visible-in;
#X obj 28 179 loadbang;
#X msg 28 209 set 1;
#X connect 0 0 2 0;
#X connect 2 0 1 0;
#X connect 6 0 7 0;
#X connect 7 0 5 0;
#X restore 262 395 pd guts;
#X obj 126 14 bng 30 250 50 0 \$0-next-view empty next 2 15 0 12 #fcfcfc #000000 #000000;
#X obj 286 14 bng 30 250 50 0 \$0-next-view empty next 2 15 0 12 #fcfcfc #000000 #000000;
#X obj 126 224 bng 30 250 50 0 \$0-next-view empty next 2 15 0 12 #fcfcfc #000000 #000000;
#X obj 286 224 bng 30 250 50 0 \$0-next-view empty next 2 15 0 12 #fcfcfc #000000 #000000;
#X obj 37 35 vsl 19 162 0 127 0 0 \$0-slider1 empty empty 0 -9 0 12 #fcfcfc #000000 #000000 0 1;
#X floatatom 75 105 5 0 0 2 amplitude \$0-slider1 - 0;
#X obj 227 68 vu 19 120 \$0-vu1 empty -1 -10 0 12 #404040 #000000 1 0;
#X floatatom 67 272 5 0 0 0 a - \$0-a 0;
#X floatatom 67 302 5 0 0 0 b - \$0-b 0;
#X floatatom 67 332 5 0 0 0 c - \$0-c 0;
#X floatatom 67 362 5 0 0 0 d - \$0-d 0;
#X obj 197 279 hsl 100 19 0 127 0 0 \$0-x empty x -2 -10 0 12 #fcfcfc #000000 #000000 0 1;
#X obj 197 318 hsl 100 19 0 127 0 0 \$0-y empty y -2 -10 0 12 #fcfcfc #000000 #000000 0 1;
#X obj 197 357 hsl 100 19 0 127 0 0 \$0-z empty z -2 -10 0 12 #fcfcfc #000000 #000000 0 1;
#X text 196 40 hello;
