#N canvas 44 26 864 541 10;
#X declare -path .;
#X declare -path rj;
#X declare -path ../pd;
#X declare -path ../../pd;
#N canvas 0 22 588 274 LICENSE 0;
#X text 79 84 (c) 2008 Reality Jockey;
#X text 57 36 Released under the GNU General Public License ver. 3
or later. See the file LICENSE.txt for the full text.;
#X restore 571 80 pd LICENSE;
#X obj 134 453 soundoutput;
#X obj 571 108 OVERVIEW;
#X text 27 23 RjDj Scene Template - _main.pd;
#X obj 571 24 declare -path .;
#X obj 571 52 declare -path rj;
#X text 639 108 of all RjDj abstractions;
#X obj 134 331 c_xfade;
#N canvas 323 149 439 190 playloops 0;
#X obj 31 89 s_looper beat sf_beat.wav;
#X msg 32 49 loop 1;
#X obj 221 89 s_looper break sf_break.wav;
#X obj 32 25 loadbang;
#X obj 30 126 outlet~;
#X obj 221 125 outlet~;
#X connect 0 0 4 0;
#X connect 1 0 0 0;
#X connect 1 0 2 0;
#X connect 2 0 5 0;
#X connect 3 0 1 0;
#X restore 136 229 pd playloops;
#N canvas 0 22 893 299 angle 0;
#X obj 116 19 r #accelerate;
#X obj 115 44 unpack f f f;
#X obj 196 79 t f f;
#X obj 152 152 sel 1;
#X obj 264 155 sel 1;
#X obj 154 195 outlet up;
#X obj 264 198 outlet down;
#X obj 152 116 < -0.75;
#X obj 264 119 > 0.75;
#X text 351 126 this turns the data coming out of the accelerometer
z-axis into two bangs;
#X connect 0 0 1 0;
#X connect 1 2 2 0;
#X connect 2 0 7 0;
#X connect 2 1 8 0;
#X connect 3 0 5 0;
#X connect 4 0 6 0;
#X connect 7 0 3 0;
#X connect 8 0 4 0;
#X restore 236 265 pd angle;
#X msg 235 294 0;
#X msg 288 294 1;
#N canvas 0 0 448 215 more_paths 0;
#X text 27 19 You can add more paths here as well \, like the path
to soundoutput.pd on your computer etc.;
#X obj 36 57 declare -path ../pd;
#X obj 35 79 declare -path ../../pd;
#X restore 707 51 pd more_paths;
#X connect 7 0 1 0;
#X connect 7 0 1 1;
#X connect 8 0 7 0;
#X connect 8 1 7 1;
#X connect 9 0 10 0;
#X connect 9 1 11 0;
#X connect 10 0 7 2;
#X connect 11 0 7 2;
