#N canvas 132 92 450 300 10;
#X obj 105 65 env~;
#X obj 105 85 rmstodb;
#X obj 105 105 dbtopow;
#X obj 105 125 / 10000;
#X obj 105 145 swap 1;
#X obj 105 168 -;
#X obj 85 244 *~;
#X obj 105 190 * 9;
#X obj 105 211 lop~ 10;
#X obj 84 35 inlet~;
#X obj 84 268 outlet~;
#X text 177 114 feedforward AGC (ajf);
#X text 171 8 Soft Leveller;
#X connect 0 0 1 0;
#X connect 1 0 2 0;
#X connect 2 0 3 0;
#X connect 3 0 4 0;
#X connect 4 0 5 0;
#X connect 4 1 5 1;
#X connect 5 0 7 0;
#X connect 6 0 10 0;
#X connect 7 0 8 0;
#X connect 8 0 6 1;
#X connect 9 0 0 0;
#X connect 9 0 6 0;
