#N canvas 157 186 813 404 10;
#X obj 512 229 e_circlepan;
#X obj 514 140 vline~;
#X obj 513 184 *~;
#X obj 514 87 bng 24 80 30 0 empty empty empty 17 7 0 10 -4034 -258113
-1;
#X obj 514 60 metro 250;
#X obj 514 17 loadbang;
#N canvas 0 0 450 300 testsource 0;
#X obj 212 26 noise~;
#X obj 210 93 osc~ 1700;
#X obj 210 115 osc~ 3300;
#X obj 210 137 osc~ 4500;
#X obj 211 49 osc~ 570;
#X obj 210 71 osc~ 920;
#X obj 209 160 osc~ 8800;
#X obj 153 211 *~ 0.12;
#X obj 154 234 outlet~;
#X connect 0 0 7 0;
#X connect 1 0 7 0;
#X connect 2 0 7 0;
#X connect 3 0 7 0;
#X connect 4 0 7 0;
#X connect 5 0 7 0;
#X connect 6 0 7 0;
#X connect 7 0 8 0;
#X restore 531 162 pd testsource;
#X obj 524 38 tgl 15 0 empty empty empty 17 7 0 10 -262144 -1 -1 0
1;
#X msg 514 115 0.8 10 \, 0 80 10;
#X obj 585 197 phasor~ 0.1;
#X obj 513 285 soundoutput;
#N canvas 285 142 696 470 REFERENCE 0;
#X text 116 91 Inlet 0: Audio signal;
#X text 116 112 Inlet 1: Angle (signal 0 - 1) 360 degrees around;
#X text 116 133 Outlet 0: Left headphone outlet (audio signal);
#X text 116 154 Outlet 1: Left headphone outlet (audio signal);
#X text 116 49 Name: e_circlepan;
#X text 116 70 Summary: circular panner;
#X text 116 175 Description: e_circlepan pans around in circles. Designed
for headphones!;
#X coords 0 -1 1 1 450 200 1 100 20;
#X restore 30 68 pd REFERENCE;
#X text 32 35 e_circlepan - circular panner;
#X connect 0 0 10 0;
#X connect 0 1 10 1;
#X connect 1 0 2 0;
#X connect 2 0 0 0;
#X connect 3 0 8 0;
#X connect 4 0 3 0;
#X connect 5 0 4 0;
#X connect 6 0 2 1;
#X connect 7 0 4 0;
#X connect 8 0 1 0;
#X connect 9 0 0 1;
