#N canvas 572 77 708 543 10;
#X obj 328 95 inlet;
#X obj 386 39 loadbang;
#X obj 327 143 u_dispatch \$0 dry;
#X obj 387 92 u_loader e_tremolo-\$1 \$0;
#X obj 327 122 u_dispatch \$0 freq;
#X obj 135 177 +~ 1;
#X obj 135 204 *~ 0.5;
#X obj 112 236 *~;
#X obj 116 69 inlet~;
#X obj 135 153 osc~ 5;
#X obj 112 301 outlet~;
#X obj 188 126 r \$0-freq;
#X obj 31 184 *~;
#X obj 49 165 r 0$-dry;
#X text 281 204 Simple tremolo TODO: add depth param;
#X msg 386 64 freq 5 \, dry 0;
#N canvas 172 83 586 377 LICENSE-GPL 0;
#X text 57 88 This program is free software: you can redistribute it
and/or modify it under the terms of the GNU General Public License
as published by the Free Software Foundation \, either version 3 of
the License \, or (at your option) any later version.;
#X text 58 168 This program is distributed in the hope that it will
be useful \, but WITHOUT ANY WARRANTY \; without even the implied warranty
of MERCHANTABILITY or FITNESS FOR A PARTICULAR PURPOSE. See the GNU
General Public License for more details.;
#X text 57 261 You should have received a copy of the GNU General Public
License along with this program. If not \, see <http://www.gnu.org/licenses/>.
;
#X text 61 54 Copyright (C) 2009 \, Reality Jockey Ltd.;
#X text 60 325 See the file LICENSE.txt for the full license text.
;
#X restore 522 39 pd LICENSE-GPL;
#X connect 0 0 4 0;
#X connect 1 0 15 0;
#X connect 5 0 6 0;
#X connect 6 0 7 1;
#X connect 7 0 10 0;
#X connect 8 0 7 0;
#X connect 8 0 12 0;
#X connect 9 0 5 0;
#X connect 11 0 9 0;
#X connect 12 0 10 0;
#X connect 13 0 12 1;
#X connect 15 0 4 0;
