#N canvas 268 152 635 456 10;
#N canvas 0 0 450 300 show 0;
#X obj 41 39 inlet;
#X obj 186 36 inlet;
#X obj 41 124 outlet;
#X msg 186 76 set;
#X obj 41 59 list prepend set;
#X obj 41 83 list trim;
#X connect 0 0 4 0;
#X connect 1 0 3 0;
#X connect 3 0 2 0;
#X connect 4 0 5 0;
#X connect 5 0 2 0;
#X restore 113 344 pd show;
#X msg 113 366 abc 4;
#X floatatom 113 176 5 0 0 0 - - -;
#X msg 113 217 hsl \$1;
#X obj 113 269 g_hsl gain 0 1;
#X floatatom 181 176 5 0 0 0 - - -;
#X msg 181 217 gain \$1;
#X obj 181 195 / 100;
#X floatatom 251 176 5 0 0 0 - - -;
#X msg 251 217 abc \$1;
#X text 266 250 "g_hsl hsl 0 127";
#X text 266 269 "g_hsl gain 0 1";
#X obj 113 239 g_hsl hsl 0 127;
#X text 105 70 Sends messages tagged with the first argument.;
#X text 79 32 g_hsl - tagged horizontal slider GUI;
#X text 119 100 Arguments: <tag> <min> <max>;
#X connect 0 0 1 0;
#X connect 2 0 3 0;
#X connect 3 0 12 0;
#X connect 4 0 0 0;
#X connect 5 0 7 0;
#X connect 6 0 12 0;
#X connect 7 0 6 0;
#X connect 8 0 9 0;
#X connect 9 0 12 0;
#X connect 12 0 4 0;
