#N canvas 371 277 578 491 10;
#X obj 102 227 nbx 3 14 0 100 0 0 \$0-out \$0-in vol 35 8 1 10 -262144
-86277 -1 0 256;
#X obj 349 97 s \$0-in;
#X obj 102 279 r \$0-out;
#N canvas 172 83 586 377 LICENSE-GPL 0;
#X text 57 88 This program is free software: you can redistribute it
and/or modify it under the terms of the GNU General Public License
as published by the Free Software Foundation \, either version 3 of
the License \, or (at your option) any later version.;
#X text 58 168 This program is distributed in the hope that it will
be useful \, but WITHOUT ANY WARRANTY \; without even the implied warranty
of MERCHANTABILITY or FITNESS FOR A PARTICULAR PURPOSE. See the GNU
General Public License for more details.;
#X text 57 261 You should have received a copy of the GNU General Public
License along with this program. If not \, see <http://www.gnu.org/licenses/>.
;
#X text 61 54 Copyright (C) 2009 \, Reality Jockey Ltd.;
#X text 60 325 See the file LICENSE.txt for the full license text.
;
#X restore 502 79 pd LICENSE-GPL;
#X obj 70 42 inlet~;
#X obj 102 362 line~;
#X obj 102 339 pack 0 10;
#X obj 70 420 outlet~;
#X obj 71 391 *~;
#X obj 277 42 inlet;
#X msg 349 74 set \$1;
#X obj 277 98 s \$0-out;
#X obj 365 416 outlet;
#X obj 365 382 r \$0-out;
#X obj 102 308 dbtorms;
#X obj 179 41 inlet~;
#X obj 159 419 outlet~;
#X obj 160 390 *~;
#X obj 349 46 f \$1;
#X obj 349 20 loadbang;
#X connect 2 0 14 0;
#X connect 4 0 8 0;
#X connect 5 0 8 1;
#X connect 5 0 17 0;
#X connect 6 0 5 0;
#X connect 8 0 7 0;
#X connect 9 0 10 0;
#X connect 9 0 11 0;
#X connect 10 0 1 0;
#X connect 13 0 12 0;
#X connect 14 0 6 0;
#X connect 15 0 17 1;
#X connect 17 0 16 0;
#X connect 18 0 10 0;
#X connect 18 0 14 0;
#X connect 19 0 18 0;
#X coords 0 -1 1 1 67 50 1 100 200;
