#N canvas 201 81 787 534 10;
#X obj 40 28 inlet;
#N canvas 147 129 871 639 \$0-poly 0;
#X restore 36 254 pd \$0-poly;
#X obj 139 31 inlet;
#X obj 289 34 loadbang;
#X obj 289 79 f \$1;
#N canvas 0 0 887 513 \$0-fill-subpatch 0;
#N canvas 0 0 450 300 clear 0;
#X obj 97 62 inlet;
#X msg 97 84 clear;
#X obj 97 106 outlet;
#X connect 0 0 1 0;
#X connect 1 0 2 0;
#X restore 701 225 pd clear;
#N canvas 0 0 890 392 fake-inout 0;
#X obj 102 62 inlet;
#X msg 102 85 bang;
#X text 149 108 fake in/outlets;
#X obj 102 223 outlet;
#X obj 102 108 f \$0;
#X msg 102 181 obj 60 60 r \$1-state \, obj 650 54 r \$1-control \,
obj 60 600 s \$1-nextstate;
#X connect 0 0 1 0;
#X connect 1 0 4 0;
#X connect 4 0 5 0;
#X connect 5 0 3 0;
#X restore 596 225 pd fake-inout;
#X msg 701 180 bang;
#X msg 596 181 bang;
#N canvas 132 170 1000 587 make-one-object 0;
#X obj 94 38 inlet;
#X obj 94 550 outlet;
#X obj 182 36 inlet;
#X obj 126 95 + 1;
#X msg 182 61 0;
#X obj 94 96 f 0;
#X obj 94 64 t b a;
#X obj 395 155 * 30;
#X obj 395 268 list append;
#X obj 117 153 + 5;
#X text 474 235 x \, y;
#X obj 395 234 pack 0 0;
#X obj 395 311 list prepend obj;
#X obj 395 335 list trim;
#X obj 395 180 + 150;
#X obj 94 124 t a a a;
#X obj 94 178 pack 0 0;
#X text 166 179 route outlet \, obj index;
#X obj 395 207 swap 350;
#X msg 94 404 connect 4 \$1 \$2 0 \, connect 3 \$1 \$2 1 \, connect
\$2 0 2 0 \,;
#X text 107 378 connect route \, connect select \, connect outlet;
#X obj 395 131 t a a;
#X obj 395 290 list append;
#X text 478 265 "_markovanal \$0 <max>";
#X text 480 289 "_markovanal \$0 <max> <id>";
#X connect 0 0 6 0;
#X connect 2 0 4 0;
#X connect 3 0 5 1;
#X connect 4 0 5 1;
#X connect 5 0 3 0;
#X connect 5 0 15 0;
#X connect 6 0 5 0;
#X connect 6 1 8 1;
#X connect 7 0 14 0;
#X connect 8 0 22 0;
#X connect 9 0 16 1;
#X connect 11 0 8 0;
#X connect 12 0 13 0;
#X connect 13 0 1 0;
#X connect 14 0 18 0;
#X connect 15 0 16 0;
#X connect 15 1 9 0;
#X connect 15 2 21 0;
#X connect 16 0 19 0;
#X connect 18 0 11 0;
#X connect 18 1 11 1;
#X connect 19 0 1 0;
#X connect 21 0 7 0;
#X connect 21 1 22 1;
#X connect 22 0 12 0;
#X restore 151 265 pd make-one-object;
#X msg 274 241 bang;
#X obj 151 213 until;
#X obj 151 193 max;
#X text 380 171 make [route];
#X obj 330 171 f;
#X obj 330 402 outlet;
#X obj 151 243 list;
#X text 187 244 obj+args;
#X obj 151 171 f;
#X obj 83 34 inlet;
#X text 83 13 object count;
#X obj 355 50 inlet;
#X text 355 29 object names and arguments;
#X obj 151 83 t f b f b b;
#X obj 83 57 t b f;
#X msg 83 264 loadbang;
#X msg 128 35 10;
#X msg 339 144 5;
#X msg 242 51 u_wrandom;
#N canvas 0 0 850 444 make-and-connect-route-and-route 0;
#X obj 53 53 inlet;
#X obj 300 280 list trim;
#X text 37 264 connect [route];
#X obj 300 351 outlet;
#X obj 300 168 f;
#X obj 53 128 t b f;
#N canvas 0 0 450 300 count-0-to-x 0;
#X obj 150 128 max;
#X obj 150 153 until;
#X obj 185 181 + 1;
#X obj 150 210 list prepend;
#X obj 150 181 f 1;
#X obj 250 212 t a;
#X obj 125 91 t b a b b;
#X obj 125 242 list;
#X obj 125 272 outlet;
#X obj 125 61 inlet;
#X msg 196 153 0;
#X connect 0 0 1 0;
#X connect 1 0 4 0;
#X connect 2 0 4 1;
#X connect 3 0 5 0;
#X connect 3 0 7 1;
#X connect 4 0 2 0;
#X connect 4 0 3 0;
#X connect 5 0 3 1;
#X connect 6 0 7 0;
#X connect 6 1 0 0;
#X connect 6 2 10 0;
#X connect 6 3 3 1;
#X connect 7 0 8 0;
#X connect 9 0 6 0;
#X connect 10 0 4 1;
#X restore 300 201 pd count-0-to-x;
#X obj 523 281 list trim;
#X obj 300 227 t a a;
#X msg 53 199 connect 0 0 4 0 \, connect 1 0 3 0;
#X obj 523 255 list prepend obj 650 100 route;
#X obj 300 254 list prepend obj 60 100 route;
#X connect 0 0 5 0;
#X connect 1 0 3 0;
#X connect 4 0 6 0;
#X connect 5 0 9 0;
#X connect 5 1 4 0;
#X connect 6 0 8 0;
#X connect 7 0 3 0;
#X connect 8 0 11 0;
#X connect 8 1 10 0;
#X connect 9 0 3 0;
#X connect 10 0 7 0;
#X connect 11 0 1 0;
#X restore 330 195 pd make-and-connect-route-and-route;
#X connect 0 0 10 0;
#X connect 1 0 10 0;
#X connect 2 0 0 0;
#X connect 3 0 1 0;
#X connect 4 0 10 0;
#X connect 5 0 4 1;
#X connect 6 0 11 0;
#X connect 7 0 6 0;
#X connect 9 0 24 0;
#X connect 11 0 4 0;
#X connect 13 0 7 0;
#X connect 14 0 19 0;
#X connect 16 0 11 1;
#X connect 18 0 13 0;
#X connect 18 1 5 0;
#X connect 18 2 9 0;
#X connect 18 3 3 0;
#X connect 18 4 2 0;
#X connect 19 0 20 0;
#X connect 19 1 18 0;
#X connect 20 0 10 0;
#X connect 21 0 19 0;
#X connect 22 0 9 0;
#X connect 23 0 11 1;
#X connect 24 0 10 0;
#X restore 289 188 pd \$0-fill-subpatch;
#X obj 289 106 t a b;
#X obj 289 218 s pd-\$0-poly;
#X text 494 105 based on: polypoly;
#X obj 36 346 outlet;
#X obj 40 209 s \$0-state;
#N canvas 228 198 627 317 LICENSE-BSD 0;
#X text 121 56 This software is copyrighted by Miller Puckette \, Reality
Jockey Ltd. and others. The terms (the "Standard Improved BSD License")
apply to all files associated with the software unless explicitly disclaimed
in individual files.;
#X text 123 148 See the file LICENSE.txt for the full license text.
;
#X restore 372 34 pd LICENSE-BSD;
#X text 495 29 usage: u_markov <max number of states>;
#X obj 419 162 list append _markovanal \$0 \$1;
#X obj 36 287 r \$0-dumped-it;
#X obj 114 117 route reset;
#N canvas 0 0 755 484 last-two 0;
#X obj 153 175 cnv 15 150 80 empty empty empty 20 12 0 14 -233017 -66577
0;
#X floatatom 370 79 5 0 0 2 change-size - -;
#X obj 326 112 t f b;
#X text 378 110 first reset (b) \, then set new length (f).;
#X text 311 195 Right outlet is responsible to first fill the list
;
#X text 312 211 Left outlet then only lets the smaller list pass.;
#X obj 326 34 inlet;
#X obj 180 149 inlet;
#X obj 180 302 outlet;
#X obj 326 78 f 2;
#X obj 180 228 list split 2;
#X obj 326 55 b;
#X obj 180 184 list;
#X obj 180 255 swap;
#X obj 180 279 pack;
#X connect 1 0 2 0;
#X connect 2 0 10 1;
#X connect 2 1 12 1;
#X connect 6 0 11 0;
#X connect 7 0 12 0;
#X connect 9 0 2 0;
#X connect 10 0 12 1;
#X connect 10 0 13 0;
#X connect 10 2 12 1;
#X connect 11 0 9 0;
#X connect 12 0 10 0;
#X connect 13 0 14 0;
#X connect 13 1 14 1;
#X connect 14 0 8 0;
#X restore 40 156 pd last-two;
#N canvas 140 254 628 370 controls 0;
#X obj 79 31 inlet;
#X obj 79 316 s \$0-remotecontrol;
#X obj 79 56 list trim;
#X obj 79 212 route bang;
#X msg 79 292 dump;
#X obj 146 283 s \$0-control;
#X obj 79 82 route dump reset;
#X obj 133 187 s \$0-remotecontrol;
#X obj 133 108 route bang;
#X obj 200 163 s \$0-control;
#X msg 146 245 \$1 dump;
#X msg 133 163 reset;
#X msg 200 133 \$1 reset;
#X connect 0 0 2 0;
#X connect 2 0 6 0;
#X connect 3 0 4 0;
#X connect 3 1 10 0;
#X connect 4 0 1 0;
#X connect 6 0 3 0;
#X connect 6 1 8 0;
#X connect 8 0 11 0;
#X connect 8 1 12 0;
#X connect 10 0 5 0;
#X connect 11 0 7 0;
#X connect 12 0 9 0;
#X restore 139 80 pd controls;
#X connect 0 0 16 0;
#X connect 2 0 15 0;
#X connect 2 0 17 0;
#X connect 3 0 4 0;
#X connect 4 0 6 0;
#X connect 5 0 7 0;
#X connect 6 0 5 0;
#X connect 6 1 13 0;
#X connect 13 0 5 1;
#X connect 14 0 9 0;
#X connect 15 0 16 1;
#X connect 16 0 10 0;
