#N canvas 802 145 296 279 10;
#N canvas 0 0 682 744 \$0-overview 0;
#X restore 84 206 pd \$0-overview;
#N canvas 337 123 805 747 dump 0;
#X obj 94 243 textfile;
#X obj 94 337 t a b;
#X obj 128 411 f;
#X obj 160 412 + 1;
#X obj 240 603 s pd-\$0-overview;
#X obj 94 461 list;
#X msg 172 247 1;
#X obj 94 211 until;
#X obj 74 41 inlet;
#X obj 74 76 list;
#X msg 258 199 print;
#X msg 115 184 read \$1 cr \, rewind;
#X msg 239 247 clear;
#X msg 94 483 obj 100 \$2 \$1;
#X obj 239 42 inlet;
#X obj 128 434 * 45;
#X msg 74 113 symbol \$1.txt;
#X obj 74 152 t b b a b;
#X obj 94 362 list split 1;
#X obj 264 494 list prepend 0;
#X obj 264 536 list trim;
#X obj 197 414 route bang;
#X obj 264 514 list prepend text 250;
#X msg 74 537 vis 0 \, vis 1;
#X obj 94 269 route float;
#X obj 190 340 max;
#X obj 190 362 until;
#X text 258 348 lines that just contain a number are used to skip as
many lines as the number specifies. use this to make room for larger
GOP objects so they don't overlap with following objects.;
#X connect 0 0 24 0;
#X connect 0 1 7 1;
#X connect 1 0 18 0;
#X connect 1 1 2 0;
#X connect 2 0 3 0;
#X connect 2 0 15 0;
#X connect 3 0 2 1;
#X connect 5 0 13 0;
#X connect 6 0 2 1;
#X connect 7 0 0 0;
#X connect 8 0 9 0;
#X connect 9 0 16 0;
#X connect 10 0 0 0;
#X connect 11 0 0 0;
#X connect 12 0 4 0;
#X connect 13 0 4 0;
#X connect 14 0 12 0;
#X connect 15 0 5 1;
#X connect 15 0 19 1;
#X connect 16 0 17 0;
#X connect 17 0 23 0;
#X connect 17 1 7 0;
#X connect 17 2 11 0;
#X connect 17 3 12 0;
#X connect 17 3 6 0;
#X connect 18 0 5 0;
#X connect 18 1 21 0;
#X connect 19 0 22 0;
#X connect 20 0 4 0;
#X connect 21 1 19 0;
#X connect 22 0 20 0;
#X connect 23 0 4 0;
#X connect 24 0 25 0;
#X connect 24 1 1 0;
#X connect 25 0 26 0;
#X connect 26 0 2 0;
#X restore 84 184 pd dump;
#X msg 110 43 s;
#X text 139 43 ynths;
#X msg 110 65 e;
#X text 139 66 ffects;
#X msg 110 109 m;
#X text 140 107 appings;
#X msg 110 131 c;
#X text 140 129 controllers;
#X msg 110 153 u;
#X text 140 152 tilities;
#X msg 143 184 clear;
#X text 85 241 Help-click any object to;
#X text 85 260 open the help file!;
#X msg 110 21 a;
#X text 138 20 nalysis;
#X msg 110 87 g;
#X text 142 87 GUIs;
#X connect 2 0 1 0;
#X connect 4 0 1 0;
#X connect 6 0 1 0;
#X connect 8 0 1 0;
#X connect 10 0 1 0;
#X connect 12 0 1 1;
#X connect 15 0 1 0;
#X connect 17 0 1 0;
