#N canvas 178 182 795 594 10;
#X obj 540 82 inlet;
#X obj 169 57 inlet;
#X obj 236 489 outlet~;
#X text 162 19 IN: tablename gain transposition start(ms) duration(ms)
loop(0/1);
#X text 542 64 dispatcher (later);
#X obj 547 481 outlet;
#X text 468 513 bangs at end of duration \, if specified;
#X obj 366 491 outlet~;
#X obj 236 286 s_playtable;
#X obj 367 290 s_playtable;
#X obj 236 137 list split 1;
#X obj 236 229 list append;
#X obj 367 230 list append;
#X msg 236 202 \$1-1;
#X msg 367 208 \$1-2;
#X obj 169 94 route bang;
#X obj 169 223 t b b;
#N canvas 172 83 586 377 LICENSE-GPL 0;
#X text 57 88 This program is free software: you can redistribute it
and/or modify it under the terms of the GNU General Public License
as published by the Free Software Foundation \, either version 3 of
the License \, or (at your option) any later version.;
#X text 58 168 This program is distributed in the hope that it will
be useful \, but WITHOUT ANY WARRANTY \; without even the implied warranty
of MERCHANTABILITY or FITNESS FOR A PARTICULAR PURPOSE. See the GNU
General Public License for more details.;
#X text 57 261 You should have received a copy of the GNU General Public
License along with this program. If not \, see <http://www.gnu.org/licenses/>.
;
#X text 61 54 Copyright (C) 2009 \, Reality Jockey Ltd.;
#X text 60 325 See the file LICENSE.txt for the full license text.
;
#X restore 622 29 pd LICENSE-GPL;
#X connect 0 0 9 1;
#X connect 0 0 8 1;
#X connect 1 0 15 0;
#X connect 8 0 2 0;
#X connect 8 1 5 0;
#X connect 9 0 7 0;
#X connect 10 0 14 0;
#X connect 10 0 13 0;
#X connect 10 1 11 1;
#X connect 10 1 12 1;
#X connect 10 2 11 1;
#X connect 10 2 12 1;
#X connect 11 0 8 0;
#X connect 12 0 9 0;
#X connect 13 0 11 0;
#X connect 14 0 12 0;
#X connect 15 0 16 0;
#X connect 15 1 10 0;
#X connect 16 0 8 0;
#X connect 16 1 9 0;
