#N canvas 380 153 770 513 10;
#X obj 75 216 +;
#X obj 75 81 inlet;
#X obj 108 217 * 0.94;
#X obj 75 279 * 0.06;
#X obj 75 308 outlet;
#X obj 160 217 * -1;
#X obj 160 248 + 1;
#X text 311 252 latency (0= no latency \, 0.99= very smoothed \, 1=infinite)
;
#X text 71 55 input message (should be updated at constant rate);
#X obj 160 114 r \$0-latency;
#X obj 316 136 inlet;
#X obj 375 100 loadbang;
#X msg 375 125 latency 0.8;
#X text 311 289 u_follower is a simple smoother for messages provided
at constant rate;
#X obj 376 153 u_loader u_follower-\$1 \$0;
#X obj 316 204 u_dispatch \$0 latency;
#N canvas 172 83 586 377 LICENSE-GPL 0;
#X text 57 88 This program is free software: you can redistribute it
and/or modify it under the terms of the GNU General Public License
as published by the Free Software Foundation \, either version 3 of
the License \, or (at your option) any later version.;
#X text 58 168 This program is distributed in the hope that it will
be useful \, but WITHOUT ANY WARRANTY \; without even the implied warranty
of MERCHANTABILITY or FITNESS FOR A PARTICULAR PURPOSE. See the GNU
General Public License for more details.;
#X text 57 261 You should have received a copy of the GNU General Public
License along with this program. If not \, see <http://www.gnu.org/licenses/>.
;
#X text 61 54 Copyright (C) 2009 \, Reality Jockey Ltd.;
#X text 60 325 See the file LICENSE.txt for the full license text.
;
#X restore 522 59 pd LICENSE-GPL;
#X connect 0 0 2 0;
#X connect 0 0 3 0;
#X connect 1 0 0 0;
#X connect 2 0 0 1;
#X connect 3 0 4 0;
#X connect 5 0 6 0;
#X connect 6 0 3 1;
#X connect 9 0 5 0;
#X connect 9 0 2 1;
#X connect 10 0 15 0;
#X connect 11 0 12 0;
#X connect 12 0 15 0;
