#N canvas 491 349 533 404 10;
#X obj 222 58 inlet;
#X obj 94 57 inlet;
#X obj 94 199 outlet;
#N canvas 380 394 492 461 compare-elements 0;
#X obj 83 157 t a b;
#X obj 240 48 inlet;
#X obj 65 36 inlet;
#X obj 215 112 list;
#X obj 83 112 until;
#X obj 83 256 select 0;
#X obj 83 288 t b b;
#X msg 83 317 0;
#X obj 65 379 outlet;
#X obj 65 356 f 1;
#X obj 65 59 t b b a b b;
#X msg 125 319 1;
#X obj 83 226 ==;
#X obj 83 135 u_listser;
#X obj 155 192 u_listser;
#X connect 0 0 12 0;
#X connect 0 1 14 0;
#X connect 1 0 3 1;
#X connect 2 0 10 0;
#X connect 3 0 14 1;
#X connect 4 0 13 0;
#X connect 5 0 6 0;
#X connect 6 0 7 0;
#X connect 6 1 4 1;
#X connect 7 0 9 1;
#X connect 9 0 8 0;
#X connect 10 0 9 0;
#X connect 10 1 4 0;
#X connect 10 2 13 1;
#X connect 10 3 3 0;
#X connect 10 4 11 0;
#X connect 11 0 9 1;
#X connect 12 0 5 0;
#X connect 13 0 0 0;
#X connect 13 1 4 1;
#X connect 14 0 12 1;
#X restore 94 136 pd compare-elements;
#X msg 216 167 0;
#N canvas 446 369 450 300 compare-lengths 0;
#X obj 45 102 ==;
#X obj 45 123 select 1 0;
#X obj 144 35 inlet;
#X obj 45 20 inlet;
#X obj 45 203 outlet;
#X obj 77 182 outlet;
#X obj 45 45 t a a;
#X obj 45 154 list;
#X text 39 237 if equal \, send list out to first outlet \, else bang
second outlet;
#X obj 45 67 list length;
#X obj 144 68 list length;
#X connect 0 0 1 0;
#X connect 1 0 7 0;
#X connect 1 1 5 0;
#X connect 2 0 10 0;
#X connect 3 0 6 0;
#X connect 6 0 9 0;
#X connect 6 1 7 1;
#X connect 7 0 4 0;
#X connect 9 0 0 0;
#X connect 10 0 0 1;
#X restore 94 93 pd compare-lengths;
#N canvas 228 198 627 317 LICENSE-BSD 0;
#X text 121 56 This software is copyrighted by Miller Puckette \, Reality
Jockey Ltd. and others. The terms (the "Standard Improved BSD License")
apply to all files associated with the software unless explicitly disclaimed
in individual files.;
#X text 123 148 See the file LICENSE.txt for the full license text.
;
#X restore 323 30 pd LICENSE-BSD;
#X connect 0 0 5 1;
#X connect 0 0 3 1;
#X connect 1 0 5 0;
#X connect 3 0 2 0;
#X connect 4 0 2 0;
#X connect 5 0 3 0;
#X connect 5 1 4 0;
