#N canvas 506 105 390 521 10;
#X text 231 365 close the patch window;
#X text 30 487 open the patch window;
#X obj 32 425 pack s s;
#X text 20 4 opens and closes patches via patchname;
#X text 178 238 closes prev patch \, opens current;
#X obj 128 238 symbol;
#X obj 97 364 outlet opened;
#X obj 128 338 outlet closed;
#N canvas 4 51 172 174 filter_empty_symbol 0;
#X obj 24 40 inlet;
#X obj 99 130 outlet;
#X obj 99 40 loadbang;
#X obj 99 69 symbol;
#X obj 24 98 select symbol;
#X connect 0 0 4 0;
#X connect 2 0 3 0;
#X connect 3 0 4 1;
#X connect 4 1 1 0;
#X restore 128 266 pd filter_empty_symbol;
#X obj 167 203 symbol;
#X text 216 203 send in empty symbol;
#X text 122 95 in case of spaces in path;
#X obj 32 96 u_list2symbol;
#X obj 32 34 inlet file;
#X obj 32 64 route open close;
#X msg 32 453 \; pd open \$1 \$2;
#X msg 234 328 \; pd-\$1 menuclose 1;
#X obj 101 165 t b b b b;
#X msg 135 203 1;
#X msg 101 202 0;
#X obj 128 300 spigot;
#X obj 116 132 closebang;
#X obj 32 131 t a b b;
#X obj 77 394 getdir 1;
#X connect 2 0 15 0;
#X connect 5 0 8 0;
#X connect 8 0 20 0;
#X connect 9 0 5 1;
#X connect 12 0 22 0;
#X connect 13 0 14 0;
#X connect 14 0 12 0;
#X connect 14 1 17 0;
#X connect 17 0 19 0;
#X connect 17 1 9 0;
#X connect 17 2 5 0;
#X connect 17 3 18 0;
#X connect 18 0 20 1;
#X connect 19 0 20 1;
#X connect 20 0 7 0;
#X connect 20 0 16 0;
#X connect 21 0 17 0;
#X connect 22 0 2 0;
#X connect 22 0 6 0;
#X connect 22 0 5 0;
#X connect 22 1 23 0;
#X connect 22 2 17 0;
#X connect 23 0 2 1;
