#N canvas 801 120 480 266 10;
#X obj 58 177 hsl 120 20 0 127 0 1 sd rd d 5 5 0 10 -262144 -1 -1 8800
1;
#X obj 58 63 hsl 120 20 0.7 19 0 1 sa ra a 5 5 0 10 -262144 -1 -1 3446
1;
#X obj 58 101 hsl 120 20 0 19 0 1 sb rb b 5 5 0 10 -262144 -1 -1 9395
1;
#X obj 58 138 hsl 120 20 1 12 0 1 sc rc c 5 5 0 10 -262144 -1 -1 10800
1;
#X obj 227 217 print;
#X obj 222 12 loadbang;
#X msg 222 33 bang;
#X connect 0 0 4 0;
#X connect 1 0 4 0;
#X connect 2 0 4 0;
#X connect 3 0 4 0;
#X connect 5 0 6 0;
#X connect 6 0 1 0;
#X connect 6 0 2 0;
#X connect 6 0 3 0;
#X connect 6 0 0 0;
