#N canvas 467 158 235 297 10;
#X obj 34 21 cnv 15 160 160 empty empty touch 20 12 0 14 -233017 -66577
0;
#X floatatom 43 67 5 0 0 1 id touch_down_id -;
#X floatatom 100 67 5 0 0 1 x touch_down_x -;
#X floatatom 151 67 5 0 0 1 y touch_down_y -;
#X floatatom 44 112 5 0 0 1 id touch_xy_id -;
#X floatatom 101 112 5 0 0 1 x touch_xy_x -;
#X floatatom 152 112 5 0 0 1 y touch_xy_y -;
#X floatatom 44 155 5 0 0 1 id touch_up_id -;
#X floatatom 101 155 5 0 0 1 x touch_up_x -;
#X floatatom 152 155 5 0 0 1 y touch_up_y -;
#X text 42 47 down;
#N canvas 943 152 283 437 touch 0;
#X obj 45 319 unpack f f f;
#X obj 45 28 r #touch;
#X obj 114 349 s touch_down_y;
#X obj 79 373 s touch_down_x;
#X obj 45 397 s touch_down_id;
#X obj 76 207 unpack f f f;
#X obj 107 98 unpack f f f;
#X obj 107 176 s touch_up_id;
#X obj 141 152 s touch_up_x;
#X obj 176 128 s touch_up_y;
#X obj 45 63 route down xy up;
#X obj 167 53 print;
#X obj 145 237 s touch_xy_y;
#X obj 110 261 s touch_xy_x;
#X obj 76 285 s touch_xy_id;
#X connect 0 0 4 0;
#X connect 0 1 3 0;
#X connect 0 2 2 0;
#X connect 1 0 10 0;
#X connect 5 0 14 0;
#X connect 5 1 13 0;
#X connect 5 2 12 0;
#X connect 6 0 7 0;
#X connect 6 1 8 0;
#X connect 6 2 9 0;
#X connect 10 0 0 0;
#X connect 10 1 5 0;
#X connect 10 2 6 0;
#X restore 43 190 pd touch;
#X text 43 135 up;
#X text 42 90 xy;
