#N canvas 428 241 811 485 10;
#X declare -path .;
#N canvas 0 22 588 274 LICENSE 0;
#X text 57 36 Released under the GNU General Public License ver. 3
or later. See the file LICENSE.txt for the full text.;
#X text 79 84 (c) 2016 Dan Wilcox;
#X restore 571 80 pd LICENSE;
#X text 27 23 RjDj Scene Template - _main.pd;
#X obj 571 24 declare -path .;
#X obj 30 137 loadbang;
#X obj 30 188 rj_text gyro;
#X obj 32 221 loadbang;
#X obj 32 272 rj_text loc;
#X obj 32 306 loadbang;
#X obj 32 357 rj_text compass;
#X obj 33 400 loadbang;
#X obj 33 451 rj_text time;
#X obj 270 249 r \$0-loc;
#X obj 268 165 r \$0-gyro;
#X obj 290 334 r \$0-compass;
#X obj 281 426 r \$0-time;
#X obj 424 336 loadbang;
#X obj 424 401 rj_text gyro;
#X obj 428 64 r #touch;
#X obj 428 90 route down;
#N canvas 458 47 277 299 rj_loc 0;
#X obj 52 180 pack s s s;
#X obj 52 12 inlet;
#X obj 52 55 rj_loc;
#X obj 52 144 makefilename lat:%f;
#X obj 68 113 makefilename lon:%f;
#X obj 85 84 makefilename accuracy:%f;
#X obj 52 240 s \$0-loc;
#X msg 52 211 text rj_loc: \$1 \$2 \$3;
#X connect 0 0 7 0;
#X connect 1 0 2 0;
#X connect 2 0 3 0;
#X connect 2 1 4 0;
#X connect 2 2 5 0;
#X connect 3 0 0 0;
#X connect 4 0 0 1;
#X connect 5 0 0 2;
#X connect 7 0 6 0;
#X restore 428 199 pd rj_loc;
#N canvas 610 159 256 284 rj_compass 0;
#X obj 52 12 inlet;
#X obj 52 55 rj_compass;
#X obj 52 144 makefilename degrees:%f;
#X obj 52 240 s \$0-compass;
#X msg 52 211 text rj_compass: \$1;
#X connect 0 0 1 0;
#X connect 1 0 2 0;
#X connect 2 0 4 0;
#X connect 4 0 3 0;
#X restore 447 173 pd rj_compass;
#N canvas 631 33 301 403 rj_time 0;
#X obj 52 12 inlet;
#X obj 52 42 rj_time, f 20;
#X obj 52 287 pack s s s s s s s;
#X obj 52 347 s \$0-time;
#X obj 52 251 makefilename %d;
#X obj 69 220 makefilename %d;
#X obj 87 195 makefilename %d;
#X obj 104 172 makefilename %d;
#X obj 122 148 makefilename %d;
#X obj 139 123 makefilename %d;
#X obj 157 99 makefilename %d;
#X msg 52 318 text rj_time: \$1-\$2-\$3 \$4:\$5:\$6 \$7;
#X connect 0 0 1 0;
#X connect 1 0 4 0;
#X connect 1 1 5 0;
#X connect 1 2 6 0;
#X connect 1 5 10 0;
#X connect 1 6 7 0;
#X connect 1 7 8 0;
#X connect 1 8 9 0;
#X connect 2 0 11 0;
#X connect 4 0 2 0;
#X connect 5 0 2 1;
#X connect 6 0 2 2;
#X connect 7 0 2 3;
#X connect 8 0 2 4;
#X connect 9 0 2 5;
#X connect 10 0 2 6;
#X connect 11 0 3 0;
#X restore 467 146 pd rj_time;
#X msg 33 426 visible 1 \, move 160 220 \, text rj_time;
#X msg 32 332 visible 1 \, move 160 180 \, text rj_compass;
#X msg 32 247 visible 1 \, move 160 140 \, text rj_loc;
#X obj 29 50 loadbang;
#X obj 294 77 r \$0-accel;
#X obj 29 101 rj_text accel;
#N canvas 0 22 345 316 accelerate 0;
#X obj 76 37 r #accelerate;
#X obj 110 133 makefilename y:%f;
#X obj 145 108 makefilename z:%f;
#X obj 76 200 pack s s s;
#X obj 76 164 makefilename x:%f;
#X obj 76 75 unpack f f f;
#X msg 76 231 text #accelerate: \$1 \$2 \$3;
#X obj 76 260 s \$0-accel;
#X connect 0 0 5 0;
#X connect 1 0 3 1;
#X connect 2 0 3 2;
#X connect 3 0 6 0;
#X connect 4 0 3 0;
#X connect 5 0 4 0;
#X connect 5 1 1 0;
#X connect 5 2 2 0;
#X connect 6 0 7 0;
#X restore 428 227 pd accelerate;
#X msg 29 76 visible 1 \, move 160 20 \, text #accelerate;
#N canvas 379 47 256 290 gyro 0;
#X obj 86 113 makefilename y:%f;
#X obj 121 88 makefilename z:%f;
#X obj 52 180 pack s s s;
#X obj 52 144 makefilename x:%f;
#X obj 52 240 s \$0-gyro;
#X obj 52 55 unpack f f f;
#X obj 52 12 r #gyro;
#X msg 52 211 text #gyro: \$1 \$2 \$3;
#X connect 0 0 2 1;
#X connect 1 0 2 2;
#X connect 2 0 7 0;
#X connect 3 0 2 0;
#X connect 5 0 3 0;
#X connect 5 1 0 0;
#X connect 5 2 1 0;
#X connect 6 0 5 0;
#X connect 7 0 4 0;
#X restore 428 253 pd gyro;
#X obj 428 115 t b b b;
#X msg 424 362 visible 1 \, move 160 100 \, text Touch the screen to
update all sensors below;
#X msg 30 163 visible 1 \, move 160 60 \, text #gyro;
#X connect 3 0 33 0;
#X connect 5 0 24 0;
#X connect 7 0 23 0;
#X connect 9 0 22 0;
#X connect 11 0 6 0;
#X connect 12 0 4 0;
#X connect 13 0 8 0;
#X connect 14 0 10 0;
#X connect 15 0 32 0;
#X connect 17 0 18 0;
#X connect 18 0 31 0;
#X connect 22 0 10 0;
#X connect 23 0 8 0;
#X connect 24 0 6 0;
#X connect 25 0 29 0;
#X connect 26 0 27 0;
#X connect 29 0 27 0;
#X connect 31 0 19 0;
#X connect 31 1 20 0;
#X connect 31 2 21 0;
#X connect 32 0 16 0;
#X connect 33 0 4 0;
