#N canvas 421 153 763 454 10;
#X obj 16 7 cnv 15 100 120 empty empty notein 20 12 0 14 -261234 -66577
0;
#X floatatom 28 40 5 0 0 1 channel notein-chan -;
#X floatatom 28 72 5 0 0 1 pitch notein-pitch -;
#X floatatom 28 102 5 0 0 1 velocity notein-vel -;
#N canvas 0 22 1089 205 input 0;
#X obj 18 20 notein;
#X obj 51 48 s notein-chan;
#X obj 34 72 s notein-vel;
#X obj 18 99 s notein-pitch;
#X obj 164 21 ctlin;
#X obj 191 48 s ctlin-chan;
#X obj 177 73 s ctlin-ctl;
#X obj 164 102 s ctlin-val;
#X obj 299 23 pgmin;
#X obj 299 99 s pgmin-pgm;
#X obj 428 23 bendin;
#X obj 326 48 s pgmin-chan;
#X obj 461 49 s bendin-chan;
#X obj 428 99 s bendin-val;
#X obj 571 23 touchin;
#X obj 724 22 polytouchin;
#X obj 787 52 s polytouchin-chan;
#X obj 724 99 s polytouchin-val;
#X obj 928 24 sysexin;
#X obj 967 51 s sysexin-port;
#X obj 928 99 s sysexin-byte;
#X obj 610 53 s touchin-chan;
#X obj 571 98 s touchin-val;
#X obj 928 172 print sysex;
#X obj 755 74 s polytouchin-pitch;
#X obj 19 172 print notein;
#X obj 19 143 r #notein;
#X obj 164 142 r #ctlin;
#X obj 164 172 print ctlin;
#X obj 297 142 r #pgmin;
#X obj 297 171 print pgmin;
#X obj 427 142 r #bendin;
#X obj 427 171 print bendin;
#X obj 568 142 r #touchin;
#X obj 568 171 print touchin;
#X obj 722 141 r #polytouchin;
#X obj 722 170 print polytouchin;
#X obj 928 137 r #sysexin;
#X connect 0 0 3 0;
#X connect 0 1 2 0;
#X connect 0 2 1 0;
#X connect 4 0 7 0;
#X connect 4 1 6 0;
#X connect 4 2 5 0;
#X connect 8 0 9 0;
#X connect 8 1 11 0;
#X connect 10 0 13 0;
#X connect 10 1 12 0;
#X connect 14 0 22 0;
#X connect 14 1 21 0;
#X connect 15 0 17 0;
#X connect 15 1 24 0;
#X connect 15 2 16 0;
#X connect 18 0 20 0;
#X connect 18 1 19 0;
#X connect 26 0 25 0;
#X connect 27 0 28 0;
#X connect 29 0 30 0;
#X connect 31 0 32 0;
#X connect 33 0 34 0;
#X connect 35 0 36 0;
#X connect 37 0 23 0;
#X restore 345 138 pd input;
#X obj 139 8 cnv 15 100 120 empty empty ctlin 20 12 0 14 -233017 -66577
0;
#X floatatom 151 41 5 0 0 1 channel ctlin-chan -;
#X floatatom 151 73 5 0 0 1 control ctlin-ctl -;
#X floatatom 151 103 5 0 0 1 value ctlin-val -;
#X obj 268 9 cnv 15 100 120 empty empty pgmin 20 12 0 14 -233017 -66577
0;
#X floatatom 280 42 5 0 0 1 channel pgmin-chan -;
#X floatatom 280 74 5 0 0 1 program pgmin-pgm -;
#X obj 393 8 cnv 15 100 120 empty empty bendin 20 12 0 14 -233017 -66577
0;
#X floatatom 405 41 5 0 0 1 channel bendin-chan -;
#X floatatom 405 73 5 0 0 1 value bendin-val -;
#X obj 643 6 cnv 15 100 120 empty empty polytouchin 6 12 0 14 -233017
-66577 0;
#X floatatom 655 39 5 0 0 1 channel polytouchin-chan -;
#X floatatom 655 71 5 0 0 1 pitch polytouchin-pitch -;
#X floatatom 655 101 5 0 0 1 value polytouchin-val -;
#X obj 515 7 cnv 15 100 120 empty empty touchin 20 12 0 14 -233017
-66577 0;
#X floatatom 527 40 5 0 0 1 channel touchin-chan -;
#X floatatom 527 72 5 0 0 1 value touchin-val -;
#X obj 640 198 cnv 15 100 120 empty empty sysexin 20 12 0 14 -233017
-66577 0;
#X floatatom 652 231 5 0 0 1 port sysexin-port -;
#X floatatom 652 263 5 0 0 1 value sysexin-byte -;
#X obj 13 198 cnv 15 100 120 empty empty noteout 20 12 0 14 -261234
-66577 0;
#X obj 38 254 bng 30 250 50 0 noteout-64 empty 64 37 7 0 10 -262144
-1 -1;
#X obj 38 286 bng 30 250 50 0 noteout-72 empty 72 37 7 0 10 -262144
-1 -1;
#X obj 38 222 bng 30 250 50 0 noteout-32 empty 32 37 7 0 10 -262144
-1 -1;
#N canvas 0 22 712 289 output 0;
#X obj 65 62 r noteout-64;
#X obj 16 30 r noteout-32;
#X obj 114 90 r noteout-72;
#X msg 65 96 64 64;
#X msg 16 59 32 64;
#X msg 114 125 72 80;
#X obj 44 178 makenote 64 500;
#X obj 44 210 noteout 1;
#X obj 44 149 unpack f f;
#X obj 333 125 bendout;
#N canvas 551 149 369 179 sysexout 0;
#X obj -23 11 inlet;
#X obj -23 100 midiout 1;
#X msg -23 71 240 \, 71 \, 0 \, 66 \, 72 \, 0 \, 0 \, 1 \, 75 \, 0
\, 1 \, 0 \, 4 \, 0 \, 247;
#X obj -23 42 t b;
#X text 54 15 this dosen't work on Windows;
#X connect 0 0 3 0;
#X connect 2 0 1 0;
#X connect 3 0 2 0;
#X restore 507 215 pd sysexout;
#X obj 332 216 touchout;
#X text 329 77 bend -8192 - 8192 in pd;
#X text 552 115 set value for pitch 64;
#X obj 217 216 pgmout 1;
#X obj 504 144 polytouchout 1;
#X obj 217 150 ctlout;
#X msg 217 119 \$1 7 1;
#X msg 504 116 \$1 64 1;
#X text 202 52 set value for ctl 7 (vol);
#X obj 217 89 r ctlout-val;
#X obj 217 189 r pgmout-val;
#X obj 333 98 r bendout-val;
#X obj 332 188 r touchout-val;
#X obj 504 88 r polytouchout-val;
#X obj 507 189 r sysexout-bng;
#X connect 0 0 3 0;
#X connect 1 0 4 0;
#X connect 2 0 5 0;
#X connect 3 0 8 0;
#X connect 4 0 8 0;
#X connect 5 0 8 0;
#X connect 6 0 7 0;
#X connect 6 1 7 1;
#X connect 8 0 6 0;
#X connect 8 1 6 1;
#X connect 17 0 16 0;
#X connect 18 0 15 0;
#X connect 20 0 17 0;
#X connect 21 0 14 0;
#X connect 22 0 9 0;
#X connect 23 0 11 0;
#X connect 24 0 18 0;
#X connect 25 0 10 0;
#X restore 345 328 pd output;
#X obj 135 198 cnv 15 154 54 empty empty ctlout 20 12 0 14 -233017
-66577 0;
#X obj 151 226 hsl 128 15 0 127 0 0 ctlout-val empty empty 2 8 0 10
-262144 -1 -1 2700 1;
#X obj 135 263 cnv 15 154 54 empty empty pgmout 20 12 0 14 -233017
-66577 0;
#X obj 151 291 hsl 128 15 0 127 0 0 pgmout-val empty empty 2 8 0 10
-262144 -1 -1 0 1;
#X obj 301 199 cnv 15 154 54 empty empty bendout 20 12 0 14 -233017
-66577 0;
#X obj 317 227 hsl 128 15 0 16384 0 0 bendout-val empty empty 2 8 0
10 -262144 -1 -1 0 1;
#X obj 301 264 cnv 15 154 54 empty empty touchout 20 12 0 14 -233017
-66577 0;
#X obj 317 292 hsl 128 15 0 127 0 0 touchout-val empty empty 2 8 0
10 -262144 -1 -1 0 1;
#X obj 471 198 cnv 15 154 54 empty empty polytouchout 20 12 0 14 -233017
-66577 0;
#X obj 487 226 hsl 128 15 0 127 0 0 polytouchout-val empty empty 2
8 0 10 -262144 -1 -1 0 1;
#X obj 471 265 cnv 15 154 54 empty empty sysexout 20 12 0 14 -233017
-66577 0;
#X obj 580 282 bng 25 250 50 0 sysexout-bng empty empty 24 10 0 10
-262144 -1 -1;
#X text 197 374 Open this patch on the desktop and use OSX network
midi for testing or plug in a usb midi adapter via the Camera Connection
Kit (optionally through a powered usb hub).;
