#N canvas 172 153 381 190 10;
#X obj 13 30 taplist 96 32 send receive hello goat egg wubble;
#X obj 13 87 nbx 5 14 -1e+37 1e+37 0 0 empty receive/idx index 0 -8
0 10 -262144 -1 -1 1 256;
#X obj 14 111 bng 15 250 50 0 bash-value empty bash-value-goat 17 7
0 10 -262144 -1 -1;
#X obj 14 135 bng 15 250 50 0 set-message empty set-message-egg 17
7 0 10 -262144 -1 -1;
#N canvas 2 48 450 300 stuff 0;
#X obj 116 22 r receive;
#X obj 23 21 r receive/idx;
#X obj 23 60 print;
#X obj 351 35 loadbang;
#X obj 351 97 random 4;
#X obj 351 118 s send;
#X obj 351 76 metro 3000;
#X obj 351 56 delay 3000;
#X obj 169 162 r bash-value;
#X obj 32 164 r set-message;
#X msg 169 184 \; send 1;
#X msg 32 186 \; send set 2;
#X connect 0 0 2 0;
#X connect 1 0 2 0;
#X connect 3 0 7 0;
#X connect 4 0 5 0;
#X connect 6 0 4 0;
#X connect 7 0 6 0;
#X connect 8 0 10 0;
#X connect 9 0 11 0;
#X restore 287 140 pd stuff;
#X text 10 5 changes randomly every 3 seconds;
