#N canvas 299 149 375 623 12;
#X obj 95 59 tgl 30 0 \$0-run \$0-run-in run 0 -10 0 12 #00ff04 #000000 #000000 0 1;
#X obj 144 59 bng 30 250 50 0 \$0-a \$0-a-in a.png 0 -10 0 12 #fcfcfc #000000 #000000;
#X obj 200 59 bng 30 250 50 0 \$0-b \$0-b-in b.png 0 -10 0 12 #fcfcfc #000000 #000000;
#N canvas 295 320 514 231 guts 0;
#X obj 131 122 s #pdparty;
#X obj 21 82 tgl 19 0 empty empty empty 0 -10 0 12 #fcfcfc #000000 #000000 0 1;
#X obj 21 120 sel 1 0;
#X msg 131 52 symbol a.png;
#X msg 239 52 symbol b.png;
#X obj 131 20 r \$0-a;
#X obj 239 21 r \$0-b;
#X obj 21 20 r \$0-run;
#X msg 131 82 background load \$1;
#X obj 21 183 s \$0-a-in;
#X obj 44 153 s \$0-b-in;
#X obj 362 21 r \$0-clear;
#X msg 362 53 background clear;
#X obj 21 48 metro 5000;
#X connect 1 0 2 0;
#X connect 2 0 9 0;
#X connect 2 1 10 0;
#X connect 3 0 8 0;
#X connect 4 0 8 0;
#X connect 5 0 3 0;
#X connect 6 0 4 0;
#X connect 7 0 13 0;
#X connect 8 0 0 0;
#X connect 11 0 12 0;
#X connect 12 0 0 0;
#X connect 13 0 1 0;
#X restore 23 17 pd guts;
#X obj 251 59 bng 30 250 50 0 \$0-clear empty clear 0 -10 0 12 #ff0400 #000000 #000000;
#X text 21 596 clear with #pdparty background clear;
#X text 121 17 background image;
#X text 21 575 set background via #pdparty background load;
#X text 21 554 background.png or background.jpg on scene open;
