#N canvas 112 275 254 311 10;
#X obj 43 27 vsl 30 200 0 127 0 0 \$0-vsl-out \$0-vsl-in receives 0
-9 0 10 #fcfcfc #000000 #000000 0 1;
#X obj 166 102 bng 30 250 50 0 \$0-bang-out \$0-bang-in sends 2 -7
0 10 #fcfcfc #000000 #000000;
#N canvas 688 102 385 387 guts 0;
#X obj 44 178 s \$0-vsl-in;
#X obj 153 146 print;
#X obj 232 28 r \$0-bang-out;
#X obj 232 180 s #osc-out;
#X obj 44 27 r #osc-in;
#X obj 123 266 loadbang;
#X obj 44 145 route slider;
#X obj 153 86 oscparse;
#X obj 153 115 list trim;
#X text 12 237 test that sending other message types doesn't crash
pdparty;
#X obj 244 348 print;
#N canvas 92 117 419 227 send 0;
#X msg 27 108 bang;
#X msg 76 108 123;
#X msg 119 108 symbol ka;
#X msg 201 108 /hello 1 2 3;
#X msg 292 109 list 1 2 3 4;
#X obj 109 74 t b b b b b;
#X obj 109 43 inlet;
#X obj 119 146 outlet;
#X text 18 12 these should result in errors;
#X connect 0 0 7 0;
#X connect 1 0 7 0;
#X connect 2 0 7 0;
#X connect 3 0 7 0;
#X connect 4 0 7 0;
#X connect 5 0 0 0;
#X connect 5 1 1 0;
#X connect 5 2 2 0;
#X connect 5 3 3 0;
#X connect 5 4 4 0;
#X connect 6 0 5 0;
#X restore 142 321 pd send test;
#X obj 142 348 s #osc-out;
#X obj 123 295 t b b b;
#X msg 244 321 begin send test;
#X msg 30 321 end send test;
#X obj 232 62 oscformat bang;
#X obj 30 348 print;
#X connect 2 0 16 0;
#X connect 4 0 1 0;
#X connect 4 0 6 0;
#X connect 5 0 13 0;
#X connect 6 0 0 0;
#X connect 7 0 8 0;
#X connect 8 0 1 0;
#X connect 11 0 12 0;
#X connect 13 0 15 0;
#X connect 13 1 11 0;
#X connect 13 2 14 0;
#X connect 14 0 10 0;
#X connect 15 0 17 0;
#X connect 16 0 3 0;
#X connect 16 0 7 0;
#X restore 160 207 pd guts;
#X text 12 267 to communicate with this scene;
#X text 12 284 don't forget to turn on OSC;
#X text 12 248 run tests/osc-test.pd on your computer;
