#N canvas 424 46 261 311 10;
#X obj 43 27 vsl 30 200 0 127 0 0 \$0-vsl-out \$0-vsl-in receives 0
-9 0 10 -262144 -1 -1 0 1;
#X obj 166 102 bng 30 250 50 0 \$0-bang-out \$0-bang-in sends 2 -7
0 10 -262144 -1 -1;
#N canvas 548 80 324 290 guts 0;
#X obj 26 95 routeOSC /slider;
#X obj 26 128 s \$0-vsl-in;
#X obj 151 95 print;
#X obj 214 28 r \$0-bang-out;
#X msg 214 63 /bang;
#X obj 214 95 s #osc-out;
#X obj 26 27 r #osc-in;
#X obj 126 156 loadbang;
#X obj 136 254 s #osc-out;
#X msg 44 216 bang;
#X msg 93 216 123;
#X msg 136 216 symbol ka;
#X msg 218 216 /hello 1 2 3;
#X obj 126 182 t b b b b;
#X connect 0 0 1 0;
#X connect 3 0 4 0;
#X connect 4 0 2 0;
#X connect 4 0 5 0;
#X connect 6 0 0 0;
#X connect 6 0 2 0;
#X connect 7 0 13 0;
#X connect 9 0 8 0;
#X connect 10 0 8 0;
#X connect 11 0 8 0;
#X connect 12 0 8 0;
#X connect 13 0 9 0;
#X connect 13 1 10 0;
#X connect 13 2 11 0;
#X connect 13 3 12 0;
#X restore 160 207 pd guts;
#X text 40 264 to communicate with this scene;
#X text 40 281 don't forget to turn on OSC;
#X text 40 247 run tests/osc.pd on your desktop;
