#N canvas 201 465 195 127 10;
#X declare -path .;
#X declare -path rj;
#X declare -path ../pd;
#X declare -path ../../pd;
#N canvas 2 55 588 274 LICENSE 0;
#X text 79 84 (c) 2008 Reality Jockey;
#X text 57 36 Released under the GNU General Public License ver. 3
or later. See the file LICENSE.txt for the full text.;
#X restore 571 80 pd LICENSE;
#X obj 571 108 OVERVIEW;
#X obj 571 24 declare -path .;
#X obj 571 52 declare -path rj;
#X text 639 108 of all RjDj abstractions;
#X obj 76 326 e_vocoder thisvoco;
#N canvas 0 22 660 424 chord 0;
#X obj 92 147 -~ 0.5;
#X obj 92 196 clip~ -0.5 0.5;
#X obj 92 219 cos~;
#X obj 91 302 hip~ 5;
#X obj 91 365 outlet~;
#X obj 92 172 *~ 3;
#X obj 92 124 phasor~ 220;
#X obj 221 147 -~ 0.5;
#X obj 221 196 clip~ -0.5 0.5;
#X obj 221 219 cos~;
#X obj 221 172 *~ 3;
#X obj 356 150 -~ 0.5;
#X obj 356 199 clip~ -0.5 0.5;
#X obj 356 222 cos~;
#X obj 356 175 *~ 3;
#X obj 221 124 phasor~ 251;
#X obj 356 127 phasor~ 281;
#X obj 91 335 *~ 0.2;
#X msg 430 76 0;
#X obj 92 29 inlet;
#X text 204 32 test sound;
#X obj 92 79 mtof;
#X obj 132 81 mtof;
#X obj 168 82 mtof;
#X floatatom 237 50 5 0 0 0 - - -;
#X obj 465 153 -~ 0.5;
#X obj 465 202 clip~ -0.5 0.5;
#X obj 465 225 cos~;
#X obj 465 178 *~ 3;
#X obj 465 130 phasor~ 281;
#X obj 92 52 unpack 0 0 0 0;
#X obj 210 81 mtof;
#X connect 0 0 5 0;
#X connect 1 0 2 0;
#X connect 2 0 3 0;
#X connect 3 0 17 0;
#X connect 5 0 1 0;
#X connect 6 0 0 0;
#X connect 7 0 10 0;
#X connect 8 0 9 0;
#X connect 9 0 3 0;
#X connect 10 0 8 0;
#X connect 11 0 14 0;
#X connect 12 0 13 0;
#X connect 13 0 3 0;
#X connect 14 0 12 0;
#X connect 15 0 7 0;
#X connect 16 0 11 0;
#X connect 17 0 4 0;
#X connect 18 0 16 1;
#X connect 18 0 15 1;
#X connect 18 0 6 1;
#X connect 18 0 29 1;
#X connect 19 0 30 0;
#X connect 21 0 6 0;
#X connect 22 0 15 0;
#X connect 23 0 16 0;
#X connect 24 0 23 0;
#X connect 25 0 28 0;
#X connect 26 0 27 0;
#X connect 27 0 3 0;
#X connect 28 0 26 0;
#X connect 29 0 25 0;
#X connect 30 0 21 0;
#X connect 30 1 22 0;
#X connect 30 2 23 0;
#X connect 30 3 31 0;
#X connect 31 0 29 0;
#X restore 76 215 pd chord;
#X msg 76 161 57 60 64 67;
#X text 131 358 A vocoder processes microphone input;
#X text 145 216 Source of chord sound;
#X text 175 174 MIDI note lists for three different chords;
#N canvas 0 0 448 215 more_paths 0;
#X text 27 19 You can add more paths here as well \, like the path
to soundoutput.pd on your computer etc.;
#X obj 36 57 declare -path ../pd;
#X obj 35 79 declare -path ../../pd;
#X restore 707 51 pd more_paths;
#X obj 122 257 adc~;
#X obj 73 491 dac~;
#X text 10 11 RjDj Vocoder;
#X obj 76 193 pack f f f f;
#X obj 12 64 nbx 5 14 -1e+37 1e+37 0 1 note_1 empty empty 0 -8 0 10
-262144 -1 -1 57 256;
#X obj 76 135 loadbang;
#X obj 74 64 nbx 5 14 -1e+37 1e+37 0 1 note_2 empty empty 0 -8 0 10
-262144 -1 -1 60 256;
#X obj 12 85 nbx 5 14 -1e+37 1e+37 0 1 note_3 empty empty 0 -8 0 10
-262144 -1 -1 64 256;
#X obj 75 85 nbx 5 14 -1e+37 1e+37 0 1 note_4 empty empty 0 -8 0 10
-262144 -1 -1 67 256;
#X obj 278 110 r note_4;
#X obj 211 60 r note_1;
#X obj 210 85 r note_2;
#X obj 210 107 t b f;
#X obj 276 60 r note_3;
#X obj 276 82 t b f;
#X obj 278 132 t b f;
#X text 8 30 (c) 2008 RjDj;
#X connect 5 0 13 0;
#X connect 5 0 13 1;
#X connect 6 0 5 0;
#X connect 7 0 15 0;
#X connect 12 0 5 1;
#X connect 12 1 5 1;
#X connect 15 0 6 0;
#X connect 17 0 7 0;
#X connect 21 0 27 0;
#X connect 22 0 15 0;
#X connect 23 0 24 0;
#X connect 24 0 15 0;
#X connect 24 1 15 1;
#X connect 25 0 26 0;
#X connect 26 0 15 0;
#X connect 26 1 15 2;
#X connect 27 0 15 0;
#X connect 27 1 15 3;
