#N canvas 326 23 455 595 10;
#X obj 18 24 r #touch;
#X obj 296 24 r #accelerate;
#X obj 19 510 s #osc-out;
#X obj 19 475 r #osc-in;
#X obj 18 57 unpack s f f f;
#X text 115 57 eventType id x y;
#X obj 296 57 unpack f f f;
#X text 381 58 x y z;
#X text 95 475 receive data over OSC;
#X text 95 511 send data over OSC;
#X obj 19 561 s #pdparty;
#X obj 19 105 r #loc;
#X text 105 139 lat lon accuracy;
#X text 369 183 degrees;
#X obj 295 183 r #compass;
#X obj 295 105 r #magnet;
#X obj 295 137 unpack f f f;
#X text 380 137 x y z;
#X text 95 561 sensor control messages \, timestamp requests \, etc
;
#X obj 19 137 unpack f f f;
#X obj 19 289 unpack f f f f f f f f f f;
#X text 186 296 timezone hour minute second millisecond;
#X text 186 279 year month day_month day_week day_year;
#X obj 19 258 r #time;
#X obj 20 183 r #speed;
#X obj 20 213 unpack f f;
#X obj 21 337 r #controller;
#X obj 21 404 unpack s;
#X obj 198 403 unpack s s s f;
#X text 17 431 device name;
#X text 95 214 speed_m/s course_degrees;
#X text 196 431 name button/axis button/axis_name value;
#X obj 21 369 route connect disconnect pause;
#X obj 294 221 r #shake;
#X text 293 244 1 - start \, 0 - stop;
#X text 354 222 state;
#X connect 0 0 4 0;
#X connect 1 0 6 0;
#X connect 11 0 19 0;
#X connect 15 0 16 0;
#X connect 23 0 20 0;
#X connect 24 0 25 0;
#X connect 26 0 32 0;
#X connect 32 0 27 0;
#X connect 32 1 27 0;
#X connect 32 2 27 0;
#X connect 32 3 28 0;
