#N canvas 354 227 453 432 10;
#X obj 18 31 r #touch;
#X obj 296 33 r #accelerate;
#X obj 19 337 s #osc-out;
#X obj 19 302 r #osc-in;
#X obj 18 67 unpack s f f f;
#X text 115 67 eventType id x y;
#X obj 296 67 unpack f f f;
#X text 381 68 x y z;
#X text 96 302 receive data over OSC;
#X text 95 338 send data over OSC;
#X obj 20 398 s #pdparty;
#X obj 19 114 r #loc;
#X text 105 149 lat lon accuracy;
#X text 369 191 degrees;
#X obj 295 191 r #compass;
#X obj 295 116 r #magnet;
#X obj 295 148 unpack f f f;
#X text 380 147 x y z;
#X text 96 398 sensor control messages \, timestamp requests \, etc
;
#X obj 19 147 unpack f f f;
#X obj 19 231 unpack f f f f f f f f f f;
#X text 186 248 timezone hour minute second millisecond;
#X text 186 231 year month day_month day_week day_year;
#X obj 19 198 r #time;
#X connect 0 0 4 0;
#X connect 1 0 6 0;
#X connect 11 0 19 0;
#X connect 15 0 16 0;
#X connect 23 0 20 0;
