#N canvas 354 227 453 432 10;
#X obj 18 31 r #touch;
#X obj 261 33 r #accelerate;
#X obj 19 114 r #locate;
#X obj 19 192 r #heading;
#X obj 21 334 s #osc-out;
#X obj 21 289 r #osc-in;
#X obj 18 67 unpack s f f f;
#X text 115 67 eventType id x y;
#X obj 261 67 unpack f f f;
#X text 346 68 x y z;
#X obj 19 226 unpack f f s;
#X obj 19 147 unpack f f f f f f f s;
#X text 162 149 lat lon alt speed course hacc vacc timestamp;
#X text 107 227 degrees accur timestamp;
#X text 98 289 receive data over OSC;
#X text 97 335 send data over OSC;
#X obj 20 398 s #pdparty;
#X text 96 398 internal messages to set locate/heading accur \, etc
;
#X connect 0 0 6 0;
#X connect 1 0 8 0;
#X connect 2 0 11 0;
#X connect 3 0 10 0;
