#N canvas 0 0 310 377 10;
#X obj 39 41 env~;
#X obj 39 63 dbtorms;
#X obj 39 84 moses 0;
#X obj 83 163 line~;
#X obj 17 199 *~;
#X msg 83 130 \$1 1;
#X msg 39 130 \$1 1;
#X obj 83 107 expr 1 / $f1;
#X obj 17 221 outlet~;
#X obj 18 18 inlet~;
#X connect 0 0 1 0;
#X connect 1 0 2 0;
#X connect 2 0 6 0;
#X connect 2 1 7 0;
#X connect 3 0 4 1;
#X connect 4 0 8 0;
#X connect 5 0 3 0;
#X connect 6 0 3 0;
#X connect 7 0 5 0;
#X connect 9 0 0 0;
#X connect 9 0 4 0;
