#N canvas 228 22 1014 720 10;
#X obj 565 240 tgl 15 0 empty empty empty 17 7 0 10 -262144 -1 -1 0
1;
#N canvas 0 22 450 300 (subpatch) 0;
#X array \$0-x 16 float 2;
#X coords 0 320 15 0 200 140 1;
#X restore 334 520 graph;
#N canvas 0 22 450 300 (subpatch) 0;
#X array \$0-y 16 float 2;
#X coords 0 320 15 0 200 140 1;
#X restore 539 520 graph;
#X obj 47 578 tabread \$0-x;
#X obj 70 614 tabread \$0-y;
#X obj 50 248 unpack 0 0;
#X obj 50 374 tabwrite \$0-x;
#X obj 117 348 tabwrite \$0-y;
#X obj 47 533 spigot;
#X obj 100 509 == 0;
#X obj 47 509 mod 16;
#X obj 47 482 r tick;
#X obj 205 301 mod 16;
#X obj 205 274 r tick;
#X obj 444 93 route xy down up;
#X msg 543 123 0;
#X obj 444 288 s \$0-finger;
#X obj 47 737 s note-value;
#N canvas 0 22 450 300 (subpatch) 0;
#X array \$0-triggers 16 float 2;
#X coords 0 1 15 0 200 140 1;
#X restore 754 520 graph;
#X msg 470 408 const 0;
#X obj 470 432 s \$0-triggers;
#X obj 575 304 tabwrite \$0-triggers;
#X obj 712 246 mod 16;
#X obj 680 177 r tick;
#X obj 133 214 s note-value;
#X obj 47 556 t a a a;
#X obj 93 645 tabread \$0-triggers;
#X obj 471 454 s \$0-x;
#X obj 471 475 s \$0-y;
#X obj 47 680 pack 0 0 0;
#X obj 133 38 r tick;
#X obj 133 128 list;
#X obj 133 86 spigot;
#X obj 186 86 r \$0-finger;
#X obj 133 183 list append 1;
#X obj 565 333 s \$0-down?;
#X obj 172 59 r \$0-down?;
#X obj 100 488 r \$0-down?;
#X text 241 158 finger;
#X obj 133 156 list prepend \$1;
#X obj 47 711 list prepend \$1;
#X text 166 709 finger;
#X obj 444 121 route \$1;
#X text 390 122 finger;
#X obj 444 63 list trim;
#X obj 470 365 loadbang;
#X obj 444 37 r #touch;
#X obj 34 37 inlet;
#X obj 34 72 s \$0-reset;
#X obj 484 387 r \$0-reset;
#X msg 466 171 1;
#X obj 133 60 t b a;
#X obj 595 275 f;
#X obj 680 199 t b a;
#X obj 612 237 spigot;
#X obj 712 222 + 0;
#X text 682 155 Argh \, ugly.;
#X connect 0 0 35 0;
#X connect 0 0 52 1;
#X connect 3 0 29 0;
#X connect 4 0 29 1;
#X connect 5 0 6 0;
#X connect 5 1 7 0;
#X connect 8 0 25 0;
#X connect 9 0 8 1;
#X connect 10 0 8 0;
#X connect 11 0 10 0;
#X connect 12 0 7 1;
#X connect 12 0 6 1;
#X connect 13 0 12 0;
#X connect 14 0 42 0;
#X connect 14 1 42 0;
#X connect 14 2 15 0;
#X connect 15 0 54 1;
#X connect 15 0 52 0;
#X connect 15 0 0 0;
#X connect 19 0 20 0;
#X connect 19 0 27 0;
#X connect 19 0 28 0;
#X connect 22 0 21 1;
#X connect 23 0 53 0;
#X connect 25 0 3 0;
#X connect 25 1 4 0;
#X connect 25 2 26 0;
#X connect 26 0 29 2;
#X connect 29 0 40 0;
#X connect 30 0 51 0;
#X connect 31 0 5 0;
#X connect 31 0 39 0;
#X connect 32 0 31 0;
#X connect 33 0 31 1;
#X connect 34 0 24 0;
#X connect 36 0 32 1;
#X connect 36 0 34 1;
#X connect 37 0 9 0;
#X connect 39 0 34 0;
#X connect 40 0 17 0;
#X connect 42 0 16 0;
#X connect 42 0 50 0;
#X connect 44 0 14 0;
#X connect 45 0 19 0;
#X connect 46 0 44 0;
#X connect 47 0 48 0;
#X connect 49 0 19 0;
#X connect 50 0 0 0;
#X connect 50 0 54 1;
#X connect 51 0 32 0;
#X connect 51 1 12 0;
#X connect 52 0 21 0;
#X connect 53 0 54 0;
#X connect 53 1 55 0;
#X connect 54 0 52 0;
#X connect 55 0 22 0;
