#N canvas 0 0 299 196 10;
#X obj 7 10 inlet;
#X obj 7 53 > \$1;
#X obj 7 75 change;
#X obj 7 97 sel 1;
#X obj 7 119 outlet;
#X obj 7 31 abs;
#X connect 0 0 5 0;
#X connect 1 0 2 0;
#X connect 2 0 3 0;
#X connect 3 0 4 0;
#X connect 5 0 1 0;
