#N canvas 415 117 392 318 10;
#N canvas 0 0 450 300 dw 0;
#X obj 100 85 inlet~;
#X obj 98 189 outlet~;
#X obj 137 124 delwrite~ \$0-x 100;
#X connect 0 0 2 0;
#X restore 113 123 pd dw;
#N canvas 0 0 673 467 dr 0;
#X obj 114 49 inlet~;
#X obj 170 332 outlet~;
#X obj 171 145 samplerate~;
#X msg 171 177 1000 \$1;
#X obj 171 204 /;
#X msg 179 119 bang;
#X obj 171 98 loadbang;
#X floatatom 181 264 5 0 0 0 - - -;
#X obj 171 297 delread~ \$0-x 12;
#X msg 261 178 256;
#X msg 294 178 512;
#X msg 331 177 64;
#X obj 260 200 t b a;
#X msg 364 179 32;
#X obj 171 229 * 256;
#X obj 258 56 r pd;
#X obj 258 83 route dsp;
#X obj 258 108 select 1;
#X connect 2 0 3 0;
#X connect 3 0 4 0;
#X connect 4 0 14 0;
#X connect 5 0 2 0;
#X connect 6 0 2 0;
#X connect 8 0 1 0;
#X connect 9 0 12 0;
#X connect 10 0 12 0;
#X connect 11 0 12 0;
#X connect 12 0 14 0;
#X connect 12 1 14 1;
#X connect 13 0 12 0;
#X connect 14 0 7 0;
#X connect 14 0 8 0;
#X connect 15 0 16 0;
#X connect 16 0 17 0;
#X connect 17 0 2 0;
#X restore 113 150 pd dr;
#X obj 112 98 inlet~;
#X obj 112 175 outlet~;
#N canvas 0 0 450 300 dw 0;
#X obj 100 85 inlet~;
#X obj 98 189 outlet~;
#X obj 137 124 delwrite~ \$0-x-2 100;
#X connect 0 0 2 0;
#X restore 181 120 pd dw;
#N canvas 0 0 673 467 dr 0;
#X obj 114 49 inlet~;
#X obj 170 332 outlet~;
#X obj 171 145 samplerate~;
#X msg 171 177 1000 \$1;
#X obj 171 204 /;
#X msg 179 119 bang;
#X obj 171 98 loadbang;
#X floatatom 181 264 5 0 0 0 - - -;
#X msg 261 178 256;
#X msg 294 178 512;
#X msg 331 177 64;
#X obj 260 200 t b a;
#X msg 364 179 32;
#X obj 171 229 * 256;
#X obj 258 56 r pd;
#X obj 258 83 route dsp;
#X obj 258 108 select 1;
#X obj 171 297 delread~ \$0-x-2 12;
#X connect 2 0 3 0;
#X connect 3 0 4 0;
#X connect 4 0 13 0;
#X connect 5 0 2 0;
#X connect 6 0 2 0;
#X connect 8 0 11 0;
#X connect 9 0 11 0;
#X connect 10 0 11 0;
#X connect 11 0 13 0;
#X connect 11 1 13 1;
#X connect 12 0 11 0;
#X connect 13 0 7 0;
#X connect 13 0 17 0;
#X connect 14 0 15 0;
#X connect 15 0 16 0;
#X connect 16 0 2 0;
#X connect 17 0 1 0;
#X restore 181 147 pd dr;
#X obj 180 95 inlet~;
#X obj 180 172 outlet~;
#X connect 0 0 1 0;
#X connect 1 0 3 0;
#X connect 2 0 0 0;
#X connect 4 0 5 0;
#X connect 5 0 7 0;
#X connect 6 0 4 0;
