#N canvas 621 335 450 300 10;
#X obj 41 101 r \$1;
#X obj 18 12 inlet;
#X obj 18 125 list;
#X obj 18 148 list split;
#X obj 50 172 list split 1;
#X obj 18 34 t b f;
#X obj 50 196 outlet;
#X connect 0 0 2 1;
#X connect 1 0 5 0;
#X connect 2 0 3 0;
#X connect 3 1 4 0;
#X connect 4 0 6 0;
#X connect 5 0 2 0;
#X connect 5 1 3 1;
