#N canvas 0 16 1257 711 10;
#X obj 131 588 r tick;
#X obj 615 42 metro 100;
#X obj 615 66 f;
#X obj 646 66 + 1;
#X obj 615 20 tgl 15 0 empty empty empty 17 7 0 10 -262144 -1 -1 1
1;
#X obj 615 91 s tick;
#X obj 17 659 spigot;
#X obj 17 682 tabwrite \$0-table;
#X obj 131 636 +;
#X obj 174 331 r tick;
#X obj 131 658 mod \$1;
#X obj 17 9 inlet val;
#X obj 158 356 f;
#X obj 158 379 s \$0/offset;
#X obj 372 35 table \$0-table \$1;
#X obj 147 612 r \$0/offset;
#X obj 165 227 tgl 15 0 empty empty record 17 7 0 10 -258699 -1 -1
0 1;
#X obj 195 266 * -1;
#X obj 195 286 + 1;
#X obj 165 246 t f f;
#X obj 158 308 spigot;
#X obj 52 63 r tick;
#X obj 36 95 f;
#X obj 17 34 t f b f b;
#X obj 35 128 ==;
#X obj 35 170 sel 1;
#X obj 35 149 change;
#X connect 0 0 8 0;
#X connect 1 0 2 0;
#X connect 2 0 3 0;
#X connect 2 0 5 0;
#X connect 3 0 2 1;
#X connect 4 0 1 0;
#X connect 6 0 7 0;
#X connect 8 0 10 0;
#X connect 9 0 12 1;
#X connect 10 0 7 1;
#X connect 11 0 23 0;
#X connect 12 0 13 0;
#X connect 15 0 8 1;
#X connect 16 0 19 0;
#X connect 17 0 18 0;
#X connect 18 0 20 1;
#X connect 19 1 17 0;
#X connect 20 0 12 0;
#X connect 21 0 22 1;
#X connect 22 0 24 1;
#X connect 23 0 6 0;
#X connect 23 1 22 0;
#X connect 23 2 24 0;
#X connect 23 3 20 0;
#X connect 24 0 26 0;
#X connect 26 0 25 0;
