#N canvas 666 330 450 324 10;
#X obj 12 299 tabwrite \$1-loop;
#X obj 12 191 random 255;
#X obj 12 213 / 255;
#X obj 34 165 tabread \$1-prob;
#X obj 12 37 t b 0;
#X obj 12 119 f;
#X obj 40 119 + 1;
#X obj 12 235 <;
#X obj 12 140 t b f f;
#X obj 12 98 until;
#X obj 12 76 16;
#X obj 12 15 r \$1-makenoteloop;
#X obj 12 257 sel 1;
#X obj 12 278 random 0;
#X obj 63 238 r num-notes;
#X obj 56 37 r \$1-loop-length;
#X msg 174 160 \; \$1-loop resize \$2 \;;
#X obj 174 139 pack s f;
#X obj 56 57 t f f;
#X obj 174 117 symbol \$1;
#X obj 174 94 t b f;
#X obj 63 258 + 1;
#X connect 1 0 2 0;
#X connect 2 0 7 0;
#X connect 3 0 7 1;
#X connect 4 0 10 0;
#X connect 4 1 5 1;
#X connect 5 0 6 0;
#X connect 5 0 8 0;
#X connect 6 0 5 1;
#X connect 7 0 12 0;
#X connect 8 0 1 0;
#X connect 8 1 3 0;
#X connect 8 2 0 1;
#X connect 9 0 5 0;
#X connect 10 0 9 0;
#X connect 11 0 4 0;
#X connect 12 0 13 0;
#X connect 13 0 0 0;
#X connect 14 0 21 0;
#X connect 15 0 18 0;
#X connect 17 0 16 0;
#X connect 18 0 10 1;
#X connect 18 1 20 0;
#X connect 19 0 17 0;
#X connect 20 0 19 0;
#X connect 20 1 17 1;
#X connect 21 0 13 1;
