#N canvas 5 1 539 535 10;
#X obj 59 46 netreceive 9000 1;
#X floatatom 59 99 5 0 0 0 - - -;
#X obj 350 77 u_loadmeter;
#X obj 350 110 list prepend LOAD;
#X obj 350 158 s NETPRINT;
#X obj 414 138 tgl 15 0 empty empty empty 17 7 0 10 -262144 -1 -1 0
1;
#N canvas 0 0 450 300 netprinter 0;
#X obj 138 55 inlet;
#X obj 138 159 spigot;
#X obj 138 190 netsend 1;
#X msg 219 159 connect 192.168.0.1 9000;
#X obj 219 128 loadbang;
#X obj 138 86 list prepend send;
#X obj 138 108 list trim;
#X obj 189 56 r NETPRINT;
#X obj 138 216 outlet;
#X floatatom 290 51 5 0 0 0 - - -;
#X msg 222 181 disconnect;
#X obj 341 68 inlet;
#X connect 0 0 5 0;
#X connect 1 0 2 0;
#X connect 2 0 1 1;
#X connect 2 0 8 0;
#X connect 3 0 2 0;
#X connect 5 0 6 0;
#X connect 6 0 1 0;
#X connect 7 0 5 0;
#X connect 9 0 5 0;
#X connect 10 0 2 0;
#X connect 11 0 10 0;
#X restore 349 180 pd netprinter;
#X obj 350 44 loadbang;
#X obj 350 136 spigot;
#X floatatom 106 97 5 0 0 0 - - -;
#X floatatom 148 97 5 0 0 0 - - -;
#X obj 187 126 print seed;
#X obj 59 74 route LOAD vol limit seed;
#X obj 228 104 print all;
#N canvas 422 303 450 300 autopan 1;
#X obj 111 67 inlet~;
#X obj 111 159 outlet~;
#X obj 172 140 outlet~;
#X obj 193 47 c_lfo MYLFO2 0.01 100 sine;
#X obj 111 119 e_pan 0.5;
#X obj 193 71 m_scale 0 1 0.3 0.7;
#X connect 0 0 4 0;
#X connect 3 0 5 0;
#X connect 4 0 1 0;
#X connect 4 1 2 0;
#X connect 5 0 4 1;
#X restore 100 243 pd autopan;
#N canvas 0 0 787 537 noisegate 0;
#X obj 208 168 loadbang;
#X obj 105 70 inlet~;
#X obj 106 429 outlet~;
#X obj 106 231 e_dynproc xxxxx;
#X text 234 233 noise gate;
#X msg 208 205 comp2 152 \, comp1 1 \, rel 200 \, att 10 \, thresh
60 \,;
#X obj 105 318 e_dynproc xxxxx;
#X msg 207 282 comp2 1 \, comp1 21 \, makeup 493 \, rel 724 \, att
20 \, thresh 78.9873 \,;
#X text 232 316 compress;
#X connect 0 0 5 0;
#X connect 0 0 7 0;
#X connect 1 0 3 0;
#X connect 1 0 3 1;
#X connect 3 0 6 0;
#X connect 3 0 6 1;
#X connect 5 0 3 2;
#X connect 6 0 2 0;
#X connect 7 0 6 2;
#X restore 244 276 pd noisegate;
#X floatatom 111 188 5 0 0 0 - - -;
#X obj 167 151 f;
#X obj 101 151 max -100;
#X obj 63 321 env~;
#X obj 63 343 - 100;
#X obj 64 367 vu 15 120 empty empty -1 -8 0 10 -66577 -1 1 0;
#X obj 226 321 env~;
#X obj 226 343 - 100;
#X obj 227 365 vu 15 120 empty empty -1 -8 0 10 -66577 -1 1 0;
#X obj 195 180 noise~;
#X obj 194 210 *~ 0.3;
#X connect 0 0 12 0;
#X connect 2 0 3 0;
#X connect 3 0 8 0;
#X connect 5 0 8 1;
#X connect 7 0 2 0;
#X connect 8 0 4 0;
#X connect 9 0 18 0;
#X connect 12 0 1 0;
#X connect 12 1 9 0;
#X connect 12 2 10 0;
#X connect 12 3 11 0;
#X connect 12 4 13 0;
#X connect 14 0 19 0;
#X connect 14 1 22 0;
#X connect 17 0 18 1;
#X connect 18 0 16 0;
#X connect 18 0 17 0;
#X connect 19 0 20 0;
#X connect 20 0 21 0;
#X connect 22 0 23 0;
#X connect 23 0 24 0;
#X connect 25 0 26 0;
#X connect 26 0 14 0;
