#N canvas 153 97 733 610 10;
#X obj 280 533 outlet~;
#X obj 370 284 sig~;
#X obj 189 134 t b f;
#X obj 256 283 * 0.001;
#X obj 256 309 + 0.95;
#X msg 189 225 0;
#X obj 133 249 *~ 0;
#X text 34 55 short burst of noise;
#N canvas 126 55 600 400 delays 0;
#X obj 77 73 inlet~;
#X obj 278 79 inlet;
#X obj 227 180 *~ 0.995;
#X obj 227 206 lop~ 5000;
#X obj 412 128 vd~ \$0-buff;
#X obj 412 79 inlet~;
#X obj 412 311 outlet~;
#X obj 77 256 delwrite~ \$0-buff 256;
#X obj 412 154 clip~ -0.5 0.5;
#X obj 509 16 block~ 16;
#X connect 0 0 7 0;
#X connect 1 0 2 1;
#X connect 2 0 3 0;
#X connect 3 0 7 0;
#X connect 4 0 2 0;
#X connect 4 0 8 0;
#X connect 5 0 4 0;
#X connect 8 0 6 0;
#X restore 227 342 pd delays;
#X obj 282 391 *~ 1;
#X text 247 225 feedback < 50;
#X obj 189 106 inlet;
#X obj 256 238 loadbang;
#X obj 256 260 20;
#X obj 434 98 inlet;
#X obj 370 261 /;
#X msg 370 238 1000;
#X obj 370 215 t b f;
#X obj 281 432 hip~ 5;
#X obj 281 457 clip~ -1 1;
#X obj 132 78 s_pinknoise;
#X obj 189 205 del 15;
#X obj 158 217 3;
#X text 101 216 louder:;
#X connect 1 0 8 2;
#X connect 2 0 21 0;
#X connect 2 0 22 0;
#X connect 2 1 17 0;
#X connect 3 0 4 0;
#X connect 4 0 8 1;
#X connect 5 0 6 1;
#X connect 6 0 8 0;
#X connect 8 0 9 0;
#X connect 9 0 18 0;
#X connect 11 0 2 0;
#X connect 12 0 13 0;
#X connect 13 0 3 0;
#X connect 15 0 1 0;
#X connect 16 0 15 0;
#X connect 17 0 16 0;
#X connect 17 1 15 1;
#X connect 18 0 19 0;
#X connect 19 0 0 0;
#X connect 20 0 6 0;
#X connect 21 0 5 0;
#X connect 22 0 6 1;
