#N canvas 301 76 618 576 10;
#X obj 216 293 spigot;
#X obj 216 203 r tick;
#X obj 216 224 mod 16;
#X obj 382 292 spigot;
#X obj 216 245 t f f;
#X obj 23 10 inlet;
#X obj 23 542 outlet;
#X obj 483 9 table \$0-loop-x 16;
#X obj 483 32 table \$0-loop-y 16;
#X msg 216 394 rec \$1 \$2 \$3;
#X obj 216 371 pack f f f;
#X obj 216 345 \$1;
#X obj 216 315 t b f;
#X obj 382 270 tabread \$0-loop-y;
#X obj 216 270 tabread \$0-loop-x;
#X obj 406 9 inlet;
#X obj 367 224 == 0;
#X obj 23 178 spigot;
#X obj 454 393 spigot;
#X obj 406 33 s \$0/rec;
#X obj 367 203 r \$0/rec;
#X obj 62 154 r \$0/rec;
#X obj 454 329 r tick;
#X obj 454 351 mod 16;
#X obj 454 415 t f f;
#X obj 493 372 r \$0/rec;
#X obj 331 503 tabwrite \$0-loop-x;
#X obj 478 503 tabwrite \$0-loop-x;
#X obj 69 392 f;
#X obj 101 393 f;
#X obj 55 366 t b b;
#X obj 23 248 t a a;
#X obj 55 340 sel \$1;
#X obj 55 314 unpack f f f;
#X connect 0 0 12 0;
#X connect 1 0 2 0;
#X connect 2 0 4 0;
#X connect 3 0 10 2;
#X connect 4 0 14 0;
#X connect 4 1 13 0;
#X connect 5 0 17 0;
#X connect 9 0 6 0;
#X connect 10 0 9 0;
#X connect 11 0 10 0;
#X connect 12 0 11 0;
#X connect 12 1 10 1;
#X connect 13 0 3 0;
#X connect 14 0 0 0;
#X connect 15 0 19 0;
#X connect 16 0 3 1;
#X connect 16 0 0 1;
#X connect 17 0 31 0;
#X connect 18 0 24 0;
#X connect 20 0 16 0;
#X connect 21 0 17 1;
#X connect 22 0 23 0;
#X connect 23 0 18 0;
#X connect 24 0 26 1;
#X connect 24 1 27 1;
#X connect 25 0 18 1;
#X connect 28 0 26 0;
#X connect 29 0 27 0;
#X connect 30 0 28 0;
#X connect 30 1 29 0;
#X connect 31 0 6 0;
#X connect 31 1 33 0;
#X connect 32 0 30 0;
#X connect 33 0 32 0;
#X connect 33 1 28 1;
#X connect 33 2 29 1;
