#N canvas 395 117 487 522 10;
#X obj 14 469 soundfiler;
#X obj 14 232 openpanel;
#X obj 5 27 bng 16 250 50 0 \$0-open \$0-open open 0 -6 0 8 -260818
-1 -1;
#X symbolatom 32 29 16 0 0 2 tablename - #0/tablename;
#X obj 223 177 symbol;
#X obj 14 203 t b b;
#X obj 14 174 r \$0-open;
#X obj 260 153 r \$0/tablename;
#X obj 79 252 r \$0/tablename;
#X msg 223 206 \; pd-arrays obj 10 10 s-array \$1 \;;
#X obj 66 50 nbx 10 14 -1e+37 1e+37 0 0 empty \$0/size size -30 4 0
8 -262144 -1 -1 604413 256;
#X obj 14 491 s \$0/size;
#X msg 14 424 read -resize \$1 \$2;
#X obj 5 48 tgl 16 0 \$0/stereo empty stereo 18 14 0 8 -260818 -1 -1
1 1;
#X obj 14 330 pack f s s;
#X obj 14 252 t b a;
#X obj 14 352 route 0 1;
#X text 223 133 ?;
#X obj 14 302 0;
#X obj 162 424 print;
#X obj 48 374 list;
#X obj 14 374 list;
#X obj 30 279 r \$0/stereo;
#X msg 43 447 read -resize \$1 \$2 \$2-2;
#X connect 0 0 11 0;
#X connect 1 0 15 0;
#X connect 4 0 9 0;
#X connect 5 0 1 0;
#X connect 6 0 5 0;
#X connect 7 0 4 1;
#X connect 8 0 14 2;
#X connect 12 0 0 0;
#X connect 14 0 16 0;
#X connect 15 0 18 0;
#X connect 15 1 14 1;
#X connect 16 0 21 0;
#X connect 16 1 20 0;
#X connect 18 0 14 0;
#X connect 20 0 23 0;
#X connect 21 0 12 0;
#X connect 22 0 18 1;
#X connect 23 0 0 0;
#X coords 0 0 1 1 150 70 1 0 0;
