#N canvas 749 84 450 300 10;
#N canvas 0 0 450 300 (subpatch) 0;
#X array \$1-loop 16 float 3;
#A 0 1 0 1 0 0 0 0 0 0 0 0 0 0 0 0 0;
#X coords 0 1 15 -1 50 25 1;
#X restore 68 68 graph;
#X obj 11 120 sel 1;
#X obj 11 141 symbol \$1;
#X msg 11 162 \; \$1-shot bang \;;
#X obj 11 10 inlet;
#X obj 11 98 tabread \$1-loop;
#X obj 11 52 mod 16;
#X obj 46 32 r loop-length;
#X connect 1 0 2 0;
#X connect 2 0 3 0;
#X connect 4 0 6 0;
#X connect 5 0 1 0;
#X connect 6 0 5 0;
#X connect 7 0 6 1;
