#N canvas 768 72 450 300 10;
#N canvas 788 36 450 300 \$0-container 1;
#X obj 10 10 synth-type-1 1;
#X restore 330 12 pd \$0-container;
#X obj 12 33 r shake;
#X text 13 8 Change the synth type;
#X obj 12 68 random 1;
#X obj 12 88 + 1;
#X obj 42 131 \$1;
#X obj 12 212 s pd-\$0-container;
#X obj 12 154 pack f f;
#X msg 12 175 clear \, obj 10 10 synth-type-\$1 \$2 \, loadbang;
#X obj 12 110 t f f;
#X connect 1 0 3 0;
#X connect 3 0 4 0;
#X connect 4 0 9 0;
#X connect 5 0 7 1;
#X connect 7 0 8 0;
#X connect 8 0 6 0;
#X connect 9 0 7 0;
#X connect 9 1 5 0;
