#N canvas 517 12 552 704 10;
#X text 425 7 square wave acid;
#X obj 49 174 r numnotes;
#X obj 9 263 mod 3;
#X obj 50 197 / 3;
#X obj 50 263 * 12;
#X obj 9 174 t f f;
#X obj 9 110 / 20;
#X obj 9 131 int;
#X obj 9 152 change;
#X text 38 324 <- note to use;
#X obj 9 286 tabread notes;
#X obj 10 621 vcf~ 4;
#X msg 102 553 1 3 \, 0 \$1 3;
#X text 157 507 note length;
#X obj 281 507 vline~;
#X msg 281 484 1 3 \, 0 \$1 3;
#X obj 281 462 f;
#X obj 102 577 vline~;
#X obj 282 552 +~;
#X obj 282 529 *~;
#X text 444 462 freq dive;
#X obj 382 484 random 127;
#X obj 382 506 mtof~;
#X text 290 370 cutoff dive length;
#X obj 102 416 t b b;
#X obj 9 315 +;
#X obj 118 506 + 50;
#X obj 9 650 *~;
#X obj 50 218 int;
#X obj 50 239 + 3;
#X obj 102 530 f;
#X obj 118 482 random 500;
#X obj 297 419 random 500;
#X obj 297 439 + 30;
#X obj 9 674 throw~ all;
#X obj 9 554 mtof;
#X text 58 71 x y;
#X obj 9 20 r note-value-routed;
#X obj 118 459 r shake;
#X obj 297 396 r shake;
#X obj 382 463 r shake;
#X obj 9 42 route \$2;
#X obj 20 461 print \$1-note;
#X obj 194 626 print \$1-vline;
#X msg 43 545 0.5;
#X obj 43 522 loadbang;
#X obj 9 89 unpack f f f;
#X obj 246 151 tgl 15 0 empty empty empty 17 7 0 10 -262144 -1 -1 0
1;
#X floatatom 202 151 5 0 0 0 - - -;
#X floatatom 161 151 5 0 0 0 - - -;
#X obj 74 110 mtof;
#X obj 93 388 select 1;
#X obj 57 416 bng 15 250 50 0 empty empty empty 17 7 0 10 -262144 -1
-1;
#X obj 9 579 \$1;
#N canvas 0 0 531 452 seed-it 0;
#X obj 62 76 r SEED-\$1;
#X obj 62 128 random 200000;
#X obj 62 97 t b a;
#X obj 62 203 + 12712;
#X obj 132 204 + 1.28731e+10;
#X obj 249 205 + 1.72352e+09;
#X obj 62 289 outlet;
#X obj 132 289 outlet;
#X obj 249 288 outlet;
#X msg 62 235 seed \$1;
#X msg 132 236 seed \$1;
#X msg 249 235 seed \$1;
#X connect 0 0 2 0;
#X connect 1 0 3 0;
#X connect 1 0 4 0;
#X connect 1 0 5 0;
#X connect 2 0 1 0;
#X connect 2 1 1 0;
#X connect 3 0 9 0;
#X connect 4 0 10 0;
#X connect 5 0 11 0;
#X connect 9 0 6 0;
#X connect 10 0 7 0;
#X connect 11 0 8 0;
#X restore 168 389 pd seed-it;
#X obj 198 94 switch~;
#X obj 9 61 t a b;
#X msg 198 65 1;
#X obj 241 47 delay 1000;
#X msg 241 67 0;
#X obj 198 25 t b b;
#X connect 1 0 2 1;
#X connect 1 0 3 1;
#X connect 2 0 10 0;
#X connect 3 0 28 0;
#X connect 4 0 25 1;
#X connect 5 0 2 0;
#X connect 5 1 3 0;
#X connect 6 0 7 0;
#X connect 7 0 8 0;
#X connect 8 0 5 0;
#X connect 10 0 25 0;
#X connect 11 0 27 0;
#X connect 12 0 17 0;
#X connect 14 0 19 0;
#X connect 15 0 14 0;
#X connect 16 0 15 0;
#X connect 17 0 27 1;
#X connect 18 0 11 1;
#X connect 19 0 18 0;
#X connect 21 0 22 0;
#X connect 22 0 19 1;
#X connect 24 0 30 0;
#X connect 24 1 16 0;
#X connect 25 0 35 0;
#X connect 25 0 42 0;
#X connect 26 0 30 1;
#X connect 27 0 34 0;
#X connect 28 0 29 0;
#X connect 29 0 4 0;
#X connect 30 0 12 0;
#X connect 31 0 26 0;
#X connect 32 0 33 0;
#X connect 33 0 16 1;
#X connect 35 0 53 0;
#X connect 37 0 41 0;
#X connect 38 0 31 0;
#X connect 39 0 32 0;
#X connect 40 0 21 0;
#X connect 41 0 56 0;
#X connect 45 0 44 0;
#X connect 46 0 6 0;
#X connect 46 0 49 0;
#X connect 46 1 48 0;
#X connect 46 1 50 0;
#X connect 46 2 47 0;
#X connect 46 2 51 0;
#X connect 50 0 18 1;
#X connect 51 0 24 0;
#X connect 51 0 52 0;
#X connect 53 0 11 0;
#X connect 54 0 31 0;
#X connect 54 1 21 0;
#X connect 54 2 32 0;
#X connect 56 0 46 0;
#X connect 56 1 60 0;
#X connect 57 0 55 0;
#X connect 58 0 59 0;
#X connect 59 0 55 0;
#X connect 60 0 57 0;
#X connect 60 1 58 0;
