#N canvas 283 190 803 579 10;
#X obj 422 434 loadbang;
#X msg 422 456 bang;
#X obj 422 478 pack \$0 \$1 \$2;
#X obj 657 9 namecanvas pd-\$0-self;
#X obj 69 311 list split 1;
#X obj 1 1 cnv 10 10 10 empty \$0-display _f_32_hello 20 12 0 14 -233017
-66577 0;
#X obj 10 532 s \$0-display;
#X msg 10 507 label \$1;
#X msg 422 501 \; pd-\$1-self donecanvasdialog 1 1 2 0 0 1 1 \$2 \$3
0 0 1 1 1 \; pd-\$1-self dirty 0 \;;
#X obj 27 311 list;
#X obj 27 291 until;
#X obj 69 333 list trim;
#X obj 10 479 symbol;
#X obj 149 384 symbol;
#X msg 169 292 symbol;
#X obj 69 353 t a b;
#X obj 10 244 t b b a b;
#X obj 69 288 list;
#X text 258 300 <- join list on "_";
#X obj 10 56 r \$3;
#X msg 69 447 symbol \$1_\$2;
#X text 420 410 resize the canvas to what they ask for;
#X msg 26 77 x;
#X obj 69 422 list prepend;
#X connect 0 0 1 0;
#X connect 1 0 2 0;
#X connect 2 0 8 0;
#X connect 4 0 11 0;
#X connect 4 1 9 1;
#X connect 4 2 10 1;
#X connect 7 0 6 0;
#X connect 9 0 4 0;
#X connect 10 0 9 0;
#X connect 11 0 15 0;
#X connect 12 0 7 0;
#X connect 13 0 23 1;
#X connect 14 0 13 0;
#X connect 15 0 23 0;
#X connect 15 1 13 0;
#X connect 16 0 12 0;
#X connect 16 1 10 0;
#X connect 16 2 17 0;
#X connect 16 3 14 0;
#X connect 17 0 4 0;
#X connect 19 0 16 0;
#X connect 20 0 13 1;
#X connect 20 0 12 1;
#X connect 22 0 16 0;
#X connect 23 0 20 0;
#X coords 0 0 1 1 150 50 2 0 0;
