#N canvas 600 106 594 249 10;
#X obj 2 2 nbx 3 14 1 99 0 0 \$4 \$3 empty 0 -8 0 10 -262144 -1 -1
60 256;
#X obj 223 108 loadbang;
#X msg 223 130 bang;
#X obj 223 152 pack \$0 \$1 \$2;
#X msg 223 175 \; pd-\$1-self donecanvasdialog 1 1 2 0 0 1 1 \$2 \$3
0 0 1 1 1 \; pd-\$1-self dirty 0 \;;
#X text 220 81 resize the canvas to what they ask for;
#X obj 238 26 namecanvas pd-\$0-self;
#X obj 15 57 loadbang;
#X obj 15 189 s \$3;
#X msg 15 79 bang;
#X text 25 38 set range;
#X obj 15 101 t b b;
#X obj 60 123 \$6;
#X obj 15 123 \$5;
#X obj 15 145 pack f f;
#X msg 15 167 range \$1 \$2;
#X text 87 -5 args: width height receive send min max initial;
#X text 110 40 initial value;
#X obj 114 57 loadbang;
#X msg 114 78 bang;
#X obj 114 99 \$7;
#X msg 114 120 set \$1;
#X obj 114 141 s \$3;
#X connect 1 0 2 0;
#X connect 2 0 3 0;
#X connect 3 0 4 0;
#X connect 7 0 9 0;
#X connect 9 0 11 0;
#X connect 11 0 13 0;
#X connect 11 1 12 0;
#X connect 12 0 14 1;
#X connect 13 0 14 0;
#X connect 14 0 15 0;
#X connect 15 0 8 0;
#X connect 18 0 19 0;
#X connect 19 0 20 0;
#X connect 20 0 21 0;
#X connect 21 0 22 0;
#X coords 0 0 1 1 32 24 2 0 0;
