#N canvas 1810 365 997 511 10;
#X declare -lib iemgui;
#X obj 309 182 namecanvas \$0-can;
#X obj 309 161 s \$0-can;
#X obj 370 73 pack \$1 \$2;
#X obj 301 -9 bng 15 250 50 0 empty empty empty 17 7 0 10 -262144 -1
-1;
#X msg 409 10 0 0 1 0 0 1 200 0 1 50 0 0;
#X msg 379 117 donecanvasdialog 8 9 1 1 2 3 4 5 6 0 7 8;
#X obj 383 -11 loadbang;
#X msg 370 95 donecanvasdialog 0 0 3 0 0 1 1 \$1 \$2 0 0;
#X obj 176 357 cursor;
#X msg 176 308 1;
#X obj 176 378 route button;
#X obj 176 400 route 1;
#X obj 176 419 sel 0;
#X msg 149 417 0;
#X obj 176 467 s \$3;
#X msg 176 443 -1 -1;
#X obj 88 217 route dragg_x_y mouse_shft_alt;
#X obj 176 279 route 1;
#X obj 88 270 unpack f f;
#X obj 88 293 / \$1;
#X obj 145 293 / \$2;
#X obj 88 373 pack f f;
#X obj 48 415 clip 0 1;
#X floatatom 31 361 5 0 0 0 - - -;
#X floatatom 116 346 5 0 0 0 - - -;
#X msg 223 -20 size \$1 \$2;
#X obj 342 25 del 100;
#X msg 145 313 1 \$1;
#X obj 145 332 -;
#X msg 309 117 dirty 0;
#X obj 343 44 t b b;
#X msg 423 41 receive _null_rcv \, send _null_snd;
#X obj 176 330 change;
#X obj 462 210 import iemgui;
#X obj 0 0 iem_event 200 100 0 0 _null_snd _null_rcv;
#X obj 344 -15 bng 15 250 50 0 empty empty empty 17 7 0 10 -262144
-1 -1;
#X obj 150 133 l iem_event;
#X connect 2 0 7 0;
#X connect 2 0 25 0;
#X connect 3 0 2 0;
#X connect 5 0 1 0;
#X connect 6 0 26 0;
#X connect 7 0 1 0;
#X connect 8 0 10 0;
#X connect 9 0 32 0;
#X connect 10 0 11 0;
#X connect 11 0 12 0;
#X connect 12 0 13 0;
#X connect 12 0 15 0;
#X connect 13 0 32 0;
#X connect 15 0 14 0;
#X connect 16 0 18 0;
#X connect 16 0 9 0;
#X connect 16 1 17 0;
#X connect 17 0 9 0;
#X connect 18 0 19 0;
#X connect 18 0 23 0;
#X connect 18 1 20 0;
#X connect 18 1 24 0;
#X connect 19 0 21 0;
#X connect 20 0 27 0;
#X connect 21 0 14 0;
#X connect 25 0 34 0;
#X connect 26 0 30 0;
#X connect 27 0 28 0;
#X connect 28 0 21 1;
#X connect 29 0 1 0;
#X connect 30 0 29 0;
#X connect 30 1 2 0;
#X connect 30 1 31 0;
#X connect 31 0 34 0;
#X connect 32 0 8 0;
#X connect 34 0 16 0;
#X connect 35 0 26 0;
#X coords 0 0 1 1 200 100 2 0 0;
