#N struct 1005template-marker float a float b;
#N canvas 197 79 997 472 10;
#N canvas 873 274 450 300 \$0template-marker 0;
#X obj 8 74 outlet;
#X obj 8 52 struct \$0template-marker float a float b;
#X obj 8 -23 filledpolygon 0 0 1 a(0:100)(0:100) b(0:100)(0:100) a(0:100)(10:110)
b(0:100)(0:100) a(0:100)(10:110) b(0:100)(10:110) a(0:100)(0:100) b(0:100)(10:110)
;
#X connect 1 0 0 0;
#X restore 354 16 pd \$0template-marker;
#N canvas 0 50 613 616 \$0data-marker 0;
#X scalar 1005template-marker 0 0 \;;
#X coords 0 0 110 110 100 100 2 0 0;
#X restore 0 0 pd \$0data-marker;
#X text 352 -1 args: width height sender;
#X obj 354 79 get \$0template-marker a b;
#X obj 354 190 pack f f;
#X obj 354 211 s \$3;
#X obj 789 283 \$0;
#X obj 789 327 t s s;
#X msg 819 351 \; \$1 clear \;;
#X obj 789 306 makefilename pd-%ddata-marker;
#X obj 789 411 pointer;
#X msg 789 388 traverse \$1 \, bang;
#X msg 730 235 bang;
#X obj 624 435 append \$0template-marker a b;
#X obj 730 208 loadbang;
#X msg 798 262 bang;
#X msg 234 319 bang;
#X obj 730 262 t b b b b;
#X obj 234 339 pack \$0 \$1 \$2;
#X obj 827 13 namecanvas pd-\$0-self;
#X msg 234 362 \; pd-\$1data-marker donecanvasdialog 1 1 2 0 0 110
110 \$2 \$3 0 0 1 1 1 \; pd-\$1data-marker dirty 0 \; pd-\$1-self donecanvasdialog
1 1 2 0 0 1 1 \$2 \$3 0 0 1 1 1 \; pd-\$1-self dirty 0 \;;
#X obj 354 100 / 100;
#X obj 501 80 / 100;
#X obj 519 9 loadbang;
#X obj 519 51 t f f;
#X msg 706 393 0;
#X msg 624 393 0;
#X obj 354 37 route change click;
#X obj 354 59 t a b;
#X obj 406 59 t b;
#X msg 436 159 -1 -1;
#X msg 519 30 -100;
#X obj 436 138 delay 300;
#X connect 0 0 27 0;
#X connect 3 0 21 0;
#X connect 3 1 22 0;
#X connect 4 0 5 0;
#X connect 6 0 9 0;
#X connect 7 0 11 0;
#X connect 7 1 8 0;
#X connect 9 0 7 0;
#X connect 10 0 13 2;
#X connect 11 0 10 0;
#X connect 12 0 17 0;
#X connect 14 0 12 0;
#X connect 15 0 6 0;
#X connect 16 0 18 0;
#X connect 17 0 16 0;
#X connect 17 1 26 0;
#X connect 17 2 25 0;
#X connect 17 3 6 0;
#X connect 18 0 20 0;
#X connect 21 0 4 0;
#X connect 22 0 4 1;
#X connect 23 0 31 0;
#X connect 24 0 21 0;
#X connect 24 1 22 0;
#X connect 25 0 13 1;
#X connect 26 0 13 0;
#X connect 27 0 28 0;
#X connect 27 1 29 0;
#X connect 27 2 29 0;
#X connect 28 0 3 0;
#X connect 28 1 32 0;
#X connect 29 0 32 0;
#X connect 30 0 4 0;
#X connect 31 0 24 0;
#X connect 32 0 30 0;
#X coords 0 0 1 1 100 100 2 0 0;
