#N canvas 633 216 422 273 10;
#X obj 131 115 route button axis pause;
#X obj 29 175 unpack s f;
#X obj 176 176 unpack s f;
#X obj 131 54 route \$1;
#X obj 330 175 s \$1-pause;
#X obj 233 207 s \$1-a-value;
#X obj 176 235 s \$1-a-name;
#X obj 86 206 s \$1-b-value;
#X obj 29 235 s \$1-b-name;
#X obj 131 24 inlet;
#X obj 176 84 outlet;
#X connect 0 0 1 0;
#X connect 0 1 2 0;
#X connect 0 2 4 0;
#X connect 1 0 8 0;
#X connect 1 1 7 0;
#X connect 2 0 6 0;
#X connect 2 1 5 0;
#X connect 3 0 0 0;
#X connect 3 1 10 0;
#X connect 9 0 3 0;
