#N canvas 479 336 430 372 10;
#X obj 75 44 soundinput;
#X obj 74 149 snapshot~;
#X obj 197 74 random 1000;
#X obj 197 47 loadbang;
#X obj 197 103 delay;
#X obj 74 286 outlet;
#X obj 74 184 + 2;
#X obj 74 207 * 0.5;
#X obj 74 232 * 1e+10;
#X msg 74 257 seed \$1;
#X obj 30 43 inlet;
#X obj 30 66 b;
#X connect 0 0 1 0;
#X connect 1 0 6 0;
#X connect 2 0 4 0;
#X connect 3 0 2 0;
#X connect 4 0 1 0;
#X connect 6 0 7 0;
#X connect 7 0 8 0;
#X connect 8 0 9 0;
#X connect 9 0 5 0;
#X connect 10 0 11 0;
#X connect 11 0 1 0;
