#N canvas 0 0 836 536 10;
#X obj 682 201 loadbang;
#X msg 682 227 move 160 160 \, visible 0;
#X obj 680 285 loadbang;
#X obj 679 372 loadbang;
#X msg 679 398 move 160 160 \, visible 0;
#X msg 593 402 visible \$1;
#X msg 594 339 visible \$1;
#X msg 599 255 visible \$1;
#X obj 508 220 unpack 0 0 0;
#N canvas 0 0 450 300 modcount 0;
#X obj 99 58 inlet;
#X obj 99 107 f 0;
#X obj 131 109 + 1;
#X obj 190 56 inlet;
#X msg 190 77 0;
#X obj 99 157 outlet;
#X obj 144 57 inlet;
#X obj 99 131 mod 5;
#X connect 0 0 1 0;
#X connect 1 0 7 0;
#X connect 2 0 1 1;
#X connect 3 0 4 0;
#X connect 4 0 1 1;
#X connect 6 0 7 1;
#X connect 7 0 2 0;
#X connect 7 0 5 0;
#X restore 509 101 pd modcount;
#X obj 509 126 select 0 1 2 3 4;
#X msg 509 191 0 1 0;
#X msg 555 190 1 0 0;
#X msg 602 189 0 0 1;
#X obj 680 337 rj_image tail1.png;
#X obj 682 253 rj_image tail0.png;
#X obj 679 424 rj_image tail2.png;
#X obj 509 75 spigot;
#X obj 509 47 b;
#X obj 509 26 r TICK;
#X msg 567 53 1;
#X msg 600 53 0;
#X obj 564 20 r \$0-wiggle;
#X msg 680 311 move 160 160 \, visible 1;
#X connect 0 0 1 0;
#X connect 1 0 15 0;
#X connect 2 0 23 0;
#X connect 3 0 4 0;
#X connect 4 0 16 0;
#X connect 5 0 16 0;
#X connect 6 0 14 0;
#X connect 7 0 15 0;
#X connect 8 0 5 0;
#X connect 8 1 6 0;
#X connect 8 2 7 0;
#X connect 10 0 11 0;
#X connect 10 1 12 0;
#X connect 10 2 11 0;
#X connect 10 3 13 0;
#X connect 10 4 11 0;
#X connect 11 0 8 0;
#X connect 12 0 8 0;
#X connect 13 0 8 0;
#X connect 17 0 9 0;
#X connect 18 0 17 0;
#X connect 19 0 18 0;
#X connect 20 0 17 1;
#X connect 21 0 17 1;
#X connect 22 0 17 1;
#X connect 23 0 14 0;
