#N canvas 33 22 1264 917 10;
#X declare -path .;
#X obj 989 227 s ball1y-acc;
#N canvas 10 59 600 400 pythagoras 0;
#X obj 53 50 t b b;
#X obj 141 96 v ball1y-delta;
#X obj 50 96 v ball1x-delta;
#X obj 53 30 inlet;
#X obj 114 325 outlet;
#X obj 149 131 * 1;
#X obj 77 124 * 1;
#X obj 110 182 + 1;
#X obj 115 267 sqrt;
#X connect 0 0 2 0;
#X connect 0 1 1 0;
#X connect 1 0 5 0;
#X connect 1 0 5 1;
#X connect 2 0 6 0;
#X connect 2 0 6 1;
#X connect 3 0 0 0;
#X connect 5 0 7 1;
#X connect 6 0 7 0;
#X connect 7 0 8 0;
#X connect 8 0 4 0;
#X restore 626 388 pd pythagoras;
#X obj 902 226 s ball1x-acc;
#X obj 399 327 t b b b;
#X floatatom 442 235 0 0 0 0 - - -;
#X obj 401 242 tgl 15 0 empty empty empty 17 7 0 10 -262144 -1 -1 1
1;
#X obj 310 183 loadbang;
#X obj 330 642 pack 0 0;
#X obj 65 183 soundinput;
#X obj 375 701 loadbang;
#X obj 320 759 rj_image ball10.png;
#X msg 351 731 visible 1;
#X msg 334 670 move \$1 \$2;
#N canvas 10 59 600 400 pythagoras 0;
#X obj 53 50 t b b;
#X obj 53 30 inlet;
#X obj 114 325 outlet;
#X obj 149 131 * 1;
#X obj 77 124 * 1;
#X obj 110 182 + 1;
#X obj 115 267 sqrt;
#X obj 50 96 v ball2x-delta;
#X obj 141 96 v ball2y-delta;
#X connect 0 0 7 0;
#X connect 0 1 8 0;
#X connect 1 0 0 0;
#X connect 3 0 5 1;
#X connect 4 0 5 0;
#X connect 5 0 6 0;
#X connect 6 0 2 0;
#X connect 7 0 4 0;
#X connect 7 0 4 1;
#X connect 8 0 3 0;
#X connect 8 0 3 1;
#X restore 1144 549 pd pythagoras;
#X obj 982 353 t b b b;
#X obj 924 654 pack 0 0;
#X msg 935 729 move \$1 \$2;
#X obj 1084 227 s ball2x-acc;
#X obj 1219 223 s ball2y-acc;
#X obj 401 263 metro 15;
#X obj 899 854 rj_image ball13.png;
#X obj 323 437 bounce320 ball1 ball1x 10;
#X obj 1229 71 abs;
#X obj 1228 100 s z-abs;
#N canvas 0 22 591 661 collisionblink 0;
#X obj 171 211 v ball1x-pos;
#X obj 255 212 v ball1y-pos;
#X obj 221 376 loadbang;
#X obj 98 491 rj_image bounce10.png;
#X obj 177 269 pack f f;
#X obj 219 88 sel 1;
#X obj 220 59 change;
#X obj 221 125 t b b b b;
#X obj 229 17 inlet;
#X msg 177 302 move \$1 \$2 \, visible 1;
#X msg 229 410 move -53 -53 \, visible 0;
#X msg 29 358 visible 0;
#X obj 43 310 del 30;
#X obj 368 26 inlet;
#X obj 75 88 r ball1-blink;
#X connect 0 0 4 0;
#X connect 1 0 4 1;
#X connect 2 0 10 0;
#X connect 4 0 9 0;
#X connect 5 0 7 0;
#X connect 6 0 5 0;
#X connect 7 0 12 0;
#X connect 7 1 0 0;
#X connect 7 2 1 0;
#X connect 8 0 6 0;
#X connect 9 0 3 0;
#X connect 10 0 3 0;
#X connect 11 0 3 0;
#X connect 12 0 11 0;
#X connect 13 0 7 0;
#X connect 14 0 7 0;
#X restore 644 547 pd collisionblink 1;
#N canvas 0 22 591 661 collisionblink 0;
#X obj 221 376 loadbang;
#X obj 177 269 pack f f;
#X obj 219 88 sel 1;
#X obj 220 59 change;
#X obj 221 125 t b b b b;
#X obj 223 17 inlet;
#X msg 177 302 move \$1 \$2 \, visible 1;
#X msg 229 410 move -53 -53 \, visible 0;
#X msg 29 358 visible 0;
#X obj 90 515 rj_image bounce13.png;
#X obj 171 211 v ball2x-pos;
#X obj 280 211 v ball2y-pos;
#X obj 43 310 del 30;
#X obj 393 13 inlet;
#X obj 76 82 r ball2-blink;
#X connect 0 0 7 0;
#X connect 1 0 6 0;
#X connect 2 0 4 0;
#X connect 3 0 2 0;
#X connect 4 0 12 0;
#X connect 4 1 10 0;
#X connect 4 2 11 0;
#X connect 5 0 3 0;
#X connect 6 0 9 0;
#X connect 7 0 9 0;
#X connect 8 0 9 0;
#X connect 10 0 1 0;
#X connect 11 0 1 1;
#X connect 12 0 8 0;
#X connect 13 0 4 0;
#X connect 14 0 4 0;
#X restore 715 578 pd collisionblink 2;
#N canvas 0 22 1264 928 supercollider 0;
#X text 529 -158 collision detection;
#X text 181 -43 balls are touching!;
#X text 237 -106 if distance center to center is smaller then r1 +
r2 -> collision;
#X text 69 57 normalized vector center to center;
#X obj -3 -237 v ball1x-pos;
#X obj -4 -288 t b b b b;
#X obj 81 -236 v ball1y-pos;
#X obj 210 -238 v ball2x-pos;
#X obj 294 -237 v ball2y-pos;
#X obj 4 -197 -;
#X obj 50 -186 -;
#X text 78 -184 center - center;
#X obj 81 -129 pythagoras;
#X obj 136 -66 <= 23;
#X obj 136 -43 sel 1;
#X obj 137 -16 t b b b;
#X obj 31 106 /;
#X obj -12 126 /;
#X obj 80 -102 t f f f;
#X text 164 -87 R1 + R2!;
#X obj 47 -164 t f f;
#X obj 2 -172 t f f;
#X obj -36 26 f;
#X obj 1 29 f;
#X obj 354 358 tgl 15 0 empty empty empty 17 7 0 10 -262144 -1 -1 0
1;
#X text 266 492 collision reaction;
#X obj -3 -321 inlet;
#X obj 310 425 s ball2-blink;
#X obj 282 395 t b b;
#X obj 282 448 s ball1-blink;
#N canvas 0 22 1226 919 reaction1 0;
#X text 568 351 normal vector to normalized;
#X text 183 746 add back to unchanged perpendicular vector;
#X obj 530 352 swap;
#X obj 546 285 t b f;
#X msg 546 308 0;
#X obj 550 330 -;
#X obj 390 342 v ball1y-delta;
#X obj 291 342 v ball1x-delta;
#X obj 455 446 skalarprodukt;
#X text 594 443 split velocity (delta) into parallel (c-c) and perpendicular
(normal) to center-center axis;
#X obj 228 300 t b b b b b;
#X obj 215 416 skalarprodukt;
#X obj 291 363 t f f;
#X obj 391 362 t f f;
#X obj 185 245 t f f f;
#X obj 130 251 t f f f;
#X obj 159 483 *;
#X text 347 446 remains unchanged;
#X obj 188 484 *;
#X obj 121 449 t f f;
#X obj 504 523 *;
#X obj 540 523 *;
#X obj 485 495 t f f;
#X obj 532 392 t f f;
#X obj 591 399 t f f;
#X obj 151 745 +;
#X obj 101 742 +;
#X text 306 418 actual collision;
#X obj 204 854 v ball1y-delta;
#X obj 111 854 v ball1x-delta;
#X obj 194 84 inlet;
#X obj 245 84 inlet;
#X obj 130 82 inlet;
#X text 577 525 check for 0?;
#X text 610 109 collision reaction;
#X obj 200 879 t b f;
#X msg 200 902 0;
#X obj 204 924 -;
#X obj 143 883 t b f;
#X msg 143 906 0;
#X obj 147 928 -;
#X text 247 893 reverse direction;
#X obj 130 782 outlet;
#X obj 61 784 outlet;
#X text 1348 431 normal vector to normalized;
#X text 979 784 add back to unchanged perpendicular vector;
#X obj 1310 432 swap;
#X obj 1326 365 t b f;
#X msg 1326 388 0;
#X obj 1330 410 -;
#X obj 1235 526 skalarprodukt;
#X text 1408 512 split velocity (delta) into parallel (c-c) and perpendicular
(normal) to center-center axis;
#X obj 1044 399 t b b b b b;
#X obj 985 506 skalarprodukt;
#X obj 1107 462 t f f;
#X obj 1207 461 t f f;
#X obj 955 335 t f f f;
#X obj 900 341 t f f f;
#X obj 799 557 *;
#X text 1130 556 remains unchanged;
#X obj 827 559 *;
#X obj 899 520 t f f;
#X obj 1284 603 *;
#X obj 1320 603 *;
#X obj 1265 575 t f f;
#X obj 1312 472 t f f;
#X obj 1371 479 t f f;
#X obj 947 783 +;
#X obj 897 780 +;
#X text 1076 508 actual collision;
#X obj 964 174 inlet;
#X obj 1015 174 inlet;
#X text 1380 199 collision reaction;
#X obj 1107 441 v ball2x-delta;
#X obj 1206 441 v ball2y-delta;
#X obj 832 882 v ball2x-delta;
#X obj 925 882 v ball2y-delta;
#X text 965 217 insert f's!;
#X obj 358 217 t b b;
#X obj 475 605 pack 0 0 0 0;
#X obj 475 631 unpack 0 0 0 0;
#X text 586 618 reversed!;
#X obj 198 809 * 1.2;
#X obj 105 814 * 1.2;
#X obj 853 852 * 1.2;
#X obj 936 843 * 1.2;
#X obj 278 777 r ball1-bouncieness;
#X obj 979 811 r ball2-bouncieness;
#X connect 2 0 23 0;
#X connect 2 1 24 0;
#X connect 3 0 4 0;
#X connect 3 1 5 1;
#X connect 4 0 5 0;
#X connect 5 0 2 1;
#X connect 6 0 13 0;
#X connect 7 0 12 0;
#X connect 8 0 22 0;
#X connect 10 3 7 0;
#X connect 10 4 6 0;
#X connect 11 0 19 0;
#X connect 12 0 11 0;
#X connect 12 1 8 0;
#X connect 13 0 11 1;
#X connect 13 1 8 1;
#X connect 14 0 11 3;
#X connect 14 1 18 1;
#X connect 14 2 3 0;
#X connect 15 0 11 2;
#X connect 15 1 16 1;
#X connect 15 2 2 0;
#X connect 16 0 79 0;
#X connect 18 0 79 1;
#X connect 19 0 16 0;
#X connect 19 1 18 0;
#X connect 20 0 26 1;
#X connect 21 0 25 1;
#X connect 22 0 20 0;
#X connect 22 1 21 0;
#X connect 23 0 8 2;
#X connect 23 1 20 1;
#X connect 24 0 8 3;
#X connect 24 1 21 1;
#X connect 25 0 42 0;
#X connect 25 0 82 0;
#X connect 26 0 43 0;
#X connect 26 0 83 0;
#X connect 30 0 15 0;
#X connect 31 0 14 0;
#X connect 32 0 78 0;
#X connect 35 0 36 0;
#X connect 35 1 37 1;
#X connect 36 0 37 0;
#X connect 38 0 39 0;
#X connect 38 1 40 1;
#X connect 39 0 40 0;
#X connect 46 0 65 0;
#X connect 46 1 66 0;
#X connect 47 0 48 0;
#X connect 47 1 49 1;
#X connect 48 0 49 0;
#X connect 49 0 46 1;
#X connect 50 0 64 0;
#X connect 52 3 73 0;
#X connect 52 4 74 0;
#X connect 53 0 61 0;
#X connect 54 0 53 0;
#X connect 54 1 50 0;
#X connect 55 0 53 1;
#X connect 55 1 50 1;
#X connect 56 0 53 3;
#X connect 56 1 60 1;
#X connect 56 2 47 0;
#X connect 57 0 53 2;
#X connect 57 1 58 1;
#X connect 57 2 46 0;
#X connect 58 0 79 2;
#X connect 60 0 79 3;
#X connect 61 0 58 0;
#X connect 61 1 60 0;
#X connect 62 0 68 1;
#X connect 63 0 67 1;
#X connect 64 0 62 0;
#X connect 64 1 63 0;
#X connect 65 0 50 2;
#X connect 65 1 62 1;
#X connect 66 0 50 3;
#X connect 66 1 63 1;
#X connect 67 0 85 0;
#X connect 68 0 84 0;
#X connect 70 0 57 0;
#X connect 71 0 56 0;
#X connect 73 0 54 0;
#X connect 74 0 55 0;
#X connect 78 0 10 0;
#X connect 78 1 52 0;
#X connect 79 0 80 0;
#X connect 80 0 68 0;
#X connect 80 1 67 0;
#X connect 80 2 26 0;
#X connect 80 3 25 0;
#X connect 82 0 28 0;
#X connect 83 0 29 0;
#X connect 84 0 75 0;
#X connect 85 0 76 0;
#X connect 86 0 82 1;
#X connect 86 0 83 1;
#X connect 87 0 85 1;
#X connect 87 0 84 1;
#X restore 27 489 pd reaction1;
#X obj 675 525 outlet;
#X text 602 142 collision detection 2;
#X text 610 190 only tested for overlap so far \, check again if they
are moving towards or appart (else stuck balls);
#X obj 382 143 v ball2x-delta;
#X obj 481 143 v ball2y-delta;
#X obj 190 258 skalarprodukt;
#X obj 284 143 v ball1y-delta;
#X obj 191 143 v ball1x-delta;
#X obj 192 176 -;
#X obj 233 186 -;
#X obj 191 98 t b b b b;
#X obj 201 357 t b b b;
#X obj 197 327 sel 1;
#X obj 190 289 < 0;
#X text 227 290 should be > 0 but works (?);
#X text 241 328 collision!;
#X obj -5 552 v ball2x-delta;
#X obj 88 552 v ball2y-delta;
#X obj 295 555 v ball1y-delta;
#X obj 202 555 v ball1x-delta;
#X connect 4 0 9 0;
#X connect 5 0 4 0;
#X connect 5 1 6 0;
#X connect 5 2 7 0;
#X connect 5 3 8 0;
#X connect 6 0 10 0;
#X connect 7 0 9 1;
#X connect 8 0 10 1;
#X connect 9 0 21 0;
#X connect 10 0 20 0;
#X connect 12 0 18 0;
#X connect 13 0 14 0;
#X connect 14 0 15 0;
#X connect 15 0 41 0;
#X connect 15 1 22 0;
#X connect 15 2 23 0;
#X connect 16 0 30 2;
#X connect 16 0 36 3;
#X connect 16 0 30 4;
#X connect 17 0 30 1;
#X connect 17 0 36 2;
#X connect 17 0 30 3;
#X connect 18 0 13 0;
#X connect 18 1 17 1;
#X connect 18 2 16 1;
#X connect 20 0 12 1;
#X connect 20 1 23 1;
#X connect 21 0 12 0;
#X connect 21 1 22 1;
#X connect 22 0 17 0;
#X connect 23 0 16 0;
#X connect 24 0 31 0;
#X connect 26 0 5 0;
#X connect 28 0 29 0;
#X connect 28 1 27 0;
#X connect 34 0 39 1;
#X connect 35 0 40 1;
#X connect 36 0 44 0;
#X connect 37 0 40 0;
#X connect 38 0 39 0;
#X connect 39 0 36 0;
#X connect 40 0 36 1;
#X connect 41 0 38 0;
#X connect 41 1 37 0;
#X connect 41 2 34 0;
#X connect 41 3 35 0;
#X connect 42 0 30 0;
#X connect 42 2 28 0;
#X connect 43 0 42 0;
#X connect 43 0 24 0;
#X connect 44 0 43 0;
#X restore 228 371 pd supercollider;
#X obj 983 125 * 0.7;
#X obj 905 119 * 0.7;
#X obj 433 388 bounce320 ball1 ball1y 10;
#X obj 969 411 bounce320 ball2 ball2y 13;
#X obj 857 439 bounce320 ball2 ball2x 13;
#X obj 229 398 tgl 15 0 empty empty empty 17 7 0 10 -262144 -1 -1 0
1;
#X obj 1160 119 * 0.5;
#X obj 1078 120 * 0.5;
#X obj 1058 68 * -1;
#X obj 1078 88 r ball2-sensitivity;
#X obj 929 88 r ball1-sensitivity;
#X text 189 370 --->;
#X obj 986 38 unpack 0 0 0;
#X obj 986 11 r #accelerate;
#X obj 813 158 fingergravity finger1 ball1x ball1y;
#X obj 825 192 fingergravity finger2 ball1x ball1y;
#X obj 1038 153 fingergravity finger1 ball2x ball2y;
#X obj 1054 190 fingergravity finger2 ball2x ball2y;
#N canvas 27 22 1308 924 fingerforcefields 0;
#X obj 668 281 loadbang;
#X msg 474 392 move \$1 \$2;
#X obj 340 261 t b a;
#X obj 145 155 route 1 2;
#X obj 235 152 route 1 2;
#X obj 293 291 t b;
#X obj 147 107 route up down xy;
#X obj 301 153 route 1 2;
#X obj 594 429 rj_image 200-white.png;
#X obj 513 864 rj_image 200-white.png;
#X msg 322 292 1;
#X msg 541 348 visible \$1;
#X msg 304 318 0;
#X msg 603 297 0;
#X obj 442 247 unpack 0 0;
#X obj 321 379 spigot;
#X obj 357 328 loadbang;
#X msg 355 353 1;
#X obj 454 479 t b f;
#X obj 454 528 -;
#X msg 451 504 1;
#X msg 204 666 move \$1 \$2;
#X obj 70 535 t b a;
#X obj 23 565 t b;
#X msg 67 566 1;
#X msg 271 622 visible \$1;
#X msg 34 592 0;
#X msg 545 590 0;
#X obj 172 521 unpack 0 0;
#X obj 51 653 spigot;
#X obj 87 602 loadbang;
#X msg 85 627 1;
#X obj 184 753 t b f;
#X obj 184 802 -;
#X msg 181 778 1;
#X obj 162 558 v finger2-x;
#X obj 242 555 v finger2-y;
#X obj 443 281 v finger1-x;
#X obj 522 281 v finger1-y;
#X obj 332 480 s finger1-on;
#X obj 67 839 s finger2-on;
#X obj 382 417 r finger1-sticky;
#X obj 150 714 r finger2-sticky;
#X obj 147 78 inlet;
#X connect 0 0 13 0;
#X connect 0 0 27 0;
#X connect 1 0 8 0;
#X connect 2 0 10 0;
#X connect 2 1 1 0;
#X connect 2 1 14 0;
#X connect 3 0 5 0;
#X connect 3 1 23 0;
#X connect 4 0 2 0;
#X connect 4 1 22 0;
#X connect 5 0 12 0;
#X connect 6 0 3 0;
#X connect 6 1 4 0;
#X connect 6 2 7 0;
#X connect 7 0 1 0;
#X connect 7 0 14 0;
#X connect 7 1 21 0;
#X connect 7 1 28 0;
#X connect 10 0 15 0;
#X connect 11 0 8 0;
#X connect 12 0 15 0;
#X connect 13 0 11 0;
#X connect 14 0 37 0;
#X connect 14 1 38 0;
#X connect 15 0 11 0;
#X connect 15 0 39 0;
#X connect 16 0 17 0;
#X connect 17 0 15 1;
#X connect 18 0 20 0;
#X connect 18 1 19 1;
#X connect 19 0 15 1;
#X connect 20 0 19 0;
#X connect 21 0 9 0;
#X connect 22 0 24 0;
#X connect 22 1 21 0;
#X connect 22 1 28 0;
#X connect 23 0 26 0;
#X connect 24 0 29 0;
#X connect 25 0 9 0;
#X connect 26 0 29 0;
#X connect 27 0 25 0;
#X connect 28 0 35 0;
#X connect 28 1 36 0;
#X connect 29 0 25 0;
#X connect 29 0 40 0;
#X connect 30 0 31 0;
#X connect 31 0 29 1;
#X connect 32 0 34 0;
#X connect 32 1 33 1;
#X connect 33 0 29 1;
#X connect 34 0 33 0;
#X connect 41 0 18 0;
#X connect 41 0 11 0;
#X connect 41 0 39 0;
#X connect 42 0 32 0;
#X connect 42 0 25 0;
#X connect 42 0 40 0;
#X connect 43 0 6 0;
#X restore 23 446 pd fingerforcefields;
#N canvas 27 22 1264 924 touch 0;
#X obj 333 9 r #touch;
#X obj 286 386 route down;
#X obj 286 409 route 1;
#X obj 286 433 unpack 0 0;
#X obj 259 355 t a a;
#X obj 345 457 > 280;
#X obj 286 479 spigot;
#X obj 286 503 < 40;
#X obj 260 303 spigot;
#X obj 392 305 spigot;
#X obj 566 311 spigot;
#X text 273 332 open prefs;
#X text 247 722 normal;
#X text 472 723 physics;
#X text 723 725 sound;
#X obj 193 428 spigot;
#X obj 286 554 t b;
#X obj 286 527 sel 1;
#X obj 286 607 s view;
#X msg 286 578 1;
#X obj 522 -27 r view;
#X obj 522 0 sel 0 1 2;
#X obj 464 30 t b b;
#X msg 463 57 1;
#X obj 494 57 0;
#X obj 538 33 t b b;
#X msg 537 60 1;
#X obj 568 60 0;
#X obj 198 755 outlet;
#X obj 455 754 outlet;
#X obj 715 751 outlet;
#X obj 428 96 pipe 200;
#X obj 531 112 pipe 200;
#X obj 344 556 t b;
#X obj 344 529 sel 1;
#X obj 344 609 s view;
#X obj 344 505 > 280;
#X msg 344 580 2;
#X obj 632 47 t b b;
#X msg 631 74 1;
#X obj 662 74 0;
#X obj 625 126 pipe 200;
#X connect 0 0 9 0;
#X connect 0 0 10 0;
#X connect 0 0 8 0;
#X connect 1 0 2 0;
#X connect 2 0 3 0;
#X connect 3 0 6 0;
#X connect 3 1 5 0;
#X connect 4 0 15 0;
#X connect 4 1 1 0;
#X connect 5 0 6 1;
#X connect 6 0 7 0;
#X connect 6 0 36 0;
#X connect 7 0 17 0;
#X connect 8 0 4 0;
#X connect 9 0 29 0;
#X connect 10 0 30 0;
#X connect 15 0 28 0;
#X connect 16 0 19 0;
#X connect 17 0 16 0;
#X connect 19 0 18 0;
#X connect 20 0 21 0;
#X connect 21 0 22 0;
#X connect 21 1 25 0;
#X connect 21 2 38 0;
#X connect 22 0 23 0;
#X connect 22 1 24 0;
#X connect 23 0 31 0;
#X connect 24 0 9 1;
#X connect 24 0 10 1;
#X connect 25 0 26 0;
#X connect 25 1 27 0;
#X connect 26 0 32 0;
#X connect 27 0 8 1;
#X connect 27 0 10 1;
#X connect 27 0 15 1;
#X connect 31 0 8 1;
#X connect 31 0 15 1;
#X connect 32 0 9 1;
#X connect 33 0 37 0;
#X connect 34 0 33 0;
#X connect 36 0 34 0;
#X connect 37 0 35 0;
#X connect 38 0 39 0;
#X connect 38 1 40 0;
#X connect 39 0 41 0;
#X connect 40 0 9 1;
#X connect 40 0 15 1;
#X connect 40 0 8 1;
#X connect 41 0 10 1;
#X restore 28 356 pd touch;
#N canvas 0 22 1264 924 physicsprefs 0;
#X obj 377 177 rj_image physics-back.png;
#X obj 386 65 loadbang;
#X msg 447 129 move 160 160;
#X obj 137 135 i;
#X obj 64 38 route up down xy;
#X obj 74 80 unpack 0 0 0;
#X obj 119 192 s;
#X obj 136 169 makefilename %d-physics-slider;
#X floatatom 206 63 5 0 0 0 - - -;
#X floatatom 68 126 5 0 0 0 - - -;
#X text 997 283 was 20 now 32 px;
#X obj 138 106 / 32;
#X obj 1053 -13 r 8-physics-slider;
#X obj 1099 9 r 9-physics-slider;
#X obj 1095 86 i;
#X obj 1096 58 / 64;
#X obj 1071 145 tgl 15 0 empty empty empty 17 7 0 10 -262144 -1 -1
0 1;
#X obj 965 209 s finger2-sticky;
#X obj 979 231 s finger1-sticky;
#X obj 393 493 send finger1-gravity;
#X obj 358 370 - 1;
#X obj 331 320 t b f;
#X msg 335 345 1;
#X obj 363 519 send finger2-gravity;
#X floatatom 287 328 5 0 0 0 - - -;
#X floatatom 313 517 5 0 0 0 - - -;
#X obj 365 469 + 1;
#X obj 183 302 hsl 128 15 0 1 0 0 empty empty empty -2 -8 0 10 -262144
-1 -1 0 1;
#X obj 365 423 * 1;
#X obj 360 395 t f f;
#X obj 38 -5 inlet;
#X obj 1095 113 sel 0 1 2 3 4 5;
#X obj 1183 229 s view;
#X msg 1169 154 0;
#X msg 475 90 visible \$1;
#X obj 462 -29 r view;
#X msg 460 62 1;
#X obj 461 35 t b;
#X obj 497 35 t b;
#X obj 462 -2 sel 1;
#X msg 496 62 0;
#X obj 630 778 send ball1-fric;
#X text 596 586 friction;
#X text 327 265 finger force;
#X text 612 257 ball-wall;
#X text 821 262 ball-ball;
#X obj 586 405 s ball1-contact;
#X obj 610 430 s ball2-contact;
#X obj 836 420 send ball2-bouncieness;
#X obj 817 451 send ball1-bouncieness;
#X obj 740 287 hsl 128 15 0 1 0 0 empty empty empty -2 -8 0 10 -262144
-1 -1 0 1;
#X obj 788 363 * 1;
#X obj 783 335 t f f;
#X floatatom 738 488 5 0 0 0 - - -;
#X floatatom 801 490 5 0 0 0 - - -;
#X text 35 600 red accel;
#X text 292 607 blue accel;
#X obj 89 754 s ball1-sensitivity;
#X obj 312 759 s ball2-sensitivity;
#X obj 65 574 hsl 128 15 0 1 0 0 empty empty empty -2 -8 0 10 -262144
-1 -1 0 1;
#X floatatom 26 730 5 0 0 0 - - -;
#X obj 575 673 * 1;
#X obj 570 645 t f f;
#X obj 331 294 20pxslider 1;
#X obj 587 299 20pxslider 2;
#X obj 816 312 20pxslider 3;
#X obj 118 640 20pxslider 4;
#X obj 303 651 20pxslider 5;
#X obj 305 684 * 4;
#X obj 305 710 - 2;
#X obj 1126 256 s physics-reset;
#X obj 551 565 r physics-reset;
#X floatatom 552 792 5 0 0 0 - - -;
#X obj 587 733 * 1;
#X obj 582 705 t f f;
#X msg 550 594 0.38;
#X obj 273 239 r physics-reset;
#X msg 277 262 0.5;
#X obj 529 314 t f f;
#X floatatom 523 289 5 0 0 0 - - -;
#X floatatom 534 465 5 0 0 0 - - -;
#X obj 550 419 - 1;
#X obj 523 369 t b f;
#X msg 527 394 1;
#X floatatom 459 388 5 0 0 0 - - -;
#X obj 534 342 * 1;
#X obj 460 342 sqrt;
#X msg 509 263 0.81;
#X obj 579 328 * 0.5;
#X obj 584 361 + 0.5;
#X floatatom 654 378 5 0 0 0 - - -;
#X floatatom 655 338 5 0 0 0 - - -;
#X obj 572 237 r physics-reset;
#X msg 573 265 0.8;
#X obj 750 222 r physics-reset;
#X floatatom 40 628 5 0 0 0 - - -;
#X obj 105 549 r physics-reset;
#X obj 91 692 * 4;
#X obj 91 718 - 2;
#X msg 109 603 0.75;
#X obj 235 559 r physics-reset;
#X msg 242 605 0.7;
#X floatatom 247 739 5 0 0 0 - - -;
#X obj 827 166 rj_image p-64.png;
#X msg 816 103 visible \$1;
#X obj 822 -28 r view;
#X msg 818 58 1;
#X obj 819 31 t b;
#X obj 855 31 t b;
#X obj 820 -6 sel 1;
#X msg 854 58 0;
#X obj 925 44 + 1;
#X obj 925 73 * 288;
#X msg 925 128 move \$2 \$1;
#X obj 925 101 pack 0 32;
#X obj 923 13 == 0;
#X obj 1097 151 tgl 15 0 empty empty empty 17 7 0 10 -262144 -1 -1
1 1;
#X obj 1032 512 rj_image p-64.png;
#X obj 1108 379 s ball2-onoff;
#X obj 1073 395 + 1;
#X obj 1073 424 * 288;
#X msg 1073 479 move \$2 \$1;
#X obj 1071 364 == 0;
#X obj 1073 452 pack 0 96;
#N canvas 0 22 1011 466 resetballs 0;
#X msg 262 205 0;
#X obj 319 245 v ball1y-delta;
#X obj 226 245 v ball1x-delta;
#X obj 151 273 s ball1y-pos;
#X obj 71 273 s ball1x-pos;
#X msg 653 205 0.01;
#X obj 419 254 s ball2x-pos;
#X obj 515 278 s ball2y-pos;
#X obj 567 244 v ball2x-delta;
#X obj 660 244 v ball2y-delta;
#X obj 242 71 inlet;
#X msg 586 208 0.02;
#X msg 309 206 -0.01;
#X obj 412 194 random 200;
#X obj 506 200 random 200;
#X obj 507 225 + 60;
#X obj 413 219 + 60;
#X obj 63 187 random 200;
#X obj 157 193 random 200;
#X obj 64 212 + 60;
#X obj 158 218 + 60;
#X connect 0 0 2 0;
#X connect 0 0 1 0;
#X connect 5 0 8 0;
#X connect 5 0 9 0;
#X connect 10 0 0 0;
#X connect 10 0 12 0;
#X connect 10 0 11 0;
#X connect 10 0 5 0;
#X connect 10 0 13 0;
#X connect 10 0 17 0;
#X connect 10 0 18 0;
#X connect 11 0 8 0;
#X connect 11 0 9 0;
#X connect 12 0 2 0;
#X connect 12 0 1 0;
#X connect 13 0 16 0;
#X connect 14 0 15 0;
#X connect 15 0 7 0;
#X connect 16 0 6 0;
#X connect 17 0 19 0;
#X connect 18 0 20 0;
#X connect 19 0 4 0;
#X connect 20 0 3 0;
#X restore 1135 307 pd resetballs;
#X text 1194 385 TODO;
#X obj 1157 285 r resetballs;
#X obj 1165 57 r physics-reset;
#X msg 1165 82 1;
#X obj 727 105 loadbang;
#X msg 727 138 move 1000 1000;
#X text 718 71 stickyfingers;
#X text 1063 534 ball2 on off;
#X obj 788 399 * 5;
#X msg 752 250 0.4473;
#X obj 365 445 * 29;
#X obj 73 235 r physics-reset;
#X msg 80 281 0.5;
#X floatatom 6 295 5 0 0 0 - - -;
#X floatatom 35 457 5 0 0 0 - - -;
#X obj 87 386 + 4;
#X obj 83 361 * 46;
#X obj 133 433 send finger1-gravitypxlimit;
#X obj 96 475 send finger2-gravitypxlimit;
#X obj 82 319 20pxslider 0;
#X text 900 581 friction;
#X obj 879 668 * 1;
#X obj 874 640 t f f;
#X obj 855 560 r physics-reset;
#X floatatom 856 787 5 0 0 0 - - -;
#X obj 891 728 * 1;
#X obj 886 700 t f f;
#X msg 854 589 0.38;
#X obj 574 622 20pxslider 6;
#X obj 878 617 20pxslider 7;
#X obj 934 773 send ball2-fric;
#X text 173 802 TODO: Höher! bis 30 \, "rote Zone";
#X connect 1 0 2 0;
#X connect 2 0 0 0;
#X connect 3 0 7 0;
#X connect 4 1 5 0;
#X connect 4 2 5 0;
#X connect 5 1 6 0;
#X connect 5 2 11 0;
#X connect 7 0 6 1;
#X connect 8 0 11 0;
#X connect 9 0 6 0;
#X connect 11 0 3 0;
#X connect 12 0 15 0;
#X connect 13 0 15 0;
#X connect 14 0 31 0;
#X connect 15 0 14 0;
#X connect 16 0 18 0;
#X connect 16 0 17 0;
#X connect 16 0 115 0;
#X connect 20 0 29 0;
#X connect 21 0 22 0;
#X connect 21 1 20 1;
#X connect 22 0 20 0;
#X connect 24 0 21 0;
#X connect 26 0 19 0;
#X connect 26 0 23 0;
#X connect 26 0 25 0;
#X connect 26 0 63 1;
#X connect 27 0 24 0;
#X connect 28 0 135 0;
#X connect 29 0 28 0;
#X connect 29 1 28 1;
#X connect 30 0 4 0;
#X connect 31 0 16 0;
#X connect 31 1 116 0;
#X connect 31 2 70 0;
#X connect 31 2 124 0;
#X connect 31 3 33 0;
#X connect 31 4 33 0;
#X connect 33 0 32 0;
#X connect 34 0 0 0;
#X connect 35 0 39 0;
#X connect 36 0 34 0;
#X connect 37 0 36 0;
#X connect 38 0 40 0;
#X connect 39 0 37 0;
#X connect 39 1 38 0;
#X connect 40 0 34 0;
#X connect 50 0 52 0;
#X connect 50 0 53 0;
#X connect 51 0 133 0;
#X connect 52 0 51 0;
#X connect 52 1 51 1;
#X connect 59 0 97 0;
#X connect 61 0 74 0;
#X connect 62 0 61 0;
#X connect 62 1 61 1;
#X connect 63 0 21 0;
#X connect 64 0 88 0;
#X connect 65 0 52 0;
#X connect 66 0 97 0;
#X connect 67 0 68 0;
#X connect 68 0 69 0;
#X connect 69 0 58 0;
#X connect 69 0 67 1;
#X connect 69 0 102 0;
#X connect 71 0 75 0;
#X connect 73 0 41 0;
#X connect 73 0 72 0;
#X connect 73 0 153 1;
#X connect 74 0 73 0;
#X connect 74 1 73 1;
#X connect 75 0 153 0;
#X connect 76 0 77 0;
#X connect 77 0 63 0;
#X connect 78 0 85 0;
#X connect 78 1 85 1;
#X connect 79 0 78 0;
#X connect 79 0 86 0;
#X connect 81 0 80 0;
#X connect 82 0 83 0;
#X connect 82 1 81 1;
#X connect 83 0 81 0;
#X connect 85 0 82 0;
#X connect 86 0 84 0;
#X connect 88 0 89 0;
#X connect 89 0 46 0;
#X connect 89 0 47 0;
#X connect 89 0 64 1;
#X connect 89 0 90 0;
#X connect 91 0 88 0;
#X connect 92 0 93 0;
#X connect 93 0 64 0;
#X connect 94 0 134 0;
#X connect 95 0 97 0;
#X connect 96 0 99 0;
#X connect 97 0 98 0;
#X connect 98 0 60 0;
#X connect 98 0 57 0;
#X connect 98 0 66 1;
#X connect 99 0 66 0;
#X connect 100 0 101 0;
#X connect 101 0 67 0;
#X connect 104 0 103 0;
#X connect 104 0 117 0;
#X connect 105 0 109 0;
#X connect 106 0 104 0;
#X connect 107 0 106 0;
#X connect 108 0 110 0;
#X connect 109 0 107 0;
#X connect 109 1 108 0;
#X connect 110 0 104 0;
#X connect 111 0 112 0;
#X connect 112 0 114 0;
#X connect 113 0 103 0;
#X connect 114 0 113 0;
#X connect 115 0 111 0;
#X connect 116 0 118 0;
#X connect 116 0 122 0;
#X connect 119 0 120 0;
#X connect 120 0 123 0;
#X connect 121 0 117 0;
#X connect 122 0 119 0;
#X connect 123 0 121 0;
#X connect 126 0 124 0;
#X connect 127 0 128 0;
#X connect 128 0 116 0;
#X connect 129 0 130 0;
#X connect 130 0 103 0;
#X connect 133 0 54 0;
#X connect 133 0 48 0;
#X connect 133 0 49 0;
#X connect 133 0 65 1;
#X connect 134 0 65 0;
#X connect 135 0 26 0;
#X connect 136 0 137 0;
#X connect 137 0 144 0;
#X connect 138 0 141 0;
#X connect 140 0 139 0;
#X connect 140 0 142 0;
#X connect 140 0 143 0;
#X connect 140 0 144 1;
#X connect 141 0 140 0;
#X connect 144 0 141 0;
#X connect 146 0 151 0;
#X connect 147 0 146 0;
#X connect 147 1 146 1;
#X connect 148 0 152 0;
#X connect 150 0 149 0;
#X connect 150 0 154 1;
#X connect 150 0 155 0;
#X connect 151 0 150 0;
#X connect 151 1 150 1;
#X connect 152 0 154 0;
#X connect 153 0 62 0;
#X connect 154 0 147 0;
#X restore 60 417 pd physicsprefs;
#X obj 9 108 s view;
#X obj 19 34 loadbang;
#X msg 17 76 0;
#X obj 64 111 s physics-reset;
#X obj 84 81 s resetballs;
#X obj 1016 301 r ball2-onoff;
#X obj 983 327 spigot;
#X obj 260 306 r ball2-onoff;
#X obj 228 349 spigot;
#X obj 1097 780 r ball2-onoff;
#X msg 1089 820 visible \$1;
#X obj 866 628 r ball2-onoff;
#X obj 864 651 sel 0;
#X obj 194 13 declare -path .;
#X msg 194 63 \; pd dsp 1;
#X obj 194 36 loadbang;
#N canvas 315 56 1029 745 sender 0;
#X obj 855 167 r ball2y-acc;
#X obj 758 167 r ball2x-acc;
#X obj 659 167 r ball1y-acc;
#X obj 560 166 r ball1x-acc;
#X obj 169 42 v ball1x-pos;
#X obj 263 42 v ball1y-pos;
#X obj 361 45 v ball2x-pos;
#X obj 456 45 v ball2y-pos;
#X obj 627 115 v ball2x-delta;
#X obj 737 116 v ball2y-delta;
#X obj 517 115 v ball1y-delta;
#X obj 480 92 v ball1x-delta;
#X obj 644 2 t b;
#X obj 255 -139 t b b;
#X obj 91 -121 inlet;
#X obj 146 -120 inlet;
#X obj 194 -117 inlet;
#X obj 711 233 inlet;
#X obj 761 232 inlet;
#X obj 357 278 pack 0 0 0 0 0 0 0 0 0 0 0 0 0 0;
#X obj 13 -116 inlet;
#X obj 157 160 r blinkblink1;
#X obj 279 112 r blinkblink2;
#X obj 139 539 outlet;
#X msg 18 398 ballballbounce \$1;
#X msg 96 283 ball1bounce \$1;
#X msg 124 230 ball2bounce \$1;
#X msg 156 196 blinkblink1 \$1 \$2 \$3;
#X msg 255 165 blinkblink2 \$1 \$2 \$3;
#X msg 329 321 pos_delta_acc_vel \$1 \$2 \$3 \$4 \$5 \$6 \$7 \$8 \$9
\$10 \$11 \$12 \$13 \$14;
#X connect 0 0 19 11;
#X connect 1 0 19 10;
#X connect 2 0 19 9;
#X connect 3 0 19 8;
#X connect 4 0 19 0;
#X connect 5 0 19 1;
#X connect 6 0 19 2;
#X connect 7 0 19 3;
#X connect 8 0 19 6;
#X connect 9 0 19 7;
#X connect 10 0 19 5;
#X connect 11 0 19 4;
#X connect 12 0 9 0;
#X connect 12 0 8 0;
#X connect 12 0 10 0;
#X connect 12 0 11 0;
#X connect 13 0 4 0;
#X connect 13 1 12 0;
#X connect 13 1 7 0;
#X connect 13 1 6 0;
#X connect 13 1 5 0;
#X connect 14 0 24 0;
#X connect 15 0 25 0;
#X connect 16 0 26 0;
#X connect 17 0 19 12;
#X connect 18 0 19 13;
#X connect 19 0 29 0;
#X connect 20 0 13 0;
#X connect 21 0 27 0;
#X connect 22 0 28 0;
#X connect 24 0 23 0;
#X connect 25 0 23 0;
#X connect 26 0 23 0;
#X connect 27 0 23 0;
#X connect 28 0 23 0;
#X connect 29 0 23 0;
#X restore 182 694 pd sender;
#X floatatom 466 557 5 0 0 0 - - -;
#X obj 375 295 t b b;
#X obj 119 568 s blinkblink1;
#X obj 761 705 s blinkblink2;
#N canvas 47 77 1157 848 dsp 1;
#X obj 123 60 route pos_delta_acc_vel;
#X obj 648 212 unpack 0 0 0 0 0 0 0 0 0 0 0 0 0 0;
#X obj 537 780 soundoutput;
#X obj 838 382 s sq;
#N canvas 0 22 655 633 panner 0;
#X obj 180 146 sig~;
#X obj 164 328 *~;
#X obj 74 328 *~;
#X obj 74 356 outlet~ left;
#X obj 164 356 outlet~ right;
#X obj 102 253 cos~;
#X obj 102 229 -~ 0.25;
#X obj 181 255 cos~;
#X obj 180 212 -~ 0.25;
#X obj 180 190 *~ 0.25;
#X obj 180 168 lop~ 60;
#X obj 53 93 inlet~;
#X obj 189 108 inlet;
#X connect 0 0 10 0;
#X connect 1 0 4 0;
#X connect 2 0 3 0;
#X connect 5 0 2 1;
#X connect 6 0 5 0;
#X connect 7 0 1 1;
#X connect 8 0 7 0;
#X connect 8 0 6 0;
#X connect 9 0 8 0;
#X connect 10 0 9 0;
#X connect 11 0 1 0;
#X connect 11 0 2 0;
#X connect 12 0 0 0;
#X restore 408 693 pd panner;
#X obj 629 350 + 0.5;
#X obj 623 252 - 160;
#X obj 860 342 / 25;
#N canvas 437 285 805 574 mktanh 0;
#N canvas 0 22 450 300 tanh 0;
#X obj 105 29 inlet;
#X obj 105 119 t a a;
#X obj 105 73 * 2;
#X obj 105 94 exp;
#X obj 105 172 / 1;
#X obj 105 199 outlet;
#X obj 105 148 - 1;
#X obj 137 148 + 1;
#X text 289 97 exp(2x) - 1;
#X text 290 125 exp(2x) + 1;
#X text 240 109 tanh = -----------;
#X obj 105 51 f;
#X connect 0 0 11 0;
#X connect 1 0 6 0;
#X connect 1 1 7 0;
#X connect 2 0 3 0;
#X connect 3 0 1 0;
#X connect 4 0 5 0;
#X connect 6 0 4 0;
#X connect 7 0 4 1;
#X connect 11 0 2 0;
#X restore 82 319 pd tanh;
#X obj 82 138 until;
#X obj 82 198 t a a;
#X obj 112 168 + 1;
#X obj 82 168 f 0;
#X msg 127 136 0;
#X obj 82 108 t f b;
#X obj 82 55 loadbang;
#X obj 82 348 tabwrite my-tanh;
#X obj 82 374 table my-tanh 10000;
#X msg 82 84 10000;
#X obj 82 273 / 1000;
#X obj 82 239 - 5000;
#X text 246 55 based on tanh-waveshaper by frank barknecht;
#X connect 0 0 8 0;
#X connect 1 0 4 0;
#X connect 2 0 12 0;
#X connect 2 1 8 1;
#X connect 3 0 4 1;
#X connect 4 0 3 0;
#X connect 4 0 2 0;
#X connect 5 0 4 1;
#X connect 6 0 1 0;
#X connect 6 1 5 0;
#X connect 7 0 10 0;
#X connect 10 0 6 0;
#X connect 11 0 0 0;
#X connect 12 0 11 0;
#X restore 700 806 pd mktanh;
#N canvas 495 35 450 300 tanh 0;
#X obj -45 -75 tabread4~ my-tanh;
#X obj -45 -97 +~ 5000;
#X obj 110 -59 tabread4~ my-tanh;
#X obj 110 -81 +~ 5000;
#X obj -48 -17 outlet~;
#X obj 105 -25 outlet~;
#X obj -37 -176 inlet~;
#X obj 106 -175 inlet~;
#X obj -45 -119 *~ 2000;
#X obj 110 -103 *~ 2000;
#X connect 0 0 4 0;
#X connect 1 0 0 0;
#X connect 2 0 5 0;
#X connect 3 0 2 0;
#X connect 6 0 8 0;
#X connect 7 0 9 0;
#X connect 8 0 1 0;
#X connect 9 0 3 0;
#X restore 540 731 pd tanh;
#X obj 640 307 / -400;
#N canvas 0 22 655 633 panner 0;
#X obj 180 146 sig~;
#X obj 164 328 *~;
#X obj 74 328 *~;
#X obj 74 356 outlet~ left;
#X obj 164 356 outlet~ right;
#X obj 102 253 cos~;
#X obj 102 229 -~ 0.25;
#X obj 181 255 cos~;
#X obj 180 212 -~ 0.25;
#X obj 180 190 *~ 0.25;
#X obj 180 168 lop~ 60;
#X obj 53 93 inlet~;
#X obj 189 108 inlet;
#X connect 0 0 10 0;
#X connect 1 0 4 0;
#X connect 2 0 3 0;
#X connect 5 0 2 1;
#X connect 6 0 5 0;
#X connect 7 0 1 1;
#X connect 8 0 7 0;
#X connect 8 0 6 0;
#X connect 9 0 8 0;
#X connect 10 0 9 0;
#X connect 11 0 1 0;
#X connect 11 0 2 0;
#X connect 12 0 0 0;
#X restore 627 667 pd panner;
#X obj 688 294 + 0.5;
#X obj 680 246 - 160;
#X obj 683 273 / -400;
#X obj 260 610 *~ 0.2;
#X obj 124 206 route ball1bounce ball2bounce ballballbounce blinkblink1
blinkblink2;
#N canvas 0 22 979 856 ballball 0;
#X floatatom 272 66 5 0 0 0 - - -;
#X floatatom 469 416 0 0 0 0 - - -;
#X obj 196 38 abs 0;
#X obj 222 653 *~;
#X obj 159 394 vline~;
#X obj 404 387 + 40;
#X floatatom 469 248 5 0 0 0 - - -;
#X obj 461 297 * 60;
#X obj 393 450 sig~;
#X obj 384 623 r ball1-s-del;
#X obj 144 451 *~;
#X obj 400 538 osc~;
#X obj 216 533 osc~;
#X floatatom 308 397 5 0 0 0 - - -;
#X floatatom 316 423 5 0 0 0 - - -;
#X obj 238 427 +~ 999;
#X obj 163 11 inlet;
#X obj 621 829 outlet~;
#X obj 168 147 t b f f f;
#X obj 179 303 pack;
#X obj 198 179 sqrt;
#X msg 176 360 \$1 2 0 \, 0 \$2 2;
#X obj 180 239 min 1;
#X obj 198 212 / 8;
#X floatatom 289 251 5 0 0 0 - - -;
#X obj 210 480 *~;
#X obj 229 580 *~;
#X obj 279 541 r ball1-2ndosc;
#X obj 288 209 r ball1-decay;
#X obj 517 266 r ball1-freq;
#X obj 444 339 min 809900;
#X obj 445 687 delwrite~ wand3 800;
#X obj 359 649 *~ 1;
#X floatatom 390 593 5 0 0 0 - - -;
#X msg 205 71 12;
#X obj 356 739 *~ 0.7;
#X obj 660 37 inlet;
#X obj 749 37 inlet;
#X floatatom 671 105 5 0 0 0 - - -;
#X floatatom 773 100 5 0 0 0 - - -;
#X obj 362 76 +;
#X floatatom 459 137 5 0 0 0 - - -;
#X obj 167 117 f;
#X obj 151 82 t b;
#X obj 392 412 penta;
#X obj 413 480 lop~ 1400;
#X obj 398 785 delread~ wand3 60;
#X obj 898 46 inlet~;
#X connect 2 0 0 0;
#X connect 2 0 34 0;
#X connect 2 0 43 0;
#X connect 3 0 17 0;
#X connect 3 0 35 0;
#X connect 4 0 10 1;
#X connect 4 0 10 0;
#X connect 4 0 25 0;
#X connect 5 0 44 0;
#X connect 6 0 7 1;
#X connect 7 0 1 0;
#X connect 7 0 30 0;
#X connect 8 0 45 0;
#X connect 9 0 32 1;
#X connect 10 0 3 0;
#X connect 11 0 3 1;
#X connect 12 0 26 0;
#X connect 14 0 15 1;
#X connect 16 0 2 0;
#X connect 18 2 20 0;
#X connect 18 3 7 0;
#X connect 19 0 21 0;
#X connect 20 0 23 0;
#X connect 21 0 4 0;
#X connect 22 0 19 0;
#X connect 23 0 22 0;
#X connect 24 0 19 1;
#X connect 25 0 12 0;
#X connect 26 0 3 1;
#X connect 27 0 26 1;
#X connect 28 0 19 1;
#X connect 29 0 7 1;
#X connect 30 0 5 0;
#X connect 33 0 32 1;
#X connect 35 0 31 0;
#X connect 36 0 38 0;
#X connect 36 0 40 0;
#X connect 37 0 39 0;
#X connect 37 0 40 1;
#X connect 40 0 41 0;
#X connect 40 0 42 1;
#X connect 42 0 18 0;
#X connect 43 0 42 0;
#X connect 44 0 8 0;
#X connect 45 0 11 0;
#X connect 45 0 25 1;
#X connect 46 0 17 0;
#X connect 46 0 35 0;
#X connect 47 0 35 0;
#X connect 47 0 17 0;
#X restore 252 580 pd ballball;
#N canvas 208 32 979 856 1ballsound 0;
#X floatatom 272 66 5 0 0 0 - - -;
#X floatatom 469 416 0 0 0 0 - - -;
#X obj 196 38 abs 0;
#X obj 222 653 *~;
#X obj 159 394 vline~;
#X obj 408 392 + 40;
#X obj 403 757 sig~;
#X obj 360 704 *~ 0.6;
#X floatatom 573 606 5 0 0 0 - - -;
#X floatatom 469 248 5 0 0 0 - - -;
#X obj 461 297 * 60;
#X obj 389 802 vd~ wand1 120;
#X obj 379 456 sig~;
#X obj 400 726 spigot;
#X obj 457 722 sel 0;
#X msg 459 743 120;
#X obj 440 696 r ball1-s-delmod;
#X obj 359 649 *~ 0;
#X obj 384 623 r ball1-s-del;
#X obj 415 671 r del-feedback;
#X obj 414 651 delwrite~ wand1 800;
#X obj 144 451 *~;
#X obj 397 509 osc~;
#X obj 216 533 osc~;
#X floatatom 308 397 5 0 0 0 - - -;
#X floatatom 316 423 5 0 0 0 - - -;
#X obj 238 427 +~ 999;
#X obj 196 13 inlet;
#X obj 566 154 inlet;
#X obj 711 331 / 320;
#X obj 355 835 outlet~;
#X obj 183 104 t b f f f;
#X obj 179 303 pack;
#X obj 213 136 sqrt;
#X msg 176 360 \$1 2 0 \, 0 \$2 2;
#X obj 180 239 min 1;
#X obj 213 169 / 8;
#X obj 495 452 * 0.2;
#X floatatom 289 251 5 0 0 0 - - -;
#X obj 210 480 *~;
#X obj 229 580 *~;
#X obj 279 541 r ball1-2ndosc;
#X obj 303 166 r ball1-decay;
#X obj 399 780 lop~ 0.5;
#X obj 704 394 * 60;
#X obj 573 587 + 60;
#X obj 517 266 r ball1-freq;
#X obj 444 339 min 10000;
#X obj 398 421 penta;
#X obj 378 485 lop~ 1000;
#X obj 862 224 inlet~;
#X connect 2 0 0 0;
#X connect 2 0 31 0;
#X connect 3 0 17 0;
#X connect 3 0 30 0;
#X connect 4 0 21 1;
#X connect 4 0 21 0;
#X connect 4 0 39 0;
#X connect 5 0 48 0;
#X connect 6 0 43 0;
#X connect 7 0 20 0;
#X connect 9 0 10 1;
#X connect 10 0 1 0;
#X connect 10 0 47 0;
#X connect 11 0 7 0;
#X connect 11 0 30 0;
#X connect 12 0 49 0;
#X connect 13 0 6 0;
#X connect 14 0 15 0;
#X connect 15 0 6 0;
#X connect 16 0 14 0;
#X connect 16 0 13 1;
#X connect 17 0 7 0;
#X connect 18 0 17 1;
#X connect 19 0 7 1;
#X connect 21 0 3 0;
#X connect 22 0 3 1;
#X connect 23 0 40 0;
#X connect 25 0 26 1;
#X connect 27 0 2 0;
#X connect 28 0 29 0;
#X connect 29 0 44 0;
#X connect 31 2 33 0;
#X connect 31 3 10 0;
#X connect 31 3 37 0;
#X connect 32 0 34 0;
#X connect 33 0 36 0;
#X connect 34 0 4 0;
#X connect 35 0 32 0;
#X connect 36 0 35 0;
#X connect 38 0 32 1;
#X connect 39 0 23 0;
#X connect 40 0 3 1;
#X connect 41 0 40 1;
#X connect 42 0 32 1;
#X connect 43 0 11 0;
#X connect 44 0 45 0;
#X connect 45 0 8 0;
#X connect 45 0 13 0;
#X connect 46 0 10 1;
#X connect 47 0 5 0;
#X connect 48 0 12 0;
#X connect 49 0 39 1;
#X connect 49 0 22 0;
#X connect 50 0 30 0;
#X connect 50 0 17 0;
#X restore 313 491 pd 1ballsound;
#N canvas 365 38 979 856 2ballsound 0;
#X floatatom 272 66 5 0 0 0 - - -;
#X floatatom 469 416 0 0 0 0 - - -;
#X obj 196 38 abs 0;
#X obj 222 653 *~;
#X obj 159 394 vline~;
#X obj 389 396 + 40;
#X obj 403 757 sig~;
#X obj 360 704 *~ 0.6;
#X floatatom 528 617 5 0 0 0 - - -;
#X floatatom 469 248 5 0 0 0 - - -;
#X obj 461 297 * 60;
#X obj 385 453 sig~;
#X obj 400 726 spigot;
#X obj 457 722 sel 0;
#X obj 440 696 r ball1-s-delmod;
#X obj 359 649 *~ 0;
#X obj 384 623 r ball1-s-del;
#X obj 415 671 r del-feedback;
#X obj 144 451 *~;
#X obj 397 509 osc~;
#X obj 216 533 osc~;
#X floatatom 308 397 5 0 0 0 - - -;
#X floatatom 316 423 5 0 0 0 - - -;
#X obj 238 427 +~ 999;
#X obj 196 13 inlet;
#X obj 566 154 inlet;
#X obj 711 331 / 320;
#X obj 582 846 outlet~;
#X obj 183 104 t b f f f;
#X obj 179 303 pack;
#X obj 213 136 sqrt;
#X msg 176 360 \$1 2 0 \, 0 \$2 2;
#X obj 180 239 min 1;
#X obj 213 169 / 8;
#X obj 495 452 * 0.2;
#X floatatom 289 251 5 0 0 0 - - -;
#X obj 210 480 *~;
#X obj 229 580 *~;
#X obj 279 541 r ball1-2ndosc;
#X obj 303 166 r ball1-decay;
#X obj 414 651 delwrite~ wand2 1800;
#X obj 389 802 vd~ wand2 240;
#X msg 459 743 240;
#X obj 399 780 lop~ 0.5;
#X obj 528 598 + 120;
#X obj 704 394 * 120;
#X obj 517 266 r ball1-freq;
#X obj 445 338 min 11000;
#X obj 380 425 penta;
#X obj 377 479 lop~ 100;
#X obj 847 110 inlet~;
#X connect 2 0 0 0;
#X connect 2 0 28 0;
#X connect 3 0 15 0;
#X connect 3 0 27 0;
#X connect 4 0 18 1;
#X connect 4 0 18 0;
#X connect 4 0 36 0;
#X connect 5 0 48 0;
#X connect 6 0 43 0;
#X connect 7 0 40 0;
#X connect 10 0 1 0;
#X connect 10 0 47 0;
#X connect 11 0 49 0;
#X connect 12 0 6 0;
#X connect 13 0 42 0;
#X connect 14 0 13 0;
#X connect 14 0 12 1;
#X connect 15 0 7 0;
#X connect 16 0 15 1;
#X connect 17 0 7 1;
#X connect 18 0 3 0;
#X connect 19 0 3 1;
#X connect 20 0 37 0;
#X connect 22 0 23 1;
#X connect 24 0 2 0;
#X connect 25 0 26 0;
#X connect 26 0 45 0;
#X connect 28 2 30 0;
#X connect 28 3 10 0;
#X connect 28 3 34 0;
#X connect 29 0 31 0;
#X connect 30 0 33 0;
#X connect 31 0 4 0;
#X connect 32 0 29 0;
#X connect 33 0 32 0;
#X connect 35 0 29 1;
#X connect 36 0 20 0;
#X connect 37 0 3 1;
#X connect 38 0 37 1;
#X connect 39 0 29 1;
#X connect 41 0 7 0;
#X connect 41 0 27 0;
#X connect 42 0 6 0;
#X connect 43 0 41 0;
#X connect 44 0 8 0;
#X connect 44 0 12 0;
#X connect 45 0 44 0;
#X connect 46 0 10 1;
#X connect 47 0 5 0;
#X connect 48 0 11 0;
#X connect 49 0 19 0;
#X connect 49 0 36 1;
#X connect 50 0 27 0;
#X connect 50 0 15 0;
#X restore 575 638 pd 2ballsound;
#N canvas 238 69 979 856 blinksound 0;
#X obj 224 532 *~;
#X obj 159 394 vline~;
#X obj 360 704 *~ 0.6;
#X obj 414 461 sig~;
#X obj 415 671 r del-feedback;
#X obj 144 451 *~;
#X obj 416 492 osc~;
#X obj 193 -1 inlet;
#X obj 355 835 outlet~;
#X obj 292 32 unpack 0 0 0;
#X floatatom 438 101 5 0 0 0 - - -;
#X floatatom 494 96 5 0 0 0 - - -;
#X obj 414 651 delwrite~ blink1 800;
#X obj 359 649 *~ 1;
#X floatatom 314 104 5 0 0 0 - - -;
#X obj 200 154 sel 1 0;
#X msg 234 176 0;
#X obj 379 778 delread~ blink1 120;
#X obj 384 623 r grid-s-del;
#X obj 16 121 r grid-decay;
#X obj 92 168 t f f;
#X obj 134 273 pack 0 0;
#X msg 127 353 \$1 2 0 \, 0 \$2 2;
#X obj 563 95 * 10;
#X obj 367 153 +;
#X obj 402 188 sel 11 13 15 31 33 35 51 53 55;
#X msg 528 281 69;
#X msg 563 285 81;
#X msg 462 247 81;
#X msg 636 325 57;
#X obj 420 325 t f;
#X obj 418 424 mtof;
#X msg 669 329 93;
#X msg 432 248 117;
#X msg 497 283 84;
#X msg 706 333 64;
#X msg 400 250 91;
#X msg 198 180 0.2;
#X connect 0 0 8 0;
#X connect 0 0 13 0;
#X connect 1 0 5 1;
#X connect 1 0 5 0;
#X connect 2 0 12 0;
#X connect 3 0 6 0;
#X connect 4 0 2 1;
#X connect 5 0 0 0;
#X connect 6 0 0 1;
#X connect 7 0 9 0;
#X connect 9 0 14 0;
#X connect 9 1 10 0;
#X connect 9 1 24 0;
#X connect 9 2 11 0;
#X connect 9 2 23 0;
#X connect 13 0 2 0;
#X connect 14 0 15 0;
#X connect 15 0 37 0;
#X connect 15 1 16 0;
#X connect 17 0 2 0;
#X connect 17 0 8 0;
#X connect 18 0 13 1;
#X connect 19 0 20 0;
#X connect 20 0 21 1;
#X connect 21 0 22 0;
#X connect 22 0 1 0;
#X connect 23 0 24 1;
#X connect 24 0 25 0;
#X connect 25 0 36 0;
#X connect 25 1 33 0;
#X connect 25 2 28 0;
#X connect 25 3 34 0;
#X connect 25 4 26 0;
#X connect 25 5 27 0;
#X connect 25 6 29 0;
#X connect 25 7 32 0;
#X connect 25 8 35 0;
#X connect 26 0 30 0;
#X connect 27 0 30 0;
#X connect 28 0 30 0;
#X connect 29 0 30 0;
#X connect 30 0 31 0;
#X connect 31 0 3 0;
#X connect 32 0 30 0;
#X connect 33 0 30 0;
#X connect 34 0 30 0;
#X connect 35 0 30 0;
#X connect 36 0 30 0;
#X connect 37 0 21 0;
#X restore 449 386 pd blinksound;
#N canvas 238 69 979 856 blinksound 0;
#X obj 224 532 *~;
#X obj 159 394 vline~;
#X obj 360 704 *~ 0.6;
#X obj 414 465 sig~;
#X obj 415 671 r del-feedback;
#X obj 144 451 *~;
#X obj 406 535 osc~;
#X obj 193 -1 inlet;
#X obj 355 835 outlet~;
#X obj 292 32 unpack 0 0 0;
#X floatatom 438 101 5 0 0 0 - - -;
#X floatatom 494 96 5 0 0 0 - - -;
#X obj 359 649 *~ 1;
#X floatatom 314 104 5 0 0 0 - - -;
#X obj 200 154 sel 1 0;
#X msg 234 176 0;
#X obj 384 623 r grid-s-del;
#X obj 16 121 r grid-decay;
#X obj 92 168 t f f;
#X obj 134 273 pack 0 0;
#X msg 127 353 \$1 2 0 \, 0 \$2 2;
#X obj 563 95 * 10;
#X obj 367 153 +;
#X obj 402 188 sel 11 13 15 31 33 35 51 53 55;
#X msg 528 281 69;
#X msg 563 285 81;
#X msg 462 247 81;
#X msg 636 325 57;
#X obj 420 325 t f;
#X obj 464 426 mtof;
#X msg 669 329 93;
#X msg 432 248 117;
#X msg 497 283 84;
#X msg 706 333 64;
#X msg 400 250 91;
#X obj 414 651 delwrite~ blink2 800;
#X obj 379 778 delread~ blink2 90;
#X msg 198 177 0.2;
#X connect 0 0 8 0;
#X connect 0 0 12 0;
#X connect 1 0 5 1;
#X connect 1 0 5 0;
#X connect 2 0 35 0;
#X connect 3 0 6 0;
#X connect 4 0 2 1;
#X connect 5 0 0 0;
#X connect 6 0 0 1;
#X connect 7 0 9 0;
#X connect 9 0 13 0;
#X connect 9 1 10 0;
#X connect 9 1 22 0;
#X connect 9 2 11 0;
#X connect 9 2 21 0;
#X connect 12 0 2 0;
#X connect 13 0 14 0;
#X connect 14 0 37 0;
#X connect 14 1 15 0;
#X connect 16 0 12 1;
#X connect 17 0 18 0;
#X connect 18 0 19 1;
#X connect 19 0 20 0;
#X connect 20 0 1 0;
#X connect 21 0 22 1;
#X connect 22 0 23 0;
#X connect 23 0 34 0;
#X connect 23 1 31 0;
#X connect 23 2 26 0;
#X connect 23 3 32 0;
#X connect 23 4 24 0;
#X connect 23 5 25 0;
#X connect 23 6 27 0;
#X connect 23 7 30 0;
#X connect 23 8 33 0;
#X connect 24 0 28 0;
#X connect 25 0 28 0;
#X connect 26 0 28 0;
#X connect 27 0 28 0;
#X connect 28 0 29 0;
#X connect 29 0 3 0;
#X connect 30 0 28 0;
#X connect 31 0 28 0;
#X connect 32 0 28 0;
#X connect 33 0 28 0;
#X connect 34 0 28 0;
#X connect 36 0 2 0;
#X connect 36 0 8 0;
#X connect 37 0 19 0;
#X restore 416 538 pd blinksound;
#X obj 384 597 *~ 0;
#X obj 273 668 r grid-moredelay;
#X text 845 586 uhhh ...;
#X obj 124 20 inlet;
#X connect 0 0 1 0;
#X connect 0 1 16 0;
#X connect 1 0 6 0;
#X connect 1 1 18 1;
#X connect 1 2 13 0;
#X connect 1 3 19 1;
#X connect 1 12 7 0;
#X connect 1 12 17 1;
#X connect 1 13 17 2;
#X connect 4 0 9 0;
#X connect 4 1 9 1;
#X connect 5 0 4 1;
#X connect 6 0 10 0;
#X connect 7 0 3 0;
#X connect 9 0 2 0;
#X connect 9 1 2 1;
#X connect 10 0 5 0;
#X connect 11 0 9 0;
#X connect 11 1 9 1;
#X connect 12 0 11 1;
#X connect 13 0 14 0;
#X connect 14 0 12 0;
#X connect 15 0 19 2;
#X connect 15 0 18 2;
#X connect 16 0 18 0;
#X connect 16 1 19 0;
#X connect 16 2 17 0;
#X connect 16 3 20 0;
#X connect 16 4 21 0;
#X connect 17 0 15 0;
#X connect 18 0 4 0;
#X connect 19 0 11 0;
#X connect 20 0 9 1;
#X connect 20 0 9 0;
#X connect 20 0 22 0;
#X connect 21 0 9 1;
#X connect 21 0 9 0;
#X connect 21 0 22 0;
#X connect 22 0 17 3;
#X connect 23 0 22 1;
#X connect 25 0 0 0;
#X restore 173 746 pd dsp;
#N canvas 56 38 1230 866 soundprefs 0;
#X obj 897 480 s ball1-2ndosc;
#X obj 896 451 tgl 15 0 empty empty empty 17 7 0 10 -262144 -1 -1 0
1;
#X obj 208 381 s ball1-freq;
#X obj 206 353 * 200;
#X msg 845 390 1;
#X obj 356 772 s grid-s-del;
#X obj 528 426 s grid-decay;
#X obj 518 317 t f f;
#X obj 518 361 *;
#X obj 526 396 * 300;
#X obj 138 139 i;
#X obj 65 42 route up down xy;
#X obj 75 84 unpack 0 0 0;
#X obj 120 196 s;
#X floatatom 207 67 5 0 0 0 - - -;
#X floatatom 69 130 5 0 0 0 - - -;
#X obj 139 110 / 32;
#X obj 39 -1 inlet;
#X obj 137 173 makefilename %d-sound-slider;
#X obj 381 84 loadbang;
#X msg 442 148 move 160 160;
#X msg 470 109 visible \$1;
#X obj 457 -10 r view;
#X msg 455 81 1;
#X obj 456 54 t b;
#X obj 492 54 t b;
#X msg 491 81 0;
#X obj 372 196 rj_image sound-back.png;
#X obj 157 254 r sound-reset;
#X msg 158 283 0.3;
#X obj 158 354 * 1;
#X obj 317 231 r sound-reset;
#X msg 348 257 0.6;
#X obj 366 317 t f f;
#X obj 359 352 *;
#X obj 372 396 * 400;
#X obj 376 426 s ball1-decay;
#X msg 517 253 0.8;
#X text 371 257 comment;
#X obj 511 228 r sound-reset;
#X obj 674 227 r sound-reset;
#X msg 678 256 0.6;
#X obj 675 361 s del-feedback;
#X obj 679 324 * 0.9;
#X obj 188 601 i;
#X obj 188 568 / 64;
#X obj 195 634 sel 0 1 2 3 4 5;
#X obj 29 878 rj_image p-64.png;
#X msg 24 824 visible \$1;
#X obj 24 709 r view;
#X msg 20 795 1;
#X obj 21 768 t b;
#X obj 57 768 t b;
#X msg 56 795 0;
#X msg 125 827 move \$2 \$1;
#X obj 125 800 pack 0 32;
#X obj 125 772 * 160;
#X obj 127 677 tgl 15 0 empty empty empty 17 7 0 10 -262144 -1 -1 1
1;
#X obj 222 939 rj_image p-64.png;
#X msg 217 885 visible \$1;
#X obj 217 770 r view;
#X msg 213 856 1;
#X obj 214 829 t b;
#X obj 250 829 t b;
#X msg 249 856 0;
#X msg 318 888 move \$2 \$1;
#X obj 318 833 * 160;
#X obj 320 738 tgl 15 0 empty empty empty 17 7 0 10 -262144 -1 -1 0
1;
#X obj 176 699 s grid-on;
#X obj 318 861 pack 0 96;
#X obj 469 950 rj_image p-64.png;
#X msg 464 896 visible \$1;
#X obj 464 781 r view;
#X msg 460 867 1;
#X obj 461 840 t b;
#X obj 497 840 t b;
#X msg 496 867 0;
#X msg 565 899 move \$2 \$1;
#X obj 565 844 * 160;
#X obj 559 710 tgl 15 0 empty empty empty 17 7 0 10 -262144 -1 -1 0
1;
#X obj 598 766 s grid-moredelay;
#X obj 565 872 pack 0 160;
#X obj 901 644 i;
#X obj 901 611 / 64;
#X obj 894 671 sel 0 1 2 3 4 5;
#X obj 742 921 rj_image p-64.png;
#X msg 737 867 visible \$1;
#X obj 737 752 r view;
#X msg 733 838 1;
#X obj 734 811 t b;
#X obj 770 811 t b;
#X msg 769 838 0;
#X msg 838 870 move \$2 \$1;
#X obj 838 843 pack 0 32;
#X obj 808 686 tgl 15 0 empty empty empty 17 7 0 10 -262144 -1 -1 1
1;
#X obj 1205 179 t b;
#X msg 1210 203 0;
#X obj 1217 235 s view;
#X obj 877 751 s ball1-s-del;
#X obj 838 815 * 224;
#X obj 936 947 rj_image p-64.png;
#X msg 931 893 visible \$1;
#X obj 931 778 r view;
#X msg 927 864 1;
#X obj 928 837 t b;
#X obj 964 837 t b;
#X msg 963 864 0;
#X msg 1032 896 move \$2 \$1;
#X obj 1034 746 tgl 15 0 empty empty empty 17 7 0 10 -262144 -1 -1
0 1;
#X obj 1032 841 * 224;
#X obj 1071 777 s ball1-s-delmod;
#X obj 1032 869 pack 0 96;
#X obj 1210 936 rj_image p-64.png;
#X msg 1205 882 visible \$1;
#X obj 1205 767 r view;
#X msg 1201 853 1;
#X obj 1202 826 t b;
#X obj 1238 826 t b;
#X msg 1237 853 0;
#X msg 1306 885 move \$2 \$1;
#X obj 1308 735 tgl 15 0 empty empty empty 17 7 0 10 -262144 -1 -1
0 1;
#X obj 1306 830 * 224;
#X obj 1345 766 s ball1-2ndosc;
#X obj 1306 858 pack 0 160;
#X obj 1209 677 rj_image p-64.png;
#X msg 1204 623 visible \$1;
#X obj 1204 508 r view;
#X msg 1200 594 1;
#X obj 1201 567 t b;
#X obj 1237 567 t b;
#X msg 1236 594 0;
#X msg 1305 626 move \$2 \$1;
#X obj 1307 476 tgl 15 0 empty empty empty 17 7 0 10 -262144 -1 -1
1 1;
#X obj 1305 571 * 224;
#X obj 1305 599 pack 0 224;
#X obj 1202 530 sel 2;
#X obj 1203 789 sel 2;
#X obj 929 800 sel 2;
#X obj 735 774 sel 2;
#X obj 462 803 sel 2;
#X obj 215 792 sel 2;
#X obj 22 731 sel 2;
#X obj 457 17 sel 2;
#X obj 1371 471 s penta;
#X obj 837 361 r sound-reset;
#X obj 517 285 20pxsliderSND 2;
#X obj 375 286 20pxsliderSND 1;
#X obj 678 283 20pxsliderSND 3;
#X obj 157 316 20pxsliderSND 0;
#X obj 227 535 r 5-sound-slider;
#X obj 188 512 r 4-sound-slider;
#X obj 901 556 r 6-sound-slider;
#X obj 940 578 r 7-sound-slider;
#X obj 1177 117 r 8-sound-slider;
#X obj 1216 138 r 9-sound-slider;
#X obj 116 710 sel 0 1;
#X msg 152 739 1;
#X msg 107 740 12;
#X obj 291 770 sel 0 1;
#X msg 331 801 1;
#X obj 523 754 sel 0 1;
#X msg 566 792 1;
#X msg 524 788 12;
#X obj 808 742 sel 0 1;
#X msg 844 774 1;
#X msg 799 772 12;
#X obj 1087 806 sel 0 1;
#X msg 1123 835 1;
#X msg 1078 836 12;
#X obj 1283 771 sel 0 1;
#X msg 1319 800 1;
#X msg 1274 801 12;
#X obj 1364 511 sel 0 1;
#X msg 1400 540 1;
#X msg 1355 541 12;
#X msg 287 803 12;
#X msg 568 646 0;
#X msg 1106 679 0;
#X connect 1 0 0 0;
#X connect 3 0 2 0;
#X connect 4 0 94 0;
#X connect 4 0 132 0;
#X connect 4 0 57 0;
#X connect 7 0 8 0;
#X connect 7 1 8 1;
#X connect 8 0 9 0;
#X connect 9 0 6 0;
#X connect 9 0 145 1;
#X connect 10 0 18 0;
#X connect 11 1 12 0;
#X connect 11 2 12 0;
#X connect 12 1 13 0;
#X connect 12 2 16 0;
#X connect 14 0 16 0;
#X connect 15 0 13 0;
#X connect 16 0 10 0;
#X connect 17 0 11 0;
#X connect 18 0 13 1;
#X connect 19 0 20 0;
#X connect 20 0 27 0;
#X connect 21 0 27 0;
#X connect 22 0 142 0;
#X connect 23 0 21 0;
#X connect 24 0 23 0;
#X connect 25 0 26 0;
#X connect 26 0 21 0;
#X connect 28 0 29 0;
#X connect 29 0 148 0;
#X connect 30 0 148 1;
#X connect 31 0 32 0;
#X connect 32 0 146 0;
#X connect 33 0 34 0;
#X connect 33 1 34 1;
#X connect 34 0 35 0;
#X connect 35 0 36 0;
#X connect 35 0 146 1;
#X connect 37 0 145 0;
#X connect 39 0 37 0;
#X connect 40 0 41 0;
#X connect 41 0 147 0;
#X connect 43 0 42 0;
#X connect 43 0 147 1;
#X connect 44 0 46 0;
#X connect 45 0 44 0;
#X connect 46 0 57 0;
#X connect 46 1 67 0;
#X connect 46 2 79 0;
#X connect 48 0 47 0;
#X connect 49 0 141 0;
#X connect 50 0 48 0;
#X connect 51 0 50 0;
#X connect 52 0 53 0;
#X connect 53 0 48 0;
#X connect 54 0 47 0;
#X connect 55 0 54 0;
#X connect 56 0 55 0;
#X connect 57 0 68 0;
#X connect 57 0 155 0;
#X connect 59 0 58 0;
#X connect 60 0 140 0;
#X connect 61 0 59 0;
#X connect 62 0 61 0;
#X connect 63 0 64 0;
#X connect 64 0 59 0;
#X connect 65 0 58 0;
#X connect 66 0 69 0;
#X connect 67 0 5 0;
#X connect 67 0 158 0;
#X connect 69 0 65 0;
#X connect 71 0 70 0;
#X connect 72 0 139 0;
#X connect 73 0 71 0;
#X connect 74 0 73 0;
#X connect 75 0 76 0;
#X connect 76 0 71 0;
#X connect 77 0 70 0;
#X connect 78 0 81 0;
#X connect 79 0 80 0;
#X connect 79 0 160 0;
#X connect 81 0 77 0;
#X connect 82 0 84 0;
#X connect 83 0 82 0;
#X connect 84 0 94 0;
#X connect 84 1 108 0;
#X connect 84 2 120 0;
#X connect 84 3 132 0;
#X connect 86 0 85 0;
#X connect 87 0 138 0;
#X connect 88 0 86 0;
#X connect 89 0 88 0;
#X connect 90 0 91 0;
#X connect 91 0 86 0;
#X connect 92 0 85 0;
#X connect 93 0 92 0;
#X connect 94 0 98 0;
#X connect 94 0 163 0;
#X connect 95 0 96 0;
#X connect 96 0 97 0;
#X connect 99 0 93 0;
#X connect 101 0 100 0;
#X connect 102 0 137 0;
#X connect 103 0 101 0;
#X connect 104 0 103 0;
#X connect 105 0 106 0;
#X connect 106 0 101 0;
#X connect 107 0 100 0;
#X connect 108 0 110 0;
#X connect 108 0 166 0;
#X connect 109 0 111 0;
#X connect 111 0 107 0;
#X connect 113 0 112 0;
#X connect 114 0 136 0;
#X connect 115 0 113 0;
#X connect 116 0 115 0;
#X connect 117 0 118 0;
#X connect 118 0 113 0;
#X connect 119 0 112 0;
#X connect 120 0 122 0;
#X connect 120 0 169 0;
#X connect 121 0 123 0;
#X connect 123 0 119 0;
#X connect 125 0 124 0;
#X connect 126 0 135 0;
#X connect 127 0 125 0;
#X connect 128 0 127 0;
#X connect 129 0 130 0;
#X connect 130 0 125 0;
#X connect 131 0 124 0;
#X connect 132 0 143 0;
#X connect 132 0 172 0;
#X connect 133 0 134 0;
#X connect 134 0 131 0;
#X connect 135 0 128 0;
#X connect 135 1 129 0;
#X connect 136 0 116 0;
#X connect 136 1 117 0;
#X connect 137 0 104 0;
#X connect 137 1 105 0;
#X connect 138 0 89 0;
#X connect 138 1 90 0;
#X connect 139 0 74 0;
#X connect 139 1 75 0;
#X connect 140 0 62 0;
#X connect 140 1 63 0;
#X connect 141 0 51 0;
#X connect 141 1 52 0;
#X connect 142 0 24 0;
#X connect 142 1 25 0;
#X connect 144 0 4 0;
#X connect 144 0 176 0;
#X connect 144 0 177 0;
#X connect 145 0 7 0;
#X connect 146 0 33 0;
#X connect 147 0 43 0;
#X connect 148 0 3 0;
#X connect 148 0 30 0;
#X connect 149 0 45 0;
#X connect 150 0 45 0;
#X connect 151 0 83 0;
#X connect 152 0 83 0;
#X connect 153 0 95 0;
#X connect 154 0 95 0;
#X connect 155 0 157 0;
#X connect 155 1 156 0;
#X connect 156 0 56 0;
#X connect 157 0 56 0;
#X connect 158 0 175 0;
#X connect 158 1 159 0;
#X connect 159 0 66 0;
#X connect 160 0 162 0;
#X connect 160 1 161 0;
#X connect 161 0 78 0;
#X connect 162 0 78 0;
#X connect 163 0 165 0;
#X connect 163 1 164 0;
#X connect 164 0 99 0;
#X connect 165 0 99 0;
#X connect 166 0 168 0;
#X connect 166 1 167 0;
#X connect 167 0 109 0;
#X connect 168 0 109 0;
#X connect 169 0 171 0;
#X connect 169 1 170 0;
#X connect 170 0 121 0;
#X connect 171 0 121 0;
#X connect 172 0 174 0;
#X connect 172 1 173 0;
#X connect 173 0 133 0;
#X connect 174 0 133 0;
#X connect 175 0 66 0;
#X connect 176 0 79 0;
#X connect 176 0 67 0;
#X connect 177 0 108 0;
#X connect 177 0 120 0;
#X restore 95 391 pd soundprefs;
#X obj 162 529 gridblinkping grid1;
#X text 27 861 grg at stillavailable.com;
#X text 19 843 Georg Bosch 2009;
#X obj 755 677 gridblinkping grid2;
#X obj 74 141 s sound-reset;
#X connect 1 0 64 4;
#X connect 3 0 1 0;
#X connect 3 0 56 0;
#X connect 3 1 21 0;
#X connect 3 2 29 0;
#X connect 4 0 19 1;
#X connect 5 0 19 0;
#X connect 6 0 5 0;
#X connect 7 0 12 0;
#X connect 9 0 11 0;
#X connect 11 0 10 0;
#X connect 12 0 10 0;
#X connect 13 0 64 5;
#X connect 14 0 13 0;
#X connect 14 1 31 0;
#X connect 14 2 30 0;
#X connect 15 0 16 0;
#X connect 16 0 20 0;
#X connect 19 0 66 0;
#X connect 21 0 7 0;
#X connect 21 0 71 0;
#X connect 21 2 24 1;
#X connect 21 2 64 2;
#X connect 22 0 23 0;
#X connect 26 0 32 0;
#X connect 26 0 64 1;
#X connect 27 0 41 1;
#X connect 28 0 41 0;
#X connect 29 0 7 1;
#X connect 29 0 71 1;
#X connect 29 2 24 1;
#X connect 29 2 64 2;
#X connect 30 0 15 1;
#X connect 30 0 74 1;
#X connect 30 2 25 1;
#X connect 30 2 64 3;
#X connect 31 0 15 0;
#X connect 31 0 74 0;
#X connect 31 2 25 1;
#X connect 31 2 64 3;
#X connect 33 0 43 1;
#X connect 34 0 43 0;
#X connect 35 0 27 0;
#X connect 35 0 33 0;
#X connect 36 0 33 1;
#X connect 36 0 34 1;
#X connect 37 0 28 1;
#X connect 37 0 27 1;
#X connect 39 0 28 0;
#X connect 39 0 34 0;
#X connect 39 1 35 0;
#X connect 39 2 22 0;
#X connect 40 0 39 0;
#X connect 41 0 42 0;
#X connect 41 1 42 1;
#X connect 42 0 2 0;
#X connect 42 1 0 0;
#X connect 43 0 44 0;
#X connect 43 1 44 1;
#X connect 44 0 17 0;
#X connect 44 1 18 0;
#X connect 46 0 45 0;
#X connect 46 1 47 0;
#X connect 46 2 70 0;
#X connect 49 0 50 0;
#X connect 49 0 52 0;
#X connect 49 0 51 0;
#X connect 49 0 75 0;
#X connect 50 0 48 0;
#X connect 53 0 54 1;
#X connect 54 0 14 0;
#X connect 55 0 56 1;
#X connect 56 0 26 0;
#X connect 57 0 58 0;
#X connect 58 0 20 0;
#X connect 59 0 60 0;
#X connect 60 0 74 2;
#X connect 63 0 62 0;
#X connect 64 0 69 0;
#X connect 65 0 64 1;
#X connect 66 0 64 0;
#X connect 66 1 54 0;
#X connect 66 1 3 0;
#X connect 71 0 67 0;
#X connect 74 0 68 0;
