#N canvas 22 94 1057 859 10;
#X obj 732 689 r \$2-acc;
#X text 629 212 arg 1: name (i.e. ball);
#X text 661 746 accel;
#X obj 615 743 + 0;
#X obj 615 718 * 0.97;
#X text 660 718 science friction;
#X text 802 818 (vel on bounce);
#X text 802 800 boing;
#X obj 654 549 print \$2-after;
#X obj 662 432 print \$2-before;
#X obj 404 647 print \$2-normal;
#X obj 603 478 r \$1-contact;
#X text 612 507 looses speed on contact;
#X obj 557 508 * 0.9;
#X obj 505 272 t b b;
#X obj 362 324 t b b;
#X obj 345 95 r \$2-pos;
#X text 289 66 bang;
#X text 645 61 delta;
#X text 589 816 delta;
#X text 280 716 pos;
#X text 256 800 reset to border! (else outsider with high deltas);
#X msg 654 101 0;
#X obj 661 80 loadbang;
#X obj 622 130 v \$2-delta;
#X text 573 393 near borders;
#X text 381 483 not near borders;
#X obj 310 639 + 0;
#X obj 310 152 t f f;
#X obj 400 499 t b;
#X obj 400 521 v \$2-delta;
#X obj 507 192 - 0;
#X msg 507 171 320;
#X obj 507 148 t b f;
#X obj 487 84 loadbang;
#X obj 487 107 f \$3;
#X obj 400 235 moses 310;
#X obj 354 211 moses 10;
#X obj 310 126 f 160;
#X text 600 461 reverse direction;
#X obj 559 539 t f f f;
#X obj 615 771 v \$2-delta;
#X obj 559 478 - 0;
#X msg 559 457 0;
#X obj 559 434 t b f;
#X obj 559 411 v \$2-delta;
#X text 629 238 arg 2: name+dim (i.e. ballx);
#X obj 295 83 inlet;
#X obj 622 79 inlet;
#X obj 259 739 outlet;
#X obj 589 798 outlet;
#X obj 800 777 outlet;
#X msg 498 478 320;
#X obj 498 509 - \$3;
#X obj 362 406 f \$3;
#X obj 498 455 t b;
#X obj 321 683 v \$2-pos;
#X obj 886 494 r z-abs;
#X obj 886 544 * 1;
#X obj 900 519 r \$1-fric;
#X obj 886 611 - 0;
#X obj 886 567 t b f;
#X msg 886 590 1;
#X text 629 266 arg 3: radius (float);
#X connect 0 0 3 1;
#X connect 3 0 41 0;
#X connect 3 0 50 0;
#X connect 4 0 3 0;
#X connect 11 0 13 1;
#X connect 13 0 40 0;
#X connect 14 0 45 0;
#X connect 14 1 55 0;
#X connect 15 0 45 0;
#X connect 15 1 54 0;
#X connect 16 0 38 0;
#X connect 22 0 24 0;
#X connect 23 0 22 0;
#X connect 27 0 38 1;
#X connect 27 0 49 0;
#X connect 27 0 56 0;
#X connect 28 0 37 0;
#X connect 28 1 27 1;
#X connect 29 0 30 0;
#X connect 30 0 27 0;
#X connect 30 0 4 0;
#X connect 31 0 36 1;
#X connect 32 0 31 0;
#X connect 33 0 32 0;
#X connect 33 1 31 1;
#X connect 34 0 35 0;
#X connect 35 0 37 1;
#X connect 35 0 33 0;
#X connect 36 0 29 0;
#X connect 36 1 14 0;
#X connect 37 0 15 0;
#X connect 37 1 36 0;
#X connect 38 0 28 0;
#X connect 40 0 27 0;
#X connect 40 1 4 0;
#X connect 40 1 51 0;
#X connect 42 0 13 0;
#X connect 43 0 42 0;
#X connect 44 0 43 0;
#X connect 44 1 42 1;
#X connect 45 0 44 0;
#X connect 47 0 38 0;
#X connect 48 0 24 0;
#X connect 52 0 53 0;
#X connect 53 0 27 1;
#X connect 54 0 27 1;
#X connect 55 0 52 0;
#X connect 57 0 58 0;
#X connect 58 0 61 0;
#X connect 59 0 58 1;
#X connect 60 0 4 1;
#X connect 61 0 62 0;
#X connect 61 1 60 1;
#X connect 62 0 60 0;
