#N canvas 0 22 1152 925 10;
#X obj 353 164 spigot;
#X obj 100 57 inlet;
#X obj 508 455 -;
#X obj 579 456 -;
#X obj 370 229 t b b b b;
#X obj 549 513 normal+;
#X obj 618 705 *;
#X obj 486 767 /;
#X obj 454 765 /;
#X text 931 688 2;
#X text 842 693 masses ignored \, /r (?);
#X obj 75 693 +;
#X obj 196 696 +;
#X obj 275 201 sel 0;
#X msg 260 337 0;
#X obj 158 56 inlet;
#X obj 158 83 t f b;
#X obj 83 747 outlet;
#X obj 198 752 outlet;
#X text 602 105 add finger gravity to accel gravity;
#X obj 279 293 loadbang;
#X obj 595 744 * 1;
#X obj 609 667 t f f;
#X obj 607 634 * 0.01;
#X obj 598 573 t b;
#X msg 729 560 set \$1;
#X obj 597 550 moses 30;
#X msg 596 601 30;
#X obj 702 709 loadbang;
#X text 821 215 1 finger1;
#X text 821 241 2 ball1x;
#X text 824 269 3 ball1y;
#X obj 376 356 v \$1-x;
#X obj 548 352 v \$1-y;
#X obj 454 355 v \$2-pos;
#X obj 731 520 r \$1-gravitypxlimit;
#X obj 705 671 r \$1-gravity;
#X obj 385 85 r \$1-on;
#X obj 702 353 v \$3-pos;
#X msg 703 748 7;
#X connect 0 0 4 0;
#X connect 1 0 11 0;
#X connect 2 0 5 0;
#X connect 3 0 5 1;
#X connect 4 0 32 0;
#X connect 4 1 34 0;
#X connect 4 2 33 0;
#X connect 4 3 38 0;
#X connect 5 0 8 0;
#X connect 5 1 7 0;
#X connect 5 2 26 0;
#X connect 6 0 21 0;
#X connect 7 0 12 1;
#X connect 8 0 11 1;
#X connect 11 0 17 0;
#X connect 12 0 18 0;
#X connect 13 0 14 0;
#X connect 14 0 12 1;
#X connect 14 0 11 1;
#X connect 15 0 16 0;
#X connect 16 0 12 0;
#X connect 16 1 0 0;
#X connect 20 0 14 0;
#X connect 21 0 7 1;
#X connect 21 0 8 1;
#X connect 22 0 6 0;
#X connect 22 1 6 1;
#X connect 23 0 22 0;
#X connect 24 0 27 0;
#X connect 25 0 27 0;
#X connect 26 0 24 0;
#X connect 26 1 23 0;
#X connect 27 0 23 0;
#X connect 28 0 39 0;
#X connect 32 0 2 0;
#X connect 33 0 3 0;
#X connect 34 0 2 1;
#X connect 35 0 25 0;
#X connect 35 0 26 1;
#X connect 36 0 21 1;
#X connect 37 0 0 1;
#X connect 37 0 13 0;
#X connect 38 0 3 1;
#X connect 39 0 21 1;
