#N canvas 214 48 996 876 10;
#X obj 114 59 / 46;
#X obj 114 82 i;
#X obj 140 151 sel 1 3 5;
#X obj 199 48 / 46;
#X obj 199 71 i;
#X obj 244 149 sel 1 3 5;
#X obj 130 192 t b;
#X obj 166 189 t b;
#X obj 165 209 0;
#X msg 129 215 1;
#X obj 225 266 &&;
#X obj 266 182 t b;
#X msg 265 205 1;
#X obj 298 179 t b;
#X obj 297 199 0;
#X obj 75 6 inlet;
#X obj 198 23 inlet;
#X obj 246 578 loadbang;
#X obj 69 469 pack f f;
#X msg 69 502 move \$1 \$2 \, visible 1;
#X msg 254 612 move -53 -53 \, visible 0;
#X msg 238 488 visible 0;
#X obj 193 666 rj_image 48weiss.png;
#X obj 114 113 t f f;
#X obj 199 94 t f f;
#X obj 52 404 * 46;
#X obj 52 428 + 23;
#X obj 53 371 f;
#X obj 152 404 * 46;
#X obj 152 428 + 23;
#X obj 153 371 f;
#X obj 186 345 sel 1 0;
#X obj 223 296 change;
#X obj 520 53 inlet;
#X obj 375 742 pack 0 0 0;
#X obj 366 805 outlet;
#X obj 96 30 spigot;
#X obj 136 3 r grid-on;
#X connect 0 0 1 0;
#X connect 1 0 23 0;
#X connect 2 0 6 0;
#X connect 2 1 6 0;
#X connect 2 2 6 0;
#X connect 2 3 7 0;
#X connect 3 0 4 0;
#X connect 4 0 24 0;
#X connect 5 0 11 0;
#X connect 5 1 11 0;
#X connect 5 2 11 0;
#X connect 5 3 13 0;
#X connect 6 0 9 0;
#X connect 7 0 8 0;
#X connect 8 0 10 0;
#X connect 9 0 10 0;
#X connect 10 0 32 0;
#X connect 11 0 12 0;
#X connect 12 0 10 1;
#X connect 13 0 14 0;
#X connect 14 0 10 1;
#X connect 15 0 36 0;
#X connect 16 0 3 0;
#X connect 17 0 20 0;
#X connect 18 0 19 0;
#X connect 19 0 22 0;
#X connect 20 0 22 0;
#X connect 21 0 22 0;
#X connect 23 0 2 0;
#X connect 23 1 27 1;
#X connect 24 0 5 0;
#X connect 24 1 30 1;
#X connect 25 0 26 0;
#X connect 26 0 18 0;
#X connect 27 0 25 0;
#X connect 27 0 34 1;
#X connect 28 0 29 0;
#X connect 29 0 18 1;
#X connect 30 0 28 0;
#X connect 30 0 34 2;
#X connect 31 0 30 0;
#X connect 31 0 27 0;
#X connect 31 1 21 0;
#X connect 32 0 31 0;
#X connect 32 0 34 0;
#X connect 33 0 21 0;
#X connect 34 0 35 0;
#X connect 36 0 0 0;
#X connect 37 0 36 1;
