#N canvas 321 248 557 562 10;
#X obj 125 347 outlet;
#X obj 326 252 sqrt;
#X obj 365 163 *;
#X obj 232 167 *;
#X obj 326 214 +;
#X text 362 213 pythagoras again;
#X obj 80 30 inlet;
#X obj 144 28 inlet;
#X obj 198 65 t f f f;
#X obj 85 69 t f f f;
#X obj 127 300 /;
#X obj 187 303 /;
#X obj 196 347 outlet;
#X text 255 22 normalize vector;
#X obj 388 345 outlet;
#X text 399 325 length;
#X connect 1 0 11 1;
#X connect 1 0 10 1;
#X connect 1 0 14 0;
#X connect 2 0 4 1;
#X connect 3 0 4 0;
#X connect 4 0 1 0;
#X connect 6 0 9 0;
#X connect 7 0 8 0;
#X connect 8 0 11 0;
#X connect 8 1 2 0;
#X connect 8 2 2 1;
#X connect 9 0 10 0;
#X connect 9 1 3 0;
#X connect 9 2 3 1;
#X connect 10 0 0 0;
#X connect 11 0 12 0;
