#N canvas 195 54 1002 846 10;
#X obj 221 232 mod 12;
#X obj 169 273 / 12;
#X obj 168 295 i;
#X floatatom 118 337 5 0 0 0 - - -;
#X obj 261 517 +;
#X obj 229 202 t f f;
#X floatatom 302 537 5 0 0 0 - - -;
#X obj 261 560 mtof;
#X obj 330 177 ftom;
#X obj 281 246 moses 9;
#X obj 363 314 moses 7;
#X obj 461 327 t b;
#X msg 460 351 9;
#X obj 174 320 * 12;
#X obj 408 338 t b;
#X msg 407 362 7;
#X obj 379 370 t b;
#X obj 334 346 moses 4;
#X msg 378 394 4;
#X obj 322 401 t b;
#X msg 321 425 2;
#X obj 272 377 moses 2;
#X obj 269 407 t b;
#X msg 268 431 0;
#X obj 498 26 r penta;
#X obj 342 124 spigot;
#X obj 294 71 inlet;
#X obj 682 85 - 1;
#X obj 690 119 abs;
#X obj 608 138 spigot;
#X obj 548 693 outlet;
#X connect 0 0 9 0;
#X connect 1 0 2 0;
#X connect 2 0 3 0;
#X connect 2 0 13 0;
#X connect 4 0 6 0;
#X connect 4 0 7 0;
#X connect 5 0 1 0;
#X connect 5 1 0 0;
#X connect 6 0 7 0;
#X connect 7 0 30 0;
#X connect 8 0 5 0;
#X connect 9 0 10 0;
#X connect 9 1 11 0;
#X connect 10 0 17 0;
#X connect 10 1 14 0;
#X connect 11 0 12 0;
#X connect 12 0 4 1;
#X connect 13 0 4 0;
#X connect 14 0 15 0;
#X connect 15 0 4 1;
#X connect 16 0 18 0;
#X connect 17 0 21 0;
#X connect 17 1 16 0;
#X connect 18 0 4 1;
#X connect 19 0 20 0;
#X connect 20 0 4 1;
#X connect 21 0 22 0;
#X connect 21 1 19 0;
#X connect 22 0 23 0;
#X connect 23 0 4 1;
#X connect 24 0 25 1;
#X connect 24 0 27 0;
#X connect 25 0 8 0;
#X connect 26 0 25 0;
#X connect 26 0 29 0;
#X connect 27 0 28 0;
#X connect 28 0 29 1;
#X connect 29 0 30 0;
