#N canvas 30 322 557 562 10;
#X obj 124 335 outlet;
#X obj 125 277 sqrt;
#X obj 144 31 inlet;
#X text 298 277 vector length;
#X obj 159 141 *;
#X obj 120 192 +;
#X obj 143 66 t f f;
#X obj 82 31 inlet;
#X obj 97 141 *;
#X obj 81 66 t f f;
#X connect 1 0 0 0;
#X connect 2 0 6 0;
#X connect 4 0 5 1;
#X connect 5 0 1 0;
#X connect 6 0 4 0;
#X connect 6 1 4 1;
#X connect 7 0 9 0;
#X connect 8 0 5 0;
#X connect 9 0 8 0;
#X connect 9 1 8 1;
