#N canvas 122 319 539 521 10;
#X obj 91 70 inlet;
#X obj 212 57 inlet;
#X obj 154 312 outlet;
#X obj 314 58 inlet;
#X obj 433 60 inlet;
#X obj 104 173 *;
#X obj 263 185 *;
#X text 99 16 x1;
#X text 217 13 y1;
#X text 328 17 x2;
#X text 443 18 y2;
#X text 426 293 dot product;
#X obj 153 231 +;
#X connect 0 0 5 0;
#X connect 1 0 6 0;
#X connect 3 0 5 1;
#X connect 4 0 6 1;
#X connect 5 0 12 0;
#X connect 6 0 12 1;
#X connect 12 0 2 0;
