#N canvas 7 362 863 533 10;
#X obj 296 156 cputime;
#X obj 296 100 metro 1000;
#X obj 296 128 t b b;
#X obj 296 216 * 0.1;
#X obj 296 185 int;
#X text 356 62 <-- on/off;
#X text 229 272 CPU load in percent;
#X obj 296 16 inlet;
#X obj 296 241 outlet;
#X text 423 259 by Miller S. Puckette;
#X floatatom 201 103 5 0 0 0 - - -;
#X obj 184 103 tgl 14 0 \$0-on \$0-on empty 17 7 0 10 -262144 -1 -1
1 1;
#X obj 296 65 r \$0-on;
#X obj 296 39 s \$0-on;
#N canvas 499 399 661 487 showload 1;
#X obj 252 75 inlet;
#X floatatom 309 110 5 0 0 0 - - -;
#X msg 252 167 text \$1;
#X obj 252 100 int;
#X msg 380 61 32;
#X obj 380 36 loadbang;
#X text 418 63 SPACE char.;
#X msg 380 112 set \$1;
#X obj 380 89 makefilename LOAD:%c%%g;
#X obj 252 387 rj_text LOAD;
#X obj 252 139 makefilename %g%%_load;
#X obj 68 76 inlet;
#X msg 68 167 move 800 800;
#X obj 68 110 select 0 1;
#X obj 270 308 loadbang;
#X obj 110 140 loadbang;
#X msg 270 337 size 12;
#X msg 101 190 move 320 10;
#X obj 393 200 r txt;
#X connect 0 0 3 0;
#X connect 1 0 10 0;
#X connect 2 0 9 0;
#X connect 3 0 10 0;
#X connect 4 0 8 0;
#X connect 5 0 4 0;
#X connect 7 0 10 0;
#X connect 8 0 7 0;
#X connect 10 0 2 0;
#X connect 11 0 13 0;
#X connect 12 0 9 0;
#X connect 13 0 12 0;
#X connect 13 1 17 0;
#X connect 14 0 16 0;
#X connect 15 0 12 0;
#X connect 16 0 9 0;
#X connect 17 0 9 0;
#X connect 18 0 9 0;
#X restore 133 296 pd showload;
#X text 221 297 show with rj_image;
#X obj 133 240 r \$0-on;
#X obj 133 267 f 1;
#X connect 0 0 4 0;
#X connect 1 0 2 0;
#X connect 2 0 0 0;
#X connect 2 1 0 1;
#X connect 3 0 8 0;
#X connect 3 0 10 0;
#X connect 3 0 14 1;
#X connect 4 0 3 0;
#X connect 7 0 13 0;
#X connect 12 0 1 0;
#X connect 16 0 17 0;
#X connect 17 0 14 0;
#X coords 0 -1 1 1 140 20 1 100 100;
