#N canvas 230 196 698 477 10;
#X obj 183 233 pack 0 50;
#X obj 166 295 *~;
#X obj 72 231 pack 0 50;
#X obj 55 293 *~;
#X obj 183 259 line~;
#X obj 72 256 line~;
#X obj 248 128 * 1.5708;
#X obj 55 24 inlet~;
#X obj 165 24 inlet~;
#X obj 56 362 outlet~;
#X obj 248 23 inlet;
#X obj 292 22 loadbang;
#X obj 292 67 f \$1;
#X obj 72 202 cos;
#X obj 183 198 sin;
#X obj 338 71 atan;
#X msg 338 45 1;
#X obj 338 96 * 2;
#X obj 292 46 t b b;
#X text 319 128 * M_PI/2;
#X connect 0 0 4 0;
#X connect 1 0 9 0;
#X connect 2 0 5 0;
#X connect 3 0 9 0;
#X connect 4 0 1 1;
#X connect 5 0 3 1;
#X connect 6 0 13 0;
#X connect 6 0 14 0;
#X connect 7 0 3 0;
#X connect 8 0 1 0;
#X connect 10 0 6 0;
#X connect 11 0 18 0;
#X connect 12 0 6 0;
#X connect 13 0 2 0;
#X connect 14 0 0 0;
#X connect 15 0 17 0;
#X connect 16 0 15 0;
#X connect 17 0 6 1;
#X connect 18 0 12 0;
#X connect 18 1 16 0;
