#N canvas 362 64 674 824 10;
#X obj 155 199 c_ead 3 4;
#X text 84 16 c_ead;
#X text 108 60 Attack portion is convex \, decay is concave.;
#X text 112 90 Arguments: <attack in ms> <decay in ms>;
#X text 111 111 Inlets: <trigger-bang> <attack in ms> <decay in ms>
;
#X obj 154 250 tabwrite~ \$0-env;
#N canvas 0 0 450 300 (subpatch) 0;
#X array \$0-env 1000 float 2;
#X coords 0 1 1000 -1 200 140 1;
#X restore 323 151 graph;
#X msg 118 162 bang;
#X floatatom 215 171 5 0 0 1 decay - -;
#X floatatom 185 148 5 0 0 1 attack - -;
#X text 107 36 Exponential (actually quadric) attack/decay envelope.
;
#X floatatom 208 490 5 0 0 1 decay - -;
#X floatatom 171 463 5 0 0 1 attack - -;
#X obj 133 646 *~;
#X obj 238 599 osc~;
#X obj 187 718 soundoutput;
#X obj 134 524 c_ead 3 200;
#X obj 287 601 phasor~;
#X obj 134 439 bng 24 250 50 0 empty empty empty 17 7 0 10 -262144
-1 -1;
#X floatatom 448 491 5 0 0 1 decay - -;
#X floatatom 411 464 5 0 0 1 attack - -;
#X obj 373 647 *~;
#X obj 391 618 osc~;
#X obj 374 440 bng 24 250 50 0 empty empty empty 17 7 0 10 -262144
-1 -1;
#X obj 390 596 +~ 50;
#X obj 236 552 *~ 400;
#X obj 372 669 *~ 0.9;
#X obj 152 554 noise~;
#X obj 237 577 +~ 200;
#N canvas 0 0 520 425 pass50 0;
#X obj 104 112 random 100;
#X obj 104 182 sel 1;
#X obj 104 226 outlet;
#X obj 104 53 inlet;
#X obj 209 53 inlet;
#X obj 104 135 < 50;
#X connect 0 0 5 0;
#X connect 1 0 2 0;
#X connect 3 0 0 0;
#X connect 4 0 5 1;
#X connect 5 0 1 0;
#X restore 134 418 pd pass50;
#X obj 134 339 c_multimetro 2 250;
#X obj 134 366 select 1 0;
#X obj 134 317 tgl 15 0 empty empty empty 17 7 0 10 -262144 -1 -1 1
1;
#X obj 151 602 bp~ 1500 3;
#X text 117 285 It's nice for drum sounds:;
#N canvas 0 0 520 425 pass90 0;
#X obj 104 112 random 100;
#X obj 104 182 sel 1;
#X obj 104 226 outlet;
#X obj 104 53 inlet;
#X obj 209 53 inlet;
#X obj 104 135 < 90;
#X connect 0 0 5 0;
#X connect 1 0 2 0;
#X connect 3 0 0 0;
#X connect 4 0 5 1;
#X connect 5 0 1 0;
#X restore 374 416 pd pass90;
#X obj 389 571 *~ 150;
#X obj 288 579 +~ 403;
#X obj 374 525 c_ead 1 400;
#X obj 132 668 *~ 0.7;
#X connect 0 0 5 0;
#X connect 7 0 0 0;
#X connect 7 0 5 0;
#X connect 8 0 0 2;
#X connect 9 0 0 1;
#X connect 11 0 16 2;
#X connect 12 0 16 1;
#X connect 13 0 39 0;
#X connect 14 0 13 1;
#X connect 16 0 13 0;
#X connect 16 0 25 0;
#X connect 17 0 13 1;
#X connect 18 0 16 0;
#X connect 19 0 38 2;
#X connect 20 0 38 1;
#X connect 21 0 26 0;
#X connect 22 0 21 1;
#X connect 23 0 38 0;
#X connect 24 0 22 0;
#X connect 25 0 28 0;
#X connect 25 0 37 0;
#X connect 26 0 15 1;
#X connect 26 0 15 0;
#X connect 27 0 33 0;
#X connect 28 0 14 0;
#X connect 29 0 18 0;
#X connect 30 0 31 0;
#X connect 31 0 29 0;
#X connect 31 1 35 0;
#X connect 32 0 30 0;
#X connect 33 0 13 1;
#X connect 35 0 23 0;
#X connect 36 0 24 0;
#X connect 37 0 17 0;
#X connect 38 0 21 0;
#X connect 38 0 36 0;
#X connect 39 0 15 0;
#X connect 39 0 15 1;
