#N canvas 262 185 683 585 10;
#X obj 192 346 list;
#X obj 412 54 inlet;
#X obj 444 212 list length;
#X obj 412 168 t a a;
#X obj 192 403 list split 1;
#X msg 232 432 \$1;
#X obj 273 301 f 0;
#X obj 301 301 + 1;
#X obj 273 350 mod 1;
#X obj 121 331 delay;
#X obj 192 221 t b b;
#X obj 373 453 outlet;
#X obj 192 169 select 1 0;
#X obj 52 53 inlet;
#X msg 225 194 stop;
#X obj 361 53 inlet;
#X obj 432 102 loadbang;
#X obj 432 134 f \$2;
#X msg 95 112 1;
#X msg 138 111 0;
#X text 51 31 control;
#X text 354 33 length;
#X text 413 33 period(s);
#N canvas 0 0 660 452 mod-or-not 0;
#N canvas 0 0 450 300 demux 0;
#X obj 98 49 inlet;
#X obj 206 48 inlet;
#X obj 98 211 outlet;
#X obj 196 209 outlet;
#X obj 98 181 spigot 1;
#X obj 196 180 spigot 0;
#X obj 151 156 == 0;
#X connect 0 0 4 0;
#X connect 0 0 5 0;
#X connect 1 0 6 0;
#X connect 1 0 5 1;
#X connect 4 0 2 0;
#X connect 5 0 3 0;
#X connect 6 0 4 1;
#X restore 118 184 pd demux;
#X obj 170 205 mod \$1;
#X obj 171 96 t a a;
#X obj 118 256 outlet;
#X obj 118 77 inlet;
#X obj 171 74 inlet;
#X text 218 71 mod: if mod = 0 \, then don't apply mod at all;
#X connect 0 0 3 0;
#X connect 0 1 1 0;
#X connect 1 0 3 0;
#X connect 2 0 0 1;
#X connect 2 1 1 1;
#X connect 4 0 0 0;
#X connect 5 0 2 0;
#X restore 273 327 pd mod-or-not;
#X obj 361 136 f \$1;
#X obj 52 88 route set bang stop hold;
#X obj 373 423 f;
#N canvas 0 0 450 300 demux 0;
#X obj 72 80 inlet;
#X obj 193 77 inlet;
#X obj 154 178 spigot;
#X obj 72 179 spigot 1;
#X obj 72 215 outlet;
#X obj 154 215 outlet;
#X obj 125 114 ==;
#X connect 0 0 3 0;
#X connect 0 0 2 0;
#X connect 1 0 6 0;
#X connect 1 0 2 1;
#X connect 2 0 5 0;
#X connect 3 0 4 0;
#X connect 6 0 3 1;
#X restore 273 243 pd demux;
#X connect 0 0 4 0;
#X connect 1 0 3 0;
#X connect 2 0 8 1;
#X connect 3 0 0 1;
#X connect 3 1 2 0;
#X connect 4 1 5 0;
#X connect 5 0 9 0;
#X connect 6 0 23 0;
#X connect 7 0 6 1;
#X connect 8 0 4 1;
#X connect 9 0 10 0;
#X connect 10 0 0 0;
#X connect 10 1 27 0;
#X connect 12 0 10 0;
#X connect 12 1 14 0;
#X connect 13 0 25 0;
#X connect 14 0 9 0;
#X connect 15 0 24 0;
#X connect 16 0 17 0;
#X connect 16 0 24 0;
#X connect 17 0 3 0;
#X connect 18 0 12 0;
#X connect 19 0 12 0;
#X connect 23 0 11 0;
#X connect 23 0 8 0;
#X connect 23 0 7 0;
#X connect 23 0 26 1;
#X connect 24 0 23 1;
#X connect 25 0 6 1;
#X connect 25 1 18 0;
#X connect 25 2 19 0;
#X connect 25 3 27 1;
#X connect 25 4 12 0;
#X connect 26 0 11 0;
#X connect 27 0 6 0;
#X connect 27 1 26 0;
