#N canvas 81 159 1156 663 10;
#X msg 184 197 hh;
#X obj 110 365 soundoutput;
#X obj 111 105 metro 1000;
#X obj 111 74 tgl 15 0 empty empty empty 17 7 0 10 -262144 -1 -1 0
1;
#X floatatom 181 77 5 0 0 0 - - -;
#X obj 385 99 u_loadmeter;
#X msg 449 199 sn;
#X msg 365 193 bd;
#X msg 401 194 hh;
#X msg 111 197 sn;
#X msg 148 196 bd;
#X obj 111 279 e_softclip;
#X obj 328 317 soundoutput;
#X obj 111 234 s_drumelectro;
#X obj 299 483 e_repeater rep;
#X msg 559 368 125;
#X obj 111 128 random 4;
#X obj 111 167 select 0 1 2 3;
#X obj 448 416 loadbang;
#X msg 448 444 num 12 \, feedback 0.99;
#X msg 211 268 drive \$1;
#X floatatom 215 248 5 0 0 0 - - -;
#X msg 210 300 dry 0.7;
#X obj 436 353 random 3;
#X obj 431 375 + 1;
#X obj 455 329 b;
#X floatatom 421 485 5 0 0 0 - - -;
#X obj 295 110 f 0;
#X obj 330 107 + 1;
#X obj 299 142 mod 4;
#X obj 328 231 s_drumelectro;
#X obj 240 35 tgl 15 0 empty empty empty 17 7 0 10 -262144 -1 -1 0
1;
#X obj 234 86 b;
#X msg 359 31 140 120;
#X obj 428 398 * 130;
#N canvas 0 0 866 613 bass 0;
#X obj 162 263 s_osc s square;
#X obj 162 68 mtof;
#X msg 315 115 1;
#X obj 162 194 line~;
#X obj 162 167 pack 0 50;
#X obj 518 252 c_adsrj wobadsr;
#X obj 163 507 outlet~;
#X obj 163 402 *~;
#X obj 162 47 stripnote;
#X obj 163 23 inlet;
#X obj 261 47 unpack 0 0;
#X obj 514 319 *~;
#X floatatom 513 138 5 0 0 0 - - -;
#X floatatom 554 138 5 0 0 0 - - -;
#X obj 329 261 tgl 15 0 empty empty empty 17 7 0 10 -262144 -1 -1 0
1;
#X obj 345 281 tgl 15 0 empty empty empty 17 7 0 10 -262144 -1 -1 0
1;
#X msg 271 281 square \$1;
#X msg 270 261 sine \$1;
#X msg 295 234 1;
#X msg 336 235 1;
#X obj 371 237 loadbang;
#X obj 163 440 e_softclip xxx;
#X floatatom 262 317 5 0 0 0 - - -;
#X obj 163 293 e_lop2 1000 4;
#X obj 163 478 *~ 0.5;
#X obj 633 183 loadbang;
#X obj 315 163 m_scale 0 1 160 250 0.5;
#X floatatom 513 65 5 0 0 0 - - -;
#X obj 515 113 * 0.6;
#X msg 633 211 A 40 \, D 130 \, S 82 \, R 200;
#X floatatom 301 88 5 0 0 0 - - -;
#X obj 315 138 c_lfo wobble 0.8 20 sine;
#X obj 259 110 * 0.06;
#X connect 0 0 23 0;
#X connect 1 0 4 0;
#X connect 1 0 32 0;
#X connect 2 0 31 0;
#X connect 3 0 0 0;
#X connect 4 0 3 0;
#X connect 5 0 11 0;
#X connect 5 0 11 1;
#X connect 7 0 21 0;
#X connect 8 0 1 0;
#X connect 9 0 8 0;
#X connect 9 0 10 0;
#X connect 10 1 5 0;
#X connect 11 0 7 1;
#X connect 12 0 26 3;
#X connect 13 0 26 4;
#X connect 14 0 17 0;
#X connect 15 0 16 0;
#X connect 16 0 0 1;
#X connect 17 0 0 1;
#X connect 18 0 17 0;
#X connect 19 0 16 0;
#X connect 20 0 19 0;
#X connect 20 0 18 0;
#X connect 21 0 24 0;
#X connect 22 0 23 2;
#X connect 23 0 7 0;
#X connect 24 0 6 0;
#X connect 25 0 29 0;
#X connect 26 0 23 1;
#X connect 27 0 13 0;
#X connect 27 0 28 0;
#X connect 28 0 12 0;
#X connect 29 0 5 1;
#X connect 30 0 32 1;
#X connect 31 0 26 0;
#X connect 32 0 31 0;
#X restore 707 196 pd bass;
#X floatatom 707 120 5 0 0 0 - - -;
#X obj 707 171 pack 0 0;
#X obj 708 83 b;
#X obj 746 330 moses 16;
#X obj 809 330 moses 32;
#X obj 747 370 f 38;
#X obj 748 349 b;
#X obj 812 351 b;
#X obj 864 352 b;
#X obj 863 373 f 43;
#X obj 707 101 f 38;
#X obj 811 372 f 41;
#X floatatom 815 126 5 0 0 0 - - -;
#X obj 810 203 r BASSLINE;
#X obj 706 148 makenote 100 350;
#X obj 707 230 soundoutput;
#X obj 737 508 e_platereverb xxxxxxxxxxx;
#X obj 892 432 g_hsl dry 0 1;
#X obj 295 519 e_pan;
#X msg 913 479 dry 0.5;
#X obj 656 78 mod 4;
#X obj 335 167 select 0;
#X floatatom 781 101 5 0 0 0 - - -;
#X obj 457 27 loadbang;
#X obj 218 208 loadbang;
#X msg 215 229 11;
#X obj 960 166 + 2;
#X obj 1001 168 + 4;
#X obj 929 165 + 0;
#X obj 936 247 pack 0 0;
#X obj 945 344 e_chorusr;
#X obj 931 379 soundoutput;
#X obj 1007 68 hradio 15 1 0 8 empty empty empty 0 -8 0 10 -262144
-1 -1 0;
#X floatatom 1055 195 5 0 0 0 - - -;
#X msg 893 42 1;
#X floatatom 1029 86 5 0 0 0 - - -;
#X obj 952 120 f;
#X floatatom 1060 219 5 0 0 0 - - -;
#X msg 1064 297 drive 0;
#X obj 941 322 *~ 0.5;
#X floatatom 1017 113 5 0 0 0 - - -;
#X obj 708 60 select 0 2;
#X obj 936 192 m_majorscale 74;
#X floatatom 1027 136 5 0 0 0 - - -;
#X obj 366 508 c_lfo my 0.1 100 sine;
#X obj 362 264 *~ 0.7;
#X obj 111 322 *~ 0.3;
#X obj 936 218 makenote 80 40;
#X obj 1034 171 + 6;
#X msg 928 41 3;
#X obj 1080 169 + 8;
#X msg 958 20 0;
#X obj 514 305 +;
#X obj 512 329 / 2;
#X floatatom 517 349 5 0 0 0 - - -;
#X obj 936 270 u_makepoly 7 1 s_rhodey xxx;
#X obj 407 584 e_repeater rep;
#X obj 403 620 e_pan;
#X obj 514 474 t a b;
#X obj 546 495 f;
#X obj 575 496 ==;
#X obj 516 531 list prepend;
#X obj 510 554 route 0 1;
#X obj 474 609 c_lfo my 0.2 100 sine;
#X obj 437 272 mod 7;
#X obj 437 293 select 0;
#X obj 155 33 r TICK;
#X obj 236 51 t a;
#X connect 0 0 13 0;
#X connect 2 0 16 0;
#X connect 2 0 27 0;
#X connect 3 0 2 0;
#X connect 4 0 2 1;
#X connect 4 0 34 1;
#X connect 6 0 30 0;
#X connect 7 0 30 0;
#X connect 8 0 30 0;
#X connect 9 0 13 0;
#X connect 10 0 13 0;
#X connect 11 0 82 0;
#X connect 13 0 11 0;
#X connect 14 0 54 0;
#X connect 16 0 17 0;
#X connect 17 0 9 0;
#X connect 17 1 10 0;
#X connect 17 2 0 0;
#X connect 18 0 19 0;
#X connect 19 0 14 1;
#X connect 19 0 92 1;
#X connect 20 0 11 1;
#X connect 21 0 20 0;
#X connect 22 0 11 1;
#X connect 23 0 24 0;
#X connect 24 0 34 0;
#X connect 25 0 23 0;
#X connect 27 0 29 0;
#X connect 28 0 27 1;
#X connect 29 0 28 0;
#X connect 29 0 57 0;
#X connect 30 0 81 0;
#X connect 31 0 103 0;
#X connect 32 0 16 0;
#X connect 32 0 27 0;
#X connect 33 0 88 0;
#X connect 34 0 26 0;
#X connect 34 0 94 0;
#X connect 36 0 50 0;
#X connect 37 0 35 0;
#X connect 38 0 46 0;
#X connect 39 0 42 0;
#X connect 39 1 40 0;
#X connect 40 0 43 0;
#X connect 40 1 44 0;
#X connect 41 0 46 1;
#X connect 42 0 41 0;
#X connect 42 0 70 0;
#X connect 43 0 47 0;
#X connect 43 0 85 0;
#X connect 44 0 45 0;
#X connect 44 0 87 0;
#X connect 45 0 46 1;
#X connect 46 0 36 0;
#X connect 47 0 46 1;
#X connect 48 0 50 2;
#X connect 50 0 37 0;
#X connect 50 1 37 1;
#X connect 52 0 51 0;
#X connect 52 1 51 1;
#X connect 53 0 52 2;
#X connect 54 0 52 0;
#X connect 54 1 52 1;
#X connect 55 0 52 2;
#X connect 56 0 77 0;
#X connect 57 0 7 0;
#X connect 58 0 50 1;
#X connect 59 0 33 0;
#X connect 59 0 31 0;
#X connect 59 0 55 0;
#X connect 60 0 61 0;
#X connect 61 0 21 0;
#X connect 62 0 78 0;
#X connect 63 0 78 0;
#X connect 64 0 78 0;
#X connect 65 0 91 0;
#X connect 66 0 67 0;
#X connect 66 1 67 1;
#X connect 69 0 78 1;
#X connect 70 0 72 1;
#X connect 72 0 64 0;
#X connect 72 0 62 0;
#X connect 72 0 63 0;
#X connect 72 0 84 0;
#X connect 72 0 86 0;
#X connect 73 0 83 2;
#X connect 75 0 66 0;
#X connect 75 0 14 0;
#X connect 75 0 92 0;
#X connect 76 0 78 0;
#X connect 77 0 38 0;
#X connect 77 1 72 0;
#X connect 78 0 83 0;
#X connect 79 0 78 0;
#X connect 80 0 54 1;
#X connect 81 0 12 0;
#X connect 81 0 12 1;
#X connect 82 0 1 0;
#X connect 82 0 1 1;
#X connect 82 0 14 0;
#X connect 83 0 65 0;
#X connect 83 1 65 1;
#X connect 84 0 78 0;
#X connect 85 0 72 1;
#X connect 86 0 78 0;
#X connect 87 0 72 1;
#X connect 88 0 89 0;
#X connect 89 0 90 0;
#X connect 89 0 34 1;
#X connect 91 0 75 0;
#X connect 92 0 93 0;
#X connect 93 0 52 0;
#X connect 93 1 52 1;
#X connect 94 0 97 0;
#X connect 94 1 95 0;
#X connect 95 0 96 0;
#X connect 95 0 97 1;
#X connect 96 0 95 1;
#X connect 97 0 98 0;
#X connect 98 0 14 1;
#X connect 98 1 92 1;
#X connect 99 0 93 1;
#X connect 100 0 101 0;
#X connect 101 0 25 0;
#X connect 102 0 103 0;
#X connect 103 0 32 0;
#X connect 103 0 39 0;
#X connect 103 0 56 0;
#X connect 103 0 100 0;
