#N canvas 379 201 611 396 10;
#N canvas 0 0 732 603 apdist 0;
#X obj 92 329 rpole~;
#X obj 92 304 rzero_rev~;
#X obj 92 59 inlet~;
#X obj 92 354 outlet~;
#X obj 158 121 lop~ 500;
#X obj 159 262 clip~ -0.9999 0.9999;
#X obj 211 62 inlet;
#X obj 274 61 inlet;
#X obj 274 160 pack 0 10;
#X obj 274 182 line~;
#X obj 158 234 *~;
#X text 211 40 lop;
#X text 274 41 drive;
#X connect 0 0 3 0;
#X connect 1 0 0 0;
#X connect 2 0 1 0;
#X connect 2 0 4 0;
#X connect 4 0 10 0;
#X connect 5 0 0 1;
#X connect 5 0 1 1;
#X connect 6 0 4 1;
#X connect 7 0 8 0;
#X connect 8 0 9 0;
#X connect 9 0 10 1;
#X connect 10 0 5 0;
#X restore 83 175 pd apdist;
#X obj 83 83 inlet~;
#X obj 81 282 outlet~;
#X obj 300 71 inlet;
#X text 53 43 apdist: all pass distortion;
#X obj 300 97 u_dispatch \$0 lop;
#X obj 300 118 u_dispatch \$0 drive;
#X obj 300 140 u_dispatch \$0 dry;
#X obj 82 250 c_xfade;
#X obj 359 71 u_loader e_apdist-\$1 \$0;
#X obj 113 125 r \$0-lop;
#X obj 143 152 r \$0-drive;
#X obj 128 206 r \$0-dry;
#X obj 128 226 pack 0 10;
#X connect 0 0 8 0;
#X connect 1 0 0 0;
#X connect 1 0 8 1;
#X connect 3 0 5 0;
#X connect 5 0 6 0;
#X connect 6 0 7 0;
#X connect 8 0 2 0;
#X connect 10 0 0 1;
#X connect 11 0 0 2;
#X connect 12 0 13 0;
#X connect 13 0 8 2;
