#N canvas 216 127 777 627 10;
#X obj 147 247 openpanel;
#X msg 147 225 bang;
#X obj 319 191 hsl 128 15 0 127 0 0 empty empty lop 20 7 1 10 -262144
-1 -1 1100 1;
#X obj 318 263 hsl 128 15 0 500 0 0 empty empty drive 20 7 1 10 -262144
-1 -1 4700 1;
#X obj 318 342 hsl 128 15 0 127 0 0 empty empty dry 20 7 1 10 -262144
-1 -1 7200 1;
#X obj 315 364 / 127;
#X msg 315 302 drive \$1;
#X msg 315 389 dry \$1;
#X text 467 262 0 ... inf;
#X text 467 342 0 ... 1 \, default: dry = 0 i.e. full wet;
#X text 468 190 low pass frequency;
#X msg 316 234 lop \$1;
#X obj 316 213 mtof;
#N canvas 0 0 450 300 playsamp 0;
#X obj 109 170 readsf~;
#X obj 155 194 spigot 1;
#X obj 109 113 symbol;
#X msg 109 137 open \$1 \, 1;
#X obj 156 216 b;
#X obj 217 80 inlet;
#X obj 109 66 inlet;
#X obj 109 251 outlet~;
#X connect 0 0 7 0;
#X connect 0 1 1 0;
#X connect 1 0 4 0;
#X connect 2 0 3 0;
#X connect 3 0 0 0;
#X connect 4 0 2 0;
#X connect 5 0 1 1;
#X connect 6 0 2 0;
#X restore 147 327 pd playsamp;
#X obj 221 294 tgl 15 0 empty empty loop 17 7 1 10 -262144 -1 -1 0
1;
#X msg 163 270 bang;
#X text 193 223 open wav;
#X text 206 270 play again;
#X floatatom 315 283 5 0 0 0 - - -;
#X text 192 24 "Coefficient Modulated Allpass Filter as Distortion
Effect";
#X text 197 43 as in the DAFx 2008 paper by Jussi Pekonen;
#X text 198 68 See: http://www.acoustics.hut.fi/~jpekonen/Papers/dafx08/
;
#X obj 148 412 e_apdist name;
#X obj 147 503 soundoutput;
#X text 107 23 e_apdist;
#X text 115 129 Inlet0~: signal to distort;
#X text 115 107 Arguments: <unique name>;
#X text 115 148 Inlet1: methods inlet \, see below;
#X connect 0 0 13 0;
#X connect 1 0 0 0;
#X connect 2 0 12 0;
#X connect 3 0 18 0;
#X connect 4 0 5 0;
#X connect 5 0 7 0;
#X connect 6 0 22 1;
#X connect 7 0 22 1;
#X connect 11 0 22 1;
#X connect 12 0 11 0;
#X connect 13 0 22 0;
#X connect 14 0 13 1;
#X connect 15 0 13 0;
#X connect 18 0 6 0;
#X connect 22 0 23 0;
#X connect 22 0 23 1;
