#N canvas 359 232 852 486 10;
#N canvas 293 208 987 586 del 0;
#X obj 164 87 inlet~;
#X obj 484 100 block~ 16;
#X obj 289 67 inlet~;
#X obj 290 98 vd~ \$0-del1;
#X obj 399 86 inlet;
#X obj 190 194 outlet~;
#X obj 583 82 inlet;
#X obj 290 186 lop~ 10000;
#X obj 173 405 delwrite~ \$0-del1 \$2;
#X obj 290 148 *~ 0;
#X obj 399 123 clip -1 1;
#X obj 634 83 inlet;
#X obj 172 343 *~;
#X obj 190 314 line~;
#X msg 190 273 1;
#X obj 191 253 loadbang;
#X msg 190 294 \$1 20;
#X obj 290 124 hip~ 10;
#X connect 0 0 5 0;
#X connect 0 0 12 0;
#X connect 2 0 3 0;
#X connect 3 0 17 0;
#X connect 4 0 10 0;
#X connect 6 0 7 1;
#X connect 7 0 8 0;
#X connect 9 0 7 0;
#X connect 9 0 5 0;
#X connect 10 0 9 1;
#X connect 11 0 16 0;
#X connect 12 0 8 0;
#X connect 13 0 12 1;
#X connect 14 0 16 0;
#X connect 15 0 14 0;
#X connect 16 0 13 0;
#X connect 17 0 9 0;
#X restore 118 183 pd del;
#X obj 117 40 inlet~;
#X obj 132 60 inlet~;
#X obj 118 281 outlet~;
#X obj 542 92 u_dispatch \$0 feedback;
#X obj 542 113 u_dispatch \$0 lpfreq;
#X obj 593 66 u_loader e_fbdelay-\$1 \$0;
#X obj 542 66 inlet;
#X obj 210 131 r \$0-feedback;
#X obj 315 132 r \$0-lpfreq;
#X obj 542 136 u_dispatch \$0 delay;
#X obj 391 286 r \$0-delayfreq;
#X obj 542 158 u_dispatch \$0 delayfreq;
#X obj 391 315 swap 1000;
#X obj 391 345 /;
#X text 474 314 delay time can be set as frequency as well.;
#X obj 208 47 r \$0-delay;
#X obj 391 374 s \$0-delay;
#X obj 208 104 line~;
#X obj 119 259 c_xfade;
#X msg 165 237 \$1 10;
#X obj 165 216 r \$0-dry;
#X obj 542 180 u_dispatch \$0 dry;
#X obj 315 158 r \$0-input;
#X obj 542 204 u_dispatch \$0 input;
#X obj 208 74 pack 0 10;
#X obj 542 229 u_dispatch \$0 itime;
#X obj 288 46 r \$0-itime;
#X connect 0 0 19 0;
#X connect 1 0 0 0;
#X connect 1 0 19 1;
#X connect 2 0 0 1;
#X connect 4 0 5 0;
#X connect 5 0 10 0;
#X connect 7 0 4 0;
#X connect 8 0 0 2;
#X connect 9 0 0 3;
#X connect 10 0 12 0;
#X connect 11 0 13 0;
#X connect 12 0 22 0;
#X connect 13 0 14 0;
#X connect 13 1 14 1;
#X connect 14 0 17 0;
#X connect 16 0 25 0;
#X connect 18 0 0 1;
#X connect 19 0 3 0;
#X connect 20 0 19 2;
#X connect 21 0 20 0;
#X connect 22 0 24 0;
#X connect 23 0 0 4;
#X connect 24 0 26 0;
#X connect 25 0 18 0;
#X connect 27 0 25 1;
