#N canvas 458 362 450 300 10;
#X obj 137 59 inlet~;
#X obj 136 240 outlet~;
#X obj 203 56 inlet;
#X obj 325 55 inlet;
#X obj 251 95 loadbang;
#X obj 203 169 u_lowpassq;
#X obj 325 139 f \$2;
#X obj 203 140 f \$1;
#X obj 251 117 t b b;
#X obj 136 204 e_beequad;
#X connect 0 0 9 0;
#X connect 2 0 7 0;
#X connect 3 0 6 0;
#X connect 4 0 8 0;
#X connect 5 0 9 1;
#X connect 6 0 5 1;
#X connect 7 0 5 0;
#X connect 8 0 7 0;
#X connect 8 1 6 0;
#X connect 9 0 1 0;
