#N canvas 584 77 708 543 10;
#X obj 328 95 inlet;
#X obj 386 39 loadbang;
#X obj 327 143 u_dispatch \$0 dry;
#X obj 387 92 u_loader e_tremolo-\$1 \$0;
#X obj 327 122 u_dispatch \$0 freq;
#X obj 135 177 +~ 1;
#X obj 135 204 *~ 0.5;
#X obj 112 236 *~;
#X obj 116 69 inlet~;
#X obj 135 153 osc~ 5;
#X obj 112 301 outlet~;
#X obj 188 126 r \$0-freq;
#X obj 31 184 *~;
#X obj 49 165 r 0$-dry;
#X text 281 204 Simple tremolo TODO: add depth param;
#X msg 386 64 freq 5 \, dry 0;
#X connect 0 0 4 0;
#X connect 1 0 15 0;
#X connect 5 0 6 0;
#X connect 6 0 7 1;
#X connect 7 0 10 0;
#X connect 8 0 7 0;
#X connect 8 0 12 0;
#X connect 9 0 5 0;
#X connect 11 0 9 0;
#X connect 12 0 10 0;
#X connect 13 0 12 1;
#X connect 15 0 4 0;
