#N canvas 0 0 870 675 10;
#X msg 334 386 help;
#X obj 307 147 g_nhsl aux1 0 1;
#X obj 307 122 g_nhsl level 0 110;
#X obj 307 284 g_tgl mute;
#X obj 307 315 s \$0-strip;
#X msg 387 383 save;
#X obj 387 415 t a b;
#X obj 319 444 u_cocollect;
#X obj 284 356 r \$0-strip;
#X obj 307 197 g_nhsl aux2 0 1;
#X obj 307 172 g_symbol aux1name;
#X obj 307 222 g_symbol aux2name;
#X obj 168 418 u_channelstrip \$1;
#X obj 168 378 inlet~;
#X obj 167 561 outlet~;
#X obj 196 525 outlet~;
#X obj 387 277 bng 15 250 50 0 empty empty save 17 7 1 10 -262144 -1
-1;
#X obj 307 63 inlet;
#X obj 225 485 outlet~;
#X obj 254 449 outlet~;
#X obj 319 469 outlet;
#X obj 445 348 symbol \$1;
#X msg 445 384 aux1name \$1-1 \, aux2name \$1-2;
#X obj 387 295 bng 15 250 50 0 empty empty autoaux 17 7 1 10 -262144
-1 -1;
#X text 518 351 autoaux: rename aux from arg1;
#X obj 307 247 g_hsl pan 0 1;
#X connect 0 0 12 1;
#X connect 1 0 10 0;
#X connect 2 0 1 0;
#X connect 3 0 4 0;
#X connect 5 0 6 0;
#X connect 6 0 12 1;
#X connect 6 1 7 1;
#X connect 7 0 20 0;
#X connect 8 0 12 1;
#X connect 9 0 11 0;
#X connect 10 0 9 0;
#X connect 11 0 25 0;
#X connect 12 0 14 0;
#X connect 12 1 15 0;
#X connect 12 2 18 0;
#X connect 12 3 19 0;
#X connect 12 4 7 0;
#X connect 13 0 12 0;
#X connect 16 0 5 0;
#X connect 17 0 2 0;
#X connect 21 0 22 0;
#X connect 22 0 2 0;
#X connect 23 0 21 0;
#X connect 25 0 3 0;
#X coords 0 -1 1 1 150 215 1 300 100;
