#N canvas 371 286 578 491 10;
#X obj 70 22 inlet;
#X obj 102 107 route \$1;
#X obj 102 86 list trim;
#X msg 102 134 set \$1;
#X obj 70 340 outlet;
#X obj 102 282 list prepend \$1;
#X obj 102 302 list trim;
#X obj 102 205 hradio 15 1 0 8 \$0-out \$0-in \$1 20 8 1 10 -262144
-258113 -1 1;
#X obj 295 22 loadbang;
#X obj 295 51 f \$2;
#X msg 295 167 number \$1;
#X obj 295 139 clip 1 8;
#X obj 295 78 select 0;
#X msg 295 101 8;
#X obj 102 254 r \$0-out;
#X obj 295 190 s \$0-in;
#X obj 102 155 s \$0-in;
#X connect 0 0 2 0;
#X connect 0 0 4 0;
#X connect 1 0 3 0;
#X connect 2 0 1 0;
#X connect 3 0 16 0;
#X connect 5 0 6 0;
#X connect 6 0 4 0;
#X connect 8 0 9 0;
#X connect 9 0 12 0;
#X connect 10 0 15 0;
#X connect 11 0 10 0;
#X connect 12 0 13 0;
#X connect 12 1 11 0;
#X connect 13 0 11 0;
#X connect 14 0 5 0;
#X coords 0 -1 1 1 137 25 2 100 200;
