#N canvas 0 0 578 469 10;
#X symbolatom 160 105 10 0 0 0 #1 #0-in #0-out;
#X obj 296 30 inlet;
#X obj 328 115 route \$1;
#X obj 328 94 list trim;
#X msg 328 162 set \$1;
#X obj 296 348 outlet;
#X obj 328 290 list prepend \$1;
#X obj 328 310 list trim;
#X obj 328 187 s \$0-in;
#X obj 328 266 r \$0-out;
#X obj 328 139 list;
#X connect 1 0 3 0;
#X connect 1 0 5 0;
#X connect 2 0 10 0;
#X connect 3 0 2 0;
#X connect 4 0 8 0;
#X connect 6 0 7 0;
#X connect 7 0 5 0;
#X connect 9 0 6 0;
#X connect 10 0 4 0;
#X coords 0 -1 1 1 137 25 2 100 100;
