#N canvas 371 286 578 491 10;
#X obj 70 22 inlet;
#X obj 102 107 route \$1;
#X obj 102 86 list trim;
#X msg 102 134 set \$1;
#X obj 70 340 outlet;
#X obj 102 282 list prepend \$1;
#X obj 102 302 list trim;
#X obj 102 205 tgl 15 0 \$0-out \$0-in \$1 17 7 1 10 -262144 -86277
-1 1 1;
#X obj 102 159 s \$0-in;
#X obj 102 258 r \$0-out;
#X connect 0 0 2 0;
#X connect 0 0 4 0;
#X connect 1 0 3 0;
#X connect 2 0 1 0;
#X connect 3 0 8 0;
#X connect 5 0 6 0;
#X connect 6 0 4 0;
#X connect 9 0 5 0;
#X coords 0 -1 1 1 67 25 2 100 200;
