#N canvas 160 121 744 556 10;
#X obj 105 120 tgl 15 0 empty empty saw 17 7 1 10 -262144 -1 -1 0 1
;
#X obj 105 141 tgl 15 0 empty empty square 17 7 1 10 -262144 -1 -1
0 1;
#X obj 105 162 tgl 15 0 empty empty tri 17 7 1 10 -262144 -1 -1 1 1
;
#X obj 131 415 catch~ \$0-out;
#X obj 452 347 throw~ \$0-out;
#X obj 452 290 r~ \$0-f;
#X msg 451 205 phase 0;
#X obj 37 61 inlet~;
#X obj 130 490 outlet~;
#X floatatom 105 203 5 0 0 1 fratio - -;
#X obj 37 87 *~ 1;
#X obj 37 133 s~ \$0-f;
#X obj 187 48 0;
#X obj 188 26 loadbang;
#X obj 154 166 hsl 64 15 -1 1 0 0 empty empty empty -2 -8 0 10 -262144
-1 -1 950 1;
#X msg 336 182 trislope \$1;
#X msg 367 159 pwmdepth \$1;
#X msg 500 159 pwmfreq \$1;
#X floatatom 165 145 5 0 0 1 depth - -;
#X floatatom 245 145 3 0 0 1 f - -;
#X floatatom 190 111 5 0 0 0 ff - -;
#X floatatom 236 112 5 0 0 0 Q - -;
#X obj 190 381 mtof;
#X obj 581 318 r \$0-osc;
#X obj 367 235 s \$0-osc;
#X msg 103 265 saw \$1;
#X msg 103 287 square \$1;
#X msg 103 310 tri \$1;
#X obj 103 329 s \$0-osc;
#X msg 103 239 sine \$1;
#X obj 105 181 tgl 15 0 empty empty sine 17 7 1 10 -262144 -1 -1 0
1;
#X obj 28 175 loadbang;
#X msg 28 198 1;
#X obj 154 462 *~ 1;
#X obj 153 441 e_resonzq 2000 2 2;
#X obj 452 316 s_osc OSC-\$1 saw;
#X connect 0 0 25 0;
#X connect 1 0 26 0;
#X connect 2 0 27 0;
#X connect 3 0 8 0;
#X connect 3 0 34 0;
#X connect 5 0 35 0;
#X connect 6 0 24 0;
#X connect 7 0 10 0;
#X connect 9 0 10 1;
#X connect 10 0 11 0;
#X connect 12 0 0 0;
#X connect 12 0 1 0;
#X connect 12 0 2 0;
#X connect 12 0 14 0;
#X connect 13 0 12 0;
#X connect 14 0 15 0;
#X connect 15 0 24 0;
#X connect 16 0 24 0;
#X connect 17 0 24 0;
#X connect 18 0 16 0;
#X connect 19 0 17 0;
#X connect 20 0 22 0;
#X connect 21 0 34 2;
#X connect 22 0 34 1;
#X connect 23 0 35 1;
#X connect 25 0 28 0;
#X connect 26 0 28 0;
#X connect 27 0 28 0;
#X connect 29 0 28 0;
#X connect 30 0 29 0;
#X connect 31 0 32 0;
#X connect 32 0 9 0;
#X connect 33 0 8 0;
#X connect 34 0 33 0;
#X connect 35 0 4 0;
#X coords 0 -1 1 1 180 120 1 100 100;
