#N canvas 122 261 897 553 10;
#N canvas 28 6 617 583 OSC 0;
#X floatatom 109 132 5 0 0 2 pitch - -;
#X obj 211 131 tgl 15 0 empty empty sq 17 7 1 10 -262144 -1 -1 1 1
;
#X obj 166 131 tgl 15 0 empty empty saw 17 7 1 10 -262144 -1 -1 1 1
;
#X floatatom 246 132 5 0 0 2 pwm - -;
#X obj 296 131 tgl 15 0 empty empty sync 17 7 1 10 -262144 -1 -1 0
1;
#X msg 109 213 osc1 pitch \$1;
#X msg 166 251 osc1 saw \$1;
#X msg 333 200 osc1 sync \$1;
#X obj 110 347 s \$0-out;
#X msg 283 234 osc1 pwmdepth \$1;
#X msg 211 197 osc1 square \$1;
#X connect 0 0 5 0;
#X connect 1 0 10 0;
#X connect 2 0 6 0;
#X connect 3 0 9 0;
#X connect 4 0 7 0;
#X connect 5 0 8 0;
#X connect 6 0 8 0;
#X connect 7 0 8 0;
#X connect 9 0 8 0;
#X connect 10 0 8 0;
#X coords 0 -1 1 1 240 60 1 100 100;
#X restore 80 47 pd OSC 1;
#N canvas 28 6 570 580 OSC 0;
#X floatatom 109 132 5 0 0 2 pitch - -;
#X obj 229 131 tgl 15 0 empty empty sq 17 7 1 10 -262144 -1 -1 1 1
;
#X obj 193 131 tgl 15 0 empty empty tri 17 7 1 10 -262144 -1 -1 1 1
;
#X floatatom 273 132 5 0 0 2 pwm - -;
#X obj 323 131 tgl 15 0 empty empty key 17 7 1 10 -262144 -1 -1 0 1
;
#X obj 152 131 tgl 15 0 empty empty saw 17 7 1 10 -262144 -1 -1 1 1
;
#X msg 109 213 osc2 pitch \$1;
#X msg 166 251 osc2 saw \$1;
#X msg 191 289 osc2 tri \$1;
#X msg 357 192 osc2 key \$1;
#X obj 110 347 s \$0-out;
#X msg 270 235 osc2 pwmdepth \$1;
#X msg 211 197 osc2 square \$1;
#X connect 0 0 6 0;
#X connect 1 0 12 0;
#X connect 2 0 8 0;
#X connect 3 0 11 0;
#X connect 4 0 9 0;
#X connect 5 0 7 0;
#X connect 6 0 10 0;
#X connect 7 0 10 0;
#X connect 8 0 10 0;
#X connect 9 0 10 0;
#X connect 11 0 10 0;
#X connect 12 0 10 0;
#X coords 0 -1 1 1 260 60 1 100 100;
#X restore 80 107 pd OSC 2;
#N canvas 28 6 525 521 MIXER 0;
#X floatatom 109 132 5 0 100 2 OSC_1 - -;
#X floatatom 175 132 5 0 100 2 OSC_2 - -;
#X floatatom 235 132 5 0 100 2 Noise - -;
#X obj 135 309 s \$0-out;
#X msg 110 233 mixer osc1 \$1;
#X msg 178 264 mixer osc2 \$1;
#X msg 236 219 mixer noise \$1;
#X connect 0 0 4 0;
#X connect 1 0 5 0;
#X connect 2 0 6 0;
#X connect 4 0 3 0;
#X connect 5 0 3 0;
#X connect 6 0 3 0;
#X coords 0 -1 1 1 240 60 1 100 100;
#X restore 80 227 pd MIXER;
#N canvas 28 6 466 544 VCF 0;
#X floatatom 109 132 5 0 0 2 cutoff - -;
#X floatatom 165 131 5 1 500 2 Q - -;
#X floatatom 216 132 5 0 100 2 env - -;
#X floatatom 114 190 5 0 0 2 A - -;
#X floatatom 155 190 5 0 0 2 D - -;
#X floatatom 197 190 5 0 0 2 S - -;
#X floatatom 240 190 5 0 0 2 R - -;
#X obj 112 405 s \$0-out;
#X obj 112 352 list prepend vcf;
#X obj 112 377 list trim;
#X msg 114 306 A \$1;
#X msg 156 305 D \$1;
#X msg 197 307 S \$1;
#X msg 247 311 R \$1;
#X msg 44 273 cutoff \$1;
#X msg 136 261 Q \$1;
#X msg 368 271 key \$1;
#X msg 266 273 env \$1;
#X floatatom 272 132 5 0 100 2 key - -;
#X connect 0 0 14 0;
#X connect 1 0 15 0;
#X connect 2 0 17 0;
#X connect 3 0 10 0;
#X connect 4 0 11 0;
#X connect 5 0 12 0;
#X connect 6 0 13 0;
#X connect 8 0 9 0;
#X connect 9 0 7 0;
#X connect 10 0 8 0;
#X connect 11 0 8 0;
#X connect 12 0 8 0;
#X connect 13 0 8 0;
#X connect 14 0 8 0;
#X connect 15 0 8 0;
#X connect 16 0 8 0;
#X connect 17 0 8 0;
#X connect 18 0 16 0;
#X coords 0 -1 1 1 260 120 1 100 100;
#X restore 340 47 pd VCF;
#N canvas 28 6 454 376 VCA 0;
#X floatatom 114 130 5 0 0 2 A - -;
#X floatatom 155 130 5 0 0 2 D - -;
#X floatatom 197 130 5 0 0 2 S - -;
#X floatatom 240 130 5 0 0 2 R - -;
#X obj 112 345 s \$0-out;
#X obj 112 317 list trim;
#X msg 114 246 A \$1;
#X msg 156 245 D \$1;
#X msg 197 247 S \$1;
#X msg 247 251 R \$1;
#X obj 112 292 list prepend vca;
#X connect 0 0 6 0;
#X connect 1 0 7 0;
#X connect 2 0 8 0;
#X connect 3 0 9 0;
#X connect 5 0 4 0;
#X connect 6 0 10 0;
#X connect 7 0 10 0;
#X connect 8 0 10 0;
#X connect 9 0 10 0;
#X connect 10 0 5 0;
#X coords 0 -1 1 1 240 60 1 100 100;
#X restore 340 167 pd VCA;
#X obj 558 332 r \$0-out;
#N canvas 94 51 776 830 DSP 0;
#X obj 111 258 s_osc OSC1;
#X obj 213 260 s_osc OSC2;
#X obj 433 324 *~;
#X obj 432 294 +~ 0.2;
#X obj 432 348 *~ 2000;
#X obj 189 582 vcf~ 3;
#X obj 521 344 mtof;
#X obj 432 269 c_adsr 1 10 200 50 500;
#X obj 493 115 route vcf;
#X obj 493 91 r \$0-out;
#X obj 301 261 noise~;
#N canvas 0 0 450 300 vol~ 0;
#X obj 133 134 dbtorms;
#X obj 117 206 *~;
#X obj 132 156 pack 0 10;
#X obj 134 184 line~;
#X obj 117 66 inlet~;
#X obj 169 66 inlet;
#X obj 116 233 outlet~;
#X connect 0 0 2 0;
#X connect 1 0 6 0;
#X connect 2 0 3 0;
#X connect 3 0 1 1;
#X connect 4 0 1 0;
#X connect 5 0 0 0;
#X restore 111 420 pd vol~;
#N canvas 0 0 450 300 vol~ 0;
#X obj 133 134 dbtorms;
#X obj 117 206 *~;
#X obj 132 156 pack 0 10;
#X obj 134 184 line~;
#X obj 117 66 inlet~;
#X obj 169 66 inlet;
#X obj 116 233 outlet~;
#X connect 0 0 2 0;
#X connect 1 0 6 0;
#X connect 2 0 3 0;
#X connect 3 0 1 1;
#X connect 4 0 1 0;
#X connect 5 0 0 0;
#X restore 214 421 pd vol~;
#N canvas 0 0 450 300 vol~ 0;
#X obj 133 134 dbtorms;
#X obj 117 206 *~;
#X obj 132 156 pack 0 10;
#X obj 134 184 line~;
#X obj 117 66 inlet~;
#X obj 169 66 inlet;
#X obj 116 233 outlet~;
#X connect 0 0 2 0;
#X connect 1 0 6 0;
#X connect 2 0 3 0;
#X connect 3 0 1 1;
#X connect 4 0 1 0;
#X connect 5 0 0 0;
#X restore 300 421 pd vol~;
#X msg 238 179 switch;
#X obj 238 155 loadbang;
#X obj 447 199 dbtorms;
#X obj 430 246 t f f;
#X obj 152 41 inlet;
#X obj 152 63 unpack 0 0;
#X obj 430 223 *;
#X obj 325 113 / 127;
#X obj 188 701 outlet~;
#N canvas 0 0 471 443 map-osc 0;
#X obj 109 208 mtof;
#X obj 109 181 +;
#X obj 127 149 route pitch key;
#X obj 109 236 sig~;
#X obj 109 48 inlet;
#X obj 109 288 outlet~;
#X obj 229 298 outlet;
#X obj 127 72 inlet;
#X connect 0 0 3 0;
#X connect 1 0 0 0;
#X connect 2 0 1 1;
#X connect 2 2 6 0;
#X connect 3 0 5 0;
#X connect 4 0 1 0;
#X connect 7 0 2 0;
#X restore 55 176 pd map-osc;
#X obj 165 96 r \$0-out;
#N canvas 0 0 471 443 map-osc 0;
#X obj 109 208 mtof;
#X obj 109 181 +;
#X obj 127 149 route pitch key;
#X obj 109 236 sig~;
#X obj 109 48 inlet;
#X obj 109 288 outlet~;
#X obj 229 298 outlet;
#X obj 127 72 inlet;
#X connect 0 0 3 0;
#X connect 1 0 0 0;
#X connect 2 0 1 1;
#X connect 2 2 6 0;
#X connect 3 0 5 0;
#X connect 4 0 1 0;
#X connect 7 0 2 0;
#X restore 132 177 pd map-osc;
#X obj 165 121 route osc1 osc2;
#X obj 232 305 r \$0-out;
#X obj 232 330 route mixer;
#X obj 232 360 route osc1 osc2 noise;
#X obj 223 669 c_adsr 1 10 200 50 500;
#X obj 189 667 *~;
#X obj 325 529 r \$0-out;
#X obj 325 577 route A D S R;
#X obj 325 553 route vca;
#X obj 251 580 t f f;
#X obj 101 541 env~;
#X floatatom 97 567 5 0 0 0 - - -;
#X obj 470 640 tabwrite~ \$0-scope;
#N canvas 0 0 450 300 (subpatch) 0;
#X array \$0-scope 441 float 2;
#X coords 0 1 440 -1 200 140 1;
#X restore 525 446 graph;
#X obj 489 617 metro 100;
#X obj 490 590 tgl 15 0 empty empty empty 17 7 0 10 -262144 -1 -1 0
1;
#X obj 493 139 route A D S R cutoff env key Q;
#X obj 162 305 *~ 0;
#X obj 370 31 r \$0-out;
#X obj 370 56 route polymod;
#X obj 370 79 route osc1 filt;
#X obj 162 335 *~ 0;
#X obj 421 114 dbtorms;
#X obj 370 133 dbtorms;
#X obj 190 612 vcf~ 3;
#N canvas 0 0 720 571 keyfollow 0;
#X obj 154 295 pow;
#X obj 154 271 / 261;
#X obj 84 154 inlet;
#X obj 84 326 outlet;
#X obj 84 241 spigot 1;
#X obj 220 242 == 0;
#X obj 154 242 spigot 0;
#X obj 137 185 < 0.01;
#X obj 207 117 inlet;
#X obj 207 140 t a a;
#X msg 84 291 1;
#X connect 0 0 3 0;
#X connect 1 0 0 0;
#X connect 2 0 4 0;
#X connect 2 0 6 0;
#X connect 4 0 10 0;
#X connect 5 0 6 1;
#X connect 6 0 1 0;
#X connect 7 0 4 1;
#X connect 7 0 5 0;
#X connect 8 0 9 0;
#X connect 9 0 7 0;
#X connect 9 1 0 1;
#X connect 10 0 3 0;
#X restore 588 348 pd keyfollow;
#X msg 692 322 0;
#X obj 556 377 * 1;
#X floatatom 698 263 5 0 0 0 - - -;
#X obj 685 296 / 100;
#N canvas 241 216 450 300 demux 0;
#X obj 85 40 inlet;
#X obj 187 36 inlet;
#X obj 85 178 spigot 1;
#X obj 169 176 spigot 0;
#X obj 187 135 unpack 0 0;
#X msg 187 86 1 0;
#X msg 220 85 0 1;
#X obj 187 63 select 0 1;
#X obj 85 229 outlet;
#X obj 169 233 outlet;
#X connect 0 0 2 0;
#X connect 0 0 3 0;
#X connect 1 0 7 0;
#X connect 2 0 8 0;
#X connect 3 0 9 0;
#X connect 4 0 2 1;
#X connect 4 1 3 1;
#X connect 5 0 4 0;
#X connect 6 0 4 0;
#X connect 7 0 5 0;
#X connect 7 1 6 0;
#X restore 490 749 pd demux;
#X obj 556 322 t b a;
#X obj 556 302 mtof;
#X floatatom 586 401 5 0 0 0 - - -;
#X floatatom 601 376 5 0 0 0 - - -;
#X obj 636 417 -;
#X floatatom 664 418 5 0 0 0 - - -;
#X connect 0 0 11 0;
#X connect 1 0 12 0;
#X connect 1 0 43 0;
#X connect 2 0 4 0;
#X connect 3 0 2 0;
#X connect 3 0 2 1;
#X connect 4 0 5 1;
#X connect 4 0 47 0;
#X connect 4 0 50 1;
#X connect 5 0 50 0;
#X connect 6 0 53 0;
#X connect 7 0 3 0;
#X connect 8 0 42 0;
#X connect 9 0 8 0;
#X connect 10 0 13 0;
#X connect 11 0 5 0;
#X connect 12 0 5 0;
#X connect 13 0 5 0;
#X connect 14 0 0 1;
#X connect 14 0 1 1;
#X connect 15 0 14 0;
#X connect 16 0 20 1;
#X connect 17 0 7 0;
#X connect 17 1 7 1;
#X connect 18 0 19 0;
#X connect 19 0 23 0;
#X connect 19 0 25 0;
#X connect 19 0 58 0;
#X connect 19 1 21 0;
#X connect 20 0 17 0;
#X connect 21 0 20 0;
#X connect 21 0 35 0;
#X connect 23 0 0 0;
#X connect 23 1 0 1;
#X connect 24 0 26 0;
#X connect 25 0 1 0;
#X connect 25 1 1 1;
#X connect 26 0 23 1;
#X connect 26 1 25 1;
#X connect 27 0 28 0;
#X connect 28 0 29 0;
#X connect 29 0 11 1;
#X connect 29 1 12 1;
#X connect 29 2 13 1;
#X connect 30 0 31 1;
#X connect 31 0 22 0;
#X connect 32 0 34 0;
#X connect 33 0 30 2;
#X connect 33 1 30 3;
#X connect 33 2 30 4;
#X connect 33 3 30 5;
#X connect 34 0 33 0;
#X connect 35 0 30 0;
#X connect 35 1 30 1;
#X connect 36 0 37 0;
#X connect 40 0 38 0;
#X connect 41 0 40 0;
#X connect 42 0 7 2;
#X connect 42 1 7 3;
#X connect 42 2 7 4;
#X connect 42 3 7 5;
#X connect 42 4 6 0;
#X connect 42 5 16 0;
#X connect 42 6 55 0;
#X connect 42 7 5 2;
#X connect 42 7 50 2;
#X connect 43 0 0 0;
#X connect 44 0 45 0;
#X connect 45 0 46 0;
#X connect 46 0 49 0;
#X connect 46 1 48 0;
#X connect 47 0 0 0;
#X connect 48 0 47 1;
#X connect 49 0 43 1;
#X connect 50 0 31 0;
#X connect 51 0 53 1;
#X connect 52 0 51 1;
#X connect 53 0 4 1;
#X connect 53 0 59 0;
#X connect 54 0 55 0;
#X connect 55 0 51 1;
#X connect 57 0 53 0;
#X connect 57 1 51 0;
#X connect 57 1 60 0;
#X connect 58 0 57 0;
#X connect 59 0 61 0;
#X connect 60 0 61 1;
#X connect 61 0 62 0;
#X restore 127 431 pd DSP;
#X obj 127 320 r \$0-note;
#X obj 738 169 + 20;
#X obj 738 121 metro 300;
#X obj 738 99 tgl 15 0 empty empty empty 0 -6 0 8 -262144 -1 -1 1 1
;
#X obj 738 250 s \$0-note;
#X obj 738 144 random 70;
#X floatatom 814 99 3 0 0 0 - - -;
#X floatatom 858 180 3 0 0 0 - - -;
#X obj 128 486 soundoutput;
#X obj 127 409 pack 0 0;
#X obj 127 382 makenote 80;
#X floatatom 824 77 5 0 0 0 - - -;
#X msg 251 434 freq 0.8 \, mod 1.3;
#X obj 251 414 loadbang;
#X obj 128 461 e_chorusr mychorus;
#N canvas 28 6 525 521 POLYMOD 0;
#X floatatom 109 132 5 0 200 2 OSC_1 - -;
#X floatatom 173 131 5 0 100 2 Filt - -;
#X obj 135 309 s \$0-out;
#X msg 107 234 polymod osc1 \$1;
#X msg 169 221 polymod filt \$1;
#X connect 0 0 3 0;
#X connect 1 0 4 0;
#X connect 3 0 2 0;
#X connect 4 0 2 0;
#X coords 0 -1 1 1 240 60 1 100 100;
#X restore 80 167 pd POLYMOD;
#X obj 558 357 list prepend set;
#X obj 558 382 list trim;
#X obj 559 405 cnv 15 100 15 empty empty empty 20 12 0 14 -204786 -66577
0;
#X msg 558 404 vcf key 100;
#X obj 777 169 random 50;
#X obj 777 190 + 50;
#X obj 127 356 unpack 0 0 0;
#X obj 738 224 pack 0 0 200;
#X obj 824 138 - 70;
#X obj 834 204 max 5;
#X obj 434 459 env~;
#X floatatom 435 485 5 0 0 0 - - -;
#N canvas 0 0 692 700 effect 0;
#X obj 319 191 hsl 128 15 0 127 0 0 empty empty lop 20 7 1 10 -262144
-1 -1 0 1;
#X obj 318 263 hsl 128 15 0 500 0 0 empty empty drive 20 7 1 10 -262144
-1 -1 0 1;
#X obj 318 342 hsl 128 15 0 127 0 0 empty empty dry 20 7 1 10 -262144
-1 -1 0 1;
#X obj 315 364 / 127;
#X msg 315 302 drive \$1;
#X msg 315 389 dry \$1;
#X msg 316 234 lop \$1;
#X obj 316 213 mtof;
#X floatatom 315 283 5 0 0 0 - - -;
#X obj 148 412 e_apdist name;
#X obj 154 367 inlet~;
#X obj 153 452 outlet~;
#X connect 0 0 7 0;
#X connect 1 0 8 0;
#X connect 2 0 3 0;
#X connect 3 0 5 0;
#X connect 4 0 9 1;
#X connect 5 0 9 1;
#X connect 6 0 9 1;
#X connect 7 0 6 0;
#X connect 8 0 4 0;
#X connect 9 0 11 0;
#X connect 10 0 9 0;
#X restore 428 427 pd effect;
#X connect 5 0 23 0;
#X connect 6 0 21 0;
#X connect 7 0 29 0;
#X connect 8 0 30 0;
#X connect 9 0 12 0;
#X connect 9 0 27 0;
#X connect 10 0 9 0;
#X connect 12 0 8 0;
#X connect 13 0 9 1;
#X connect 14 0 32 0;
#X connect 16 0 6 0;
#X connect 17 0 16 0;
#X connect 17 1 16 1;
#X connect 18 0 13 0;
#X connect 18 0 31 0;
#X connect 19 0 21 1;
#X connect 20 0 19 0;
#X connect 21 0 15 0;
#X connect 21 1 15 1;
#X connect 23 0 24 0;
#X connect 24 0 26 0;
#X connect 27 0 28 0;
#X connect 28 0 30 1;
#X connect 29 0 17 0;
#X connect 29 1 17 1;
#X connect 29 2 17 2;
#X connect 30 0 11 0;
#X connect 31 0 14 0;
#X connect 32 0 30 2;
#X connect 33 0 34 0;
#X connect 35 0 33 0;
