#N canvas 342 314 694 301 10;
#N canvas 125 123 716 455 pink-rbj 0;
#X obj 94 198 rpole~ 0.995728;
#X obj 96 252 rpole~ 0.947906;
#X obj 94 305 rpole~ 0.535675;
#X obj 111 169 rzero~ 0.984436;
#X obj 111 227 rzero~ 0.833923;
#X obj 110 277 rzero~ 0.0756836;
#X obj 93 383 outlet~;
#X obj 111 142 noise~;
#X text 166 359 normalization factor was found empirically;
#X text 335 98 Zeroes:;
#X obj 93 357 *~ 0.17;
#X obj 609 111 switch~;
#X obj 609 58 inlet;
#X obj 483 215 select 0 1;
#X msg 516 242 0.17;
#X msg 483 243 0;
#X obj 609 81 pipe 10;
#X text 558 238 mute on switch;
#X connect 0 0 4 0;
#X connect 1 0 5 0;
#X connect 2 0 10 0;
#X connect 3 0 0 0;
#X connect 4 0 1 0;
#X connect 5 0 2 0;
#X connect 7 0 3 0;
#X connect 10 0 6 0;
#X connect 12 0 16 0;
#X connect 12 0 13 0;
#X connect 13 0 15 0;
#X connect 13 1 14 0;
#X connect 14 0 10 1;
#X connect 15 0 10 1;
#X connect 16 0 11 0;
#X restore 142 168 pd pink-rbj;
#X obj 142 88 inlet;
#X obj 156 117 loadbang;
#X msg 156 137 1;
#X obj 141 200 outlet~;
#X connect 0 0 4 0;
#X connect 1 0 0 0;
#X connect 2 0 3 0;
#X connect 3 0 0 0;
