#N canvas 395 261 748 450 10;
#N canvas 94 22 542 539 channel 0;
#X obj 86 43 inlet~ signal;
#X obj 85 238 *~;
#X obj 136 124 dbtorms;
#X obj 136 184 sig~;
#X obj 136 203 lop~ 1;
#X obj 136 165 *;
#X obj 136 143 t b f;
#X obj 96 84 == 0;
#X obj 189 264 inlet pan;
#X obj 96 63 inlet mute;
#X obj 136 94 inlet level;
#X obj 279 326 inlet aux1;
#X obj 383 325 inlet aux2;
#X obj 84 469 outlet~;
#X obj 174 469 outlet~;
#X obj 262 468 outlet~;
#X obj 366 468 outlet~;
#X obj 84 374 e_pan 0.5;
#X obj 383 346 f;
#X obj 279 348 f;
#X obj 365 446 *~;
#X obj 261 446 *~;
#X connect 0 0 1 0;
#X connect 1 0 17 0;
#X connect 1 0 20 0;
#X connect 1 0 21 0;
#X connect 2 0 6 0;
#X connect 3 0 4 0;
#X connect 4 0 1 1;
#X connect 5 0 3 0;
#X connect 6 0 5 0;
#X connect 6 1 5 1;
#X connect 7 0 5 0;
#X connect 8 0 17 1;
#X connect 9 0 7 0;
#X connect 10 0 2 0;
#X connect 11 0 19 0;
#X connect 12 0 18 0;
#X connect 17 0 13 0;
#X connect 17 1 14 0;
#X connect 18 0 20 1;
#X connect 19 0 21 1;
#X connect 20 0 16 0;
#X connect 21 0 15 0;
#X restore 134 113 pd channel strip;
#X text 190 323 left;
#X text 235 299 right;
#X text 270 256 aux1;
#X text 299 228 aux2;
#X obj 134 -26 inlet~;
#X obj 155 -6 r \$0-mute;
#X obj 177 14 r \$0-level;
#X obj 199 34 r \$0-pan;
#X obj 221 62 r \$0-aux1;
#X obj 243 88 r \$0-aux2;
#X obj 133 324 outlet~;
#X obj 169 300 outlet~;
#X obj 207 257 outlet~;
#X obj 243 229 outlet~;
#X obj 466 -12 inlet;
#X obj 466 16 list trim;
#X obj 466 44 route save;
#X obj 466 102 outlet;
#X obj 533 132 u_dispatch \$0 mute;
#X obj 533 160 u_dispatch \$0 level;
#X obj 533 188 u_dispatch \$0 pan;
#X obj 533 216 u_dispatch \$0 aux1;
#X obj 533 244 u_dispatch \$0 aux2;
#N canvas 0 0 450 300 throw1 0;
#X obj 75 44 inlet~;
#X obj 158 82 catch~ \$0-dummy-aux1;
#X obj 75 195 throw~ \$0-dummy-aux1;
#X obj 112 109 r \$0-aux1name;
#X msg 112 163 set \$1;
#X obj 112 135 list;
#X connect 0 0 2 0;
#X connect 3 0 5 0;
#X connect 4 0 2 0;
#X connect 5 0 4 0;
#X restore 258 184 pd throw1;
#N canvas 0 0 450 300 throw2 0;
#X obj 75 44 inlet~;
#X msg 112 163 set \$1;
#X obj 112 135 list;
#X obj 158 82 catch~ \$0-dummy-aux2;
#X obj 75 195 throw~ \$0-dummy-aux2;
#X obj 112 109 r \$0-aux2name;
#X connect 0 0 4 0;
#X connect 1 0 4 0;
#X connect 2 0 1 0;
#X connect 5 0 2 0;
#X restore 258 155 pd throw2;
#X text 333 154 aux throws are renamable;
#X obj 533 271 u_dispatch \$0 aux1name;
#X obj 533 299 u_dispatch \$0 aux2name;
#X obj 466 74 u_loader u_channelstrip-\$1 \$0;
#X connect 0 0 11 0;
#X connect 0 1 12 0;
#X connect 0 2 13 0;
#X connect 0 2 24 0;
#X connect 0 3 14 0;
#X connect 0 3 25 0;
#X connect 5 0 0 0;
#X connect 6 0 0 1;
#X connect 7 0 0 2;
#X connect 8 0 0 3;
#X connect 9 0 0 4;
#X connect 10 0 0 5;
#X connect 15 0 16 0;
#X connect 16 0 17 0;
#X connect 17 0 29 0;
#X connect 17 1 19 0;
#X connect 19 0 20 0;
#X connect 20 0 21 0;
#X connect 21 0 22 0;
#X connect 22 0 23 0;
#X connect 23 0 27 0;
#X connect 27 0 28 0;
#X connect 29 0 18 0;
