#N canvas 0 0 450 300 10;
#X obj 195 37 inlet;
#X obj 41 37 inlet;
#X obj 41 144 outlet;
#X msg 195 74 set;
#X obj 41 99 list trim;
#X obj 41 74 list prepend add2;
#X connect 0 0 3 0;
#X connect 1 0 5 0;
#X connect 3 0 2 0;
#X connect 4 0 2 0;
#X connect 5 0 4 0;
