#N canvas 211 82 954 407 10;
#X obj 36 31 inlet;
#N canvas 147 136 871 639 \$0-poly 0;
#X restore 36 254 pd \$0-poly;
#X obj 36 227 s \$0-in1;
#X obj 139 31 inlet;
#X obj 256 63 loadbang;
#X obj 256 108 f \$1;
#X obj 36 167 pack 0 0 0;
#X obj 36 344 outlet~;
#X obj 139 344 outlet~;
#X obj 36 113 poly \$1 \$2;
#X obj 139 227 s \$0-in2;
#X obj 36 287 catch~ \$0-out1;
#X obj 139 287 catch~ \$0-out2;
#N canvas 0 0 887 513 \$0-fill-subpatch 0;
#N canvas 0 0 450 300 clear 0;
#X obj 97 62 inlet;
#X msg 97 84 clear;
#X obj 97 106 outlet;
#X connect 0 0 1 0;
#X connect 1 0 2 0;
#X restore 701 225 pd clear;
#N canvas 0 0 450 300 fake-inout 0;
#X obj 101 62 inlet;
#X obj 102 108 f \$0;
#X msg 101 85 bang;
#X msg 102 131 obj 60 60 r \$1-in1 \, obj 650 54 r \$1-in2 \, obj 60
600 throw~ \$1-out1 \, obj 650 600 throw~ \$1-out2 \,;
#X text 149 108 fake in/outlets;
#X obj 102 193 outlet;
#X connect 0 0 2 0;
#X connect 1 0 3 0;
#X connect 2 0 1 0;
#X connect 3 0 5 0;
#X restore 596 225 pd fake-inout;
#N canvas 0 0 453 398 make-and-connect-route 0;
#X obj 53 53 inlet;
#X obj 200 234 list prepend obj 60 100 route;
#X obj 200 260 list trim;
#X text 36 261 connect [route];
#X msg 53 199 connect 0 0 4 0;
#N canvas 0 0 450 300 count-1-to-x 0;
#X obj 150 128 max;
#X obj 150 153 until;
#X obj 185 181 + 1;
#X obj 150 210 list prepend;
#X msg 196 153 1;
#X obj 150 181 f 1;
#X obj 250 212 t a;
#X obj 125 91 t b a b b;
#X obj 125 242 list;
#X obj 125 272 outlet;
#X obj 125 61 inlet;
#X connect 0 0 1 0;
#X connect 1 0 5 0;
#X connect 2 0 5 1;
#X connect 3 0 6 0;
#X connect 3 0 8 1;
#X connect 4 0 5 1;
#X connect 5 0 2 0;
#X connect 5 0 3 0;
#X connect 6 0 3 1;
#X connect 7 0 8 0;
#X connect 7 1 0 0;
#X connect 7 2 4 0;
#X connect 7 3 3 1;
#X connect 8 0 9 0;
#X connect 10 0 7 0;
#X restore 200 201 pd count-1-to-x;
#X obj 200 285 outlet;
#X obj 200 168 f;
#X obj 53 128 t b f;
#X connect 0 0 8 0;
#X connect 1 0 2 0;
#X connect 2 0 6 0;
#X connect 4 0 6 0;
#X connect 5 0 1 0;
#X connect 7 0 5 0;
#X connect 8 0 4 0;
#X connect 8 1 7 0;
#X restore 330 195 pd make-and-connect-route;
#X msg 701 180 bang;
#X msg 596 181 bang;
#X text 351 225 [route] is object index 4 now;
#N canvas 132 170 1000 587 make-one-object 0;
#X obj 94 38 inlet;
#X obj 94 550 outlet;
#X obj 182 36 inlet;
#X obj 126 95 + 1;
#X msg 182 61 0;
#X obj 94 96 f 0;
#X obj 94 64 t b a;
#X obj 395 155 * 30;
#X obj 395 268 list append;
#X text 485 271 append object name and arguments;
#X obj 117 153 + 5;
#X text 474 235 x \, y;
#X obj 395 234 pack 0 0;
#X obj 395 291 list prepend obj;
#X obj 395 315 list trim;
#X obj 395 180 + 150;
#X obj 94 124 t a a a;
#X obj 94 178 pack 0 0;
#X text 166 179 route outlet \, obj index;
#X obj 395 207 swap 350;
#X msg 94 404 connect 1 0 \$2 1 \, connect 4 \$1 \$2 0 \, connect \$2
0 2 0 \, connect \$2 1 3 0 \,;
#X connect 0 0 6 0;
#X connect 2 0 4 0;
#X connect 3 0 5 1;
#X connect 4 0 5 1;
#X connect 5 0 3 0;
#X connect 5 0 16 0;
#X connect 6 0 5 0;
#X connect 6 1 8 1;
#X connect 7 0 15 0;
#X connect 8 0 13 0;
#X connect 10 0 17 1;
#X connect 12 0 8 0;
#X connect 13 0 14 0;
#X connect 14 0 1 0;
#X connect 15 0 19 0;
#X connect 16 0 17 0;
#X connect 16 1 10 0;
#X connect 16 2 7 0;
#X connect 17 0 20 0;
#X connect 19 0 12 0;
#X connect 19 1 12 1;
#X connect 20 0 1 0;
#X restore 151 265 pd make-one-object;
#X msg 274 241 bang;
#X obj 151 213 until;
#X obj 151 193 max;
#X text 380 171 make [route];
#X obj 330 171 f;
#X obj 330 402 outlet;
#X obj 151 243 list;
#X text 187 244 obj+args;
#X obj 151 171 f;
#X obj 83 34 inlet;
#X text 83 13 object count;
#X obj 355 50 inlet;
#X text 355 29 object names and arguments;
#X obj 151 83 t f b f b b;
#X obj 83 57 t b f;
#X msg 83 264 loadbang;
#X msg 242 51 polyob x y z;
#X msg 128 35 10;
#X connect 0 0 12 0;
#X connect 1 0 12 0;
#X connect 2 0 12 0;
#X connect 3 0 0 0;
#X connect 4 0 1 0;
#X connect 6 0 12 0;
#X connect 7 0 6 1;
#X connect 8 0 13 0;
#X connect 9 0 8 0;
#X connect 11 0 2 0;
#X connect 13 0 6 0;
#X connect 15 0 9 0;
#X connect 16 0 21 0;
#X connect 18 0 13 1;
#X connect 20 0 15 0;
#X connect 20 1 7 0;
#X connect 20 2 11 0;
#X connect 20 3 4 0;
#X connect 20 4 3 0;
#X connect 21 0 22 0;
#X connect 21 1 20 0;
#X connect 22 0 12 0;
#X connect 23 0 13 1;
#X connect 24 0 21 0;
#X restore 256 217 pd \$0-fill-subpatch;
#X obj 256 135 t a b;
#X obj 256 247 s pd-\$0-poly;
#X text 495 29 usage: u_makepoly <number of objects> <voice stealing:
0/1> <abstraction name> <up to 4 creation args>;
#X text 494 105 based on: polypoly;
#X obj 386 191 list append \$3 \$4 \$5 \$6 \$7;
#X connect 0 0 9 0;
#X connect 3 0 10 0;
#X connect 4 0 5 0;
#X connect 5 0 14 0;
#X connect 6 0 2 0;
#X connect 9 0 6 0;
#X connect 9 1 6 1;
#X connect 9 2 6 2;
#X connect 11 0 7 0;
#X connect 12 0 8 0;
#X connect 13 0 15 0;
#X connect 14 0 13 0;
#X connect 14 1 18 0;
#X connect 18 0 13 1;
