#N canvas 257 60 730 457 10;
#X obj 270 202 exp;
#X obj 230 250 /;
#X obj 270 222 + 1;
#X obj 230 118 inlet;
#X obj 230 281 outlet;
#X obj 230 141 t a a;
#X obj 270 183 * -1;
#X obj 270 164 * 1;
#X msg 230 200 1;
#X obj 361 174 inlet;
#X obj 420 145 loadbang;
#X msg 420 170 gain 1;
#X obj 288 139 r \$0-gain;
#X obj 421 198 u_loader u_sigm-\$1 \$0;
#X obj 361 228 u_dispatch \$0 gain;
#X connect 0 0 2 0;
#X connect 1 0 4 0;
#X connect 2 0 1 1;
#X connect 3 0 5 0;
#X connect 5 0 8 0;
#X connect 5 1 7 0;
#X connect 6 0 0 0;
#X connect 7 0 6 0;
#X connect 8 0 1 0;
#X connect 9 0 14 0;
#X connect 10 0 11 0;
#X connect 11 0 14 0;
#X connect 12 0 7 1;
