#N canvas 405 386 807 584 10;
#X obj 330 212 m_autoscale -1 1;
#X obj 330 71 inlet~;
#X obj 330 187 -;
#X obj 330 158 t a a;
#X obj 330 329 change;
#X obj 330 352 select 1;
#X obj 330 308 > 0.5;
#X obj 436 327 change;
#X obj 436 350 select 1;
#X obj 330 280 t a a;
#X text 278 351 onset;
#X text 505 351 offset;
#X obj 436 451 b;
#X obj 330 449 b;
#N canvas 0 0 450 300 gate 0;
#X obj 109 108 inlet;
#X obj 162 107 inlet;
#X msg 162 133 1;
#X obj 109 193 t a b;
#X msg 198 135 0;
#X obj 109 221 outlet;
#X obj 109 166 spigot 0;
#X connect 0 0 6 0;
#X connect 1 0 2 0;
#X connect 2 0 6 1;
#X connect 3 0 5 0;
#X connect 3 1 4 0;
#X connect 4 0 6 1;
#X connect 6 0 3 0;
#X restore 436 429 pd gate;
#X obj 92 498 u_record \$1 \$2;
#X obj 345 101 delwrite~ \$0-rec 100;
#X obj 91 170 samplerate~;
#X obj 91 228 /;
#X obj 91 198 swap 1000;
#X obj 91 255 * 1024;
#X msg 113 141 bang;
#X obj 91 115 loadbang;
#X obj 91 285 delread~ \$0-rec;
#X msg 436 478 stop;
#X obj 92 544 outlet;
#X obj 483 479 delay 10;
#X msg 483 502 info;
#X obj 551 73 inlet;
#X msg 330 479 clear \, start;
#N canvas 0 0 450 300 once 0;
#X obj 109 108 inlet;
#X obj 109 166 spigot 1;
#X obj 162 107 inlet;
#X msg 162 133 1;
#X obj 109 193 t a b;
#X msg 198 135 0;
#X obj 109 221 outlet;
#X connect 0 0 1 0;
#X connect 1 0 4 0;
#X connect 2 0 3 0;
#X connect 3 0 1 1;
#X connect 4 0 6 0;
#X connect 4 1 5 0;
#X connect 5 0 1 1;
#X restore 330 381 pd once;
#X obj 551 107 list trim;
#X obj 522 249 hsl 128 15 -1 1 0 0 empty empty empty -2 -8 0 10 -262144
-1 -1 8790 1;
#X msg 435 182 dump;
#X obj 487 205 unpack 0 0;
#X floatatom 490 225 5 0 0 0 - - -;
#X floatatom 550 224 5 0 0 0 - - -;
#X msg 433 152 reset;
#X msg 410 123 bang;
#X obj 295 377 bng 15 250 50 0 empty empty empty 17 7 0 10 -262144
-1 -1;
#X obj 451 378 bng 15 250 50 0 empty empty empty 17 7 0 10 -262144
-1 -1;
#X obj 330 257 spigot 1;
#X msg 399 259 1;
#X msg 343 233 0;
#X obj 376 237 delay 5000;
#X obj 436 306 < -0.5;
#X obj 330 127 env~ 2048;
#X obj 530 305 * -1;
#X obj 512 281 / 100;
#X floatatom 512 263 5 0 0 0 - - -;
#X obj 551 130 route reset sens;
#X connect 0 0 32 0;
#X connect 0 0 41 0;
#X connect 0 1 34 0;
#X connect 1 0 16 0;
#X connect 1 0 46 0;
#X connect 2 0 0 0;
#X connect 3 0 2 1;
#X connect 3 1 2 0;
#X connect 4 0 5 0;
#X connect 5 0 30 0;
#X connect 5 0 39 0;
#X connect 6 0 4 0;
#X connect 7 0 8 0;
#X connect 8 0 14 0;
#X connect 8 0 40 0;
#X connect 9 0 6 0;
#X connect 9 1 45 0;
#X connect 12 0 24 0;
#X connect 12 0 26 0;
#X connect 13 0 29 0;
#X connect 14 0 12 0;
#X connect 15 0 25 0;
#X connect 17 0 19 0;
#X connect 18 0 20 0;
#X connect 19 0 18 0;
#X connect 19 1 18 1;
#X connect 20 0 23 0;
#X connect 21 0 17 0;
#X connect 22 0 17 0;
#X connect 23 0 15 0;
#X connect 24 0 15 1;
#X connect 26 0 27 0;
#X connect 27 0 15 1;
#X connect 28 0 31 0;
#X connect 29 0 15 1;
#X connect 30 0 13 0;
#X connect 30 0 14 1;
#X connect 31 0 50 0;
#X connect 33 0 0 1;
#X connect 34 0 35 0;
#X connect 34 1 36 0;
#X connect 37 0 0 1;
#X connect 38 0 37 0;
#X connect 38 0 43 0;
#X connect 38 0 44 0;
#X connect 41 0 9 0;
#X connect 42 0 41 1;
#X connect 43 0 41 1;
#X connect 44 0 42 0;
#X connect 45 0 7 0;
#X connect 46 0 3 0;
#X connect 47 0 45 1;
#X connect 48 0 47 0;
#X connect 48 0 6 1;
#X connect 49 0 48 0;
#X connect 50 0 30 1;
#X connect 50 0 38 0;
#X connect 50 1 48 0;
