#N canvas 59 148 361 455 10;
#X obj 10 10 cnv 15 160 160 empty empty touch 20 12 0 14 -233017 -66577
0;
#X floatatom 17 56 5 0 0 1 id touch_down_id -;
#X floatatom 74 56 5 0 0 1 x touch_down_x -;
#X floatatom 125 56 5 0 0 1 y touch_down_y -;
#X obj 190 10 cnv 15 160 160 empty empty accelerate 20 12 0 14 -233017
-66577 0;
#X floatatom 212 55 10 0 0 1 x ax -;
#X floatatom 213 100 10 0 0 1 y ay -;
#X floatatom 213 142 10 0 0 1 z az -;
#X floatatom 18 101 5 0 0 1 id touch_xy_id -;
#X floatatom 75 101 5 0 0 1 x touch_xy_x -;
#X floatatom 126 101 5 0 0 1 y touch_xy_y -;
#X floatatom 18 144 5 0 0 1 id touch_up_id -;
#X floatatom 75 144 5 0 0 1 x touch_up_x -;
#X floatatom 126 144 5 0 0 1 y touch_up_y -;
#X text 16 36 down;
#N canvas 943 152 283 437 touch 0;
#X obj 45 319 unpack f f f;
#X obj 45 28 r #touch;
#X obj 114 349 s touch_down_y;
#X obj 79 373 s touch_down_x;
#X obj 45 397 s touch_down_id;
#X obj 76 207 unpack f f f;
#X obj 107 98 unpack f f f;
#X obj 107 176 s touch_up_id;
#X obj 141 152 s touch_up_x;
#X obj 176 128 s touch_up_y;
#X obj 45 63 route down xy up;
#X obj 167 53 print;
#X obj 145 237 s touch_xy_y;
#X obj 110 261 s touch_xy_x;
#X obj 76 285 s touch_xy_id;
#X connect 0 0 4 0;
#X connect 0 1 3 0;
#X connect 0 2 2 0;
#X connect 1 0 10 0;
#X connect 5 0 14 0;
#X connect 5 1 13 0;
#X connect 5 2 12 0;
#X connect 6 0 7 0;
#X connect 6 1 8 0;
#X connect 6 2 9 0;
#X connect 10 0 0 0;
#X connect 10 1 5 0;
#X connect 10 2 6 0;
#X restore 89 15 pd touch;
#N canvas 664 235 218 152 accel 0;
#X obj 40 58 unpack f f f;
#X obj 74 87 s ay;
#X obj 109 88 s az;
#X obj 40 87 s ax;
#X obj 40 28 r #accelerate;
#X obj 139 58 print;
#X connect 0 0 3 0;
#X connect 0 1 1 0;
#X connect 0 2 2 0;
#X connect 4 0 0 0;
#X restore 293 15 pd accel;
#X text 17 124 up;
#X text 16 79 xy;
#X obj 10 181 cnv 15 340 120 empty empty locate 20 12 0 14 -233017
-66577 0;
#X floatatom 19 209 10 0 0 1 latitude lat -;
#X floatatom 19 233 10 0 0 1 longitude lon -;
#X symbolatom 19 281 25 0 0 1 timestamp timestamp -;
#X floatatom 19 258 10 0 0 1 altitude_(m) alt -;
#X floatatom 166 210 10 0 0 1 course_(degrees) speed -;
#X floatatom 166 234 10 0 0 1 horz_accuracy_(m) haccuracy -;
#X floatatom 166 258 10 0 0 1 vert_accuracy_(m) vaccuracy -;
#N canvas 272 380 374 325 locate 0;
#X obj 20 22 r #locate;
#X obj 149 91 s timestamp;
#X obj 20 296 s lat;
#X obj 38 270 s lon;
#X obj 75 213 s speed;
#X obj 56 241 s alt;
#X obj 130 121 s vaccuracy;
#X obj 112 151 s haccuracy;
#X obj 281 24 r runlocate;
#X obj 281 86 s #pdparty;
#X msg 281 58 locate \$1;
#X obj 20 55 unpack f f f f f f f s;
#X obj 93 184 s course;
#X connect 0 0 11 0;
#X connect 8 0 10 0;
#X connect 10 0 9 0;
#X connect 11 0 2 0;
#X connect 11 1 3 0;
#X connect 11 2 5 0;
#X connect 11 3 4 0;
#X connect 11 4 12 0;
#X connect 11 5 7 0;
#X connect 11 6 6 0;
#X connect 11 7 1 0;
#X restore 285 280 pd locate;
#X obj 99 186 tgl 15 0 runlocate empty run 17 7 0 10 -262144 -1 -1
0 1;
#X obj 10 384 cnv 15 340 60 empty empty [key] 20 12 0 14 -233017 -66577
0;
#X floatatom 20 413 5 0 0 1 - key -;
#X text 129 387 try a usb/bluetooth keyboard;
#X obj 93 408 bng 30 250 50 0 empty q q 13 15 0 10 -262144 -1 -1;
#X obj 135 408 bng 30 250 50 0 empty w w 13 15 0 10 -262144 -1 -1;
#X obj 179 408 bng 30 250 50 0 empty e e 13 15 0 10 -262144 -1 -1;
#X obj 222 408 bng 30 250 50 0 empty r r 13 15 0 10 -262144 -1 -1;
#X obj 266 408 bng 30 250 50 0 empty t t 13 15 0 10 -262144 -1 -1;
#X obj 311 408 bng 30 250 50 0 empty y y 13 15 0 10 -262144 -1 -1;
#N canvas 814 111 303 150 key 0;
#X obj 21 25 key;
#X obj 72 55 route 113 119 101 114 116 121;
#X obj 72 86 s q;
#X obj 100 86 s w;
#X obj 129 86 s e;
#X obj 157 86 s r;
#X obj 186 86 s t;
#X obj 214 86 s y;
#X obj 21 55 s key;
#X obj 72 25 r key;
#X connect 0 0 8 0;
#X connect 1 0 2 0;
#X connect 1 1 3 0;
#X connect 1 2 4 0;
#X connect 1 3 5 0;
#X connect 1 4 6 0;
#X connect 1 5 7 0;
#X connect 9 0 1 0;
#X restore 78 388 pd key;
#X obj 10 313 cnv 15 340 60 empty empty heading 20 12 0 14 -233017
-66577 0;
#X symbolatom 166 318 25 0 0 0 - heading-timestamp -;
#X obj 98 319 tgl 15 0 runheading empty run 17 7 0 10 -262144 -1 -1
0 1;
#X floatatom 18 348 10 0 0 1 degrees degrees -;
#X floatatom 165 348 10 0 0 1 accuracy_(deg) degree-accuracy -;
#N canvas 272 380 330 181 heading 0;
#X obj 238 86 s #pdparty;
#X obj 20 22 r #heading;
#X obj 20 55 unpack f f s;
#X obj 54 120 s degree-accuracy;
#X obj 20 150 s degrees;
#X obj 89 86 s heading-timestamp;
#X msg 238 58 heading \$1;
#X obj 238 24 r runheading;
#X connect 1 0 2 0;
#X connect 2 0 4 0;
#X connect 2 1 3 0;
#X connect 2 2 5 0;
#X connect 6 0 0 0;
#X connect 7 0 6 0;
#X restore 283 317 pd heading;
#X floatatom 166 187 10 0 0 1 speed_(mps) speed -;
