#N canvas 71 67 363 453 10;
#X obj 22 396 bng 40 250 50 0 empty q q 18 20 0 10 -262144 -1 -1;
#X obj 78 396 bng 40 250 50 0 empty w w 18 20 0 10 -262144 -1 -1;
#X obj 134 396 bng 40 250 50 0 empty e e 18 20 0 10 -262144 -1 -1;
#X obj 191 396 bng 40 250 50 0 empty r r 18 20 0 10 -262144 -1 -1;
#X obj 248 396 bng 40 250 50 0 empty t t 18 20 0 10 -262144 -1 -1;
#X obj 305 396 bng 40 250 50 0 empty y y 18 20 0 10 -262144 -1 -1;
#X obj 10 10 cnv 15 160 160 empty empty touch 20 12 0 14 -233017 -66577
0;
#X floatatom 17 56 5 0 0 1 id touch_down_id -;
#X floatatom 74 56 5 0 0 1 x touch_down_x -;
#X floatatom 125 56 5 0 0 1 y touch_down_y -;
#X obj 12 312 cnv 15 80 60 empty empty [key] 20 12 0 14 -233017 -66577
0;
#X floatatom 33 343 5 0 0 1 - key -;
#X obj 190 11 cnv 15 160 160 empty empty accelerate 20 12 0 14 -233017
-66577 0;
#X floatatom 212 56 10 0 0 1 x ax -;
#X floatatom 213 101 10 0 0 1 y ay -;
#X floatatom 213 143 10 0 0 1 z az -;
#X floatatom 18 101 5 0 0 1 id touch_xy_id -;
#X floatatom 75 101 5 0 0 1 x touch_xy_x -;
#X floatatom 126 101 5 0 0 1 y touch_xy_y -;
#X floatatom 18 144 5 0 0 1 id touch_up_id -;
#X floatatom 75 144 5 0 0 1 x touch_up_x -;
#X floatatom 126 144 5 0 0 1 y touch_up_y -;
#X text 16 36 down;
#N canvas 943 152 283 437 touch 0;
#X obj 45 319 unpack f f f;
#X obj 45 28 r #touch;
#X obj 114 349 s touch_down_y;
#X obj 79 373 s touch_down_x;
#X obj 45 397 s touch_down_id;
#X obj 76 207 unpack f f f;
#X obj 107 98 unpack f f f;
#X obj 107 176 s touch_up_id;
#X obj 141 152 s touch_up_x;
#X obj 176 128 s touch_up_y;
#X obj 45 63 route down xy up;
#X obj 167 53 print;
#X obj 145 237 s touch_xy_y;
#X obj 110 261 s touch_xy_x;
#X obj 76 285 s touch_xy_id;
#X connect 0 0 4 0;
#X connect 0 1 3 0;
#X connect 0 2 2 0;
#X connect 1 0 10 0;
#X connect 5 0 14 0;
#X connect 5 1 13 0;
#X connect 5 2 12 0;
#X connect 6 0 7 0;
#X connect 6 1 8 0;
#X connect 6 2 9 0;
#X connect 10 0 0 0;
#X connect 10 1 5 0;
#X connect 10 2 6 0;
#X restore 89 15 pd touch;
#N canvas 664 235 218 152 accel 0;
#X obj 40 58 unpack f f f;
#X obj 74 87 s ay;
#X obj 109 88 s az;
#X obj 40 87 s ax;
#X obj 40 28 r #accelerate;
#X obj 139 58 print;
#X connect 0 0 3 0;
#X connect 0 1 1 0;
#X connect 0 2 2 0;
#X connect 4 0 0 0;
#X restore 293 16 pd accel;
#N canvas 814 111 303 150 key 0;
#X obj 21 25 key;
#X obj 72 55 route 113 119 101 114 116 121;
#X obj 72 86 s q;
#X obj 100 86 s w;
#X obj 129 86 s e;
#X obj 157 86 s r;
#X obj 186 86 s t;
#X obj 214 86 s y;
#X obj 21 55 s key;
#X obj 72 25 r key;
#X connect 0 0 8 0;
#X connect 1 0 2 0;
#X connect 1 1 3 0;
#X connect 1 2 4 0;
#X connect 1 3 5 0;
#X connect 1 4 6 0;
#X connect 1 5 7 0;
#X connect 9 0 1 0;
#X restore 103 323 pd key;
#X text 17 124 up;
#X text 16 79 xy;
#X text 100 346 try a usb/bluetooth keyboard;
#X obj 11 191 cnv 15 340 100 empty empty locate 20 12 0 14 -233017
-66577 0;
#X floatatom 20 218 10 0 0 1 latitude lat -;
#X floatatom 20 242 10 0 0 1 longitude lon -;
#X symbolatom 168 195 25 0 0 0 - timestamp -;
#X floatatom 20 267 10 0 0 1 altitude_(m) alt -;
#X floatatom 167 219 10 0 0 1 speed_(mps) speed -;
#X floatatom 167 243 10 0 0 1 horz_accuracy_(m) haccuracy -;
#X floatatom 167 267 10 0 0 1 vert_accuracy_(m) vaccuracy -;
#N canvas 272 380 225 299 locate 0;
#X obj 20 22 r #locate;
#X obj 137 86 s timestamp;
#X obj 20 261 s lat;
#X obj 39 235 s lon;
#X obj 78 178 s speed;
#X obj 59 206 s alt;
#X obj 117 116 s vaccuracy;
#X obj 98 146 s haccuracy;
#X obj 20 55 unpack f f f f f f s;
#X connect 0 0 8 0;
#X connect 8 0 2 0;
#X connect 8 1 3 0;
#X connect 8 2 5 0;
#X connect 8 3 4 0;
#X connect 8 4 7 0;
#X connect 8 5 6 0;
#X connect 8 6 1 0;
#X restore 289 324 pd locate;
