#N canvas 137 104 480 266 10;
#X obj 204 145 osc~ 440;
#X obj 204 186 *~;
#X obj 204 207 dac~;
#X obj 363 6 loadbang;
#X msg 363 27 \; pd dsp 1;
#X obj 13 63 r test;
#X obj 13 84 print;
#X obj 272 145 osc~;
#X obj 272 103 r test;
#X obj 272 124 mtof;
#X obj 13 23 nbx 2 32 0 10 0 1 test test-receive hello 0 -8 0 10 -262144
-1 -1 5 256;
#X connect 0 0 1 0;
#X connect 1 0 2 0;
#X connect 1 0 2 1;
#X connect 3 0 4 0;
#X connect 5 0 6 0;
#X connect 7 0 1 1;
#X connect 8 0 9 0;
#X connect 9 0 7 0;
