#N canvas 28 259 376 348 10;
#X obj 43 67 inlet;
#X obj 153 104 loadbang;
#X obj 249 207 symbol \$1;
#X obj 140 239 pack s s s;
#X obj 43 274 list;
#X obj 43 240 symbol;
#X obj 168 207 symbol text;
#X obj 76 207 symbol \$0-txt;
#X obj 43 107 t b a b;
#X msg 245 155 0;
#X obj 153 129 spigot 1;
#X obj 43 312 s rj_text;
#X text 15 11 Hackish implementation of rj_text as an abstraction for
pd-for-android & PdParty.;
#X obj 153 154 t b b b b b;
#N canvas 346 378 177 209 arg1 0;
#X obj 46 25 inlet;
#X obj 46 64 list append \$1;
#X obj 46 90 sel 0;
#X msg 46 118 svmbol empty;
#X obj 46 155 outlet;
#X connect 0 0 1 0;
#X connect 1 0 2 0;
#X connect 2 0 3 0;
#X connect 2 1 4 0;
#X connect 3 0 4 0;
#X restore 300 183 pd arg1;
#X connect 0 0 8 0;
#X connect 1 0 10 0;
#X connect 2 0 3 2;
#X connect 3 0 11 0;
#X connect 4 0 11 0;
#X connect 5 0 4 0;
#X connect 6 0 3 1;
#X connect 7 0 3 0;
#X connect 7 0 5 1;
#X connect 8 0 5 0;
#X connect 8 1 4 1;
#X connect 8 2 10 0;
#X connect 9 0 10 1;
#X connect 10 0 13 0;
#X connect 13 0 7 0;
#X connect 13 1 6 0;
#X connect 13 2 2 0;
#X connect 13 3 9 0;
#X connect 13 4 14 0;
#X connect 14 0 2 1;
