#N canvas 91 146 488 461 10;
#X msg 224 204 set %s;
#X obj 160 352 t a;
#X obj 43 366 makefilename %s;
#X obj 24 79 t b a b;
#X obj 24 397 symbol;
#X obj 43 175 route symbol float;
#X obj 43 203 symbol;
#X obj 24 38 inlet;
#X obj 24 427 outlet;
#X obj 304 307 makefilename 1%s%%s;
#X msg 304 337 set set \, adddollsym \$1;
#X msg 160 373 set \$1 %s;
#X obj 104 204 makefilename %g;
#X obj 43 140 u_listdrip;
#X obj 304 280 symbol;
#X msg 304 200 32;
#X obj 356 258 makefilename %c;
#X obj 304 172 sel symbol;
#X obj 304 110 symbol \$1;
#X obj 361 144 symbol;
#X obj 334 53 loadbang;
#X obj 334 80 t b b;
#X text 336 200 default: SPACE char;
#X text 374 118 detect \$1 symbol;
#X obj 270 41 inlet;
#X obj 304 230 route symbol float;
#N canvas 172 83 586 377 LICENSE-GPL 0;
#X text 57 88 This program is free software: you can redistribute it
and/or modify it under the terms of the GNU General Public License
as published by the Free Software Foundation \, either version 3 of
the License \, or (at your option) any later version.;
#X text 58 168 This program is distributed in the hope that it will
be useful \, but WITHOUT ANY WARRANTY \; without even the implied warranty
of MERCHANTABILITY or FITNESS FOR A PARTICULAR PURPOSE. See the GNU
General Public License for more details.;
#X text 57 261 You should have received a copy of the GNU General Public
License along with this program. If not \, see <http://www.gnu.org/licenses/>.
;
#X text 60 325 See the file LICENSE.txt for the full license text.
;
#X text 56 54 Copyright (C) 2012 \, Dan Wilcox <danomatika@gmail.com>
;
#X restore 304 410 pd LICENSE-GPL;
#X text 76 52 based on : zexy [list2symbol];
#X text 38 10 usage: u_list2symbol <separator symbol> (optional);
#X connect 0 0 2 0;
#X connect 1 0 11 0;
#X connect 2 0 1 0;
#X connect 2 0 4 1;
#X connect 3 0 4 0;
#X connect 3 1 13 0;
#X connect 3 2 0 0;
#X connect 4 0 8 0;
#X connect 5 0 6 0;
#X connect 5 1 12 0;
#X connect 6 0 2 0;
#X connect 7 0 3 0;
#X connect 9 0 10 0;
#X connect 10 0 11 0;
#X connect 11 0 2 0;
#X connect 12 0 2 0;
#X connect 13 0 5 0;
#X connect 14 0 9 0;
#X connect 15 0 25 0;
#X connect 16 0 14 0;
#X connect 17 0 15 0;
#X connect 17 1 25 0;
#X connect 18 0 17 0;
#X connect 19 0 17 1;
#X connect 20 0 21 0;
#X connect 21 0 18 0;
#X connect 21 1 19 0;
#X connect 24 0 25 0;
#X connect 25 0 14 0;
#X connect 25 1 16 0;
