#N canvas 674 609 396 182 10;
#X obj 10 2 cnv 15 300 30 empty canvas label 10 15 0 14 -257985 -1
0;
#X obj 179 97 r test-snd;
#X obj 179 161 s canvas;
#X obj 7 110 droidnetreceive 22334 test;
#X obj 179 119 list trim;
#X obj 179 140 route canvas;
#X obj 8 131 loadbang;
#X text 3 91 "canvas pos 10 50";
#X text 3 57 connect to port 22334 then send commands to the;
#X text 4 75 canvas like "canvas label NewLabel" or;
#X msg 8 153 label label;
#X connect 1 0 4 0;
#X connect 4 0 5 0;
#X connect 5 0 2 0;
#X connect 6 0 10 0;
#X connect 10 0 2 0;
