#N canvas 473 140 603 328 10;
#X obj 265 239 netsend;
#X obj 265 261 tgl 15 0 empty empty empty 17 7 0 10 -262144 -1 -1 0
1;
#X msg 15 124 disconnect;
#X msg 11 83 connect 192.168.1.40 22334;
#X obj 204 95 metro 150;
#X obj 203 115 i;
#X obj 229 115 + 1;
#X obj 204 57 tgl 15 0 empty empty empty 17 7 0 10 -262144 -1 -1 0
1;
#X msg 245 66 150;
#X msg 275 67 50;
#X msg 304 66 10;
#X msg 12 63 connect 192.168.1.94 22334;
#X msg 334 66 2;
#X msg 407 115 10 \$1;
#X floatatom 407 93 5 0 0 0 - - -;
#X msg 407 136 send canvas pos \$1 \$2;
#X msg 203 141 send canvas label count=\$1;
#X obj 408 27 metro 150;
#X obj 407 47 i;
#X obj 433 47 + 1;
#X obj 408 0 tgl 15 0 empty empty empty 17 7 0 10 -262144 -1 -1 0 1
;
#X msg 449 -2 150;
#X msg 479 -1 50;
#X msg 508 -2 10;
#X msg 538 -2 2;
#X obj 407 70 mod 80;
#X floatatom 150 134 5 0 0 0 - - -;
#X msg 265 175 send canvas label hello;
#X text 38 -2 1 : launch droidnetreceive test patch on your phone;
#X text 38 9 2 : set the ip address of the phone into a "connect" message
;
#X text 38 31 4 : send messages prefixed by "canvas";
#X text 38 20 3 : connect;
#X connect 0 0 1 0;
#X connect 2 0 0 0;
#X connect 3 0 0 0;
#X connect 4 0 5 0;
#X connect 5 0 6 0;
#X connect 5 0 16 0;
#X connect 5 0 26 0;
#X connect 6 0 5 1;
#X connect 7 0 4 0;
#X connect 8 0 4 1;
#X connect 9 0 4 1;
#X connect 10 0 4 1;
#X connect 11 0 0 0;
#X connect 12 0 4 1;
#X connect 13 0 15 0;
#X connect 14 0 13 0;
#X connect 15 0 0 0;
#X connect 16 0 0 0;
#X connect 17 0 18 0;
#X connect 18 0 19 0;
#X connect 18 0 25 0;
#X connect 19 0 18 1;
#X connect 20 0 17 0;
#X connect 21 0 17 1;
#X connect 22 0 17 1;
#X connect 23 0 17 1;
#X connect 24 0 17 1;
#X connect 25 0 14 0;
#X connect 27 0 0 0;
