#N canvas 306 29 776 775 10;
#N canvas 111 86 587 610 delay 1;
#X obj 38 36 inlet~;
#X obj 33 449 outlet~;
#X obj 180 30 inlet~;
#X obj 296 458 outlet~;
#X obj 185 323 r tick(ms);
#X obj 100 222 *~ 0.5;
#X obj 185 348 * 2.999;
#X obj 42 132 d-fbdelay~ 328 1.005 0.65 200 7000 0.8 0.012;
#X msg 182 391 time \$1;
#X obj 285 54 r delayctl;
#X connect 0 0 7 0;
#X connect 2 0 7 1;
#X connect 4 0 6 0;
#X connect 6 0 8 0;
#X connect 7 0 1 0;
#X connect 7 1 3 0;
#X connect 8 0 7 0;
#X connect 9 0 7 2;
#X restore 109 392 pd delay;
#N canvas 680 140 493 342 reverb 0;
#X obj 12 24 inlet~;
#X obj 161 28 inlet~;
#X obj 23 266 outlet~;
#X obj 285 265 outlet~;
#X obj 251 31 r reverbctl;
#X obj 246 176 s~ torevl;
#X obj 42 165 s~ torevr;
#X obj 243 77 r~ torevr;
#X obj 48 80 r~ torevl;
#X obj 42 137 *~ 0.01;
#X obj 245 144 *~ 0.01;
#X obj 237 113 rev2~ 100 80 1500 20 400 30;
#X obj 35 110 rev2~ 100 80 1500 20 400 30;
#X connect 0 0 12 0;
#X connect 1 0 11 0;
#X connect 7 0 11 0;
#X connect 8 0 12 0;
#X connect 9 0 6 0;
#X connect 10 0 5 0;
#X connect 11 0 2 0;
#X connect 11 1 3 0;
#X connect 11 1 10 0;
#X connect 11 2 2 0;
#X connect 11 3 3 0;
#X connect 11 3 10 0;
#X connect 12 0 2 0;
#X connect 12 0 9 0;
#X connect 12 1 3 0;
#X connect 12 2 2 0;
#X connect 12 2 9 0;
#X connect 12 3 3 0;
#X restore 305 305 pd reverb;
#X text 116 320 sends;
#X obj 28 25 inlet~;
#X obj 88 25 inlet~;
#X obj 47 629 outlet~;
#X obj 401 655 outlet~;
#X obj 109 538 s~ toCL;
#X obj 166 540 s~ toCR;
#X obj 334 352 r~ toCL;
#X obj 394 352 r~ toCR;
#X obj 40 122 mix 1 -------;
#X obj 89 475 mix A ---------;
#X obj 322 407 mix C -------;
#X connect 0 0 12 0;
#X connect 0 1 12 1;
#X connect 1 0 13 0;
#X connect 1 1 13 1;
#X connect 3 0 11 0;
#X connect 4 0 11 1;
#X connect 9 0 13 0;
#X connect 10 0 13 1;
#X connect 11 0 5 0;
#X connect 11 1 0 0;
#X connect 11 2 1 0;
#X connect 11 3 6 0;
#X connect 11 4 0 1;
#X connect 11 5 1 1;
#X connect 12 0 5 0;
#X connect 12 2 7 0;
#X connect 12 3 6 0;
#X connect 12 5 8 0;
#X connect 13 0 5 0;
#X connect 13 1 12 0;
#X connect 13 3 6 0;
#X connect 13 4 12 1;
