#N canvas 816 227 342 318 10;
#X text 247 192 part of dlib;
#X text 36 258 released under the GNU General Public License v3+;
#X text 154 219 copyright damian stewart 2008;
#X text 125 233 damian@frey.co.nz | www.frey.co.nz;
#X obj 131 135 d-default \$2 12;
#X obj 24 162 outlet;
#X obj 131 161 outlet;
#X floatatom 75 163 5 0 0 0 - - -;
#X floatatom 24 109 5 0 0 0 - - -;
#X obj 24 135 d-default \$1 6;
#X text 17 6 d-default;
#X text 16 19 ---------;
#X text 22 65 example for d-default-help.pd;
#X connect 4 0 6 0;
#X connect 8 0 9 0;
#X connect 9 0 5 0;
#X connect 9 0 7 0;
