#N canvas 581 174 538 388 10;
#X obj 50 110 == 0;
#X obj 49 165 f \$2;
#X obj 50 136 sel 1 0;
#X obj 71 187 f \$1;
#X text 150 75 usage: [d-default \$2 30];
#X obj 18 40 inlet;
#X text 158 144 input: passes straight through;
#X obj 49 257 f;
#X obj 50 287 outlet;
#X text 156 35 provide default argument functionality;
#X obj 50 60 loadbang;
#X obj 50 85 f \$1;
#X text 154 97 on load this sends out \$2 if it is specified \,;
#X text 154 110 or 30 if it is not ('specified' means non-zero).;
#X connect 0 0 2 0;
#X connect 1 0 7 0;
#X connect 2 0 1 0;
#X connect 2 1 3 0;
#X connect 3 0 7 0;
#X connect 5 0 7 0;
#X connect 7 0 8 0;
#X connect 10 0 11 0;
#X connect 11 0 0 0;
