#N canvas 82 139 488 381 12;
#X obj 12 45 inlet~;
#X obj 131 49 inlet~;
#X obj 232 58 inlet;
#X obj 52 277 outlet~;
#X text 127 31 wet;
#X text 14 28 dry;
#X text 234 38 dry/wet bal (0..1) \, 0=dry;
#X obj 148 205 line~;
#X obj 128 230 *~;
#X msg 147 177 \$1 10;
#X obj 23 228 *~;
#X obj 57 191 line~;
#X msg 57 160 \$1 10;
#X obj 237 91 d-default \$1 0;
#X obj 59 131 -;
#X msg 58 101 1 \$1;
#X connect 0 0 10 0;
#X connect 1 0 8 0;
#X connect 2 0 13 0;
#X connect 7 0 8 1;
#X connect 8 0 3 0;
#X connect 9 0 7 0;
#X connect 10 0 3 0;
#X connect 11 0 10 1;
#X connect 12 0 11 0;
#X connect 13 0 15 0;
#X connect 13 0 9 0;
#X connect 14 0 12 0;
#X connect 15 0 14 0;
