#N canvas 55 41 1065 729 10;
#X obj 8 168 cnv 15 148 160 empty empty empty 20 12 0 14 -220917 -66577
0;
#X obj 275 339 inlet~;
#X obj 435 339 inlet~;
#X obj 46 689 outlet~;
#X obj 413 250 hip~ 5;
#X obj 234 241 hip~ 5;
#X obj 235 272 lop~ 22050;
#X obj 411 274 lop~ 22050;
#X obj 372 664 s~ \$0-fbr;
#X obj 183 647 s~ \$0-fbl;
#X obj 372 499 hip~ 0;
#X obj 372 539 lop~ 22050;
#X obj 188 542 lop~ 22050;
#X obj 185 502 hip~ 0;
#X obj 185 599 *~;
#X obj 372 603 *~;
#X obj 13 177 vsl 15 128 1 3000 0 0 empty empty empty 0 -9 0 10 -262144
-1 -1 1901 1;
#X text 10 310 time;
#X obj 81 177 vsl 15 128 10 22050 1 0 empty empty empty 0 -9 0 10 -262144
-1 -1 3799 1;
#X obj 96 177 vsl 15 128 10 22050 1 0 empty empty empty 0 -9 0 10 -262144
-1 -1 9409 1;
#X obj 54 177 vsl 15 128 0 1 0 0 empty empty empty 0 -9 0 10 -262144
-1 -1 7620 1;
#X obj 204 573 d-smooth~;
#X obj 389 573 d-smooth~;
#X obj 125 177 vsl 15 128 0 1 0 0 empty empty empty 0 -9 0 10 -262144
-1 -1 6350 1;
#X obj 56 650 d-drywet~;
#X obj 287 694 outlet~;
#X obj 292 665 d-drywet~;
#X obj 55 12 r panic;
#X text 80 309 hi;
#X text 98 309 lo;
#X text 123 309 lvl;
#X obj 249 391 delwrite~ \$0-left 4000;
#X obj 185 466 vd~ \$0-left;
#X obj 372 456 vd~ \$0-right;
#X obj 420 364 delwrite~ \$0-right 4000;
#X obj 28 177 vsl 15 128 0.25 4 1 0 empty empty empty 0 -9 0 10 -262144
-1 -1 6350 1;
#X obj 368 296 t b a;
#X obj 764 28 inlet;
#X obj 233 212 r~ \$0-fbr;
#X obj 412 213 r~ \$0-fbl;
#X obj 610 163 random 100;
#X obj 610 185 / 100;
#X obj 610 210 d-sq;
#X obj 610 136 metro 500;
#X obj 668 86 random 1000;
#X obj 668 111 + 500;
#X text 704 292 flutter;
#X obj 372 422 *~;
#X obj 185 423 *~;
#X obj 608 262 + 0.985;
#X obj 609 236 * 0.05;
#X obj 607 310 d-smooth~ 700;
#X obj 600 73 loadbang;
#X obj 698 212 / -2;
#X obj 698 232 + 1;
#X obj 17 44 d-default \$1 500;
#X obj 27 64 d-default \$2 1;
#X obj 137 44 d-default \$3 0.3;
#X obj 145 63 d-default \$4 0;
#X obj 265 45 d-default \$5 22050;
#X msg 54 141 0.3;
#X obj 276 64 d-default \$6 0.5;
#X obj 698 190 d-default \$7 0.01;
#X obj 369 317 * 1;
#X floatatom 492 449 5 0 0 0 - - -;
#X floatatom 12 340 5 0 0 0 - - -;
#X obj 40 311 bng 12 250 50 0 empty empty empty 17 7 0 10 -262144 -1
-1;
#X msg 68 370 1;
#X text 58 308 fb;
#X obj 9 114 route time timediff fb hi lo lvl flutter;
#X obj 373 629 *~;
#X obj 187 623 *~;
#X obj 604 348 sig~ 1;
#X obj 619 382 -~;
#X obj 617 413 +~ 1;
#X obj 534 317 line;
#X msg 535 296 \$1 700;
#X obj 296 488 * 22050;
#X floatatom 293 521 10 0 0 0 - - -;
#X obj 617 441 *~ 10;
#X obj 617 493 -~ 9;
#X obj 530 245 * 30;
#X obj 533 270 - 29;
#X obj 830 163 random 100;
#X obj 830 185 / 100;
#X obj 830 210 d-sq;
#X obj 830 136 metro 500;
#X obj 888 86 random 1000;
#X obj 888 111 + 500;
#X obj 828 262 + 0.985;
#X obj 829 236 * 0.05;
#X obj 827 310 d-smooth~ 700;
#X obj 918 211 / -2;
#X obj 918 232 + 1;
#X obj 817 94 bng 15 250 50 0 empty empty empty 17 7 0 10 -262144 -1
-1;
#X obj 814 348 sig~ 1;
#X obj 829 382 -~;
#X obj 827 413 +~ 1;
#X obj 827 441 *~ 10;
#X obj 827 493 -~ 9;
#X obj 439 489 * 22050;
#X obj 764 327 line;
#X msg 765 306 \$1 700;
#X obj 760 255 * 30;
#X obj 763 280 - 29;
#X floatatom 453 521 10 0 0 0 - - -;
#X obj 185 376 sig~;
#X msg 184 339 \$1;
#X msg 370 336 \$1;
#X obj 372 362 sig~;
#X connect 1 0 24 0;
#X connect 1 0 31 0;
#X connect 2 0 26 0;
#X connect 2 0 34 0;
#X connect 4 0 7 0;
#X connect 5 0 6 0;
#X connect 6 0 31 0;
#X connect 7 0 34 0;
#X connect 10 0 11 0;
#X connect 11 0 15 0;
#X connect 11 0 26 1;
#X connect 12 0 14 0;
#X connect 12 0 24 1;
#X connect 13 0 12 0;
#X connect 14 0 71 0;
#X connect 15 0 70 0;
#X connect 16 0 107 0;
#X connect 16 0 63 0;
#X connect 16 0 65 0;
#X connect 18 0 13 1;
#X connect 18 0 10 1;
#X connect 19 0 77 1;
#X connect 19 0 100 1;
#X connect 20 0 21 0;
#X connect 20 0 22 0;
#X connect 21 0 14 1;
#X connect 22 0 15 1;
#X connect 23 0 24 2;
#X connect 23 0 26 2;
#X connect 24 0 3 0;
#X connect 26 0 25 0;
#X connect 27 0 60 0;
#X connect 32 0 13 0;
#X connect 33 0 10 0;
#X connect 35 0 36 0;
#X connect 36 0 63 0;
#X connect 36 1 63 1;
#X connect 37 0 69 0;
#X connect 38 0 5 0;
#X connect 39 0 4 0;
#X connect 40 0 41 0;
#X connect 41 0 42 0;
#X connect 42 0 50 0;
#X connect 43 0 44 0;
#X connect 43 0 40 0;
#X connect 44 0 45 0;
#X connect 45 0 43 1;
#X connect 47 0 33 0;
#X connect 48 0 32 0;
#X connect 49 0 51 0;
#X connect 49 0 81 0;
#X connect 50 0 49 0;
#X connect 51 0 48 1;
#X connect 51 0 73 1;
#X connect 52 0 43 0;
#X connect 52 0 86 0;
#X connect 53 0 54 0;
#X connect 54 0 49 1;
#X connect 55 0 16 0;
#X connect 56 0 35 0;
#X connect 57 0 20 0;
#X connect 58 0 18 0;
#X connect 59 0 19 0;
#X connect 60 0 20 0;
#X connect 61 0 23 0;
#X connect 62 0 53 0;
#X connect 62 0 50 1;
#X connect 62 0 90 1;
#X connect 62 0 92 1;
#X connect 63 0 108 0;
#X connect 63 0 64 0;
#X connect 66 0 67 0;
#X connect 67 0 35 0;
#X connect 69 0 16 0;
#X connect 69 1 35 0;
#X connect 69 2 20 0;
#X connect 69 3 18 0;
#X connect 69 4 19 0;
#X connect 69 5 23 0;
#X connect 69 6 62 0;
#X connect 70 0 8 0;
#X connect 71 0 9 0;
#X connect 72 0 73 0;
#X connect 73 0 74 0;
#X connect 74 0 79 0;
#X connect 75 0 77 0;
#X connect 76 0 75 0;
#X connect 77 0 12 1;
#X connect 77 0 78 0;
#X connect 79 0 80 0;
#X connect 80 0 71 1;
#X connect 81 0 82 0;
#X connect 82 0 76 0;
#X connect 83 0 84 0;
#X connect 84 0 85 0;
#X connect 85 0 90 0;
#X connect 86 0 87 0;
#X connect 86 0 83 0;
#X connect 87 0 88 0;
#X connect 88 0 86 1;
#X connect 89 0 91 0;
#X connect 89 0 103 0;
#X connect 90 0 89 0;
#X connect 91 0 47 1;
#X connect 91 0 96 1;
#X connect 92 0 93 0;
#X connect 93 0 89 1;
#X connect 94 0 86 0;
#X connect 95 0 96 0;
#X connect 96 0 97 0;
#X connect 97 0 98 0;
#X connect 98 0 99 0;
#X connect 99 0 70 1;
#X connect 100 0 11 1;
#X connect 100 0 105 0;
#X connect 101 0 100 0;
#X connect 102 0 101 0;
#X connect 103 0 104 0;
#X connect 104 0 102 0;
#X connect 106 0 48 0;
#X connect 107 0 106 0;
#X connect 108 0 109 0;
#X connect 109 0 47 0;
#X coords 0 -1 1 1 150 180 1 7 150;
