#N canvas 698 22 546 762 10;
#X obj 123 178 timer;
#X obj 32 98 t a b;
#X obj 212 440 qlist;
#X obj 166 258 -;
#X text 178 335 elapsed time;
#X msg 206 168 0;
#X floatatom 212 521 5 0 0 0 - - -;
#X msg 166 319 add2 \$1;
#X obj 123 204 t b f f;
#X msg 91 299 add2 \$1;
#X obj 188 581 r \$0-note;
#X msg 335 165 clear;
#X text 80 315 target send;
#X text 37 376 note;
#X obj 32 63 inlet;
#X obj 206 68 inlet;
#X text 199 18 control;
#X text 196 42 bang=play;
#X obj 188 622 outlet;
#X obj 240 414 bng 15 250 50 0 empty empty empty 0 -6 0 8 -262144 -1
-1;
#X obj 242 196 print recording..;
#X msg 276 369 read \$1;
#X obj 297 318 symbol;
#X obj 273 267 symbol;
#X text 17 34 pitch volume channel;
#X text 195 33 record=record;
#X msg 378 388 print;
#X obj 153 399 spigot 0;
#X msg 197 364 1;
#X msg 226 361 0;
#X msg 288 386 write \$1;
#X msg 32 346 add \$1 \$2 \$3;
#X obj 93 261 symbol \$1;
#X obj 244 462 spigot;
#X obj 204 105 route record load save dump stop loop;
#X text 293 461 loop?;
#X obj 63 151 spigot 0;
#X msg 114 130 0;
#X msg 148 128 1;
#X text 92 99 reset timer on;
#X text 97 109 first note;
#X connect 0 0 8 0;
#X connect 1 0 31 0;
#X connect 1 0 37 0;
#X connect 1 1 0 1;
#X connect 1 1 36 0;
#X connect 2 0 6 0;
#X connect 2 1 33 0;
#X connect 3 0 7 0;
#X connect 5 0 3 1;
#X connect 7 0 27 0;
#X connect 8 0 32 0;
#X connect 8 1 3 1;
#X connect 8 2 3 0;
#X connect 9 0 27 0;
#X connect 10 0 18 0;
#X connect 11 0 2 0;
#X connect 14 0 1 0;
#X connect 15 0 34 0;
#X connect 19 0 2 0;
#X connect 21 0 2 0;
#X connect 22 0 30 0;
#X connect 23 0 21 0;
#X connect 26 0 2 0;
#X connect 27 0 2 0;
#X connect 28 0 27 1;
#X connect 29 0 27 1;
#X connect 30 0 2 0;
#X connect 31 0 27 0;
#X connect 32 0 9 0;
#X connect 33 0 2 0;
#X connect 34 0 11 0;
#X connect 34 0 5 0;
#X connect 34 0 20 0;
#X connect 34 0 28 0;
#X connect 34 0 38 0;
#X connect 34 1 23 0;
#X connect 34 2 22 0;
#X connect 34 3 26 0;
#X connect 34 4 29 0;
#X connect 34 5 33 1;
#X connect 34 6 2 0;
#X connect 36 0 0 0;
#X connect 37 0 36 1;
#X connect 38 0 36 1;
