#N canvas 237 78 731 497 10;
#X text -32 6 d-modes;
#X text -32 17 -------;
#X msg 29 116 64;
#X text -32 45 all input and output numbers are MIDI note values;
#X text 193 92 mode;
#X msg 169 117 ionian;
#X msg 220 119 dorian;
#X msg 269 119 lydian;
#X msg 316 119 phrygian;
#X msg 167 139 mixolydian;
#X msg 238 139 aeolian;
#X msg 291 139 locrian;
#X msg 170 164 pentatonic;
#X msg 239 164 pentatonic_altered;
#X msg 316 182 in_sen;
#X text -38 173 how much random detuning;
#X floatatom 167 278 5 0 0 0 - - -;
#X floatatom 200 278 5 0 0 0 - - -;
#X floatatom 234 278 5 0 0 0 - - -;
#X floatatom 269 278 5 0 0 0 - - -;
#X floatatom 303 278 5 0 0 0 - - -;
#X floatatom 337 278 5 0 0 0 - - -;
#X floatatom 371 278 5 0 0 0 - - -;
#X floatatom 405 278 5 0 0 0 - - -;
#X floatatom 522 318 5 0 0 0 - - -;
#X msg 427 125 1;
#X msg 455 125 2;
#X msg 483 125 3;
#X msg 513 125 4;
#X msg 428 146 5;
#X msg 459 146 6;
#X msg 488 146 7;
#X msg 517 146 8;
#X text 408 70 for convenience - send the requested;
#X text 405 100 1=tonic \, 2=supertonic \, 3=mediant etc.;
#X text 6 272 the scale \, as MIDI notes;
#X obj 264 434 *~;
#X obj 279 406 d-smooth~;
#X text 234 351 volume;
#X obj 279 330 vsl 15 64 0 1 0 0 empty empty empty 0 -9 0 10 -262144
-1 -1 800 1;
#X obj 257 461 dac~;
#X text 557 392 part of dlib;
#X text 346 458 released under the GNU General Public License v3+;
#X text 464 419 copyright damian stewart 2008;
#X text 435 433 damian@frey.co.nz | www.frey.co.nz;
#X text 466 295 requested scale degree note;
#X msg 58 116 52;
#X msg 86 116 76;
#X msg 26 201 detune 0.001;
#X obj 192 248 d-modes lydian 64 0 ----------------;
#X msg 26 219 detune 0;
#X text 410 80 scole degree note out the right outlet;
#X text -32 32 outputs pitches within a given musical mode;
#X obj 298 226 symbol;
#X text -32 62 creation arguments are [d-modes <mode> [<root>] [<detune>]
];
#X text -45 185 to apply to output - default 0%;
#X text -23 96 base note / 'key' - default 52;
#N canvas 293 204 820 443 voices 1;
#X obj 37 137 inlet;
#X obj 22 161 f;
#X obj 74 79 f 0;
#X obj 105 79 + 1;
#X obj 77 258 osc~;
#X obj 77 234 mtof;
#X obj 77 210 t a b;
#X obj 105 306 *~;
#X obj 131 259 vline~;
#X obj 74 34 loadbang;
#X obj 87 137 inlet;
#X obj 72 161 f;
#X obj 137 137 inlet;
#X obj 122 161 f;
#X obj 187 137 inlet;
#X obj 172 161 f;
#X obj 237 137 inlet;
#X obj 222 161 f;
#X obj 287 137 inlet;
#X obj 272 161 f;
#X obj 337 137 inlet;
#X obj 322 161 f;
#X obj 387 137 inlet;
#X obj 372 161 f;
#X obj 74 102 sel 0 1 2 3 4 5 6 7 8 9 10 11 12 13 14 15;
#X obj 135 79 % 16;
#X msg 142 25 bang;
#X obj 120 286 *~;
#X obj 74 57 metro 250;
#X obj 422 161 f;
#X obj 477 258 osc~;
#X obj 477 234 mtof;
#X obj 477 210 t a b;
#X obj 505 306 *~;
#X obj 531 259 vline~;
#X obj 472 161 f;
#X obj 522 161 f;
#X obj 572 161 f;
#X obj 622 161 f;
#X obj 672 161 f;
#X obj 722 161 f;
#X obj 772 161 f;
#X obj 474 102 sel 0 1 2 3 4 5 6 7 8 9 10 11 12 13 14 15;
#X obj 520 286 *~;
#X obj 219 386 dac~;
#X msg 131 236 1 10 \, 0 70 150;
#X msg 530 236 1 10 \, 0 70 150;
#X obj 441 72 + 8;
#X obj 474 73 % 16;
#X obj 327 358 d-pan~;
#X obj 322 300 sel 0 1;
#X obj 323 283 tgl 15 0 empty empty empty 17 7 0 10 -262144 -1 -1 0
1;
#X obj 216 306 sel 1 0;
#X msg 331 330 0.1;
#X msg 368 330 0.9;
#X obj 207 358 d-pan~;
#X msg 211 330 0.1;
#X msg 248 330 0.9;
#X floatatom 261 360 5 0 0 0 - - -;
#X floatatom 384 362 5 0 0 0 - - -;
#X connect 0 0 1 1;
#X connect 0 0 29 1;
#X connect 1 0 6 0;
#X connect 2 0 3 0;
#X connect 2 0 24 0;
#X connect 2 0 47 0;
#X connect 3 0 25 0;
#X connect 4 0 7 0;
#X connect 5 0 4 0;
#X connect 6 0 5 0;
#X connect 6 1 45 0;
#X connect 7 0 55 0;
#X connect 8 0 27 0;
#X connect 8 0 27 1;
#X connect 9 0 28 0;
#X connect 10 0 11 1;
#X connect 10 0 35 1;
#X connect 11 0 6 0;
#X connect 12 0 13 1;
#X connect 12 0 36 1;
#X connect 13 0 6 0;
#X connect 14 0 15 1;
#X connect 14 0 37 1;
#X connect 15 0 6 0;
#X connect 16 0 17 1;
#X connect 16 0 38 1;
#X connect 17 0 6 0;
#X connect 18 0 19 1;
#X connect 18 0 39 1;
#X connect 19 0 6 0;
#X connect 20 0 21 1;
#X connect 20 0 40 1;
#X connect 21 0 6 0;
#X connect 22 0 23 1;
#X connect 22 0 41 1;
#X connect 23 0 6 0;
#X connect 24 0 1 0;
#X connect 24 1 11 0;
#X connect 24 2 13 0;
#X connect 24 3 15 0;
#X connect 24 4 17 0;
#X connect 24 5 19 0;
#X connect 24 6 21 0;
#X connect 24 7 23 0;
#X connect 24 8 23 0;
#X connect 24 9 21 0;
#X connect 24 10 19 0;
#X connect 24 11 17 0;
#X connect 24 12 15 0;
#X connect 24 13 13 0;
#X connect 24 14 11 0;
#X connect 24 15 1 0;
#X connect 25 0 2 1;
#X connect 26 0 28 0;
#X connect 27 0 7 1;
#X connect 28 0 2 0;
#X connect 29 0 32 0;
#X connect 30 0 33 0;
#X connect 31 0 30 0;
#X connect 32 0 31 0;
#X connect 32 1 46 0;
#X connect 32 1 51 0;
#X connect 33 0 49 0;
#X connect 34 0 43 0;
#X connect 34 0 43 1;
#X connect 35 0 32 0;
#X connect 36 0 32 0;
#X connect 37 0 32 0;
#X connect 38 0 32 0;
#X connect 39 0 32 0;
#X connect 40 0 32 0;
#X connect 41 0 32 0;
#X connect 42 0 29 0;
#X connect 42 1 35 0;
#X connect 42 2 36 0;
#X connect 42 3 37 0;
#X connect 42 4 38 0;
#X connect 42 5 39 0;
#X connect 42 6 40 0;
#X connect 42 7 41 0;
#X connect 42 8 41 0;
#X connect 42 9 40 0;
#X connect 42 10 39 0;
#X connect 42 11 38 0;
#X connect 42 12 37 0;
#X connect 42 13 36 0;
#X connect 42 14 35 0;
#X connect 42 15 29 0;
#X connect 43 0 33 1;
#X connect 45 0 8 0;
#X connect 46 0 34 0;
#X connect 47 0 48 0;
#X connect 48 0 42 0;
#X connect 49 0 44 0;
#X connect 49 1 44 1;
#X connect 50 0 53 0;
#X connect 50 1 54 0;
#X connect 51 0 50 0;
#X connect 51 0 52 0;
#X connect 52 0 56 0;
#X connect 52 1 57 0;
#X connect 53 0 49 1;
#X connect 53 0 59 0;
#X connect 54 0 49 1;
#X connect 54 0 59 0;
#X connect 55 0 44 0;
#X connect 55 1 44 1;
#X connect 56 0 55 1;
#X connect 56 0 58 0;
#X connect 57 0 55 1;
#X connect 57 0 58 0;
#X restore 146 303 pd voices ----------------------------------------
;
#X text 51 304 and as sounds;
#X connect 2 0 49 0;
#X connect 5 0 53 0;
#X connect 6 0 53 0;
#X connect 7 0 53 0;
#X connect 8 0 53 0;
#X connect 9 0 53 0;
#X connect 10 0 53 0;
#X connect 11 0 53 0;
#X connect 12 0 53 0;
#X connect 13 0 53 0;
#X connect 14 0 53 0;
#X connect 25 0 49 2;
#X connect 26 0 49 2;
#X connect 27 0 49 2;
#X connect 28 0 49 2;
#X connect 29 0 49 2;
#X connect 30 0 49 2;
#X connect 31 0 49 2;
#X connect 32 0 49 2;
#X connect 36 0 40 0;
#X connect 36 0 40 1;
#X connect 37 0 36 1;
#X connect 39 0 37 0;
#X connect 46 0 49 0;
#X connect 47 0 49 0;
#X connect 48 0 49 0;
#X connect 49 0 16 0;
#X connect 49 0 57 0;
#X connect 49 1 17 0;
#X connect 49 1 57 1;
#X connect 49 2 18 0;
#X connect 49 2 57 2;
#X connect 49 3 19 0;
#X connect 49 3 57 3;
#X connect 49 4 20 0;
#X connect 49 4 57 4;
#X connect 49 5 21 0;
#X connect 49 5 57 5;
#X connect 49 6 22 0;
#X connect 49 6 57 6;
#X connect 49 7 23 0;
#X connect 49 7 57 7;
#X connect 49 8 24 0;
#X connect 50 0 49 0;
#X connect 53 0 49 1;
