#N canvas 701 157 466 365 10;
#X obj 12 35 inlet~;
#X obj 118 36 inlet;
#X obj 52 277 outlet~;
#X text 14 18 dry;
#X obj 145 221 line~;
#X obj 128 246 *~;
#X msg 145 193 \$1 10;
#X obj 23 244 *~;
#X obj 57 218 line~;
#X msg 57 186 \$1 10;
#X text 120 18 panning \, 0 = left \, 1 = right;
#X obj 148 286 outlet~;
#X obj 75 103 * 1.5708;
#X obj 145 103 * 1.5708;
#X obj 75 130 cos;
#X obj 145 130 sin;
#X obj 118 57 d-default \$1 0.5;
#X obj 118 78 t a a;
#X connect 0 0 7 0;
#X connect 0 0 5 0;
#X connect 1 0 16 0;
#X connect 4 0 5 1;
#X connect 5 0 11 0;
#X connect 6 0 4 0;
#X connect 7 0 2 0;
#X connect 8 0 7 1;
#X connect 9 0 8 0;
#X connect 12 0 14 0;
#X connect 13 0 15 0;
#X connect 14 0 9 0;
#X connect 15 0 6 0;
#X connect 16 0 17 0;
#X connect 17 0 12 0;
#X connect 17 1 13 0;
