#N canvas 404 364 558 365 10;
#X obj 12 80 inlet~;
#X obj 12 293 outlet~;
#X obj 12 246 d-drywet~ 0.5;
#X obj 180 177 *~ 1;
#X obj 90 174 *~ 1;
#X obj 270 177 *~ 1;
#X obj 360 177 *~ 1;
#X msg 432 104 fb \$1;
#X msg 132 82 freq \$1;
#X msg 232 82 freq \$1;
#X msg 322 82 freq \$1;
#X msg 412 82 freq \$1;
#X obj 132 55 unpack f f f f;
#X obj 132 11 inlet;
#X obj 132 35 route freq fb drywet;
#X obj 180 134 d-resunit~;
#X obj 19 180 *~ 4;
#X obj 90 134 d-resunit~;
#X obj 270 134 d-resunit~;
#X obj 360 134 d-resunit~;
#X connect 0 0 15 0;
#X connect 0 0 16 0;
#X connect 0 0 17 0;
#X connect 0 0 18 0;
#X connect 0 0 19 0;
#X connect 2 0 1 0;
#X connect 3 0 2 1;
#X connect 4 0 2 1;
#X connect 5 0 2 1;
#X connect 6 0 2 1;
#X connect 7 0 15 1;
#X connect 7 0 17 1;
#X connect 7 0 18 1;
#X connect 7 0 19 1;
#X connect 8 0 17 1;
#X connect 9 0 15 1;
#X connect 10 0 18 1;
#X connect 11 0 19 1;
#X connect 12 0 8 0;
#X connect 12 1 9 0;
#X connect 12 2 10 0;
#X connect 12 3 11 0;
#X connect 13 0 14 0;
#X connect 14 0 12 0;
#X connect 14 1 7 0;
#X connect 14 2 2 2;
#X connect 15 0 3 0;
#X connect 16 0 2 0;
#X connect 17 0 4 0;
#X connect 18 0 5 0;
#X connect 19 0 6 0;
