#N canvas 566 215 474 324 10;
#X obj 78 144 sig~;
#X obj 77 111 /;
#X msg 77 86 1000 \$1;
#X obj 191 268 outlet~;
#X obj 294 160 block~ 16;
#X obj 77 200 *~ 0.95;
#X obj 78 19 inlet;
#X obj 23 14 inlet~;
#X obj 78 57 route freq fb;
#X text 141 16 freq: frequency;
#X text 144 31 fb: feedback amount (0-1);
#X text 199 138 reblock to allow shorter del line;
#X obj 221 61 d-default \$1 300;
#X obj 32 234 delwrite~ \$0-del 10;
#X obj 77 165 vd~ \$0-del;
#X connect 0 0 14 0;
#X connect 1 0 0 0;
#X connect 2 0 1 0;
#X connect 5 0 13 0;
#X connect 6 0 8 0;
#X connect 7 0 13 0;
#X connect 8 0 2 0;
#X connect 8 1 5 1;
#X connect 12 0 2 0;
#X connect 14 0 3 0;
#X connect 14 0 5 0;
