#N canvas 409 245 470 320 10;
#X obj 66 225 outlet~;
#X obj 66 21 inlet;
#X obj 66 180 line~;
#X obj 66 146 pack 0 10;
#X obj 237 40 inlet;
#X text 165 177 smooth from signal rate to audio rate;
#X text 162 197 first arg / right inlet sets smooth time;
#X obj 131 125 d-default \$1 10;
#X obj 65 49 unpack f f;
#X msg 130 98 bang;
#X obj 129 72 moses 0.1;
#X connect 1 0 8 0;
#X connect 2 0 0 0;
#X connect 3 0 2 0;
#X connect 4 0 7 0;
#X connect 7 0 3 1;
#X connect 8 0 3 0;
#X connect 8 1 10 0;
#X connect 9 0 7 0;
#X connect 10 0 9 0;
#X connect 10 1 7 0;
