#N canvas 407 243 754 359 10;
#X obj 49 64 notein;
#X obj 49 95 pack f f f;
#X msg 146 116 record;
#X msg 151 163 bang;
#X msg 150 138 stop;
#X msg 268 148 dump;
#X obj 60 280 r justmusic-notes;
#X obj 60 316 s midinotes;
#X msg 299 136 load /Users/damian/2.current/justmusic/notes.qlist \,
bang;
#X msg 249 81 save /tmp/notes.qlist;
#X obj 534 73 symbol \$1;
#X msg 446 224 loop 0;
#X obj 533 43 openpanel;
#X msg 526 97 load \$1 \, loop 1 \, bang;
#X obj 529 17 inlet;
#X msg 448 201 loop 1;
#X obj 48 240 d-midirec justmusic-notes;
#X msg 281 107 load ./notes.qlist \, loop 1 \, bang;
#X obj 300 39 loadbang;
#X obj 63 139 bng 15 250 50 0 empty empty empty 17 7 0 10 -262144 -1
-1;
#X connect 0 0 1 0;
#X connect 0 1 1 1;
#X connect 0 2 1 2;
#X connect 1 0 16 0;
#X connect 1 0 19 0;
#X connect 2 0 16 1;
#X connect 3 0 16 1;
#X connect 4 0 16 1;
#X connect 5 0 16 1;
#X connect 6 0 7 0;
#X connect 8 0 16 1;
#X connect 9 0 16 1;
#X connect 10 0 13 0;
#X connect 11 0 16 1;
#X connect 12 0 10 0;
#X connect 13 0 16 1;
#X connect 14 0 12 0;
#X connect 15 0 16 1;
#X connect 17 0 16 1;
#X connect 18 0 17 0;
