#N canvas 402 382 462 312 10;
#X obj 44 27 r midinotes;
#X obj 43 244 outlet;
#X obj 108 244 outlet;
#X obj 43 76 unpack f f f;
#X obj 122 118 == \$1;
#X obj 43 170 spigot;
#X obj 107 170 spigot;
#X text 184 58 filter out all notes that aren't;
#X text 187 70 on channel \$1;
#X obj 189 20 r notechan\$1;
#X obj 43 53 spigot 1;
#X connect 0 0 10 0;
#X connect 3 0 5 0;
#X connect 3 1 6 0;
#X connect 3 2 4 0;
#X connect 4 0 6 1;
#X connect 4 0 5 1;
#X connect 5 0 1 0;
#X connect 6 0 2 0;
#X connect 9 0 10 1;
#X connect 10 0 3 0;
