#N canvas 502 31 765 519 10;
#X obj 33 430 outlet~;
#X obj 443 404 outlet~;
#X obj 36 186 *~ 0.7;
#X obj 95 185 == 0;
#X text 98 103 pre/post (1=pre);
#X obj 58 216 *~ 1;
#X obj 56 160 *~ 0;
#X obj 95 144 f 0;
#X obj 151 13 r bus\$1ctl;
#X obj 75 236 +~ 0;
#X obj 114 258 *~ 0;
#X obj 114 298 *~ 0;
#X obj 153 69 route level pre pan sendA sendB sendC;
#X obj 393 196 *~ 0.7;
#X obj 466 190 == 0;
#X obj 444 219 *~ 1;
#X obj 420 170 *~ 0;
#X obj 466 149 f 0;
#X obj 459 247 +~ 0;
#X obj 494 268 *~ 0;
#X obj 494 308 *~ 0;
#X text 466 128 pre/post (1=pre);
#X obj 29 87 inlet~;
#X obj 394 96 inlet~;
#X obj 181 172 route sendAL sendBL sendCL;
#X obj 534 209 route sendAR sendBR sendCR;
#X text 248 11 send to bus\$1ctl: level \, pan control level and panning
(0-1);
#X text 282 26 pre 1|0 controls whether sendA-sendC happen pre/post
level;
#X text 282 40 sendA-sendC control sendA-C levels;
#X text 281 51 sendAL/R-sendCL/R control left/right send levels separately
;
#X obj 128 401 outlet~ busAL;
#X obj 233 399 outlet~ busCL;
#X obj 521 393 outlet~ busAR;
#X obj 615 392 outlet~ busCR;
#X obj 34 395 *~ 1;
#X obj 436 372 *~ 1;
#X obj 410 332 d-pan 1;
#X obj 49 358 d-pan 0;
#X connect 2 0 5 0;
#X connect 2 0 34 0;
#X connect 3 0 5 1;
#X connect 5 0 9 0;
#X connect 6 0 9 0;
#X connect 7 0 3 0;
#X connect 7 0 6 1;
#X connect 8 0 12 0;
#X connect 9 0 10 0;
#X connect 9 0 11 0;
#X connect 10 0 30 0;
#X connect 11 0 31 0;
#X connect 12 0 2 1;
#X connect 12 0 13 1;
#X connect 12 1 7 0;
#X connect 12 1 17 0;
#X connect 12 2 36 0;
#X connect 12 2 37 0;
#X connect 12 3 10 1;
#X connect 12 3 19 1;
#X connect 12 5 11 1;
#X connect 12 5 20 1;
#X connect 12 6 24 0;
#X connect 13 0 15 0;
#X connect 13 0 35 0;
#X connect 14 0 15 1;
#X connect 15 0 18 0;
#X connect 16 0 18 0;
#X connect 17 0 14 0;
#X connect 17 0 16 1;
#X connect 18 0 19 0;
#X connect 18 0 20 0;
#X connect 19 0 32 0;
#X connect 20 0 33 0;
#X connect 22 0 2 0;
#X connect 22 0 6 0;
#X connect 23 0 16 0;
#X connect 23 0 13 0;
#X connect 24 0 10 1;
#X connect 24 2 11 1;
#X connect 24 3 25 0;
#X connect 25 0 19 1;
#X connect 25 2 20 1;
#X connect 34 0 0 0;
#X connect 35 0 1 0;
#X connect 36 1 35 1;
#X connect 37 0 34 1;
