#N canvas 257 60 730 457 10;
#X obj 217 262 exp;
#X obj 219 230 * 2;
#X obj 268 256 exp;
#X obj 272 231 * 2;
#X obj 249 348 /;
#X obj 215 284 - 1;
#X obj 266 284 + 1;
#X obj 157 101 inlet;
#X obj 242 413 outlet;
#X obj 230 141 t a a;
#X connect 0 0 5 0;
#X connect 1 0 0 0;
#X connect 2 0 6 0;
#X connect 3 0 2 0;
#X connect 4 0 8 0;
#X connect 5 0 4 0;
#X connect 6 0 4 1;
#X connect 7 0 9 0;
#X connect 9 0 1 0;
#X connect 9 1 3 0;
