#N canvas 512 221 251 227 10;
#X obj 113 202 writesf~ 2;
#X obj 13 15 r #transport;
#X msg 113 110 stop;
#X obj 129 146 catch~ rec1;
#X obj 170 175 catch~ rec2;
#X obj 65 79 sel 1;
#X obj 13 78 symbol;
#X msg 13 134 open \$1;
#X msg 65 110 start;
#X obj 13 45 route scene record;
#X connect 1 0 9 0;
#X connect 2 0 0 0;
#X connect 3 0 0 0;
#X connect 4 0 0 1;
#X connect 5 0 8 0;
#X connect 5 1 2 0;
#X connect 6 0 7 0;
#X connect 7 0 0 0;
#X connect 8 0 0 0;
#X connect 9 0 6 0;
#X connect 9 1 5 0;
