#N canvas 0 0 865 510 10;
#X obj 125 45 inlet;
#X obj 181 204 tabread \$0-probs;
#X obj 181 229 + 1;
#X obj 450 22 inlet;
#X obj 181 263 tabwrite \$0-probs;
#X obj 577 101 s \$0-probs;
#X obj 552 246 until;
#X obj 552 269 f;
#X obj 587 270 + 1;
#X obj 552 221 max;
#X obj 370 148 table \$0-probs \$2;
#X obj 552 194 f \$2;
#X msg 596 245 0;
#X obj 650 337 t a;
#X obj 531 361 list;
#X obj 552 307 tabread \$0-probs;
#X text 222 15 m_anal \$0 <max> <id>;
#X obj 531 423 s \$1-dumped-it;
#X obj 531 22 r \$1-remotecontrol;
#X obj 531 50 route dump reset;
#X msg 577 80 const 0;
#X obj 125 116 t b f f;
#X obj 125 262 outlet;
#X obj 125 222 f \$3;
#X obj 531 155 t b b b b;
#X obj 552 337 list prepend;
#X obj 634 273 f \$3;
#X connect 0 0 21 0;
#X connect 1 0 2 0;
#X connect 2 0 4 0;
#X connect 3 0 19 0;
#X connect 6 0 7 0;
#X connect 7 0 8 0;
#X connect 7 0 15 0;
#X connect 8 0 7 1;
#X connect 9 0 6 0;
#X connect 11 0 9 0;
#X connect 12 0 7 1;
#X connect 13 0 25 1;
#X connect 14 0 17 0;
#X connect 15 0 25 0;
#X connect 18 0 19 0;
#X connect 19 0 24 0;
#X connect 19 1 20 0;
#X connect 20 0 5 0;
#X connect 21 0 23 0;
#X connect 21 1 1 0;
#X connect 21 2 4 1;
#X connect 23 0 22 0;
#X connect 24 0 14 0;
#X connect 24 1 11 0;
#X connect 24 2 12 0;
#X connect 24 3 26 0;
#X connect 25 0 13 0;
#X connect 25 0 14 1;
#X connect 26 0 25 1;
