#N canvas 64 174 917 509 10;
#X msg 616 214 help;
#X msg 664 146 mod \$1;
#X msg 598 145 freq \$1;
#X obj 664 123 / 100;
#X floatatom 664 103 5 0 0 2 mod - -;
#X obj 598 123 / 100;
#X floatatom 598 103 5 0 0 2 freq - -;
#X obj 483 256 soundoutput;
#X floatatom 483 103 5 0 0 2 pitch - -;
#N canvas 0 0 690 655 guitar 0;
#X obj 132 187 vline~;
#X obj 150 209 noise~;
#X obj 131 311 *~;
#X msg 132 162 0.8 10 \, 0 20 10;
#X msg 274 296 delayfreq \$1;
#X obj 274 255 mtof;
#X obj 132 77 inlet;
#X obj 130 426 outlet~;
#X obj 299 332 loadbang;
#X obj 150 238 bp~ 3000 7;
#X obj 164 266 bp~ 5107 10;
#X obj 132 99 t b a;
#X obj 130 397 e_fbdelay guitar 2000;
#X text 316 76 Karplus-Strong pluck;
#X msg 299 357 feedback 0.99999 \, lpfreq 3200;
#X connect 0 0 2 0;
#X connect 1 0 9 0;
#X connect 1 0 10 0;
#X connect 2 0 12 0;
#X connect 3 0 0 0;
#X connect 4 0 12 2;
#X connect 5 0 4 0;
#X connect 6 0 11 0;
#X connect 8 0 14 0;
#X connect 9 0 2 1;
#X connect 10 0 2 1;
#X connect 11 0 3 0;
#X connect 11 1 5 0;
#X connect 12 0 7 0;
#X connect 14 0 12 2;
#X restore 483 120 pd guitar;
#X msg 666 188 freq 0.8 \, mod 1.3;
#X obj 666 168 loadbang;
#X obj 482 207 e_chorus mychorus;
#N canvas 537 164 740 697 REFERENCE 0;
#X text 114 174 Argument 0: name for state saving (required);
#X text 114 141 Summary: a simple stereo chorus effect;
#X text 114 121 Name: e_chorus;
#X text 114 214 Inlet 0: audio signal to apply effect on;
#X text 114 234 Inlet 1: method messages. freq <f>: chorus frequency
in Hz. mod <depth>: modulation depth;
#X text 114 267 Outlet 0: chorussed audio signal.;
#X text 122 529 Tags: chorus \, effect;
#X text 113 296 Description: a simple stereo chorus effect. Has four
delay lines inside that are modulated by sine oscillators out of phase
be 1/4 each. Default settings are freq 0.8 \, mod 1.8;
#X coords 0 -1 1 1 450 450 1 100 100;
#X restore 13 30 pd REFERENCE;
#X text 11 11 e_chorus - a simple stereo chorus effect;
#X obj 552 456 e_chorusr;
#X text 481 456 Also see:;
#X connect 0 0 12 1;
#X connect 1 0 12 1;
#X connect 2 0 12 1;
#X connect 3 0 1 0;
#X connect 4 0 3 0;
#X connect 5 0 2 0;
#X connect 6 0 5 0;
#X connect 8 0 9 0;
#X connect 9 0 12 0;
#X connect 10 0 12 1;
#X connect 11 0 10 0;
#X connect 12 0 7 0;
#X connect 12 1 7 1;
