#N canvas 165 137 981 722 10;
#X obj 423 116 tgl 15 0 \$0-tgl \$0-tgl-in empty 17 7 1 10 -262144
-1 -1 1 1;
#X msg 330 442 const 0;
#X obj 260 438 pack 0 0;
#X obj 260 416 swap 0 0;
#X msg 395 442 resize 32;
#X obj 263 134 cnv 10 39 50 empty empty empty 20 12 0 14 -191407 -66577
0;
#X obj 303 134 cnv 10 39 50 empty empty empty 20 12 0 14 -233017 -66577
0;
#X obj 263 184 hradio 10 1 0 32 \$0-hradio \$0-hradio empty -25 6 1
10 -262144 -1 -1 18;
#X obj 343 134 cnv 10 39 50 empty empty empty 20 12 0 14 -191407 -66577
0;
#X obj 383 134 cnv 10 39 50 empty empty empty 20 12 0 14 -233017 -66577
0;
#X obj 423 134 cnv 10 39 50 empty empty empty 20 12 0 14 -191407 -66577
0;
#X obj 463 134 cnv 10 39 50 empty empty empty 20 12 0 14 -233017 -66577
0;
#X obj 503 134 cnv 10 39 50 empty empty empty 20 12 0 14 -191407 -66577
0;
#X obj 543 134 cnv 10 39 50 empty empty empty 20 12 0 14 -233017 -66577
0;
#N canvas 0 0 450 300 (subpatch) 0;
#X array \$1 32 float 2;
#X coords 0 1.1 32 -0.1 320 50 1;
#X restore 263 134 graph;
#X obj 228 388 t b f;
#N canvas 0 0 386 287 tabdump 0;
#N canvas 473 338 450 300 count 0;
#X obj 131 154 f 0;
#X obj 156 153 + 1;
#X msg 147 133 0;
#X obj 131 183 outlet;
#X obj 131 59 inlet;
#X obj 131 96 b;
#X obj 178 61 inlet;
#X obj 178 98 b;
#X connect 0 0 1 0;
#X connect 0 0 3 0;
#X connect 1 0 0 1;
#X connect 2 0 0 1;
#X connect 4 0 5 0;
#X connect 5 0 0 0;
#X connect 6 0 7 0;
#X connect 7 0 2 0;
#X restore 136 130 pd count;
#X obj 111 16 inlet;
#X obj 111 224 outlet;
#X obj 136 89 max;
#X obj 136 108 until;
#X obj 136 179 list prepend;
#X obj 231 180 t a;
#X obj 190 76 t b b;
#X obj 111 43 t b f b;
#X obj 111 202 list;
#X obj 136 154 tabread \$1;
#X connect 0 0 10 0;
#X connect 1 0 8 0;
#X connect 3 0 4 0;
#X connect 4 0 0 0;
#X connect 5 0 6 0;
#X connect 5 0 9 1;
#X connect 6 0 5 1;
#X connect 7 0 0 1;
#X connect 7 1 5 1;
#X connect 8 0 9 0;
#X connect 8 1 3 0;
#X connect 8 2 7 0;
#X connect 9 0 2 0;
#X connect 10 0 5 0;
#X restore 228 561 pd tabdump;
#X msg 228 540 32;
#X msg 668 167 set \$1;
#X obj 54 171 inlet;
#X obj 653 135 tabread \$1;
#X obj 260 489 s \$1;
#X obj 54 568 tabread \$1;
#X obj 54 591 outlet;
#X obj 494 416 inlet;
#X obj 494 443 list prepend 0;
#X obj 228 585 outlet;
#X obj 247 136 vsl 12 45 0 1 0 0 \$0-hsl \$0-hsl-in empty 0 -9 0 10
-262144 -1 -1 0 1;
#X obj 538 116 bng 15 250 50 0 \$0-null \$0-null-in null 17 7 1 10
-262144 -1 -1;
#X obj 492 116 bng 15 250 50 0 \$0-dump \$0-dump-in dump 17 7 1 10
-262144 -1 -1;
#X msg 653 289 set \$1;
#X obj 54 539 mod 32;
#X obj 653 110 r \$0-hradio;
#X obj 313 392 r \$0-hradio;
#X obj 235 351 r \$0-hsl;
#X obj 228 321 r \$0-tgl;
#X obj 653 315 s \$0-tgl-in;
#X obj 668 189 s \$0-hsl-in;
#X obj 330 417 r \$0-null;
#X obj 242 510 r \$0-dump;
#X text 662 88 GUI;
#X obj 368 117 nbx 4 14 0 1 0 0 \$0-nbx \$0-nbx-in empty 0 -8 0 10
-262144 -1 -1 0 256;
#X obj 306 349 r \$0-nbx;
#X obj 653 364 loadbang;
#X obj 753 188 s \$0-nbx-in;
#X obj 653 388 f \$2;
#X obj 653 415 select 0;
#X obj 706 465 s \$0-max;
#X msg 653 439 1;
#X floatatom 720 389 5 0 0 0 - - -;
#N canvas 0 0 450 300 set-max 0;
#X msg 125 206 range 0 \$1;
#X obj 125 179 r \$0-max;
#X obj 41 228 s \$0-tgl-in;
#X obj 125 228 s \$0-hsl-in;
#X obj 125 252 s \$0-nbx-in;
#X obj 293 111 * 0.1;
#X obj 293 137 t f f;
#X obj 293 180 -;
#X msg 293 158 0 \$1;
#X obj 293 89 t f f;
#X obj 346 179 +;
#X obj 293 204 pack 0 0;
#X msg 293 227 bounds 0 \$2 32 \$1;
#X obj 293 249 s \$1;
#X obj 293 42 r \$0-max;
#X msg 41 206 nonzero \$1;
#X text 295 273 set range of table;
#X text 84 276 set range of GUIs;
#X connect 0 0 3 0;
#X connect 0 0 4 0;
#X connect 1 0 0 0;
#X connect 1 0 15 0;
#X connect 5 0 6 0;
#X connect 6 0 8 0;
#X connect 6 1 10 0;
#X connect 7 0 11 0;
#X connect 8 0 7 0;
#X connect 9 0 5 0;
#X connect 9 1 10 1;
#X connect 10 0 11 1;
#X connect 11 0 12 0;
#X connect 12 0 13 0;
#X connect 14 0 9 0;
#X connect 15 0 2 0;
#X restore 706 487 pd set-max;
#X obj 653 212 > 0;
#X obj 653 241 select 1;
#X obj 653 266 f 1;
#X obj 684 266 r \$0-max;
#X obj 54 197 list trim;
#X obj 100 306 s \$0-dump;
#X obj 147 277 s \$0-null;
#X obj 54 225 route float dump null table;
#X obj 193 247 s \$1;
#X obj 530 632 s \$0-tgl-in;
#X obj 530 605 select 116;
#X obj 583 529 r \$0-hradio;
#X obj 530 528 key;
#X text 613 605 this is the key "t" for "toggle";
#X msg 583 554 1000;
#N canvas 0 0 450 300 block 0;
#X obj 85 67 inlet;
#X obj 143 67 inlet;
#X obj 85 202 spigot;
#X obj 85 234 outlet;
#X obj 175 115 delay 1000;
#X msg 175 136 0;
#X msg 143 136 1;
#X obj 143 92 t b f;
#X connect 0 0 2 0;
#X connect 1 0 7 0;
#X connect 2 0 3 0;
#X connect 4 0 5 0;
#X connect 5 0 2 1;
#X connect 6 0 2 1;
#X connect 7 0 6 0;
#X connect 7 1 4 0;
#X restore 530 578 pd block;
#X text 626 554 open keyboard input for a second;
#X connect 1 0 21 0;
#X connect 2 0 21 0;
#X connect 3 0 2 0;
#X connect 3 1 2 1;
#X connect 4 0 21 0;
#X connect 15 0 17 0;
#X connect 15 1 3 0;
#X connect 16 0 26 0;
#X connect 17 0 16 0;
#X connect 18 0 37 0;
#X connect 18 0 44 0;
#X connect 19 0 55 0;
#X connect 20 0 18 0;
#X connect 20 0 51 0;
#X connect 22 0 23 0;
#X connect 24 0 25 0;
#X connect 25 0 21 0;
#X connect 30 0 36 0;
#X connect 31 0 22 0;
#X connect 32 0 20 0;
#X connect 33 0 3 1;
#X connect 34 0 15 0;
#X connect 35 0 15 0;
#X connect 38 0 1 0;
#X connect 39 0 17 0;
#X connect 42 0 15 0;
#X connect 43 0 45 0;
#X connect 45 0 46 0;
#X connect 46 0 48 0;
#X connect 46 1 47 0;
#X connect 48 0 47 0;
#X connect 49 0 46 0;
#X connect 51 0 52 0;
#X connect 52 0 53 0;
#X connect 52 1 30 0;
#X connect 53 0 30 0;
#X connect 54 0 53 1;
#X connect 55 0 58 0;
#X connect 58 0 31 0;
#X connect 58 1 56 0;
#X connect 58 2 57 0;
#X connect 58 3 59 0;
#X connect 61 0 60 0;
#X connect 61 0 65 0;
#X connect 62 0 65 0;
#X connect 63 0 66 0;
#X connect 65 0 66 1;
#X connect 66 0 61 0;
#X coords 0 -1 1 1 350 100 1 240 100;
