#N canvas 235 103 742 658 10;
#X msg 72 204 move 500 500;
#X obj 72 45 inlet;
#X obj 72 169 select 0 1;
#X obj 189 202 list append \$2 \$3;
#X msg 189 231 move \$1 \$2;
#X obj 398 60 inlet;
#X obj 398 90 u_dispatch \$0 pos;
#X obj 305 173 r \$0-pos;
#X obj 398 115 u_dispatch \$0 show;
#X obj 119 43 r \$0-show;
#X obj 119 114 f;
#X obj 135 68 loadbang;
#X msg 135 91 0;
#X obj 398 135 u_dispatch \$0 move;
#X obj 189 149 r \$0-move;
#X obj 189 172 t b a;
#X obj 72 455 rj_text \$1;
#X obj 398 155 u_dispatch \$0 text;
#X obj 191 302 r \$0-text;
#X obj 191 395 list prepend text;
#X obj 191 417 list trim;
#X obj 442 60 u_dispatch g_showtext-\$1;
#X obj 398 176 u_dispatch \$0 size;
#X msg 332 413 size \$1;
#X obj 332 390 r \$0-size;
#N canvas 0 0 588 406 list2symbol 0;
#X msg 326 212 set %s;
#X obj 234 260 t a;
#X obj 117 268 makefilename %s;
#X obj 95 78 t b a b;
#X obj 95 299 symbol;
#X msg 141 38 a b c d 1 2;
#X obj 117 174 route symbol float;
#X obj 117 202 symbol;
#X obj 95 37 inlet;
#X obj 95 329 outlet;
#X obj 394 208 makefilename 1%s%%s;
#X msg 394 244 set set \, adddollsym \$1;
#X msg 234 281 set \$1 %s;
#X obj 178 203 makefilename %g;
#X obj 117 139 u_listdrip;
#X obj 394 181 symbol;
#X text 286 36 list-l2s;
#X msg 394 128 32;
#X obj 394 156 makefilename %c;
#X obj 394 103 loadbang;
#X text 432 130 SPACE char.;
#X connect 0 0 2 0;
#X connect 1 0 12 0;
#X connect 2 0 1 0;
#X connect 2 0 4 1;
#X connect 3 0 4 0;
#X connect 3 1 14 0;
#X connect 3 2 0 0;
#X connect 4 0 9 0;
#X connect 5 0 3 0;
#X connect 6 0 7 0;
#X connect 6 1 13 0;
#X connect 7 0 2 0;
#X connect 8 0 3 0;
#X connect 10 0 11 0;
#X connect 11 0 12 0;
#X connect 12 0 2 0;
#X connect 13 0 2 0;
#X connect 14 0 6 0;
#X connect 15 0 10 0;
#X connect 17 0 18 0;
#X connect 18 0 15 0;
#X connect 19 0 17 0;
#X restore 191 365 pd list2symbol;
#X obj 265 302 loadbang;
#X obj 265 326 list append \$1;
#N canvas 172 83 586 377 LICENSE-GPL 0;
#X text 57 88 This program is free software: you can redistribute it
and/or modify it under the terms of the GNU General Public License
as published by the Free Software Foundation \, either version 3 of
the License \, or (at your option) any later version.;
#X text 58 168 This program is distributed in the hope that it will
be useful \, but WITHOUT ANY WARRANTY \; without even the implied warranty
of MERCHANTABILITY or FITNESS FOR A PARTICULAR PURPOSE. See the GNU
General Public License for more details.;
#X text 57 261 You should have received a copy of the GNU General Public
License along with this program. If not \, see <http://www.gnu.org/licenses/>.
;
#X text 61 54 Copyright (C) 2009 \, Reality Jockey Ltd.;
#X text 60 325 See the file LICENSE.txt for the full license text.
;
#X restore 502 19 pd LICENSE-GPL;
#X connect 0 0 16 0;
#X connect 1 0 2 0;
#X connect 2 0 0 0;
#X connect 2 1 3 0;
#X connect 3 0 4 0;
#X connect 4 0 16 0;
#X connect 5 0 6 0;
#X connect 6 0 8 0;
#X connect 7 0 3 1;
#X connect 8 0 13 0;
#X connect 9 0 10 0;
#X connect 10 0 2 0;
#X connect 11 0 12 0;
#X connect 12 0 10 0;
#X connect 13 0 17 0;
#X connect 14 0 15 0;
#X connect 15 0 3 0;
#X connect 15 1 3 1;
#X connect 17 0 22 0;
#X connect 18 0 25 0;
#X connect 19 0 20 0;
#X connect 20 0 16 0;
#X connect 23 0 16 0;
#X connect 24 0 23 0;
#X connect 25 0 19 0;
#X connect 26 0 27 0;
#X connect 27 0 25 0;
