#N canvas 132 46 774 557 10;
#N canvas 377 58 827 710 REFERENCE 0;
#X text 114 141 Summary: graphical volume control (dB);
#X text 114 121 Name: g_vol;
#X text 116 170 Argument 0: default volume (optional);
#X text 114 250 Outlet 0: audio input with volume applied;
#X text 114 214 Inlet 0: audio signals to apply volume on;
#X text 114 234 Inlet 1: float to set volume level in dB (0-100);
#X text 114 270 Outlet 1: current volume in dB (0-100);
#X text 112 301 Description: g_vol is a simple graphical volume control.
The scale is in Pd's dB where 0 is silent and 100 is full volume.;
#X text 122 529 Tags: audio \, volume \, level \, GUI;
#X coords 0 -1 1 1 450 450 1 100 100;
#X restore 5 48 pd REFERENCE;
#X obj 495 247 env~;
#X obj 495 278 - 100;
#X obj 496 311 vu 15 120 empty empty -1 -8 0 10 -66577 -1 1 0;
#X obj 496 141 noise~;
#N canvas 246 76 594 365 restore 0;
#X obj 59 129 list prepend set;
#X obj 59 150 list trim;
#X obj 59 102 inlet;
#X obj 59 268 outlet;
#X obj 81 178 loadbang;
#X text 234 106 stores the last pattern.;
#X msg 59 216 0;
#X connect 0 0 1 0;
#X connect 1 0 6 0;
#X connect 2 0 0 0;
#X connect 4 0 6 0;
#X connect 6 0 3 0;
#X restore 575 196 pd restore;
#X text 657 196 can be stored;
#X obj 598 294 soundoutput;
#X text 7 14 g_vol - graphical volume control (dB);
#X obj 496 183 g_vol;
#X connect 1 0 2 0;
#X connect 2 0 3 0;
#X connect 4 0 9 0;
#X connect 5 0 9 1;
#X connect 9 0 1 0;
#X connect 9 0 7 0;
#X connect 9 0 7 1;
#X connect 9 1 5 0;
