#N canvas 132 46 774 557 10;
#N canvas 377 58 827 710 REFERENCE 0;
#X text 116 170 Argument 0: default volume (optional);
#X text 122 529 Tags: audio \, volume \, level \, GUI;
#X text 114 121 Name: g_vol2;
#X text 114 137 Summary: graphical stereo volume control (dB);
#X text 116 218 Inlet 2: float to set volume level in dB (0-100);
#X text 116 266 Outlet 2: current volume in dB (0-100);
#X text 116 202 Inlet 1: right audio signals to apply volume on;
#X text 116 186 Inlet 0: left audio signals to apply volume on;
#X text 116 234 Outlet 0: left audio input with volume applied;
#X text 116 250 Outlet 1: right audio input with volume applied;
#X text 112 323 Description: g_vol2 is a simple stereo graphical volume
control. The scale is in Pd's dB where 0 is silent and 100 is full
volume.;
#X coords 0 -1 1 1 450 450 1 100 100;
#X restore 5 48 pd REFERENCE;
#X obj 495 317 env~;
#X obj 495 348 - 100;
#X obj 496 381 vu 15 120 empty empty -1 -8 0 10 -66577 -1 1 0;
#X obj 496 121 noise~;
#N canvas 246 76 594 365 restore 0;
#X obj 59 129 list prepend set;
#X obj 59 150 list trim;
#X obj 59 102 inlet;
#X obj 59 268 outlet;
#X obj 81 178 loadbang;
#X text 234 106 stores the last pattern.;
#X msg 59 216 0;
#X connect 0 0 1 0;
#X connect 1 0 6 0;
#X connect 2 0 0 0;
#X connect 4 0 6 0;
#X connect 6 0 3 0;
#X restore 575 206 pd restore;
#X text 657 206 can be stored;
#X obj 615 358 soundoutput;
#X obj 496 193 g_vol2;
#X text 7 14 g_vol2 - graphical stereo volume control (dB);
#X obj 525 161 osc~ 440;
#X obj 543 317 env~;
#X obj 543 348 - 100;
#X obj 544 381 vu 15 120 empty empty -1 -8 0 10 -66577 -1 1 0;
#X connect 1 0 2 0;
#X connect 2 0 3 0;
#X connect 4 0 8 0;
#X connect 5 0 8 2;
#X connect 8 0 1 0;
#X connect 8 0 7 0;
#X connect 8 1 7 1;
#X connect 8 1 11 0;
#X connect 8 2 5 0;
#X connect 10 0 8 1;
#X connect 11 0 12 0;
#X connect 12 0 13 0;
