#N canvas 462 388 450 355 10;
#X obj 98 17 r #accelerate;
#X obj 98 98 unpack f f f;
#X obj 98 158 *;
#X obj 160 158 *;
#X obj 219 158 *;
#X obj 98 188 +;
#X obj 98 218 +;
#X obj 98 248 pow 0.5;
#X msg 98 128 \$1 \$1;
#X msg 160 128 \$1 \$1;
#X msg 219 128 \$1 \$1;
#X obj 98 290 outlet;
#X obj 98 73 spigot 1;
#X obj 151 49 inlet;
#X connect 0 0 12 0;
#X connect 1 0 8 0;
#X connect 1 1 9 0;
#X connect 1 2 10 0;
#X connect 2 0 5 0;
#X connect 3 0 5 1;
#X connect 4 0 6 1;
#X connect 5 0 6 0;
#X connect 6 0 7 0;
#X connect 7 0 11 0;
#X connect 8 0 2 0;
#X connect 9 0 3 0;
#X connect 10 0 4 0;
#X connect 12 0 1 0;
#X connect 13 0 12 1;
