#N canvas 467 358 603 399 10;
#X obj 45 81 t a a;
#X obj 110 146 * 12;
#X obj 45 237 +;
#X obj 45 304 outlet;
#X obj 45 41 inlet;
#X obj 289 191 loadbang;
#X obj 293 45 inlet;
#X obj 45 260 + \$1;
#X text 293 24 base note;
#X text 41 18 major step;
#X obj 289 237 s \$0-major;
#X obj 45 175 tabread \$0-major;
#X floatatom 57 146 5 0 0 0 - - -;
#X msg 289 214 0 0 2 4 5 7 9 11;
#X obj 289 261 table \$0-major 7;
#X obj 45 120 mod 7;
#X obj 110 120 div 7;
#N canvas 172 83 586 377 LICENSE-GPL 0;
#X text 57 88 This program is free software: you can redistribute it
and/or modify it under the terms of the GNU General Public License
as published by the Free Software Foundation \, either version 3 of
the License \, or (at your option) any later version.;
#X text 58 168 This program is distributed in the hope that it will
be useful \, but WITHOUT ANY WARRANTY \; without even the implied warranty
of MERCHANTABILITY or FITNESS FOR A PARTICULAR PURPOSE. See the GNU
General Public License for more details.;
#X text 57 261 You should have received a copy of the GNU General Public
License along with this program. If not \, see <http://www.gnu.org/licenses/>.
;
#X text 61 54 Copyright (C) 2009 \, Reality Jockey Ltd.;
#X text 60 325 See the file LICENSE.txt for the full license text.
;
#X restore 442 19 pd LICENSE-GPL;
#X connect 0 0 15 0;
#X connect 0 1 16 0;
#X connect 1 0 2 1;
#X connect 2 0 7 0;
#X connect 4 0 0 0;
#X connect 5 0 13 0;
#X connect 6 0 7 1;
#X connect 7 0 3 0;
#X connect 11 0 2 0;
#X connect 13 0 10 0;
#X connect 15 0 11 0;
#X connect 15 0 12 0;
#X connect 16 0 1 0;
