#N canvas 418 180 589 469 10;
#N canvas 0 0 578 645 bd 0;
#X obj 110 399 *~;
#X obj 128 370 osc~;
#X obj 127 348 +~ 50;
#X obj 126 323 *~ 150;
#X obj 111 277 c_ead 1 400;
#X obj 111 56 inlet;
#X obj 193 241 switch~;
#X msg 193 218 1;
#X msg 225 218 0;
#X obj 109 465 outlet~;
#X obj 111 138 t b b b;
#X obj 225 199 delay 450;
#X obj 111 86 route bang float;
#X obj 285 163 + 50;
#X obj 111 110 t b b;
#X msg 191 136 400;
#X obj 165 108 t b a;
#X connect 0 0 9 0;
#X connect 1 0 0 1;
#X connect 2 0 1 0;
#X connect 3 0 2 0;
#X connect 4 0 0 0;
#X connect 4 0 3 0;
#X connect 5 0 12 0;
#X connect 7 0 6 0;
#X connect 8 0 6 0;
#X connect 10 0 4 0;
#X connect 10 1 7 0;
#X connect 10 2 11 0;
#X connect 11 0 8 0;
#X connect 12 0 14 0;
#X connect 12 1 16 0;
#X connect 13 0 11 1;
#X connect 14 0 10 0;
#X connect 14 1 15 0;
#X connect 15 0 13 0;
#X connect 15 0 4 2;
#X connect 16 0 10 0;
#X connect 16 1 13 0;
#X connect 16 1 4 2;
#X restore 140 289 pd bd;
#X obj 140 58 list trim;
#X obj 142 366 catch~ \$0-out;
#X obj 142 391 outlet~;
#X obj 140 318 throw~ \$0-out;
#X obj 140 32 inlet;
#X obj 171 265 throw~ \$0-out;
#N canvas 0 0 963 800 sn 0;
#X obj 301 28 inlet;
#X obj 383 273 switch~;
#X msg 383 250 1;
#X msg 415 250 0;
#X obj 300 676 outlet~;
#X obj 301 170 t b b b;
#X obj 415 231 delay 450;
#X floatatom 388 307 5 0 0 1 decay - -;
#X obj 300 604 *~;
#X obj 465 437 osc~;
#X obj 301 332 c_ead 3 200;
#X obj 514 439 phasor~;
#X obj 463 390 *~ 400;
#X obj 464 415 +~ 200;
#X floatatom 518 390 5 0 0 0 - - -;
#X floatatom 441 337 5 0 0 0 - - -;
#X floatatom 352 414 5 0 0 0 - - -;
#X floatatom 398 416 5 0 0 0 - - -;
#X obj 466 503 *~ 0.3;
#X obj 319 392 s_pinknoise;
#X obj 515 417 +~ 600;
#X obj 318 440 bp~ 5000 3;
#X obj 301 636 *~ 1.8;
#X obj 523 504 osc~ 330;
#X obj 466 532 *~;
#X floatatom 523 482 5 0 0 0 - - -;
#X floatatom 565 392 5 0 0 0 - - -;
#X obj 317 467 *~ 1.5;
#X obj 301 83 route bang float;
#X obj 475 160 + 50;
#X obj 301 107 t b b;
#X msg 370 144 200;
#X obj 355 107 t b a;
#X connect 0 0 28 0;
#X connect 2 0 1 0;
#X connect 3 0 1 0;
#X connect 5 0 10 0;
#X connect 5 1 2 0;
#X connect 5 2 6 0;
#X connect 6 0 3 0;
#X connect 7 0 10 2;
#X connect 8 0 22 0;
#X connect 9 0 18 0;
#X connect 10 0 8 0;
#X connect 10 0 12 0;
#X connect 11 0 18 0;
#X connect 12 0 13 0;
#X connect 12 0 20 0;
#X connect 13 0 9 0;
#X connect 14 0 13 1;
#X connect 15 0 12 1;
#X connect 16 0 21 1;
#X connect 17 0 21 2;
#X connect 18 0 24 0;
#X connect 19 0 21 0;
#X connect 20 0 11 0;
#X connect 21 0 27 0;
#X connect 22 0 4 0;
#X connect 23 0 24 1;
#X connect 24 0 8 1;
#X connect 25 0 23 0;
#X connect 26 0 20 1;
#X connect 27 0 24 0;
#X connect 28 0 30 0;
#X connect 28 1 32 0;
#X connect 29 0 6 1;
#X connect 30 0 5 0;
#X connect 30 1 31 0;
#X connect 31 0 29 0;
#X connect 31 0 10 2;
#X connect 32 0 5 0;
#X connect 32 1 29 0;
#X connect 32 1 10 2;
#X restore 171 236 pd sn;
#X obj 251 104 throw~ \$0-out;
#N canvas 0 0 993 683 hh 0;
#X obj 348 270 clip~ -1 1;
#X obj 348 193 bp~ 8906 1.437;
#X obj 348 215 bp~ 8906 1.437;
#X obj 348 173 hip~ 8000;
#X floatatom 348 101 5 0 0 0 - - -;
#X obj 64 424 *~;
#X obj 452 322 *~;
#X obj 452 350 *~;
#X obj 349 304 *~;
#X obj 65 248 c_ead 3 100;
#X obj 451 299 c_ead 25 1500;
#X msg 396 374 0;
#X obj 348 415 *~ 0.1;
#X msg 428 375 0.1;
#N canvas 0 0 744 501 squarebattery 0;
#X obj 346 142 *~ 0.7;
#X obj 105 124 *~ 0.9;
#X obj 105 79 * 210;
#X obj 345 94 * 540;
#X obj 462 104 * 550;
#X obj 569 103 * 800;
#X obj 269 92 * 380;
#X obj 187 91 * 320;
#X obj 105 404 outlet~;
#X obj 105 11 inlet;
#X text 151 13 tuning;
#N canvas 0 0 438 462 square 0;
#X obj 132 215 -~ 0.5;
#X obj 42 197 wrap~;
#X obj 42 220 -~ 0.5;
#X obj 42 175 -~ 0.5;
#X obj 42 289 -~;
#X obj 42 317 outlet~;
#X obj 42 94 phasor~;
#X obj 42 64 inlet;
#X connect 0 0 4 1;
#X connect 1 0 2 0;
#X connect 2 0 4 0;
#X connect 3 0 1 0;
#X connect 4 0 5 0;
#X connect 6 0 3 0;
#X connect 6 0 0 0;
#X connect 7 0 6 0;
#X restore 345 114 pd square;
#N canvas 0 0 438 462 square 0;
#X obj 132 215 -~ 0.5;
#X obj 42 197 wrap~;
#X obj 42 220 -~ 0.5;
#X obj 42 175 -~ 0.5;
#X obj 42 289 -~;
#X obj 42 317 outlet~;
#X obj 42 94 phasor~;
#X obj 42 64 inlet;
#X connect 0 0 4 1;
#X connect 1 0 2 0;
#X connect 2 0 4 0;
#X connect 3 0 1 0;
#X connect 4 0 5 0;
#X connect 6 0 3 0;
#X connect 6 0 0 0;
#X connect 7 0 6 0;
#X restore 462 128 pd square;
#N canvas 0 0 438 462 square 0;
#X obj 132 215 -~ 0.5;
#X obj 42 197 wrap~;
#X obj 42 220 -~ 0.5;
#X obj 42 175 -~ 0.5;
#X obj 42 289 -~;
#X obj 42 317 outlet~;
#X obj 42 94 phasor~;
#X obj 42 64 inlet;
#X connect 0 0 4 1;
#X connect 1 0 2 0;
#X connect 2 0 4 0;
#X connect 3 0 1 0;
#X connect 4 0 5 0;
#X connect 6 0 3 0;
#X connect 6 0 0 0;
#X connect 7 0 6 0;
#X restore 569 128 pd square;
#N canvas 0 0 438 462 square 0;
#X obj 132 215 -~ 0.5;
#X obj 42 197 wrap~;
#X obj 42 220 -~ 0.5;
#X obj 42 175 -~ 0.5;
#X obj 42 289 -~;
#X obj 42 317 outlet~;
#X obj 42 94 phasor~;
#X obj 42 64 inlet;
#X connect 0 0 4 1;
#X connect 1 0 2 0;
#X connect 2 0 4 0;
#X connect 3 0 1 0;
#X connect 4 0 5 0;
#X connect 6 0 3 0;
#X connect 6 0 0 0;
#X connect 7 0 6 0;
#X restore 269 115 pd square;
#N canvas 0 0 438 462 square 0;
#X obj 132 215 -~ 0.5;
#X obj 42 197 wrap~;
#X obj 42 220 -~ 0.5;
#X obj 42 175 -~ 0.5;
#X obj 42 289 -~;
#X obj 42 317 outlet~;
#X obj 42 94 phasor~;
#X obj 42 64 inlet;
#X connect 0 0 4 1;
#X connect 1 0 2 0;
#X connect 2 0 4 0;
#X connect 3 0 1 0;
#X connect 4 0 5 0;
#X connect 6 0 3 0;
#X connect 6 0 0 0;
#X connect 7 0 6 0;
#X restore 187 119 pd square;
#N canvas 0 0 438 462 square 0;
#X obj 132 215 -~ 0.5;
#X obj 42 197 wrap~;
#X obj 42 220 -~ 0.5;
#X obj 42 175 -~ 0.5;
#X obj 42 289 -~;
#X obj 42 317 outlet~;
#X obj 42 94 phasor~;
#X obj 42 64 inlet;
#X connect 0 0 4 1;
#X connect 1 0 2 0;
#X connect 2 0 4 0;
#X connect 3 0 1 0;
#X connect 4 0 5 0;
#X connect 6 0 3 0;
#X connect 6 0 0 0;
#X connect 7 0 6 0;
#X restore 105 101 pd square;
#X connect 0 0 8 0;
#X connect 1 0 8 0;
#X connect 2 0 16 0;
#X connect 3 0 11 0;
#X connect 4 0 12 0;
#X connect 5 0 13 0;
#X connect 6 0 14 0;
#X connect 7 0 15 0;
#X connect 9 0 2 0;
#X connect 9 0 3 0;
#X connect 9 0 4 0;
#X connect 9 0 5 0;
#X connect 9 0 6 0;
#X connect 9 0 7 0;
#X connect 11 0 0 0;
#X connect 12 0 8 0;
#X connect 13 0 8 0;
#X connect 14 0 8 0;
#X connect 15 0 8 0;
#X connect 16 0 1 0;
#X restore 348 144 pd squarebattery;
#X msg 394 120 1;
#X obj 394 100 loadbang;
#X obj 64 515 outlet~;
#X obj 65 50 inlet;
#X obj 65 74 list trim;
#X obj 65 153 route float;
#X msg 139 178 100;
#X obj 65 222 t b a;
#X obj 199 103 route float;
#X obj 199 172 t b b a;
#X msg 273 128 1500;
#X obj 348 247 *~ 150;
#X obj 187 525 outlet;
#X obj 65 99 route hh oh hhtune;
#X obj 320 528 del 2122;
#X obj 318 550 0;
#X obj 288 548 1;
#X obj 288 584 t a;
#X obj 303 611 switch~;
#X msg 322 587 1;
#X obj 288 506 t b f;
#X obj 288 483 f 1500;
#X connect 0 0 5 1;
#X connect 0 0 8 0;
#X connect 1 0 2 0;
#X connect 2 0 26 0;
#X connect 3 0 1 0;
#X connect 4 0 14 0;
#X connect 5 0 17 0;
#X connect 6 0 7 0;
#X connect 6 0 7 1;
#X connect 6 0 8 1;
#X connect 7 0 8 1;
#X connect 8 0 12 0;
#X connect 9 0 5 0;
#X connect 10 0 6 0;
#X connect 10 0 6 1;
#X connect 11 0 12 1;
#X connect 12 0 17 0;
#X connect 13 0 12 1;
#X connect 14 0 3 0;
#X connect 15 0 14 0;
#X connect 16 0 15 0;
#X connect 18 0 19 0;
#X connect 19 0 28 0;
#X connect 20 0 22 0;
#X connect 20 1 21 0;
#X connect 21 0 22 0;
#X connect 22 0 9 0;
#X connect 22 0 36 0;
#X connect 22 1 9 2;
#X connect 23 0 24 0;
#X connect 23 1 25 0;
#X connect 24 0 21 0;
#X connect 24 1 10 0;
#X connect 24 2 10 2;
#X connect 24 2 36 1;
#X connect 25 0 24 0;
#X connect 26 0 0 0;
#X connect 28 0 20 0;
#X connect 28 0 11 0;
#X connect 28 1 23 0;
#X connect 28 1 13 0;
#X connect 28 2 14 0;
#X connect 28 3 27 0;
#X connect 29 0 30 0;
#X connect 30 0 32 0;
#X connect 31 0 32 0;
#X connect 32 0 33 0;
#X connect 34 0 33 0;
#X connect 35 0 31 0;
#X connect 35 1 29 0;
#X connect 36 0 35 0;
#X restore 252 81 pd hh;
#N canvas 0 0 935 753 cp 0;
#X obj 299 415 vline~;
#X obj 109 565 *~;
#X obj 180 331 del 30;
#X obj 110 588 hip~ 800;
#X obj 180 384 1.5;
#X obj 211 385 0.7;
#X obj 180 308 t b b f;
#X obj 180 281 f;
#X msg 299 379 \$1 \, 0 34 \, \$1 0.5 10.5 \, 0 34 11 \, \$1 0 23 \,
0 34 23 \, \$1 0 31 \, 0 34 31 \, \$1 0 36 \, 0 230 36.5 \, 0 500 65
\, 0 2000 120;
#X obj 111 617 outlet~;
#X obj 94 41 inlet;
#X obj 94 159 b;
#X obj 524 189 del 2122;
#X obj 492 167 t b b;
#X obj 522 211 0;
#X obj 492 209 1;
#X obj 492 245 t a;
#X obj 507 272 switch~;
#X obj 492 293 outlet;
#X obj 198 180 / 127;
#X msg 526 248 1;
#X msg 250 120 127;
#X obj 298 438 *~;
#X obj 297 459 *~;
#X obj 298 485 *~;
#X floatatom 341 350 5 0 0 0 - - -;
#X obj 198 202 sqrt;
#X obj 198 221 sqrt;
#X obj 198 242 sqrt;
#X obj 108 437 e_resonzq 1000 1 2;
#X obj 250 99 loadbang;
#X obj 211 363 b;
#X obj 180 361 b;
#X text 320 535 Author: Roman Haefeli/Frank Barknecht (updated to work
in pd-vanilla/Rjlib \, replace expensive dbtorms~ with powers);
#X text 322 569 Version: 2009-02-24;
#X obj 94 69 route bang float;
#X obj 148 99 t b a;
#X obj 108 411 noise~;
#X connect 0 0 22 0;
#X connect 0 0 22 1;
#X connect 1 0 3 0;
#X connect 2 0 32 0;
#X connect 3 0 9 0;
#X connect 4 0 29 2;
#X connect 5 0 29 2;
#X connect 6 0 2 0;
#X connect 6 1 31 0;
#X connect 6 2 8 0;
#X connect 7 0 6 0;
#X connect 8 0 0 0;
#X connect 10 0 35 0;
#X connect 11 0 7 0;
#X connect 11 0 13 0;
#X connect 12 0 14 0;
#X connect 13 0 15 0;
#X connect 13 1 12 0;
#X connect 14 0 16 0;
#X connect 15 0 16 0;
#X connect 16 0 18 0;
#X connect 16 0 17 0;
#X connect 19 0 26 0;
#X connect 20 0 17 0;
#X connect 21 0 19 0;
#X connect 22 0 23 1;
#X connect 22 0 23 0;
#X connect 23 0 24 0;
#X connect 23 0 24 1;
#X connect 24 0 1 1;
#X connect 26 0 27 0;
#X connect 27 0 28 0;
#X connect 28 0 7 1;
#X connect 29 0 1 0;
#X connect 30 0 21 0;
#X connect 31 0 5 0;
#X connect 32 0 4 0;
#X connect 35 0 11 0;
#X connect 35 1 36 0;
#X connect 35 2 19 0;
#X connect 36 0 11 0;
#X connect 36 1 19 0;
#X connect 37 0 29 0;
#X restore 203 129 pd cp;
#X obj 204 155 throw~ \$0-out;
#X obj 140 80 route bd sn cp;
#N canvas 228 198 627 317 LICENSE-BSD 0;
#X text 121 56 This software is copyrighted by Miller Puckette \, Reality
Jockey Ltd. and others. The terms (the "Standard Improved BSD License")
apply to all files associated with the software unless explicitly disclaimed
in individual files.;
#X text 123 148 See the file LICENSE.txt for the full license text.
;
#X restore 403 40 pd LICENSE-BSD;
#X connect 0 0 4 0;
#X connect 1 0 12 0;
#X connect 2 0 3 0;
#X connect 5 0 1 0;
#X connect 7 0 6 0;
#X connect 9 0 8 0;
#X connect 10 0 11 0;
#X connect 12 0 0 0;
#X connect 12 1 7 0;
#X connect 12 2 10 0;
#X connect 12 3 9 0;
