#N canvas 286 138 450 300 10;
#X obj 121 57 inlet;
#X obj 60 112 samphold~;
#X obj 59 86 noise~;
#X obj 59 136 outlet~;
#X obj 121 87 phasor~ \$1;
#X connect 0 0 4 0;
#X connect 1 0 3 0;
#X connect 2 0 1 0;
#X connect 4 0 1 1;
