#N canvas 0 0 886 534 10;
#X obj 319 44 inlet;
#X obj 102 44 inlet;
#X msg 451 112 0;
#X obj 472 418 table \$0-weights;
#X obj 202 226 s \$0-weights;
#X obj 319 69 t a b a;
#X obj 202 176 change -1;
#X msg 202 201 resize \$1;
#X obj 319 219 f 0;
#X obj 347 219 + 1;
#X obj 319 306 s \$0-weights;
#X msg 452 219 normalize 1;
#X obj 124 226 f;
#X obj 124 251 until;
#X obj 102 373 f;
#X obj 124 316 f 0;
#X obj 150 316 + 1;
#X obj 175 347 tabread \$0-weights;
#X msg 140 290 0;
#X obj 102 162 t b b b a;
#X obj 102 442 outlet;
#X obj 172 201 + 1;
#X obj 175 372 <=;
#X obj 155 407 select 0;
#X obj 544 131 s \$0-len;
#X obj 202 151 r \$0-len;
#X obj 102 112 random 10000;
#X obj 102 137 * 0.0001;
#X obj 535 158 outlet;
#X obj 535 105 list length;
#N canvas 228 198 627 317 LICENSE-BSD 0;
#X text 121 56 This software is copyrighted by Miller Puckette \, Reality
Jockey Ltd. and others. The terms (the "Standard Improved BSD License")
apply to all files associated with the software unless explicitly disclaimed
in individual files.;
#X text 123 148 See the file LICENSE.txt for the full license text.
;
#X restore 683 36 pd LICENSE-BSD;
#X obj 319 146 u_listdrip;
#X obj 379 219 +;
#X obj 410 219 f;
#X obj 319 251 pack 0 0;
#X obj 319 171 t b a;
#X connect 0 0 5 0;
#X connect 1 0 26 0;
#X connect 2 0 8 1;
#X connect 2 0 32 1;
#X connect 5 0 31 0;
#X connect 5 1 2 0;
#X connect 5 2 29 0;
#X connect 6 0 7 0;
#X connect 6 0 21 0;
#X connect 7 0 4 0;
#X connect 8 0 9 0;
#X connect 8 0 34 0;
#X connect 9 0 8 1;
#X connect 11 0 10 0;
#X connect 12 0 13 0;
#X connect 13 0 15 0;
#X connect 14 0 20 0;
#X connect 15 0 17 0;
#X connect 15 0 14 1;
#X connect 15 0 16 0;
#X connect 16 0 15 1;
#X connect 17 0 22 0;
#X connect 18 0 15 1;
#X connect 19 0 14 0;
#X connect 19 1 12 0;
#X connect 19 2 18 0;
#X connect 19 3 22 1;
#X connect 21 0 12 1;
#X connect 22 0 23 0;
#X connect 23 0 13 1;
#X connect 25 0 6 0;
#X connect 26 0 27 0;
#X connect 27 0 19 0;
#X connect 29 0 24 0;
#X connect 29 0 28 0;
#X connect 31 0 35 0;
#X connect 31 1 11 0;
#X connect 32 0 33 0;
#X connect 32 0 34 1;
#X connect 33 0 32 1;
#X connect 34 0 10 0;
#X connect 35 0 8 0;
#X connect 35 1 32 0;
