#N canvas 200 90 366 529 10;
#X obj 11 31 tgl 30 0 runlocate empty run 7 15 0 10 -262144 -1 -1 0
1;
#X obj 11 72 cnv 15 340 50 empty empty loc 20 12 0 14 -233017 -66577
0;
#X floatatom 20 104 10 0 0 1 lat lat -, f 10;
#X floatatom 118 104 10 0 0 1 lon lon -, f 10;
#X floatatom 211 104 7 0 0 1 accuracy_(m) accuracy -, f 7;
#X obj 20 485 hsl 320 30 0 127 0 0 filter-out filter-in distance_filter_0_-_1000m
8 15 0 10 -262144 -1 -1 0 1;
#X obj 18 350 hradio 54 1 0 6 accuracy-out accuracy-in empty 0 -8 0
10 -262144 -1 -1 1;
#X text 10 412 navigation;
#X text 86 412 best;
#X text 143 412 10m;
#X text 195 412 100m;
#X text 251 412 1km;
#X text 307 412 3km;
#X text 11 306 are dependent on the desired accuracy & distance filter
;
#X text 11 290 the speed of location events & overall resource usage
;
#N canvas 556 333 588 296 guts 0;
#X obj 34 195 loadbang;
#X obj 317 135 r accuracy-out;
#X obj 447 136 r filter-out;
#X obj 317 258 s #pdparty;
#N canvas 651 529 319 192 type 0;
#X obj 16 9 inlet;
#X obj 16 38 sel 0 1 2 3 4 5;
#X msg 16 84 navigation;
#X msg 103 84 best;
#X msg 152 83 10m;
#X msg 191 83 100m;
#X msg 238 83 1km;
#X msg 280 83 3km;
#X obj 16 133 symbol;
#X obj 16 167 outlet;
#X connect 0 0 1 0;
#X connect 1 0 2 0;
#X connect 1 1 3 0;
#X connect 1 2 4 0;
#X connect 1 3 5 0;
#X connect 1 4 6 0;
#X connect 1 5 7 0;
#X connect 2 0 8 0;
#X connect 3 0 8 0;
#X connect 4 0 8 0;
#X connect 5 0 8 0;
#X connect 6 0 8 0;
#X connect 7 0 8 0;
#X connect 8 0 9 0;
#X restore 317 182 pd type;
#X obj 36 141 s lat;
#X obj 70 115 s lon;
#X obj 36 17 r #loc;
#X obj 105 86 s accuracy;
#X obj 36 50 unpack f f f;
#X msg 317 215 loc accuracy \$1;
#X msg 447 215 loc filter \$1;
#X obj 405 90 s #pdparty;
#X obj 521 21 r update;
#X obj 312 20 r runlocate;
#X msg 312 51 loc \$1;
#X obj 405 21 r updates;
#X msg 405 52 loc updates \$1;
#X msg 34 230 \; updates-in set 1 \; accuracy-in set 1 \; filter-in
set 0;
#X msg 521 53 loc;
#X obj 188 50 unpack f f;
#X obj 188 115 s speed;
#X obj 245 87 s course;
#X obj 188 19 r #speed;
#X obj 162 166 r #altitude;
#X obj 162 253 s altitude;
#X obj 162 195 unpack f f;
#X obj 219 228 s alt-accuracy;
#X connect 0 0 18 0;
#X connect 1 0 4 0;
#X connect 2 0 11 0;
#X connect 4 0 10 0;
#X connect 7 0 9 0;
#X connect 9 0 5 0;
#X connect 9 1 6 0;
#X connect 9 2 8 0;
#X connect 10 0 3 0;
#X connect 11 0 3 0;
#X connect 13 0 19 0;
#X connect 14 0 15 0;
#X connect 15 0 12 0;
#X connect 16 0 17 0;
#X connect 17 0 12 0;
#X connect 19 0 12 0;
#X connect 20 0 21 0;
#X connect 20 1 22 0;
#X connect 23 0 20 0;
#X connect 24 0 26 0;
#X connect 26 0 25 0;
#X connect 26 1 27 0;
#X restore 304 74 pd guts;
#X text 15 325 accuracy (default "best") \, "navigation" is *intensive*
;
#X text 12 456 your pos has changed beyond this value \, 0 = no filter
;
#X text 12 440 distance filter threshold (default 0) \, events occur
when;
#X text 47 37 turn on by sending a msg to #pdparty: loc 1;
#X obj 19 245 tgl 30 0 updates updates-in updates 32 15 0 10 -262144
-1 -1 1 1;
#X obj 270 244 bng 30 250 50 0 update empty update 32 15 0 10 -262144
-1 -1;
#X text 9 222 enable auto updates to receive event stream (default:
on);
#X obj 11 128 cnv 15 340 50 empty empty speed 20 12 0 14 -233017 -66577
0;
#X floatatom 20 157 10 0 0 1 m/s speed -, f 10;
#X floatatom 118 157 10 0 0 1 course_(degrees) course -, f 10;
#X text 9 5 GPS location & speed;
#X obj 11 184 cnv 15 340 30 empty empty altitude 20 12 0 14 -233017
-66577 0;
#X floatatom 118 191 10 0 0 1 m altitude -, f 10;
#X text 118 251 ...or update manually ->;
#X floatatom 211 191 7 0 0 1 accuracy_(m) alt-accuracy -, f 7;
