#N canvas 137 104 504 294 10;
#X obj 426 177 osc~ 440;
#X obj 426 238 *~;
#X obj 426 259 dac~;
#X obj 441 198 r volume;
#X obj 18 4 vsl 32 256 0 127 0 0 volume empty empty 0 -9 0 10 -262144
-1 -1 0 1;
#X obj 438 -4 loadbang;
#X msg 438 17 \; pd dsp 1;
#X obj 441 219 / 127;
#X connect 0 0 1 0;
#X connect 1 0 2 0;
#X connect 1 0 2 1;
#X connect 3 0 7 0;
#X connect 5 0 6 0;
#X connect 7 0 1 1;
