#N canvas 306 80 802 398 10;
#X obj 23 362 s #touch;
#X obj 110 311 s #accelerate;
#X text 147 46 receives PdParty events over OSC;
#X text 147 72 useful for patch development & debugging;
#X obj 128 16 tgl 15 0 empty empty print_all_messages 17 7 0 10 #fcfcfc #000000 #000000 0 1;
#X obj 23 15 tgl 15 0 empty empty listen 17 7 0 10 #fcfcfc #000000 #000000 0 1;
#N canvas 0 23 417 316 oscreceive 0;
#X obj 110 133 oscparse;
#X obj 110 162 list trim;
#X obj 130 235 spigot;
#X obj 110 287 outlet;
#X obj 163 201 inlet;
#X obj 130 261 print OSC;
#X msg 110 71 listen 0;
#X obj 110 45 sel 0;
#X obj 110 106 netreceive -u -b;
#X obj 110 16 inlet;
#X msg 175 72 listen 8888;
#X connect 0 0 1 0;
#X connect 1 0 2 0;
#X connect 1 0 3 0;
#X connect 2 0 5 0;
#X connect 4 0 2 1;
#X connect 6 0 8 0;
#X connect 7 0 6 0;
#X connect 7 1 10 0;
#X connect 8 0 0 0;
#X connect 9 0 7 0;
#X connect 10 0 8 0;
#X coords 0 316 1 315 140 40 0;
#X restore 23 45 pd oscreceive 8888;
#X obj 23 78 route pdparty;
#X obj 154 283 s #gyro;
#X obj 328 176 s #magnet;
#X obj 197 256 s #loc;
#X obj 285 204 s #compass;
#X obj 241 232 s #speed;
#X obj 693 176 print pdparty;
#X obj 557 256 s #key;
#X obj 466 311 s #controller;
#X obj 511 283 s #shake;
#X obj 602 232 s #keyup;
#X obj 372 147 s #motion;
#X obj 23 115 route touch stylus accelerate gyro loc speed compass magnet motion, f 66;
#X obj 66 337 s #stylus;
#X obj 466 147 route controller shake key keyup keyname print;
#X obj 648 204 s #keyname;
#X connect 4 0 6 1;
#X connect 5 0 6 0;
#X connect 6 0 7 0;
#X connect 7 0 19 0;
#X connect 19 0 0 0;
#X connect 19 1 20 0;
#X connect 19 2 1 0;
#X connect 19 3 8 0;
#X connect 19 4 10 0;
#X connect 19 5 12 0;
#X connect 19 6 11 0;
#X connect 19 7 9 0;
#X connect 19 8 18 0;
#X connect 19 9 21 0;
#X connect 21 0 15 0;
#X connect 21 1 16 0;
#X connect 21 2 14 0;
#X connect 21 3 17 0;
#X connect 21 4 22 0;
#X connect 21 5 13 0;
