#N canvas 524 160 361 353 10;
#X msg 93 250 disconnect;
#X obj 15 21 tgl 15 0 empty empty send_keys 17 7 0 10 -262144 -1 -1
0 1;
#X msg 86 224 connect 127.0.0.1 8088;
#N canvas 0 23 356 247 oscsend 0;
#X obj 71 59 inlet;
#X obj 71 146 netsend -u -b;
#X obj 71 119 list trim;
#X obj 71 92 list prepend send;
#X obj 71 174 outlet;
#X obj 201 119 inlet;
#X connect 0 0 3 0;
#X connect 1 0 4 0;
#X connect 2 0 1 0;
#X connect 3 0 2 0;
#X connect 5 0 1 0;
#X restore 17 295 pd oscsend;
#X obj 17 321 tgl 15 0 empty empty connected 17 7 0 10 -262144 -1 -1
0 1;
#X symbolatom 74 175 20 0 0 0 - - -;
#X msg 74 199 connect \$1 8088;
#X obj 74 148 bng 15 250 50 0 empty empty empty 17 7 0 10 -262144 -1
-1;
#X text 95 149 type hostname/ip below and hit enter;
#X text 114 47 sends PdParty events over OSC;
#N canvas 255 212 317 180 control 0;
#X obj 25 22 r #pdparty;
#X obj 25 48 list;
#X obj 25 72 oscformat pdparty;
#X obj 25 151 outlet;
#X obj 156 48 list;
#X obj 156 21 r rjdj;
#X obj 156 72 oscformat pdparty rjdj;
#X connect 0 0 1 0;
#X connect 1 0 2 0;
#X connect 2 0 3 0;
#X connect 4 0 6 0;
#X connect 5 0 4 0;
#X connect 6 0 3 0;
#X restore 32 80 pd control messages;
#X obj 46 107 r #osc-out;
#N canvas 91 27 335 186 key 0;
#X obj 50 19 inlet;
#X obj 17 19 key;
#X obj 17 65 spigot;
#X obj 17 95 oscformat pdparty key;
#X obj 170 66 spigot;
#X obj 170 20 keyup;
#X obj 170 96 oscformat pdparty keyup;
#X obj 17 147 outlet;
#X connect 0 0 2 1;
#X connect 0 0 4 1;
#X connect 1 0 2 0;
#X connect 2 0 3 0;
#X connect 3 0 7 0;
#X connect 4 0 6 0;
#X connect 5 0 4 0;
#X connect 6 0 7 0;
#X restore 15 49 pd key messages;
#X connect 0 0 3 1;
#X connect 1 0 12 0;
#X connect 2 0 3 1;
#X connect 3 0 4 0;
#X connect 5 0 6 0;
#X connect 6 0 3 1;
#X connect 7 0 5 0;
#X connect 10 0 3 0;
#X connect 11 0 3 0;
#X connect 12 0 3 0;
