#N canvas 298 73 802 634 10;
#X obj 335 452 loadbang;
#X msg 335 474 bang;
#X obj 362 526 pack \$0 \$1 \$2;
#X obj 657 9 namecanvas pd-\$0-self;
#X obj 1 1 cnv 15 1 1 empty \$0-display empty 2 0 0 14 -233017 -66577
0;
#X obj 10 56 r \$3;
#X text 333 428 resize the canvas to what they ask for;
#X obj 50 295 list split 1;
#X obj 133 295 t l;
#X obj 50 360 makefilename %c;
#X msg 50 484 \$1\$2;
#X obj 50 461 pack s s;
#X msg 95 385 symbol;
#X msg 50 385 \$1;
#X obj 116 477 symbol;
#X obj 17 528 symbol;
#X obj 50 506 symbol;
#X obj 31 263 t b a b;
#X obj 17 550 list prepend label;
#X obj 17 572 list trim;
#X obj 50 317 sel 32;
#X msg 50 339 32;
#X obj 17 592 s \$0-display;
#X obj 52 170 list split 1;
#X obj 10 170 list;
#X obj 10 150 until;
#X obj 52 147 list;
#X obj 31 237 list;
#X obj 137 214 t l;
#X obj 10 111 t b b a b;
#X obj 52 192 list append 32;
#X obj 52 214 list prepend;
#X text 145 338 <- join list on " ";
#X msg 46 56 display text here;
#X obj 10 78 route set;
#X obj 50 410 route float;
#X obj 50 435 makefilename %d;
#X text 126 411 convert float to symbol;
#N canvas 0 22 454 268 cnv 0;
#X obj 244 176 pack \$0 f f;
#X obj 307 124 f \$2;
#X obj 244 92 t b b b;
#X msg 244 203 \; \$1-display vis_size \$2 \$3;
#X obj 275 124 f \$1;
#X obj 307 151 - 2;
#X obj 275 151 - 2;
#X obj 45 18 inlet;
#X obj 45 49 t b b;
#X obj 45 174 pack \$0 f;
#X obj 96 127 / 2;
#X obj 45 78 t b b;
#X obj 96 103 f \$2;
#X msg 45 201 \; \$1-display label_pos 2 \$2;
#X connect 0 0 3 0;
#X connect 1 0 5 0;
#X connect 2 0 0 0;
#X connect 2 1 4 0;
#X connect 2 2 1 0;
#X connect 4 0 6 0;
#X connect 5 0 0 2;
#X connect 6 0 0 1;
#X connect 7 0 8 0;
#X connect 8 0 11 0;
#X connect 8 1 2 0;
#X connect 9 0 13 0;
#X connect 10 0 9 1;
#X connect 11 0 9 0;
#X connect 11 1 12 0;
#X connect 12 0 10 0;
#X restore 313 550 pd cnv;
#X msg 362 549 \; pd-\$1-self donecanvasdialog 1 1 2 0 0 1 1 \$2 \$3
0 0 1 1 1 \; pd-\$1-self dirty 0;
#X obj 335 499 t b b;
#X connect 0 0 1 0;
#X connect 1 0 40 0;
#X connect 2 0 39 0;
#X connect 5 0 34 0;
#X connect 7 0 20 0;
#X connect 7 1 8 0;
#X connect 8 0 7 0;
#X connect 9 0 13 0;
#X connect 10 0 14 0;
#X connect 10 0 16 0;
#X connect 11 0 10 0;
#X connect 12 0 11 1;
#X connect 13 0 35 0;
#X connect 14 0 11 1;
#X connect 15 0 18 0;
#X connect 16 0 15 1;
#X connect 17 0 15 0;
#X connect 17 1 7 0;
#X connect 17 2 12 0;
#X connect 18 0 19 0;
#X connect 19 0 22 0;
#X connect 20 0 21 0;
#X connect 20 1 13 0;
#X connect 21 0 9 0;
#X connect 23 0 30 0;
#X connect 23 1 24 1;
#X connect 23 2 25 1;
#X connect 24 0 23 0;
#X connect 25 0 24 0;
#X connect 26 0 23 0;
#X connect 27 0 17 0;
#X connect 28 0 31 1;
#X connect 29 0 27 0;
#X connect 29 1 25 0;
#X connect 29 2 26 0;
#X connect 29 3 31 1;
#X connect 30 0 31 0;
#X connect 31 0 28 0;
#X connect 31 0 27 1;
#X connect 33 0 29 0;
#X connect 34 0 29 0;
#X connect 34 1 29 0;
#X connect 35 0 36 0;
#X connect 35 1 11 0;
#X connect 36 0 11 0;
#X connect 40 0 38 0;
#X connect 40 1 2 0;
#X coords 0 0 1 1 200 140 2 0 0;
