#N canvas 722 250 362 328 10;
#X obj 84 221 list prepend accel;
#X obj 84 250 list trim;
#X obj 214 250 list trim;
#X obj 214 222 list prepend magn;
#X obj 23 144 s #pdparty;
#X text 95 22 translate droidsystem to pdparty messages;
#X obj 100 95 list prepend openurl;
#X obj 23 22 r \$1-rcv;
#X obj 23 295 s \$1-snd;
#N canvas 513 79 731 291 sensors 0;
#X msg 288 108 gyro 0;
#X msg 504 107 magnet 0;
#X obj 10 43 route accel gyro magn;
#X obj 10 76 route stop;
#X obj 288 79 route stop;
#X obj 504 78 route stop;
#X obj 345 107 symbol;
#X obj 561 133 symbol;
#X obj 10 15 inlet;
#X obj 67 105 symbol;
#X msg 10 163 accelerate 0;
#X msg 77 12 accel normal;
#X obj 288 256 outlet;
#X msg 67 133 accelerate 1 \, accelerate speed \$1;
#X msg 345 131 gyro 1 \, gyro speed \$1;
#X msg 561 162 magnet 1 \, magnet speed \$1;
#X connect 0 0 12 0;
#X connect 1 0 12 0;
#X connect 2 0 3 0;
#X connect 2 1 4 0;
#X connect 2 2 5 0;
#X connect 3 0 10 0;
#X connect 3 1 9 0;
#X connect 4 0 0 0;
#X connect 4 1 6 0;
#X connect 5 0 1 0;
#X connect 5 1 7 0;
#X connect 6 0 14 0;
#X connect 7 0 15 0;
#X connect 8 0 2 0;
#X connect 9 0 13 0;
#X connect 10 0 12 0;
#X connect 11 0 2 0;
#X connect 13 0 12 0;
#X connect 14 0 12 0;
#X connect 15 0 12 0;
#X restore 23 94 pd sensors;
#X obj 100 121 list trim;
#X obj 84 191 r #accelerate;
#X obj 23 190 r #gyro;
#X obj 214 192 r #magnet;
#X obj 23 54 route sensors gotoUrl;
#X text 163 53 ignore "vibrate";
#X connect 0 0 1 0;
#X connect 1 0 8 0;
#X connect 2 0 8 0;
#X connect 3 0 2 0;
#X connect 6 0 10 0;
#X connect 7 0 14 0;
#X connect 9 0 4 0;
#X connect 10 0 4 0;
#X connect 11 0 0 0;
#X connect 12 0 8 0;
#X connect 13 0 3 0;
#X connect 14 0 9 0;
#X connect 14 1 6 0;
