#N canvas 395 78 389 280 10;
#X obj 13 33 r \$1;
#X obj 13 98 openpanel;
#X obj 198 98 savepanel;
#X obj 13 54 route load save;
#X text 52 33 <- format = load/save initial-directory extension;
#X obj 13 77 unpack s s;
#X obj 198 77 unpack s s;
#X text 11 9 args: send/receive-name;
#X obj 198 167 s \$1-save;
#X obj 13 168 s \$1-load;
#X obj 13 120 t a a;
#X obj 76 168 s \$1-load-detail;
#X obj 198 120 t a a;
#X obj 261 167 s \$1-save-detail;
#N canvas 650 381 632 565 split 1;
#X obj 13 49 list fromsymbol;
#X obj 49 95 list split 1;
#X obj 82 282 list append;
#X obj 157 282 t l;
#X obj 28 308 list;
#X obj 28 335 list tosymbol;
#X obj 13 26 inlet;
#X obj 131 95 t l;
#X obj 49 219 t b b b;
#X obj 49 157 sel 46;
#X obj 177 205 47;
#X obj 49 181 t b b a;
#X msg 192 181 -1;
#X msg 179 151 47;
#X msg 103 127 46;
#X obj 13 71 t b b a b b;
#X obj 28 384 t l;
#X obj 13 407 list;
#X obj 13 429 outlet;
#X obj 28 362 list prepend;
#X connect 0 0 15 0;
#X connect 1 0 9 0;
#X connect 1 1 7 0;
#X connect 2 0 3 0;
#X connect 2 0 4 1;
#X connect 3 0 2 1;
#X connect 4 0 5 0;
#X connect 5 0 19 0;
#X connect 6 0 0 0;
#X connect 7 0 1 0;
#X connect 8 0 4 1;
#X connect 8 1 4 0;
#X connect 8 2 2 1;
#X connect 9 0 11 0;
#X connect 9 1 2 0;
#X connect 10 0 9 1;
#X connect 11 0 12 0;
#X connect 11 1 10 0;
#X connect 11 2 8 0;
#X connect 12 0 10 1;
#X connect 13 0 10 1;
#X connect 14 0 9 1;
#X connect 15 0 17 0;
#X connect 15 1 4 0;
#X connect 15 2 1 0;
#X connect 15 3 2 1;
#X connect 15 3 19 1;
#X connect 15 4 13 0;
#X connect 15 4 14 0;
#X connect 16 0 17 1;
#X connect 16 0 19 1;
#X connect 17 0 18 0;
#X connect 19 0 16 0;
#X restore 40 142 pd split /;
#N canvas 650 381 632 565 split 1;
#X obj 13 49 list fromsymbol;
#X obj 49 95 list split 1;
#X obj 82 282 list append;
#X obj 157 282 t l;
#X obj 28 308 list;
#X obj 28 335 list tosymbol;
#X obj 13 26 inlet;
#X obj 131 95 t l;
#X obj 49 219 t b b b;
#X obj 49 157 sel 46;
#X obj 177 205 47;
#X obj 49 181 t b b a;
#X msg 192 181 -1;
#X msg 179 151 47;
#X msg 103 127 46;
#X obj 13 71 t b b a b b;
#X obj 28 384 t l;
#X obj 13 407 list;
#X obj 13 429 outlet;
#X obj 28 362 list prepend;
#X connect 0 0 15 0;
#X connect 1 0 9 0;
#X connect 1 1 7 0;
#X connect 2 0 3 0;
#X connect 2 0 4 1;
#X connect 3 0 2 1;
#X connect 4 0 5 0;
#X connect 5 0 19 0;
#X connect 6 0 0 0;
#X connect 7 0 1 0;
#X connect 8 0 4 1;
#X connect 8 1 4 0;
#X connect 8 2 2 1;
#X connect 9 0 11 0;
#X connect 9 1 2 0;
#X connect 10 0 9 1;
#X connect 11 0 12 0;
#X connect 11 1 10 0;
#X connect 11 2 8 0;
#X connect 12 0 10 1;
#X connect 13 0 10 1;
#X connect 14 0 9 1;
#X connect 15 0 17 0;
#X connect 15 1 4 0;
#X connect 15 2 1 0;
#X connect 15 3 2 1;
#X connect 15 3 19 1;
#X connect 15 4 13 0;
#X connect 15 4 14 0;
#X connect 16 0 17 1;
#X connect 16 0 19 1;
#X connect 17 0 18 0;
#X connect 19 0 16 0;
#X restore 225 141 pd split /;
#X connect 0 0 3 0;
#X connect 1 0 10 0;
#X connect 2 0 12 0;
#X connect 3 0 5 0;
#X connect 3 1 6 0;
#X connect 5 0 1 0;
#X connect 6 0 2 0;
#X connect 10 0 9 0;
#X connect 10 1 14 0;
#X connect 12 0 8 0;
#X connect 12 1 15 0;
#X connect 14 0 11 0;
#X connect 15 0 13 0;
