#N canvas 481 48 676 457 10;
#X obj 2 2 nbx 3 14 1 99 0 0 \$4 \$3 empty 0 -8 0 10 -262144 -1 -1
1 256;
#X obj 237 271 loadbang;
#X msg 237 293 bang;
#X obj 290 344 pack \$0 \$1 \$2;
#X msg 290 367 \; pd-\$1-self donecanvasdialog 1 1 2 0 0 1 1 \$2 \$3
0 0 1 1 1 \; pd-\$1-self dirty 0 \;;
#X text 308 316 resize the canvas to what they ask for;
#X obj 516 0 namecanvas pd-\$0-self;
#X obj 16 262 loadbang;
#X obj 16 394 s \$3;
#X msg 16 284 bang;
#X text 26 243 set range;
#X obj 16 306 t b b;
#X obj 61 328 \$6;
#X obj 16 328 \$5;
#X obj 16 350 pack f f;
#X msg 16 372 range \$1 \$2;
#X text 360 28 args: width height receive send min max initial;
#X text 111 245 initial value;
#X obj 115 262 loadbang;
#X msg 115 283 bang;
#X obj 115 304 \$7;
#X msg 115 325 set \$1;
#X obj 115 346 s \$3;
#N canvas 0 23 432 369 size 0;
#X obj 307 111 f \$2;
#X obj 250 85 t b b b;
#X obj 45 18 inlet;
#X obj 45 49 t b b;
#X obj 96 127 / 2;
#X obj 45 78 t b b;
#X obj 96 103 f \$2;
#X obj 250 197 symbol \$3;
#X obj 250 283 pack s f f;
#X obj 351 141 / 2;
#X obj 330 199 pack \$1 f;
#X obj 330 227 -;
#X obj 330 255 / 12;
#X obj 351 167 t f f;
#X obj 307 138 - 4;
#X msg 250 310 \; \$1 size \$2 \$3;
#X obj 45 149 symbol \$3;
#X obj 45 174 pack s f;
#X msg 45 201 \; \$1 label_font 0 \$2;
#X connect 0 0 9 0;
#X connect 0 0 14 0;
#X connect 1 0 7 0;
#X connect 1 1 10 0;
#X connect 1 2 0 0;
#X connect 2 0 3 0;
#X connect 3 0 5 0;
#X connect 3 1 1 0;
#X connect 4 0 17 1;
#X connect 5 0 16 0;
#X connect 5 1 6 0;
#X connect 6 0 4 0;
#X connect 7 0 8 0;
#X connect 8 0 15 0;
#X connect 9 0 13 0;
#X connect 10 0 11 0;
#X connect 11 0 12 0;
#X connect 12 0 8 1;
#X connect 13 0 12 1;
#X connect 13 1 10 1;
#X connect 14 0 8 2;
#X connect 16 0 17 0;
#X connect 17 0 18 0;
#X restore 237 368 pd size;
#X obj 237 316 t b b;
#X connect 1 0 2 0;
#X connect 2 0 24 0;
#X connect 3 0 4 0;
#X connect 7 0 9 0;
#X connect 9 0 11 0;
#X connect 11 0 13 0;
#X connect 11 1 12 0;
#X connect 12 0 14 1;
#X connect 13 0 14 0;
#X connect 14 0 15 0;
#X connect 15 0 8 0;
#X connect 18 0 19 0;
#X connect 19 0 20 0;
#X connect 20 0 21 0;
#X connect 21 0 22 0;
#X connect 24 0 23 0;
#X connect 24 1 3 0;
#X coords 0 0 1 1 200 140 2 0 0;
