#N canvas 406 23 778 587 10;
#X obj 5 344 loadbang;
#X msg 5 386 bang;
#X obj 5 460 pack \$0 \$1 \$2;
#X msg 46 386 bang;
#X obj 5 365 t b b;
#X obj 509 364 list;
#X obj 509 213 r \$0/tap;
#X obj 509 293 mod;
#X obj 509 272 f;
#X obj 539 272 + 1;
#X obj 576 272 list length;
#X obj 509 384 list split 1;
#X obj 543 405 list split 1;
#X text 412 29 args: width height receivename sendname item1 item2
...;
#X obj 543 540 s \$4;
#X obj 96 427 list append \$5 \$6 \$7 \$8 \$9 \$10 \$11 \$12 \$13 \$14
\$15 \$16 \$17 \$18 \$19 \$20 \$21 \$22 \$23 \$24 \$25 \$26 \$27 \$28
\$29 \$30;
#X obj 617 3 namecanvas pd-\$0-self;
#X obj 543 426 t a a;
#X obj 582 470 s \$0/setsymbol;
#N canvas 12 22 450 300 filter-zeros 0;
#X obj 8 8 inlet;
#X obj 148 71 t l;
#X obj 35 92 list trim;
#X obj 35 71 list split 1;
#X obj 35 119 route 0;
#X obj 160 140 t l;
#X obj 21 169 list;
#X obj 74 140 list append;
#X obj 8 29 t b a b b;
#X obj 21 190 outlet;
#X connect 0 0 8 0;
#X connect 1 0 3 0;
#X connect 2 0 4 0;
#X connect 3 0 2 0;
#X connect 3 1 1 0;
#X connect 4 1 7 0;
#X connect 5 0 7 1;
#X connect 6 0 9 0;
#X connect 7 0 5 0;
#X connect 7 0 6 1;
#X connect 8 0 6 0;
#X connect 8 1 3 0;
#X connect 8 2 6 1;
#X connect 8 3 7 1;
#X restore 96 460 pd filter-zeros;
#X obj 417 201 r \$3;
#X obj 576 203 r \$3-list;
#X obj 96 480 s \$3-list;
#X obj 576 224 t b a a;
#X msg 516 253 0;
#X obj 651 448 makefilename %d;
#X obj 582 426 route symbol;
#X obj 591 384 s \$4/idx;
#X obj 509 314 t b f f;
#X obj 417 223 route set;
#X obj 543 519 spigot 1;
#X msg 456 267 0;
#X obj 417 245 t b f b;
#X msg 417 267 1;
#X obj 417 289 s \$0/block;
#X obj 588 497 r \$0/block;
#X obj 591 360 spigot 1;
#X obj 636 338 r \$0/block;
#X obj 326 326 r \$0/setsymbol;
#X obj 326 348 list prepend \$0;
#X msg 326 370 \; \$1/display label \$2;
#X obj 2 1 bng 8 250 50 0 \$0/tap \$0/tap-in empty 17 7 0 10 -262144
-262144 -262144;
#X msg 352 274 _;
#X obj 1 1 cnv 12 1 1 empty \$0/display _ 2 0 0 4 -262144 -1 0;
#X msg 5 509 \; pd-\$1-self donecanvasdialog 1 1 2 0 0 1 1 \$2 \$3
0 0 1 1 1 \; pd-\$1-self dirty 0;
#N canvas 345 145 597 322 size 0;
#X obj 402 207 pack \$0 f f;
#X obj 402 123 t b b b;
#X obj 433 182 - 2;
#X obj 45 18 inlet;
#X obj 99 166 - 2;
#X obj 45 244 pack \$0 f;
#X obj 99 137 f \$2;
#X msg 402 234 \; \$1/display vis_size \$2 \$3;
#X msg 45 271 \; \$1/tap-in size \$2;
#X obj 199 204 pack \$0 f;
#X obj 250 157 / 2;
#X obj 199 112 t b b;
#X obj 250 133 f \$2;
#X obj 433 155 f \$1;
#X obj 465 182 - 2;
#X obj 465 155 f \$2;
#X msg 199 231 \; \$1/display label_pos 2 \$2 \; \$1/display label_font
0 \$2;
#X obj 45 49 t b b b;
#X obj 64 166 - 2;
#X obj 64 137 f \$1;
#X obj 64 217 min;
#X obj 64 192 pack f f;
#X obj 45 108 t b b b;
#X connect 0 0 7 0;
#X connect 1 0 0 0;
#X connect 1 1 13 0;
#X connect 1 2 15 0;
#X connect 2 0 0 1;
#X connect 3 0 17 0;
#X connect 4 0 21 1;
#X connect 5 0 8 0;
#X connect 6 0 4 0;
#X connect 9 0 16 0;
#X connect 10 0 9 1;
#X connect 11 0 9 0;
#X connect 11 1 12 0;
#X connect 12 0 10 0;
#X connect 13 0 2 0;
#X connect 14 0 0 2;
#X connect 15 0 14 0;
#X connect 17 0 22 0;
#X connect 17 1 11 0;
#X connect 17 2 1 0;
#X connect 18 0 21 0;
#X connect 19 0 18 0;
#X connect 20 0 5 1;
#X connect 21 0 20 0;
#X connect 22 0 5 0;
#X connect 22 1 19 0;
#X connect 22 2 6 0;
#X restore 24 432 pd size;
#X connect 0 0 4 0;
#X connect 1 0 2 0;
#X connect 1 0 45 0;
#X connect 2 0 44 0;
#X connect 3 0 15 0;
#X connect 4 0 1 0;
#X connect 4 1 3 0;
#X connect 5 0 11 0;
#X connect 6 0 8 0;
#X connect 7 0 28 0;
#X connect 8 0 9 0;
#X connect 8 0 7 0;
#X connect 9 0 8 1;
#X connect 10 0 7 1;
#X connect 11 1 12 0;
#X connect 12 0 17 0;
#X connect 15 0 19 0;
#X connect 17 0 30 0;
#X connect 17 1 26 0;
#X connect 19 0 22 0;
#X connect 20 0 29 0;
#X connect 21 0 23 0;
#X connect 23 0 24 0;
#X connect 23 1 10 0;
#X connect 23 2 5 1;
#X connect 24 0 8 0;
#X connect 25 0 18 0;
#X connect 26 0 18 0;
#X connect 26 1 25 0;
#X connect 28 0 5 0;
#X connect 28 1 11 1;
#X connect 28 2 36 0;
#X connect 29 0 32 0;
#X connect 29 1 8 0;
#X connect 30 0 14 0;
#X connect 31 0 34 0;
#X connect 32 0 33 0;
#X connect 32 1 8 0;
#X connect 32 2 31 0;
#X connect 33 0 34 0;
#X connect 35 0 30 1;
#X connect 36 0 27 0;
#X connect 37 0 36 1;
#X connect 38 0 39 0;
#X connect 39 0 40 0;
#X connect 42 0 39 0;
#X coords 0 0 1 1 200 140 2 0 0;
