#N canvas 63 546 535 310 10;
#N canvas 723 257 150 192 guts 1;
#N canvas 725 509 450 300 gotoUrl 0;
#X obj 28 36 bng 15 250 50 0 empty empty empty 17 7 0 10 -262144 -1
-1;
#X obj 28 84 s sys-rcv;
#X obj 28 11 r \$0-gotopddroid;
#X msg 28 59 gotoUrl http://droidparty.net/;
#X connect 0 0 3 0;
#X connect 2 0 0 0;
#X connect 3 0 1 0;
#X restore 32 9 pd gotoUrl;
#N canvas 677 527 450 300 vibr 0;
#X obj -2118 246 s sys-rcv;
#X obj -2120 66 r \$0-vibrmetro;
#X obj -2120 101 metro 350;
#X obj -2120 128 s \$0-vibrbang-rcv;
#X obj -2016 56 r \$0-vibrtime;
#X obj -2015 83 * 1000;
#X obj -2018 104 + 50;
#X obj -2120 158 r \$0-vibrbang;
#X obj -2120 186 50;
#X obj -2027 157 r \$0-vibron;
#X obj -2027 224 * 500;
#X msg -2118 218 vibr \$1;
#X obj -2027 179 t f f;
#X obj -2027 202 *;
#X connect 1 0 2 0;
#X connect 2 0 3 0;
#X connect 4 0 5 0;
#X connect 5 0 6 0;
#X connect 6 0 2 1;
#X connect 7 0 8 0;
#X connect 8 0 11 0;
#X connect 9 0 12 0;
#X connect 10 0 8 1;
#X connect 11 0 0 0;
#X connect 12 0 13 0;
#X connect 12 1 13 1;
#X connect 13 0 10 0;
#X restore 33 95 pd vibr;
#N canvas 344 236 830 652 sensors 0;
#X obj -2484 48 r sys-snd;
#X obj -2484 97 route accel;
#X obj -2484 159 unpack f f f;
#X msg -2497 227 \$1 \, label x=\$1;
#X msg -2406 229 \$1 \, label y=\$1;
#X msg -2306 230 \$1 \, label z=\$1;
#X obj -2484 74 list trim;
#X obj -2417 421 osc~;
#X obj -2417 390 mtof;
#X obj -2341 420 osc~;
#X obj -2341 389 mtof;
#X obj -2261 413 osc~;
#X obj -2261 382 mtof;
#X obj -2348 540 dac~;
#X obj -2261 356 + 75;
#X obj -2341 363 + 70;
#X obj -2417 364 + 65;
#X obj -2198 229 s sys-rcv;
#X msg -2333 85 stop;
#X obj -2303 121 symbol;
#X msg -2295 84 normal;
#X msg -2208 84 fastest;
#X msg -2246 85 fast;
#X obj -2351 33 r \$0-axmode-stop;
#X obj -2296 56 r \$0-axmode-normal;
#X obj -2232 32 r \$0-axmode-fast;
#X obj -2177 55 r \$0-axmode-fastest;
#X symbolatom -2119 144 10 0 0 0 - - -;
#X obj -2344 506 hip~ 20;
#X obj -2212 399 r \$0-audiotestvol;
#X obj -2212 422 t f f;
#X obj -2212 445 *;
#X obj -2212 467 * 0.3;
#X obj -2346 475 *~ 0.03;
#X msg -2303 144 accel \$1 \, gyro \$1 \, magn \$1;
#X obj -2303 165 list prepend sensors;
#X obj -2217 195 list trim;
#X obj -2115 205 print;
#X obj -2497 250 s \$0-ax-rcv;
#X obj -2406 252 s \$0-ay-rcv;
#X obj -2306 253 s \$0-az-rcv;
#X obj -2018 51 r sys-snd;
#X obj -2018 168 unpack f f f;
#X msg -2031 236 \$1 \, label x=\$1;
#X msg -1940 238 \$1 \, label y=\$1;
#X msg -1840 239 \$1 \, label z=\$1;
#X obj -2018 77 list trim;
#X obj -2018 100 route gyro;
#X obj -2031 259 s \$0-gx-rcv;
#X obj -1940 261 s \$0-gy-rcv;
#X obj -1840 262 s \$0-gz-rcv;
#X obj -2022 300 r sys-snd;
#X obj -2022 405 unpack f f f;
#X msg -2035 447 \$1 \, label x=\$1;
#X msg -1944 449 \$1 \, label y=\$1;
#X msg -1844 450 \$1 \, label z=\$1;
#X obj -2022 326 list trim;
#X obj -2022 350 route magn;
#X obj -2035 470 s \$0-mx-rcv;
#X obj -1944 472 s \$0-my-rcv;
#X obj -1844 473 s \$0-mz-rcv;
#N canvas 310 525 450 300 speedlim 0;
#X obj 204 46 inlet;
#X obj 269 101 delay 50;
#X obj 204 104 spigot 1;
#X obj 204 127 t a b;
#X msg 269 121 1;
#X msg 270 142 0;
#X obj 204 186 outlet;
#X connect 0 0 2 0;
#X connect 1 0 4 0;
#X connect 2 0 3 0;
#X connect 3 0 6 0;
#X connect 3 1 1 0;
#X connect 3 1 5 0;
#X connect 4 0 2 1;
#X connect 5 0 2 1;
#X restore -2018 138 pd speedlim;
#X obj -2374 325 unpack f f f;
#N canvas 310 525 450 300 speedlim 0;
#X obj 204 46 inlet;
#X obj 269 101 delay 50;
#X obj 204 104 spigot 1;
#X obj 204 127 t a b;
#X msg 269 121 1;
#X msg 270 142 0;
#X obj 204 186 outlet;
#X connect 0 0 2 0;
#X connect 1 0 4 0;
#X connect 2 0 3 0;
#X connect 3 0 6 0;
#X connect 3 1 1 0;
#X connect 3 1 5 0;
#X connect 4 0 2 1;
#X connect 5 0 2 1;
#X restore -2484 127 pd speedlim;
#N canvas 308 530 450 300 speedlim 0;
#X obj 204 46 inlet;
#X obj 269 101 delay 50;
#X obj 204 104 spigot 1;
#X obj 204 127 t a b;
#X msg 269 121 1;
#X msg 270 142 0;
#X obj 204 186 outlet;
#X connect 0 0 2 0;
#X connect 1 0 4 0;
#X connect 2 0 3 0;
#X connect 3 0 6 0;
#X connect 3 1 1 0;
#X connect 3 1 5 0;
#X connect 4 0 2 1;
#X connect 5 0 2 1;
#X restore -2022 378 pd speedlim;
#X connect 0 0 6 0;
#X connect 1 0 63 0;
#X connect 1 0 62 0;
#X connect 2 0 3 0;
#X connect 2 1 4 0;
#X connect 2 2 5 0;
#X connect 3 0 38 0;
#X connect 4 0 39 0;
#X connect 5 0 40 0;
#X connect 6 0 1 0;
#X connect 7 0 33 0;
#X connect 8 0 7 0;
#X connect 9 0 33 0;
#X connect 10 0 9 0;
#X connect 11 0 33 0;
#X connect 12 0 11 0;
#X connect 14 0 12 0;
#X connect 15 0 10 0;
#X connect 16 0 8 0;
#X connect 18 0 19 0;
#X connect 19 0 34 0;
#X connect 19 0 27 0;
#X connect 20 0 19 0;
#X connect 21 0 19 0;
#X connect 22 0 19 0;
#X connect 23 0 18 0;
#X connect 24 0 20 0;
#X connect 25 0 22 0;
#X connect 26 0 21 0;
#X connect 28 0 13 0;
#X connect 28 0 13 1;
#X connect 29 0 30 0;
#X connect 30 0 31 0;
#X connect 30 1 31 1;
#X connect 31 0 32 0;
#X connect 32 0 33 1;
#X connect 33 0 28 0;
#X connect 34 0 35 0;
#X connect 35 0 36 0;
#X connect 36 0 17 0;
#X connect 41 0 46 0;
#X connect 42 0 43 0;
#X connect 42 1 44 0;
#X connect 42 2 45 0;
#X connect 43 0 48 0;
#X connect 44 0 49 0;
#X connect 45 0 50 0;
#X connect 46 0 47 0;
#X connect 47 0 61 0;
#X connect 51 0 56 0;
#X connect 52 0 53 0;
#X connect 52 1 54 0;
#X connect 52 2 55 0;
#X connect 53 0 58 0;
#X connect 54 0 59 0;
#X connect 55 0 60 0;
#X connect 56 0 57 0;
#X connect 57 0 64 0;
#X connect 61 0 42 0;
#X connect 62 0 16 0;
#X connect 62 1 15 0;
#X connect 62 2 14 0;
#X connect 63 0 2 0;
#X connect 64 0 52 0;
#X restore 32 47 pd sensors;
#X restore 375 263 pd guts;
#X obj 255 265 droidsystem sys;
#X obj 212 5 cnv 15 300 230 empty empty SENSORS 20 12 0 14 -262130
-66577 0;
#X obj 258 72 hsl 128 15 -10 10 0 0 empty \$0-ax-rcv ax -20 8 0 10
-262144 -1 -1 0 1;
#X obj 291 38 bng 30 250 50 0 \$0-axmode-stop empty stop 0 -7 0 14
-191407 -1 -1;
#X obj 333 39 bng 30 250 50 0 \$0-axmode-normal empty normal 0 -7 0
14 -4034 -1 -1;
#X obj 386 38 bng 30 250 50 0 \$0-axmode-fast empty fast 0 -7 0 14
-260097 -1 -1;
#X obj 433 40 bng 30 250 50 0 \$0-axmode-fastest empty fastest 0 -7
0 14 -258113 -1 -1;
#X obj 398 88 vsl 15 128 0 1 0 0 \$0-audiotestvol empty accel-audio-volume
0 -9 0 10 -260097 -1 -1 0 1;
#X obj 258 88 hsl 128 15 -10 10 0 0 empty \$0-ay-rcv ay -20 8 0 10
-262144 -1 -1 0 1;
#X obj 258 104 hsl 128 15 -10 10 0 0 empty \$0-az-rcv az -20 8 0 10
-262144 -1 -1 0 1;
#X obj 258 127 hsl 128 15 -10 10 0 0 empty \$0-gx-rcv gx -20 8 0 10
-262144 -1 -1 0 1;
#X obj 258 143 hsl 128 15 -10 10 0 0 empty \$0-gy-rcv gy -20 8 0 10
-262144 -1 -1 0 1;
#X obj 258 159 hsl 128 15 -10 10 0 0 empty \$0-gz-rcv gz -20 8 0 10
-262144 -1 -1 0 1;
#X obj 258 181 hsl 128 15 -50 50 0 0 empty \$0-mx-rcv mx -20 8 0 10
-262144 -1 -1 0 1;
#X obj 258 197 hsl 128 15 -50 50 0 0 empty \$0-my-rcv my -20 8 0 10
-262144 -1 -1 0 1;
#X obj 258 213 hsl 128 15 -50 50 0 0 empty \$0-mz-rcv mz -20 8 0 10
-262144 -1 -1 0 1;
#X obj 10 103 cnv 15 200 130 empty empty VIBRATOR 20 12 0 14 -261682
-66577 0;
#X obj 22 133 tgl 40 0 \$0-vibrmetro empty metro 0 -7 0 10 -262144
-1 -1 0 1;
#X obj 77 147 hsl 128 25 0 1 0 0 \$0-vibrtime empty metro-time -2 -8
0 10 -262144 -1 -1 0 1;
#X obj 77 192 hsl 128 25 0 1 0 0 \$0-vibron empty vibrate-time -2 -8
0 10 -262144 -1 -1 0 1;
#X obj 21 190 bng 40 80 50 0 \$0-vibrbang \$0-vibrbang-rcv once 0 -7
0 10 -262144 -1 -1;
#X obj 10 7 cnv 15 200 80 empty empty GOTO_URL 20 12 0 14 -204786 -66577
0;
#X obj 24 36 bng 40 250 50 0 \$0-gotopddroid empty pddroid_website
43 20 0 14 -4034 -1 -1;
