#N canvas 326 25 259 245 10;
#N canvas 159 198 601 287 touch 0;
#X obj 33 26 r #touch;
#X obj 33 59 unpack s f f f;
#X obj 33 196 r #stylus;
#X obj 33 229 unpack s f f f f f f f;
#X obj 33 112 r #touch;
#X text 96 195 enabled w/ extended touch;
#X text 90 111 extended touch;
#X text 130 58 eventType id x y;
#X obj 33 145 unpack s f f f f f;
#X text 179 228 eventType id x y radius force azimuth_radians elevation_radians, f 63;
#X text 151 144 eventType id x y radius_points force_normalized;
#X connect 0 0 1 0;
#X connect 2 0 3 0;
#X connect 4 0 8 0;
#X restore 70 50 pd touch;
#N canvas 328 102 604 548 sensors 0;
#X obj 41 21 r #accelerate;
#X obj 41 54 unpack f f f;
#X obj 283 21 r #loc;
#X text 116 259 degrees;
#X obj 42 260 r #compass;
#X obj 42 134 unpack f f f;
#X obj 283 54 unpack f f f;
#X obj 283 101 r #speed;
#X obj 283 134 unpack f f;
#X text 358 133 speed_m/s course_degrees;
#X obj 283 260 r #shake;
#X obj 283 177 r #altitude;
#X obj 42 335 r #motion;
#X obj 42 365 route attitude rotation gravity user;
#X obj 42 502 unpack f f f;
#X obj 283 214 unpack f f;
#X text 369 53 lat_degrees lon_degrees accuracy_m;
#X text 126 53 x y z (g);
#X text 358 213 altitude accuracy (meters);
#X obj 95 464 unpack f f f;
#X text 125 501 x y z (radians);
#X text 178 463 pitch roll yaw (radians/s);
#X obj 148 427 unpack f f f;
#X obj 201 396 unpack f f f;
#X text 130 20 raw;
#X text 92 100 raw;
#X text 107 335 processed;
#X text 231 426 x y z (g) gravity only;
#X text 282 395 x y z (g) without gravity;
#X obj 42 214 unpack f f f;
#X text 109 176 raw;
#X obj 283 289 bng 16 250 50 0 empty empty empty 0 -8 0 10 #fcfcfc #000000 #000000;
#X obj 42 289 unpack f;
#X text 344 259 iOS cancel gesture;
#X obj 42 101 r #gyro;
#X obj 42 177 r #magnet;
#X text 127 133 x y z (radians/3);
#X text 127 213 x y z (microteslas);
#X connect 0 0 1 0;
#X connect 2 0 6 0;
#X connect 4 0 32 0;
#X connect 7 0 8 0;
#X connect 10 0 31 0;
#X connect 11 0 15 0;
#X connect 12 0 13 0;
#X connect 13 0 14 0;
#X connect 13 1 19 0;
#X connect 13 2 22 0;
#X connect 13 3 23 0;
#X connect 34 0 5 0;
#X connect 35 0 29 0;
#X restore 70 80 pd sensors;
#N canvas 234 131 486 301 controller 0;
#X obj 21 27 r #controller;
#X obj 238 93 unpack s s s f;
#X text 17 121 device name;
#X obj 21 59 route connect disconnect pause;
#X obj 139 90 bng 16 250 50 0 empty empty empty 0 -8 0 10 #fcfcfc #000000 #000000;
#X text 116 120 pause button;
#X obj 198 190 route button axis;
#X obj 198 258 unpack s f;
#X obj 247 225 unpack s f;
#X obj 198 159 route gc1;
#X text 267 258 name value;
#X text 317 224 name value;
#X text 263 160 gc name: gc1 \, gc2 \, gc3 \, or gc4;
#X text 236 121 gc_name type name value;
#X text 311 191 type;
#X obj 21 94 unpack s;
#X connect 0 0 3 0;
#X connect 3 0 15 0;
#X connect 3 1 15 0;
#X connect 3 2 4 0;
#X connect 3 3 1 0;
#X connect 3 3 9 0;
#X connect 6 0 7 0;
#X connect 6 1 8 0;
#X connect 9 0 6 0;
#X restore 70 109 pd controller;
#N canvas 247 142 454 231 util 0;
#X obj 24 86 unpack f f f f f f f f f f;
#X text 191 93 timezone hour minute second millisecond;
#X text 191 76 year month day_month day_week day_year;
#X obj 24 55 r #time;
#X text 21 31 teimstamp \, request via sending: #pdparty time;
#X connect 3 0 0 0;
#X restore 70 137 pd util;
#N canvas 285 130 400 228 osc 0;
#X obj 26 101 s #osc-out;
#X obj 26 56 r #osc-in;
#X text 102 56 receive data over OSC;
#X text 102 102 send data over OSC;
#X text 24 156 you can also use [netreceive -u -b] and [netsend -u -b];
#X text 24 16 use PdParty's built-in OSC server:;
#X restore 71 164 pd osc;
#N canvas 283 175 450 300 pdparty 0;
#X obj 24 266 s #pdparty;
#X text 17 13 sensor control messages \, timestamp requests \, etc;
#X msg 80 178 time;
#X text 116 177 request timestamp to #time;
#X msg 24 71 sensor accelerate 1;
#X text 154 70 enable accelerometer;
#X text 17 43 example (not everything):;
#X msg 47 106 sensor accelerate speed fastest;
#X text 247 105 fastest update freq;
#X msg 65 143 touch extended 1;
#X text 175 142 enable extended touch events (& stylus);
#X msg 90 214 openurl https://puredata.info;
#X text 281 213 open a webpage;
#X text 153 247 etc...;
#X connect 2 0 0 0;
#X connect 4 0 0 0;
#X connect 7 0 0 0;
#X connect 9 0 0 0;
#X connect 11 0 0 0;
#X restore 71 193 pd pdparty control;
#N canvas 309 117 332 206 midi 0;
#X text 14 21 MIDI events use the normal objects;
#X obj 18 63 notein;
#X obj 19 113 noteout;
#X obj 77 63 ctlin;
#X obj 77 113 ctlout;
#X text 125 62 ...;
#X text 126 112 ...;
#X restore 136 164 pd midi;
#X text 67 18 event reference;
#N canvas 266 291 278 180 key 0;
#X obj 33 57 key;
#X obj 81 125 keyname;
#X obj 34 125 keyup;
#X text 30 18 key events use the normal objects;
#X text 31 98 these are available on iOS 13.4+;
#X restore 135 137 pd key;
