#N canvas 598 56 142 249 10;
#X obj 2 162 *~;
#X obj 2 185 *~;
#X obj 2 91 clip~ 0 1;
#X obj 60 42 inlet q;
#X obj 80 63 inlet t;
#X obj 2 228 outlet~;
#X obj 2 114 max~ \$3;
#X obj 2 137 -~ \$3;
#X obj 2 207 *~ \$4;
#X obj 2 69 bp~ \$1 \$2;
#X obj 31 22 inlet f;
#X obj 3 3 noise~;
#X obj 91 85 inlet a;
#X connect 0 0 1 0;
#X connect 0 0 1 1;
#X connect 1 0 8 0;
#X connect 2 0 6 0;
#X connect 3 0 9 2;
#X connect 4 0 6 1;
#X connect 4 0 7 1;
#X connect 6 0 7 0;
#X connect 7 0 0 0;
#X connect 7 0 0 1;
#X connect 8 0 5 0;
#X connect 9 0 2 0;
#X connect 10 0 9 1;
#X connect 11 0 9 0;
#X connect 12 0 8 1;
