#N canvas 437 23 481 590 10;
#X floatatom 6 174 5 0 0 0 - - -, f 5;
#X floatatom 74 174 5 0 0 0 - - -, f 5;
#X floatatom 141 174 5 0 0 0 - - -, f 5;
#X floatatom 238 174 5 0 0 0 - - -, f 5;
#X text 3 33 It doesn’t enjoy the Gaussian intensity distribution
\,;
#X text 3 48 in order to remain cheap \, so it has a tendency to;
#X text 4 62 give occasional harsh spikes. It should be used;
#X text 5 78 sparingly as a background filler somewhere at the;
#X text 5 94 level of detail between the previous Poisson rain;
#X text 5 109 and purely noise based sources - Andy Farnell;
#X obj 43 557 outlet~;
#X obj 100 557 outlet~;
#X obj 141 151 inlet threshold;
#X obj 238 151 inlet factor;
#X obj 6 151 inlet f0;
#X obj 74 151 inlet q;
#X floatatom 143 264 5 0 0 0 - - -, f 5;
#X obj 143 237 /;
#X obj 48 176 bng 15 250 50 0 empty empty empty 17 7 0 10 -262144 -1
-1;
#X text 70 132 q = f0/Df;
#X text 131 278 Df = f0/q;
#X text 3 3 A frequency of about 10 with a small resonance around 0.1
works okay.;
#X obj 77 242 drops;
#X text 255 336 this is Andy Franell's spikerain.pd;
#X obj 320 151 inlet hip;
#X floatatom 293 174 5 0 0 0 - - -, f 5;
#X text 257 352 with the control of [hip~] added;
#X obj 85 488 hip~;
#X connect 0 0 17 0;
#X connect 0 0 22 0;
#X connect 1 0 18 0;
#X connect 1 0 17 1;
#X connect 1 0 22 1;
#X connect 2 0 22 2;
#X connect 3 0 22 3;
#X connect 12 0 2 0;
#X connect 13 0 3 0;
#X connect 14 0 0 0;
#X connect 15 0 1 0;
#X connect 17 0 16 0;
#X connect 18 0 0 0;
#X connect 22 0 27 0;
#X connect 24 0 25 0;
#X connect 25 0 27 1;
#X connect 27 0 10 0;
#X connect 27 0 11 0;
