#N canvas 903 70 351 486 10;
#X obj 43 215 phasor~;
#X obj 43 278 *~;
#X obj 43 236 -~ 0.25;
#X obj 43 257 cos~;
#X obj 59 112 *~;
#X obj 43 83 lop~ 500;
#X obj 59 133 *~ 10;
#X obj 43 448 outlet~;
#X obj 43 64 bp~ \$1 0.4;
#X obj 32 301 max~ \$2;
#X obj 55 322 -~ \$2;
#X text 238 17 Light rain.;
#X obj 71 16 inlet;
#X obj 125 16 inlet;
#X obj 173 16 inlet;
#X text 105 201 A phasor between 40-80 Hz;
#X obj 55 345 *~ 0.5;
#X floatatom 105 369 5 0 0 0 - - -;
#X floatatom 83 279 5 0 0 0 - - -;
#X obj 115 311 hsl 128 15 0.1 0.35 0 0 empty empty empty -2 -8 0 10
-262144 -1 -1 0 1;
#X text 159 341 0.22;
#X text 122 341 0.35;
#X text 198 341 0.165;
#X text 241 341 0.125;
#X obj 43 417 hip~;
#X obj 43 369 hip~ 700;
#X text 10 346 ---->;
#X obj 105 387 min 6000;
#X obj 43 173 *~ 80;
#X obj 43 194 +~ 40;
#X obj 43 41 gaussianoise-rel 0.4;
#X connect 0 0 2 0;
#X connect 1 0 9 0;
#X connect 2 0 3 0;
#X connect 3 0 1 0;
#X connect 4 0 6 0;
#X connect 5 0 4 0;
#X connect 5 0 4 1;
#X connect 5 0 28 0;
#X connect 6 0 1 1;
#X connect 8 0 5 0;
#X connect 9 0 10 0;
#X connect 10 0 16 0;
#X connect 10 0 25 0;
#X connect 12 0 8 1;
#X connect 13 0 18 0;
#X connect 14 0 17 0;
#X connect 17 0 27 0;
#X connect 18 0 9 1;
#X connect 18 0 10 1;
#X connect 18 0 19 0;
#X connect 24 0 7 0;
#X connect 25 0 24 0;
#X connect 27 0 24 1;
#X connect 28 0 29 0;
#X connect 29 0 0 0;
#X connect 30 0 8 0;
