#N canvas 551 23 729 627 10;
#X obj 282 264 catch~ rain;
#X obj 15 384 throw~ rain;
#X obj 34 608 throw~ rain;
#X obj 447 127 throw~ rain;
#X obj 282 306 hip~ 900;
#X obj 282 285 *~ 0.2;
#X obj 257 339 outlet~;
#X obj 314 339 outlet~;
#X obj 13 263 throw~ rain;
#X obj 438 563 throw~ rain;
#X obj 439 443 throw~ rain;
#X obj 441 328 throw~ rain;
#X obj 443 226 throw~ rain;
#X text 216 43 Useful for high-detail components;
#X text 216 56 Above the density of 1 drop/ms we;
#X text 210 68 must use noise-based models;
#X obj 17 496 throw~ rain;
#X obj 3 3 inlet;
#X obj 147 113 > 0.18;
#X obj 130 228 > 0.23;
#X obj 143 349 > 0.27;
#X obj 138 459 > 0.37;
#X obj 155 573 > 0.45;
#X obj 569 91 > 0.544;
#X obj 566 191 > 0.59;
#X obj 586 289 > 0.637;
#X obj 566 406 > 0.685;
#X obj 559 526 > 0.732;
#X floatatom 187 44 5 0 0 0 - - -, f 5;
#X obj 3 27 s \$0-ra;
#X obj 147 83 r \$0-ra;
#X obj 74 66 f;
#X floatatom 216 252 5 0 0 0 - - -, f 5;
#X obj 144 200 r \$0-ra;
#X obj 75 183 f;
#X floatatom 250 390 5 0 0 0 - - -, f 5;
#X obj 138 318 r \$0-ra;
#X obj 78 301 f;
#X floatatom 242 474 5 0 0 0 - - -, f 5;
#X obj 140 428 r \$0-ra;
#X obj 80 411 f;
#X floatatom 236 568 5 0 0 0 - - -, f 5;
#X obj 161 542 r \$0-ra;
#X obj 101 525 f;
#X floatatom 639 91 5 0 0 0 - - -, f 5;
#X obj 574 54 r \$0-ra;
#X obj 514 37 f;
#X floatatom 655 217 5 0 0 0 - - -, f 5;
#X obj 585 166 r \$0-ra;
#X obj 524 147 f;
#X floatatom 653 308 5 0 0 0 - - -, f 5;
#X obj 586 259 r \$0-ra;
#X obj 512 246 f;
#X floatatom 648 400 5 0 0 0 - - -, f 5;
#X obj 566 374 r \$0-ra;
#X obj 502 357 f;
#X floatatom 621 506 5 0 0 0 - - -, f 5;
#X obj 569 486 r \$0-ra;
#X obj 509 469 f;
#X obj 187 146 tgl 15 0 empty empty empty 17 7 0 10 -262144 -1 -1 1
1;
#X obj 185 261 tgl 15 0 empty empty empty 17 7 0 10 -262144 -1 -1 1
1;
#X obj 205 385 tgl 15 0 empty empty empty 17 7 0 10 -262144 -1 -1 1
1;
#X obj 203 483 tgl 15 0 empty empty empty 17 7 0 10 -262144 -1 -1 1
1;
#X obj 210 605 tgl 15 0 empty empty empty 17 7 0 10 -262144 -1 -1 1
1;
#X obj 630 113 tgl 15 0 empty empty empty 17 7 0 10 -262144 -1 -1 1
1;
#X obj 629 223 tgl 15 0 empty empty empty 17 7 0 10 -262144 -1 -1 0
1;
#X obj 608 322 tgl 15 0 empty empty empty 17 7 0 10 -262144 -1 -1 0
1;
#X obj 622 437 tgl 15 0 empty empty empty 17 7 0 10 -262144 -1 -1 0
1;
#X obj 619 549 tgl 15 0 empty empty empty 17 7 0 10 -262144 -1 -1 0
1;
#X msg 116 66 bang;
#X msg 144 182 bang;
#X msg 120 300 bang;
#X msg 109 412 bang;
#X msg 130 525 bang;
#X msg 547 37 bang;
#X msg 560 147 bang;
#X msg 543 246 bang;
#X msg 537 357 bang;
#X msg 539 468 bang;
#X obj 28 244 *~;
#X obj 26 134 *~;
#X obj 44 589 *~;
#X obj 32 365 *~;
#X obj 458 107 *~;
#X obj 27 475 *~;
#X obj 448 542 *~;
#X obj 451 422 *~;
#X obj 453 308 *~;
#X obj 455 207 *~;
#X floatatom 220 128 5 0 0 0 - - -, f 5;
#X obj 13 154 throw~ rain;
#X msg 659 242 0.1;
#X msg 644 134 0.07;
#X msg 649 419 0.075;
#X msg 242 589 0.001;
#X obj 444 167 expr 4 - 0.88*$f1*4;
#X obj 447 59 expr 0.5 - $f1*0.5;
#X obj 13 432 expr 0.9 - 0.9*$f1*0.9;
#X obj 8 196 expr 1.6 - 0.8*$f1*1.6;
#X obj 11 322 expr 2 - 0.99*$f1*2;
#X msg 254 417 0.25;
#X obj 34 544 expr 6 - 0.99*$f1*6;
#X obj 642 278 min 1;
#X msg 218 275 0.01;
#X obj 220 146 min 0.9;
#X obj 435 376 expr 0.6 - 0.9*$f1*0.6;
#X obj 439 265 expr 0.6 - 0.9*$f1*0.6;
#X obj 6 85 expr 1 - 0.9*$f1*1;
#X obj 441 490 expr 0.1 - 0.93*$f1*0.1;
#X obj 89 47 r norm_rain_color;
#X obj 90 164 r norm_rain_color;
#X obj 93 282 r norm_rain_color;
#X obj 95 392 r norm_rain_color;
#X obj 116 506 r norm_rain_color;
#X obj 529 18 r norm_rain_color;
#X obj 539 128 r norm_rain_color;
#X obj 527 227 r norm_rain_color;
#X obj 517 338 r norm_rain_color;
#X obj 524 450 r norm_rain_color;
#X obj 10 113 cpraingen-rel 60 8 0.4;
#X obj 12 225 cpraingen-rel 40 8 0.2;
#X obj 12 344 cpraingen-rel 40 12 0.15;
#X obj 17 453 cpraingen-rel 40 10 0.3;
#X obj 34 569 cpraingen-rel 40 12 0.2;
#X obj 438 519 cpraingen-rel 40 10 0.5;
#X obj 439 404 cpraingen-rel 40 10 0.25;
#X obj 441 286 cpraingen-rel 40 10 0.1;
#X obj 443 189 cpraingen-rel 40 10 0.4;
#X obj 447 85 cpraingen-rel 40 12 0.4;
#X text 78 14 TODO - Model inlet values that actually mean 'impulses
per second';
#X connect 0 0 5 0;
#X connect 4 0 6 0;
#X connect 4 0 7 0;
#X connect 5 0 4 0;
#X connect 17 0 28 0;
#X connect 17 0 29 0;
#X connect 18 0 59 0;
#X connect 18 0 80 1;
#X connect 19 0 60 0;
#X connect 19 0 79 1;
#X connect 20 0 61 0;
#X connect 20 0 82 1;
#X connect 21 0 62 0;
#X connect 21 0 84 1;
#X connect 22 0 63 0;
#X connect 22 0 81 1;
#X connect 23 0 64 0;
#X connect 23 0 83 1;
#X connect 24 0 65 0;
#X connect 24 0 88 1;
#X connect 25 0 66 0;
#X connect 25 0 87 1;
#X connect 26 0 67 0;
#X connect 26 0 86 1;
#X connect 27 0 68 0;
#X connect 27 0 85 1;
#X connect 30 0 18 0;
#X connect 30 0 69 0;
#X connect 31 0 107 0;
#X connect 33 0 19 0;
#X connect 33 0 70 0;
#X connect 34 0 98 0;
#X connect 36 0 20 0;
#X connect 36 0 71 0;
#X connect 37 0 99 0;
#X connect 39 0 21 0;
#X connect 39 0 72 0;
#X connect 40 0 97 0;
#X connect 42 0 22 0;
#X connect 42 0 73 0;
#X connect 43 0 101 0;
#X connect 45 0 23 0;
#X connect 45 0 74 0;
#X connect 46 0 96 0;
#X connect 48 0 24 0;
#X connect 48 0 75 0;
#X connect 49 0 95 0;
#X connect 50 0 126 1;
#X connect 51 0 25 0;
#X connect 51 0 76 0;
#X connect 52 0 106 0;
#X connect 54 0 26 0;
#X connect 54 0 77 0;
#X connect 55 0 105 0;
#X connect 57 0 27 0;
#X connect 57 0 78 0;
#X connect 58 0 108 0;
#X connect 69 0 31 0;
#X connect 70 0 34 0;
#X connect 71 0 37 0;
#X connect 72 0 40 0;
#X connect 73 0 43 0;
#X connect 74 0 46 0;
#X connect 75 0 49 0;
#X connect 76 0 52 0;
#X connect 77 0 55 0;
#X connect 78 0 58 0;
#X connect 79 0 8 0;
#X connect 80 0 90 0;
#X connect 81 0 2 0;
#X connect 82 0 1 0;
#X connect 83 0 3 0;
#X connect 84 0 16 0;
#X connect 85 0 9 0;
#X connect 86 0 10 0;
#X connect 87 0 11 0;
#X connect 88 0 12 0;
#X connect 89 0 104 0;
#X connect 91 0 127 1;
#X connect 92 0 128 1;
#X connect 93 0 125 1;
#X connect 94 0 123 1;
#X connect 95 0 47 0;
#X connect 95 0 91 0;
#X connect 96 0 44 0;
#X connect 96 0 92 0;
#X connect 97 0 38 0;
#X connect 97 0 122 1;
#X connect 98 0 32 0;
#X connect 98 0 103 0;
#X connect 99 0 35 0;
#X connect 99 0 100 0;
#X connect 100 0 121 1;
#X connect 101 0 41 0;
#X connect 101 0 94 0;
#X connect 102 0 50 0;
#X connect 103 0 120 1;
#X connect 104 0 119 1;
#X connect 105 0 53 0;
#X connect 105 0 93 0;
#X connect 106 0 102 0;
#X connect 107 0 89 0;
#X connect 108 0 56 0;
#X connect 108 0 124 1;
#X connect 109 0 31 1;
#X connect 109 0 69 0;
#X connect 110 0 34 1;
#X connect 110 0 70 0;
#X connect 111 0 37 1;
#X connect 111 0 71 0;
#X connect 112 0 40 1;
#X connect 112 0 72 0;
#X connect 113 0 43 1;
#X connect 113 0 73 0;
#X connect 114 0 46 1;
#X connect 114 0 74 0;
#X connect 115 0 49 1;
#X connect 115 0 75 0;
#X connect 116 0 52 1;
#X connect 116 0 76 0;
#X connect 117 0 55 1;
#X connect 117 0 77 0;
#X connect 118 0 58 1;
#X connect 118 0 78 0;
#X connect 119 0 80 0;
#X connect 120 0 79 0;
#X connect 121 0 82 0;
#X connect 122 0 84 0;
#X connect 123 0 81 0;
#X connect 124 0 85 0;
#X connect 125 0 86 0;
#X connect 126 0 87 0;
#X connect 127 0 88 0;
#X connect 128 0 83 0;
