#N canvas 352 81 1037 531 10;
#X obj 460 109 rain1;
#X obj 479 146 hsl 32 15 0 0.5 0 0 empty empty empty -2 -8 0 10 -4034
-1 -1 186 1;
#X obj 481 169 *~;
#X obj 521 146 hsl 32 15 0 0.5 0 0 empty empty empty -2 -8 0 10 -4034
-1 -1 186 1;
#X obj 510 169 *~;
#X text 425 17 Up to moderated rain. Detailed;
#X floatatom 578 164 5 0 0 0 - - -, f 5;
#X obj 503 109 r rdetail_level;
#X obj 438 196 throw~ L-\$0;
#X obj 516 196 throw~ R-\$0;
#X text 473 72 TODO - model this rate;
#X text 473 81 so its input value coincides;
#X text 473 90 with actual rates;
#X obj 460 53 r rain_amount;
#X text 539 30 (individual;
#X text 569 42 drops);
#X obj 749 51 cnv 15 150 130 empty empty Gain 20 12 0 14 -233017 -66577
0;
#X obj 755 118 catch~ L-\$0;
#X obj 829 118 catch~ R-\$0;
#X obj 784 142 *~;
#X obj 829 142 *~;
#X obj 757 80 hsl 128 15 0 10 0 0 empty empty empty -2 -8 0 10 -262144
-1 -1 7620 1;
#X obj 841 57 loadbang;
#X obj 776 162 throw~ L;
#X obj 833 162 throw~ R;
#X msg 810 57 6;
#X floatatom 803 99 5 0 0 0 - - -, f 5;
#X msg 424 141 0.03;
#X obj 114 162 hsl 32 15 0 1 0 0 empty empty empty -2 -8 0 10 -4034
-1 -1 465 1;
#X obj 135 183 *~;
#X obj 185 163 hsl 32 15 0 1 0 0 empty empty empty -2 -8 0 10 -4034
-1 -1 465 1;
#X obj 182 183 *~;
#X obj 137 110 hsl 32 15 30 80 0 0 empty empty empty -2 -8 0 10 -262144
-1 -1 1240 1;
#X obj 177 110 hsl 32 15 0 1 0 0 empty empty empty -2 -8 0 10 -262144
-1 -1 465 1;
#X floatatom 102 110 5 0 0 0 - - -, f 5;
#X floatatom 211 110 5 0 0 0 - - -, f 5;
#X obj 165 88 max 0.15;
#X obj 90 65 loadbang;
#X msg 109 81 50;
#X obj 243 94 r r_color;
#X text 143 7 Light rain;
#X obj 48 147 r rlight_level;
#X obj 102 224 throw~ L-\$0;
#X obj 186 224 throw~ R-\$0;
#X floatatom 268 127 5 0 0 0 - - -, f 5;
#X obj 243 150 expr 10 +$f1*9000;
#X text 305 249 0.862;
#X obj 158 41 r rain_amount;
#X floatatom 263 254 5 0 0 0 - - -, f 5;
#X msg 33 187 0;
#X msg 84 187 1;
#X text 20 202 allowing zero rain;
#X obj 33 166 select 0;
#X obj 135 203 *~;
#X obj 182 203 *~;
#X obj 281 215 hsl 128 15 0 1 0 0 empty empty empty -2 -8 0 10 -262144
-1 -1 0 1;
#X obj 277 235 expr 0.6 - $f1*34.6/5/6;
#X text 120 19 (individual drops);
#X obj 59 237 bng 15 250 50 0 empty empty empty 17 7 0 10 -262144 -1
-1;
#X floatatom 23 259 5 0 0 0 - - -, f 5;
#X obj 33 127 r rain_amount;
#X floatatom 245 63 5 0 0 0 - - -, f 5;
#X obj 151 136 raindrops-rel;
#X obj 123 444 *~;
#X obj 67 497 throw~ L-\$0;
#X obj 141 497 throw~ R-\$0;
#X floatatom 149 432 5 0 0 0 - - -, f 5;
#X obj 178 383 hsl 32 15 0 1 0 0 empty empty empty -2 -8 0 10 -4034
-1 -1 31 1;
#X floatatom 175 401 5 0 0 0 - - -, f 5;
#X floatatom 97 401 5 0 0 0 - - -, f 5;
#X obj 97 385 *;
#X obj 141 417 *;
#X obj 123 466 hip~;
#X text 77 312 Pink noise.;
#X text 77 327 From moderated rain on;
#X obj 104 345 r rain_amount;
#X obj 216 364 r rpink_level;
#X obj 108 365 t f f;
#X obj 42 383 pink~;
#X obj 435 431 hsl 32 15 0 0.5 0 0 empty empty empty -2 -8 0 10 -4034
-1 -1 99 1;
#X obj 428 451 *~;
#X obj 483 431 hsl 32 15 0 0.5 0 0 empty empty empty -2 -8 0 10 -4034
-1 -1 99 1;
#X obj 485 452 *~;
#X obj 360 382 r d2_f0;
#X obj 409 382 r d2_q;
#X obj 452 382 r d2_threshold;
#X obj 543 382 r d2_factor;
#X obj 548 423 r d2_level;
#X obj 422 411 noise_distort_bp;
#X obj 572 401 r d2_hip;
#X msg 320 455 0;
#X msg 356 455 1;
#X text 297 466 allowing zero rain;
#X obj 428 471 *~;
#X obj 485 471 *~;
#X floatatom 552 485 5 0 0 0 - - -, f 5;
#X obj 399 492 throw~ L-\$0;
#X obj 476 492 throw~ R-\$0;
#X obj 535 355 expr 10 +$f1*9000;
#X obj 538 341 hsl 128 12 0 1 0 0 empty empty empty -2 -8 0 10 -262144
-1 -1 0 1;
#X obj 320 433 select 0;
#X obj 320 414 r rain_amount;
#N canvas 885 71 395 268 rescale_nr 0;
#X obj 210 72 expr -1+(4-2*$f1)*$f1;
#X obj 136 1 inlet;
#X obj 123 26 moses 0.5;
#X obj 80 130 expr 0.000584527 - (-0.08642282/3.780456)*(1 - exp(-3.780456*$f1))
;
#X obj 80 221 outlet;
#X text 221 56 Ease in/ease out Quad;
#X obj 2 72 expr 0.104634 - 0.214804*$f1*$f1;
#X floatatom 104 188 8 0 0 0 - - -, f 8;
#X obj 210 92 expr -1+(4-2*$f1)*$f1;
#X text 99 203 max rain: 0.005429;
#X text 320 165 0.02293;
#X text 266 165 0.104634;
#X obj 166 53 bng 15 250 50 0 empty empty empty 17 7 0 10 -262144 -1
-1;
#X text 248 242 0.020723;
#X text 174 242 0.051147 ou;
#X text 194 165 to rescale:;
#X text 300 242 to 0.005429;
#X text 194 185 comment;
#X text 271 183 0.20189 to;
#X text 241 204 0.019992 -> 0.51147;
#X text 241 216 0.022923 -> 0.05429;
#X obj 80 112 expr 1.06299 - $f1;
#X text 192 113 1.06299;
#X connect 0 0 8 0;
#X connect 0 0 21 0;
#X connect 1 0 2 0;
#X connect 2 0 6 0;
#X connect 2 1 0 0;
#X connect 2 1 12 0;
#X connect 3 0 4 0;
#X connect 3 0 7 0;
#X connect 6 0 7 0;
#X connect 6 0 4 0;
#X connect 21 0 3 0;
#X restore 434 359 pd rescale_nr;
#X text 290 297 Noise-based models;
#X obj 434 337 r rain_amount;
#X obj 785 250 switch~;
#X obj 785 222 r rain-ON-all;
#X obj 791 338 line 0.5 4;
#X msg 791 321 \$1 20;
#X obj 769 399 s norm_rain_color;
#N canvas 997 66 174 132 map-rc 0;
#X obj 2 2 inlet;
#X obj 2 28 moses 0;
#X msg 2 73 0;
#X obj 2 127 outlet;
#X obj 2 106 expr 10 +$f1*9000;
#X obj 41 51 min 1;
#X obj 41 72 expr pow($f1 \, 2.5);
#X connect 0 0 1 0;
#X connect 1 0 2 0;
#X connect 1 1 5 0;
#X connect 2 0 4 0;
#X connect 4 0 3 0;
#X connect 5 0 6 0;
#X connect 6 0 4 0;
#X restore 791 355 pd map-rc;
#X obj 791 375 s r_color_Hz;
#X obj 791 302 r rcolor-0-1;
#X text 869 375 to sliders;
#X text 877 399 to [rain1];
#X obj 720 460 s d2_hip;
#X obj 720 442 r s-r_color_Hz;
#X text 812 442 from sliders...;
#X text 830 462 ... to all rain \, except rain1;
#X obj 304 97 r d2_hip;
#X obj 192 429 r d2_hip;
#X connect 0 0 2 0;
#X connect 0 1 4 0;
#X connect 1 0 2 1;
#X connect 2 0 8 0;
#X connect 3 0 4 1;
#X connect 3 0 6 0;
#X connect 4 0 9 0;
#X connect 7 0 1 0;
#X connect 7 0 3 0;
#X connect 13 0 0 0;
#X connect 17 0 19 0;
#X connect 18 0 20 0;
#X connect 19 0 23 0;
#X connect 20 0 24 0;
#X connect 21 0 19 1;
#X connect 21 0 20 1;
#X connect 21 0 26 0;
#X connect 22 0 25 0;
#X connect 25 0 21 0;
#X connect 27 0 1 0;
#X connect 27 0 3 0;
#X connect 28 0 29 1;
#X connect 29 0 53 0;
#X connect 30 0 31 1;
#X connect 31 0 54 0;
#X connect 32 0 34 0;
#X connect 32 0 62 0;
#X connect 33 0 35 0;
#X connect 33 0 62 1;
#X connect 36 0 33 0;
#X connect 37 0 38 0;
#X connect 38 0 32 0;
#X connect 39 0 44 0;
#X connect 39 0 45 0;
#X connect 41 0 28 0;
#X connect 41 0 30 0;
#X connect 45 0 62 2;
#X connect 47 0 56 0;
#X connect 47 0 61 0;
#X connect 49 0 53 1;
#X connect 49 0 54 1;
#X connect 50 0 53 1;
#X connect 50 0 54 1;
#X connect 52 0 49 0;
#X connect 52 0 58 0;
#X connect 52 0 59 0;
#X connect 52 1 50 0;
#X connect 52 1 58 0;
#X connect 52 1 59 0;
#X connect 53 0 42 0;
#X connect 54 0 43 0;
#X connect 55 0 56 0;
#X connect 56 0 36 0;
#X connect 56 0 48 0;
#X connect 60 0 52 0;
#X connect 62 0 29 0;
#X connect 62 0 31 0;
#X connect 63 0 72 0;
#X connect 67 0 68 0;
#X connect 67 0 71 1;
#X connect 70 0 69 0;
#X connect 70 0 71 0;
#X connect 71 0 63 1;
#X connect 71 0 66 0;
#X connect 72 0 64 0;
#X connect 72 0 65 0;
#X connect 75 0 77 0;
#X connect 76 0 67 0;
#X connect 77 0 70 0;
#X connect 77 1 70 1;
#X connect 78 0 63 0;
#X connect 79 0 80 1;
#X connect 80 0 93 0;
#X connect 81 0 82 1;
#X connect 81 0 95 0;
#X connect 82 0 94 0;
#X connect 83 0 88 0;
#X connect 84 0 88 1;
#X connect 85 0 88 2;
#X connect 86 0 88 3;
#X connect 87 0 79 0;
#X connect 87 0 81 0;
#X connect 88 0 80 0;
#X connect 88 1 82 0;
#X connect 89 0 88 4;
#X connect 90 0 93 1;
#X connect 90 0 94 1;
#X connect 91 0 93 1;
#X connect 91 0 94 1;
#X connect 93 0 96 0;
#X connect 94 0 97 0;
#X connect 98 0 88 4;
#X connect 99 0 98 0;
#X connect 100 0 90 0;
#X connect 100 1 91 0;
#X connect 101 0 100 0;
#X connect 102 0 88 1;
#X connect 104 0 102 0;
#X connect 106 0 105 0;
#X connect 107 0 109 0;
#X connect 107 0 110 0;
#X connect 108 0 107 0;
#X connect 110 0 111 0;
#X connect 112 0 108 0;
#X connect 116 0 115 0;
#X connect 119 0 44 0;
#X connect 119 0 62 2;
#X connect 120 0 72 1;
