#N canvas 286 38 288 414 10;
#X declare -path .;
#X declare -path ../pd;
#X declare -path ../../pd;
#N canvas 0 22 739 559 guts 0;
#X obj 71 83 soundinput;
#X obj 73 491 soundoutput;
#X text 77 263 put your music here;
#N canvas 0 22 588 274 LICENSE 0;
#X text 57 36 Released under the GNU General Public License ver. 3
or later. See the file LICENSE.txt for the full text.;
#X text 79 84 (c) 2016 Dan Wilcox;
#X restore 571 80 pd LICENSE;
#X obj 571 24 declare -path .;
#N canvas 0 22 448 215 more_paths 0;
#X text 27 19 You can add more paths here as well \, like the path
to soundoutput.pd on your computer etc.;
#X obj 36 57 declare -path ../pd;
#X obj 35 79 declare -path ../../pd;
#X restore 571 52 pd more_paths;
#X restore 112 170 pd guts;
#X text 27 23 Patch Template;
#X text 24 255 and PdParty will scale on the device;
#X text 24 333 sends/receives or PdParty will ignore them;
#X text 25 311 UIs *must* communicate through;
#X text 26 74 place UIs here in the main patch;
#X text 25 139 place core dsp etc in a subpatch;
#X text 23 231 size this roughly portrait or landscape;
