#N canvas 696 176 362 527 10;
#X text 11 8 timestamp;
#X obj 11 42 bng 30 250 50 0 request empty request 32 15 0 10 -262144
-1 -1;
#X obj 10 98 cnv 15 340 340 empty empty time 20 12 0 14 -233017 -66577
0;
#X floatatom 79 130 10 0 0 1 year year -, f 10;
#X floatatom 79 159 10 0 0 1 month month -, f 10;
#X floatatom 79 191 10 0 0 1 day_of_the_month dmonth -, f 10;
#X floatatom 79 223 10 0 0 1 day_of_the_week dweek -, f 10;
#X floatatom 79 256 10 0 0 1 day_of_the_year dyear -, f 10;
#X floatatom 79 289 10 0 0 1 timezone timezone -, f 10;
#X floatatom 79 321 10 0 0 1 hour hour -, f 10;
#X floatatom 79 352 10 0 0 1 minute minute -, f 10;
#X floatatom 79 382 10 0 0 1 second second -, f 10;
#X floatatom 79 411 10 0 0 1 millisecond millisecond -, f 10;
#N canvas 0 22 280 460 guts 0;
#X obj 18 88 s #pdparty;
#X text 112 52 request 1 timestamp;
#X obj 18 123 r #time;
#X obj 18 161 unpack f f f f f f f f f f;
#X obj 171 191 s millisecond;
#X obj 154 216 s second;
#X obj 137 242 s minute;
#X obj 120 267 s hour;
#X obj 103 293 s timezone;
#X obj 69 347 s dweek;
#X obj 86 319 s dyear;
#X obj 52 373 s dmonth;
#X obj 35 398 s month;
#X obj 18 424 s year;
#X obj 18 18 r request;
#X msg 18 53 time;
#X connect 2 0 3 0;
#X connect 3 0 13 0;
#X connect 3 1 12 0;
#X connect 3 2 11 0;
#X connect 3 3 9 0;
#X connect 3 4 10 0;
#X connect 3 5 8 0;
#X connect 3 6 7 0;
#X connect 3 7 6 0;
#X connect 3 8 5 0;
#X connect 3 9 4 0;
#X connect 14 0 15 0;
#X connect 15 0 0 0;
#X restore 290 106 pd guts;
#X text 164 50 send a msg to #pdparty: time;
