#N canvas 487 150 195 274 10;
#X obj 16 28 cnv 15 160 160 empty empty touch 20 12 0 14 -233017 -66577
0;
#X floatatom 23 74 5 0 0 1 id touch_down_id -, f 5;
#X floatatom 80 74 5 0 0 1 x touch_down_x -, f 5;
#X floatatom 131 74 5 0 0 1 y touch_down_y -, f 5;
#X floatatom 24 119 5 0 0 1 id touch_xy_id -, f 5;
#X floatatom 81 119 5 0 0 1 x touch_xy_x -, f 5;
#X floatatom 132 119 5 0 0 1 y touch_xy_y -, f 5;
#X floatatom 24 162 5 0 0 1 id touch_up_id -, f 5;
#X floatatom 81 162 5 0 0 1 x touch_up_x -, f 5;
#X floatatom 132 162 5 0 0 1 y touch_up_y -, f 5;
#X text 22 54 down;
#N canvas 943 152 283 437 touch 0;
#X obj 45 319 unpack f f f;
#X obj 45 28 r #touch;
#X obj 114 349 s touch_down_y;
#X obj 79 373 s touch_down_x;
#X obj 45 397 s touch_down_id;
#X obj 76 207 unpack f f f;
#X obj 107 98 unpack f f f;
#X obj 107 176 s touch_up_id;
#X obj 141 152 s touch_up_x;
#X obj 176 128 s touch_up_y;
#X obj 45 63 route down xy up;
#X obj 167 53 print;
#X obj 145 237 s touch_xy_y;
#X obj 110 261 s touch_xy_x;
#X obj 76 285 s touch_xy_id;
#X connect 0 0 4 0;
#X connect 0 1 3 0;
#X connect 0 2 2 0;
#X connect 1 0 10 0;
#X connect 5 0 14 0;
#X connect 5 1 13 0;
#X connect 5 2 12 0;
#X connect 6 0 7 0;
#X connect 6 1 8 0;
#X connect 6 2 9 0;
#X connect 10 0 0 0;
#X connect 10 1 5 0;
#X connect 10 2 6 0;
#X restore 95 33 pd touch;
#X text 23 142 up;
#X text 22 97 xy;
#X text 20 5 normalized touch events;
