#N canvas 487 150 250 366 10;
#X obj 10 28 cnv 15 230 180 empty empty touch 20 12 0 14 #e0e0e0 #404040 0;
#X floatatom 17 73 0 0 0 1 id touch_down_id - 0;
#X floatatom 63 73 5 0 0 1 x touch_down_x - 0;
#X floatatom 114 73 5 0 0 1 y touch_down_y - 0;
#X floatatom 18 121 0 0 0 1 id touch_xy_id - 0;
#X floatatom 64 121 5 0 0 1 x touch_xy_x - 0;
#X floatatom 115 121 5 0 0 1 y touch_xy_y - 0;
#X floatatom 18 167 0 0 0 1 id touch_up_id - 0;
#X floatatom 64 167 5 0 0 1 x touch_up_x - 0;
#X floatatom 115 167 5 0 0 1 y touch_up_y - 0;
#X text 16 53 down;
#N canvas 533 123 680 285 touch 0;
#X obj 45 17 r #touch;
#X obj 91 180 s touch_down_y;
#X obj 68 204 s touch_down_x;
#X obj 45 229 s touch_down_id;
#X obj 477 229 s touch_up_id;
#X obj 500 204 s touch_up_x;
#X obj 523 180 s touch_up_y;
#X obj 45 61 route down xy up;
#X obj 304 180 s touch_xy_y;
#X obj 281 204 s touch_xy_x;
#X obj 258 229 s touch_xy_id;
#X obj 114 155 s touch_down_r;
#X obj 327 155 s touch_xy_r;
#X obj 546 155 s touch_up_r;
#X obj 477 101 unpack f f f f f;
#X obj 258 101 unpack f f f f f;
#X obj 45 101 unpack f f f f f;
#X obj 570 130 s touch_up_f;
#X obj 351 130 s touch_xy_f;
#X obj 138 130 s touch_down_f;
#X obj 258 17 r \$0-extended-out;
#X msg 258 48 \; #pdparty touch extended \$1;
#X obj 475 17 r \$0-everywhere-out;
#X msg 475 48 \; #pdparty touch everywhere \$1;
#X connect 0 0 7 0;
#X connect 7 0 16 0;
#X connect 7 1 15 0;
#X connect 7 2 14 0;
#X connect 14 0 4 0;
#X connect 14 1 5 0;
#X connect 14 2 6 0;
#X connect 14 3 13 0;
#X connect 14 4 17 0;
#X connect 15 0 10 0;
#X connect 15 1 9 0;
#X connect 15 2 8 0;
#X connect 15 3 12 0;
#X connect 15 4 18 0;
#X connect 16 0 3 0;
#X connect 16 1 2 0;
#X connect 16 2 1 0;
#X connect 16 3 11 0;
#X connect 16 4 19 0;
#X connect 20 0 21 0;
#X connect 22 0 23 0;
#X restore 89 33 pd touch;
#X text 17 147 up;
#X text 16 99 xy;
#X text 14 5 normalized touch events;
#X floatatom 164 73 5 0 0 1 radius touch_down_r - 0;
#X floatatom 164 121 5 0 0 1 radius touch_xy_r - 0;
#X floatatom 164 167 5 0 0 1 radius touch_up_r - 0;
#X floatatom 164 93 5 0 0 1 force touch_down_f - 0;
#X floatatom 164 141 5 0 0 1 force touch_xy_f - 0;
#X floatatom 164 187 5 0 0 1 force touch_up_f - 0;
#X obj 164 33 tgl 16 0 \$0-extended-out empty extended 20 8 0 10 #fcfcfc #000000 #000000 0 1;
#X obj 164 53 tgl 16 0 \$0-everywhere-out empty everywhere 20 8 0 8 #fcfcfc #000000 #000000 0 1;
