#N canvas 524 175 186 251 10;
#X obj 13 36 cnv 15 160 160 empty empty gyro 20 12 0 14 -233017 -66577
0;
#X floatatom 35 81 10 0 0 1 x gx -, f 10;
#X floatatom 36 126 10 0 0 1 y gy -, f 10;
#X floatatom 36 168 10 0 0 1 z gz -, f 10;
#N canvas 680 212 289 147 gyro 0;
#X obj 40 58 unpack f f f;
#X obj 40 28 r #gyro;
#X obj 40 87 s gx;
#X obj 74 87 s gy;
#X obj 109 88 s gz;
#X obj 173 88 s #pdparty;
#X obj 173 27 r rungyro;
#X msg 173 58 gyro \$1;
#X connect 0 0 2 0;
#X connect 0 1 3 0;
#X connect 0 2 4 0;
#X connect 1 0 0 0;
#X connect 6 0 7 0;
#X connect 7 0 5 0;
#X restore 120 173 pd gyro;
#X obj 129 43 tgl 15 0 rungyro empty run 17 7 0 10 -262144 -1 -1 0
1;
#X text 5 7 gyroscope rotation radians/s;
