#N struct 1005template-marker float a float b;
#N struct 1006template-marker float a float b;
#N struct 1012template-marker float a float b;
#N canvas 142 217 1054 401 10;
#X obj 10 111 print;
#X text 79 63 <- "menubang hello";
#X obj 10 59 menubang hello;
#X obj 10 90 r hello-menubang;
#X obj 227 168 r onesie;
#X text 335 61 <- "touch 100 100 onesie";
#X obj 351 152 r twosie;
#X obj 227 61 touch 100 100 onesie;
#X text 410 93 <- 50x50;
#X text 225 34 touch - 2d touch surface in PdDroidParty;
#X text 9 33 menubang - Android menu item;
#X obj 251 286 ribbon 150 25 ribbonone;
#X obj 251 316 r ribbonone;
#X text 245 269 "ribbon 150 25 ribbonone";
#X text 251 256 ribbon - dragable touch ribbon;
#X text 8 4 special GUIs emulated by PdDroidParty;
#X obj 758 88 loadsave hello;
#X symbolatom 758 134 48 0 0 0 - - -, f 48;
#X text 756 34 loadsave - androidy file panels;
#X obj 209 34 cnv 3 3 350 empty empty empty 20 12 0 14 -99865 -66577
0;
#X obj 494 34 cnv 3 3 350 empty empty empty 20 12 0 14 -99865 -66577
0;
#X obj 749 34 cnv 3 3 350 empty empty empty 20 12 0 14 -99865 -66577
0;
#X obj 507 73 wordbutton 100 25 testing;
#X obj 507 110 r wordbutton-testing;
#X obj 507 131 bng 15 250 50 0 empty empty empty 17 7 0 10 -262144
-1 -1;
#X text 506 44 wordbutton - a button with a word on it;
#X text 500 56 "wordbutton 100 25 testing";
#X msg 12 260 these are my words;
#X obj 12 302 s output;
#X text 13 243 display - show text output;
#X text 14 380 "display 150 50 output";
#X obj 12 327 display 150 50 output;
#X obj 227 189 unpack f f;
#X floatatom 227 211 5 0 0 0 - - -, f 5;
#X floatatom 284 211 5 0 0 0 - - -, f 5;
#X obj 351 173 unpack f f;
#X floatatom 351 195 5 0 0 0 - - -, f 5;
#X floatatom 408 195 5 0 0 0 - - -, f 5;
#X obj 251 337 unpack f f;
#X floatatom 251 359 5 0 0 0 - - -, f 5;
#X floatatom 308 359 5 0 0 0 - - -, f 5;
#X msg 22 281 hello 32 f;
#X obj 507 248 r numsend;
#X floatatom 507 270 5 0 0 0 - - -, f 5;
#X obj 506 208 numberbox 80 30 numreceive numsend 0 10;
#X text 514 191 numberbox - fixed size number I/O;
#X text 498 285 "numberbox 80 30 numreceive numsend 0 10";
#X obj 13 161 taplist 100 16 pick-notes note C C# D D# E F F# G G#
A A# B;
#X obj 13 195 r note;
#X text 10 141 taplist - tap through list items;
#X text 4 178 "taplist 100 16 n note C C# D...";
#X symbolatom 13 216 10 0 0 0 - - -, f 10;
#X symbolatom 758 174 48 0 0 0 - - -, f 48;
#X obj 758 153 r hello-save;
#X obj 758 113 r hello-load;
#X msg 758 53 \; hello load /tmp wav;
#X msg 894 53 \; hello save /tmp sav;
#X obj 351 95 touch 50 50 twosie;
#X connect 3 0 0 0;
#X connect 4 0 32 0;
#X connect 6 0 35 0;
#X connect 12 0 38 0;
#X connect 23 0 24 0;
#X connect 27 0 28 0;
#X connect 32 0 33 0;
#X connect 32 1 34 0;
#X connect 35 0 36 0;
#X connect 35 1 37 0;
#X connect 38 0 39 0;
#X connect 38 1 40 0;
#X connect 41 0 28 0;
#X connect 42 0 43 0;
#X connect 48 0 51 0;
#X connect 53 0 52 0;
#X connect 54 0 17 0;
