#N canvas 548 258 449 632 10;
#X obj 16 59 loadbang;
#X obj 16 160 \$1;
#N canvas 306 58 500 861 \$0/connectors 0;
#X restore 107 32 pd \$0/connectors;
#X obj 109 326 * 3;
#X obj 109 347 + 2;
#X obj 16 203 until;
#X obj 16 224 f;
#X obj 46 224 + 1;
#X obj 16 183 t f b;
#X msg 56 203 0;
#X obj 16 326 * 28;
#X obj 16 431 t a a;
#X obj 79 347 + 1;
#X obj 50 326 * 3;
#X obj 79 326 * 3;
#X obj 16 245 t f f f f f;
#N canvas 75 101 1064 297 \$0/toggles 0;
#X restore 16 32 pd \$0/toggles;
#X msg 76 59 bang;
#X obj 16 90 \$1;
#X text 20 3 args: number_of_toggles basename size;
#X obj 37 274 \$3;
#X obj 37 295 * 1.15;
#X text 217 32 <- get toggles from here;
#X obj 16 110 t f b;
#X obj 16 368 pack f f \$0 f f f \$3;
#X obj 16 410 list trim;
#X obj 16 389 list append \$2;
#X text 117 103 routing sequence set messages ->;
#X obj 318 103 r seq_\$2;
#X obj 318 146 route set;
#X obj 318 167 list prepend \$2;
#X msg 318 211 \; tgl_r_\$1_\$2 \$3;
#X msg 43 456 \; pd-\$3/connectors obj 10 \$1 r tgl_\$8_\$2 \; pd-\$3/connectors
obj 100 \$1 list prepend \$2 \; pd-\$3/connectors obj 200 \$1 s seq_\$8
\; pd-\$3/connectors connect \$4 0 \$5 0 \; pd-\$3/connectors connect
\$5 0 \$6 0 \;;
#X msg 16 542 \; pd-\$3/toggles obj \$1 10 tgl \$7 1 tgl_\$8_\$2 tgl_r_\$8_\$2
empty 17 7 0 10 -262144 -1 -1 1 0 \;;
#X obj 318 189 list;
#X obj 318 125 list trim;
#X connect 0 0 18 0;
#X connect 1 0 8 0;
#X connect 3 0 4 0;
#X connect 4 0 24 5;
#X connect 5 0 6 0;
#X connect 6 0 7 0;
#X connect 6 0 15 0;
#X connect 7 0 6 1;
#X connect 8 0 5 0;
#X connect 8 1 9 0;
#X connect 9 0 6 1;
#X connect 10 0 24 0;
#X connect 11 0 33 0;
#X connect 11 1 32 0;
#X connect 12 0 24 4;
#X connect 13 0 24 3;
#X connect 14 0 12 0;
#X connect 15 0 10 0;
#X connect 15 1 24 1;
#X connect 15 2 13 0;
#X connect 15 3 14 0;
#X connect 15 4 3 0;
#X connect 17 0 18 0;
#X connect 18 0 23 0;
#X connect 20 0 21 0;
#X connect 21 0 10 1;
#X connect 23 0 1 0;
#X connect 23 1 20 0;
#X connect 24 0 26 0;
#X connect 25 0 11 0;
#X connect 26 0 25 0;
#X connect 28 0 35 0;
#X connect 29 0 30 0;
#X connect 30 0 34 0;
#X connect 34 0 31 0;
#X connect 35 0 29 0;
