#N canvas 538 150 624 418 10;
#X obj 23 117 tabwrite~ \$0-\$1;
#X obj 107 20 inlet;
#X obj 23 80 inlet~;
#X obj 148 261 tabplay~ \$0-\$1;
#X obj 148 380 outlet~;
#X obj 267 262 tabread~ \$0-\$1;
#X obj 267 163 f 1;
#X obj 273 89 tgl 15 0 empty empty empty 17 7 0 10 -262144 -1 -1 0
1;
#X obj 235 139 sel 0 1;
#X msg 235 178 0;
#X obj 267 185 spigot;
#X obj 273 114 t f f;
#X msg 107 88 bang;
#X msg 148 231 bang;
#N canvas 0 22 450 278 (subpatch) 0;
#X array \$0-\$1 22050 float 2;
#X coords 0 1 22050 -1 200 140 1 0 0;
#X restore 395 141 graph;
#N canvas 453 313 660 201 recv 0;
#X obj 119 33 r \$1-speed;
#X obj 33 32 r \$1-record;
#X obj 305 31 r \$1-trigger;
#X obj 211 32 r \$1-loop;
#X msg 33 94 record;
#X msg 119 95 speed \$1;
#X msg 211 95 loop \$1;
#X msg 305 94 trigger;
#X obj 274 171 outlet;
#X obj 405 32 r \$1-pan;
#X msg 405 95 pan \$1;
#X obj 485 33 r \$1-volume;
#X msg 485 96 volume \$1;
#X obj 579 34 r \$1-restart;
#X msg 579 97 restart;
#X connect 0 0 5 0;
#X connect 1 0 4 0;
#X connect 2 0 7 0;
#X connect 3 0 6 0;
#X connect 4 0 8 0;
#X connect 5 0 8 0;
#X connect 6 0 8 0;
#X connect 7 0 8 0;
#X connect 9 0 10 0;
#X connect 10 0 8 0;
#X connect 11 0 12 0;
#X connect 12 0 8 0;
#X connect 13 0 14 0;
#X connect 14 0 8 0;
#X restore 171 21 pd recv;
#X obj 267 208 phasor~ 0;
#X obj 237 381 outlet~;
#X obj 148 307 *~ 1;
#X obj 148 337 e_pan;
#N canvas 267 38 191 232 defaults 0;
#X obj 31 32 loadbang;
#X obj 31 104 symbol \$1;
#X msg 31 146 \; \$1-speed-in set 1 \; \$1-loop-in set 0 \; \$1-volume-in
1 \; \$1-pan-in 0.5;
#X msg 105 65 bang;
#X obj 31 64 delay 100;
#X connect 0 0 4 0;
#X connect 1 0 2 0;
#X connect 3 0 1 0;
#X connect 4 0 1 0;
#X restore 292 20 pd defaults;
#X obj 267 236 *~ 44100;
#X msg 318 185 0;
#X obj 107 50 route record trigger volume pan loop speed restart;
#X connect 1 0 23 0;
#X connect 2 0 0 0;
#X connect 3 0 18 0;
#X connect 5 0 18 0;
#X connect 6 0 10 0;
#X connect 7 0 11 0;
#X connect 8 0 9 0;
#X connect 8 1 6 0;
#X connect 9 0 16 0;
#X connect 10 0 16 0;
#X connect 11 0 8 0;
#X connect 11 1 10 1;
#X connect 12 0 0 0;
#X connect 13 0 3 0;
#X connect 15 0 23 0;
#X connect 16 0 21 0;
#X connect 18 0 19 0;
#X connect 19 0 4 0;
#X connect 19 1 17 0;
#X connect 21 0 5 0;
#X connect 22 0 16 1;
#X connect 23 0 12 0;
#X connect 23 1 13 0;
#X connect 23 2 18 1;
#X connect 23 3 19 1;
#X connect 23 4 7 0;
#X connect 23 5 6 0;
#X connect 23 6 22 0;
