#N canvas 595 633 450 300 10;
#X obj 18 14 r tick;
#X obj 18 35 tabread \$1;
#X obj 18 56 sel 1;
#X obj 18 140 outlet~;
#X obj 18 119 tabread~ \$2;
#X msg 18 77 0 \, 88200 2000;
#X obj 18 98 line~;
#X connect 0 0 1 0;
#X connect 1 0 2 0;
#X connect 2 0 5 0;
#X connect 4 0 3 0;
#X connect 5 0 6 0;
#X connect 6 0 4 0;
