#N canvas 130 87 183 188 10;
#X obj 31 19 bng 15 500 50 0 bng1-out bng1-in bng1 17 7 0 10 -16662
-258113 -260097;
#X obj 32 66 bng 15 250 50 0 bng2-out bng2-in bng2 17 7 0 14 -262144
-1 -1;
#N canvas 805 189 327 334 guts 0;
#X obj 46 114 r bng1-out;
#X obj 46 143 print;
#X obj 170 134 metro 1000;
#X obj 170 24 loadbang;
#X obj 170 159 tgl 15 0 empty empty empty 17 7 0 10 -262144 -1 -1 0
1;
#X obj 170 76 tgl 15 1 metro empty empty 17 7 0 10 -262144 -1 -1 1
1;
#X msg 170 49 1;
#X obj 170 105 r metro;
#X obj 170 231 pack f f;
#X obj 170 184 t b f;
#X obj 170 208 f \$0;
#X msg 170 262 \; bng1-in bang \;;
#X connect 0 0 1 0;
#X connect 2 0 4 0;
#X connect 3 0 6 0;
#X connect 4 0 9 0;
#X connect 6 0 5 0;
#X connect 7 0 2 0;
#X connect 8 0 11 0;
#X connect 9 0 10 0;
#X connect 9 1 8 1;
#X connect 10 0 8 0;
#X restore 94 37 pd guts;
