#N canvas 492 113 598 371 16;
#X text 21 144 this is a longer comment and should wrap at 60 chars automatically;
#X text 21 24 a comment ... yeah!;
#X text 477 238 hello \; worl \; d \; foo \; bar;
#X text 25 266 this comment \, it has some \; escaped $ chars \, \; $in it \; foo\ bar;
#X text 442 18 this short comment has a set width, f 10;
