#N canvas 532 146 211 283 10;
#X obj 27 46 loadbang;
#X obj 27 229 print;
#X msg 27 203 kraa \$1;
#X text 21 7 prints bursts to the console;
#X msg 27 126 5;
#X obj 27 152 until;
#X obj 27 102 metro 1000;
#X obj 27 178 f 0;
#X obj 62 178 + 1;
#X text 26 255 enable console in settings;
#X text 22 23 the console should scroll;
#X obj 27 75 tgl 15 0 empty empty empty 17 7 0 10 -262144 -1 -1 0 1
;
#X obj 104 89 + 100;
#X obj 104 66 random 1900;
#X obj 62 127 t b b;
#X floatatom 105 155 10 0 0 0 - #0-num -, f 10;
#X obj 107 230 s \$0-num;
#X obj 107 207 change;
#X connect 0 0 11 0;
#X connect 2 0 1 0;
#X connect 4 0 5 0;
#X connect 5 0 7 0;
#X connect 6 0 14 0;
#X connect 7 0 2 0;
#X connect 7 0 8 0;
#X connect 7 0 17 0;
#X connect 8 0 7 1;
#X connect 11 0 6 0;
#X connect 12 0 6 1;
#X connect 13 0 12 0;
#X connect 14 0 4 0;
#X connect 14 1 13 0;
#X connect 17 0 16 0;
