#N canvas 578 312 197 222 10;
#X floatatom 43 84 5 0 0 0 nbox2 nbox2-in nbox2-out, f 5;
#X floatatom 106 85 5 0 0 1 nbox4 nbox4-in nbox4-out, f 5;
#X floatatom 73 116 5 0 0 3 nbox3 nbox3-in -, f 5;
#X floatatom 57 52 10 0 0 2 nbox1 nbox1-in nbox1-out, f 10;
#X obj 13 8 tgl 15 0 changenum empty change_nbox1 17 0 0 10 -262144
-1 -1 0 1;
#N canvas 620 372 594 225 guts 0;
#X obj 283 37 loadbang;
#X obj 282 137 r nbox1-out;
#X obj 282 168 print nbox1;
#X obj 73 60 sel 0;
#X obj 73 36 r changenum;
#X obj 73 173 s nbox1-in;
#X msg 29 114 10000;
#X msg 283 70 \; nbox1-in set 4 \; nbox2-in 12345 \; nbox4-in 1234.57
;
#X msg 147 108 1.23457e+19;
#X msg 73 109 -1.23457e+09;
#X msg 459 131 -100000;
#X msg 527 130 100000;
#X msg 500 98 10000;
#X obj 460 168 s nbox3-in;
#X obj 432 70 sel 0;
#X obj 432 44 r small;
#X obj 500 71 sel 0;
#X obj 500 45 r big;
#X msg 414 98 -1000;
#X connect 0 0 7 0;
#X connect 1 0 2 0;
#X connect 3 0 9 0;
#X connect 3 1 8 0;
#X connect 4 0 3 0;
#X connect 6 0 5 0;
#X connect 8 0 5 0;
#X connect 9 0 5 0;
#X connect 10 0 13 0;
#X connect 11 0 13 0;
#X connect 12 0 13 0;
#X connect 14 0 18 0;
#X connect 14 1 10 0;
#X connect 15 0 14 0;
#X connect 16 0 12 0;
#X connect 16 1 11 0;
#X connect 17 0 16 0;
#X connect 18 0 13 0;
#X restore 134 13 pd guts;
#X obj 113 116 tgl 15 0 big empty big 17 7 0 10 -262144 -1 -1 0 1;
#X obj 113 131 tgl 15 0 small empty small 17 7 0 10 -262144 -1 -1 0
1;
#X floatatom 62 177 0 0 0 2 zero_width nbox1-in -;
