#N canvas 576 102 197 222 10;
#X floatatom 43 84 5 0 0 0 nbox2 nbox2-in -;
#X floatatom 106 85 5 0 0 1 nbox4 nbox4-in nbox4-out;
#X floatatom 73 116 5 0 0 3 nbox3 nbox3-in -;
#X floatatom 57 52 10 0 0 2 nbox1 nbox1-in nbox1-out;
#X obj 13 8 tgl 15 0 changenum empty change_nbox1 17 0 0 10 -262144
-1 -1 0 1;
#N canvas 684 438 460 227 guts 1;
#X obj 283 37 loadbang;
#X obj 282 137 r nbox1-out;
#X obj 282 168 print nbox1;
#X obj 73 60 sel 0;
#X obj 73 36 r changenum;
#X obj 73 173 s nbox1-in;
#X msg 29 114 10000;
#X msg 283 70 \; nbox1-in set 4 \; nbox2-in 12345 \; nbox4-in 1234.57
;
#X msg 147 108 1.23457e+19;
#X msg 73 109 -1.23457e+09;
#X connect 0 0 7 0;
#X connect 1 0 2 0;
#X connect 3 0 9 0;
#X connect 3 1 8 0;
#X connect 4 0 3 0;
#X connect 6 0 5 0;
#X connect 8 0 5 0;
#X connect 9 0 5 0;
#X restore 69 180 pd guts;
