#N canvas 714 124 197 222 10;
#X floatatom 43 84 5 0 0 0 nbox2 nbox2-in -;
#X floatatom 106 85 5 0 0 1 nbox4 nbox4-in nbox4-out;
#X floatatom 73 116 5 0 0 3 nbox3 nbox3-in -;
#X floatatom 73 54 5 0 0 2 nbox1 nbox1-in nbox1-out;
#X obj 13 8 tgl 15 0 changenum empty change_nbox1 17 7 0 10 -262144
-1 -1 0 1;
#N canvas 720 382 328 214 guts 0;
#X obj 179 36 loadbang;
#X msg 179 64 \; nbox1-in set 4 \; nbox2-in 10;
#X obj 180 120 r nbox1-out;
#X obj 180 151 print nbox1;
#X obj 73 60 sel 0;
#X msg 73 85 4;
#X obj 73 36 r changenum;
#X obj 73 116 s nbox1-in;
#X msg 21 87 10000;
#X msg 105 86 50000;
#X connect 0 0 1 0;
#X connect 2 0 3 0;
#X connect 4 0 5 0;
#X connect 4 1 9 0;
#X connect 5 0 7 0;
#X connect 6 0 4 0;
#X connect 8 0 7 0;
#X connect 9 0 7 0;
#X restore 69 180 pd guts;
