#N canvas 600 191 275 266 10;
#X obj 141 139 r #osc-in;
#X obj 141 194 routeOSC /edit;
#X text 25 80 run tests/edit-osc &;
#X obj 164 167 print #osc-in;
#X obj 27 160 r \$0-gui-out;
#X obj 27 189 print gui-out;
#X obj 141 223 s \$0-gui-in;
#X obj 49 36 hradio 15 1 0 8 \$0-gui-out \$0-gui-in a_radio 0 -8 0
10 -262144 -1 -1 6;
#X text 25 96 use the edit subpatch in radio-help;
#X connect 0 0 1 0;
#X connect 0 0 3 0;
#X connect 1 0 6 0;
#X connect 4 0 5 0;
