#N canvas 599 105 166 195 10;
#X symbolatom 32 34 10 0 0 1 sym1 sym1-in sym1-out;
#X obj 33 66 tgl 15 0 sym1-change empty sym1_change 17 7 0 10 -262144
-1 -1 0 1;
#N canvas 562 259 341 210 guts 0;
#X obj 54 67 sel 0;
#X msg 52 108 hello;
#X msg 113 111 world!!!!!!!!!!!!!!!!!!!!!!!;
#X obj 52 22 r sym1-change;
#X obj 50 146 symbol;
#X obj 51 178 s sym1-in;
#X msg 115 144 0;
#X msg 153 143 0;
#X obj 137 177 s nbox2-in;
#X connect 0 0 1 0;
#X connect 0 1 2 0;
#X connect 1 0 4 0;
#X connect 1 0 6 0;
#X connect 2 0 4 0;
#X connect 2 0 7 0;
#X connect 3 0 0 0;
#X connect 4 0 5 0;
#X connect 6 0 8 0;
#X connect 7 0 8 0;
#X restore 45 102 pd guts;
