#N canvas 729 201 166 195 10;
#X symbolatom 32 34 10 0 0 1 sym1 sym1-in sym1-out, f 10;
#X obj 33 66 tgl 15 0 sym1-change empty sym1_change 17 7 0 10 -262144
-1 -1 0 1;
#N canvas 413 345 335 205 guts 0;
#X obj 33 60 sel 0;
#X msg 33 101 hello;
#X msg 96 104 world!!!!!!!!!!!!!!!!!!!!!!!;
#X obj 33 15 r sym1-change;
#X obj 33 139 symbol;
#X obj 33 171 s sym1-in;
#X obj 132 16 loadbang;
#X msg 132 49 \; sym2-in symbol test12345678910;
#X connect 0 0 1 0;
#X connect 0 1 2 0;
#X connect 1 0 4 0;
#X connect 2 0 4 0;
#X connect 3 0 0 0;
#X connect 4 0 5 0;
#X connect 6 0 7 0;
#X restore 6 8 pd guts;
#X symbolatom 33 116 15 0 0 0 sym2 sym2-in -, f 15;
#X symbolatom 35 164 0 0 0 2 zero-width sym1-in -;
