#N canvas 600 191 276 265 10;
#X obj 147 143 r #osc-in;
#X text 31 84 run tests/edit-osc &;
#X obj 170 171 print #osc-in;
#X obj 48 36 tgl 15 0 \$0-gui-out \$0-gui-in a_toggle 17 7 0 10 -262144
-1 -1 0 1;
#X obj 33 164 r \$0-gui-out;
#X obj 33 193 print gui-out;
#X obj 147 227 s \$0-gui-in;
#X text 31 100 use the edit subpatch in toggle-help;
#X obj 147 198 route edit;
#X connect 0 0 2 0;
#X connect 0 0 8 0;
#X connect 4 0 5 0;
#X connect 8 0 6 0;
