#N canvas 263 231 179 247 10;
#X obj 54 26 vu 15 200 vu1-in vu1 -1 -8 0 10 -66577 -1 1 0;
#X obj 118 44 vu 15 120 vu2-in vu2 -1 -8 0 10 -262144 -1 0 0;
#X floatatom 112 6 5 0 0 0 - - vu1-peak;
#X floatatom 8 5 5 0 0 0 - - vu1-in;
#N canvas 475 269 390 279 guts 0;
#X obj 26 24 r vu1-rms;
#X obj 102 22 r vu1-peak;
#X obj 26 80 pack f f;
#X obj 102 50 t b f;
#X obj 26 105 s vu1-in;
#X obj 216 102 random 102;
#X obj 216 178 - 101;
#X obj 216 212 pack 0 0;
#X obj 216 52 metro 300;
#X obj 216 76 t b b;
#X obj 309 102 random 20;
#X obj 216 124 t f f;
#X obj 267 154 +;
#X obj 267 179 - 101;
#X obj 216 237 s vu2-in;
#X obj 216 24 loadbang;
#X obj 115 104 loadbang;
#X msg 115 133 -20 0;
#X msg 38 188 12 1000;
#X obj 38 216 line -100;
#X obj 42 153 tgl 15 0 empty empty empty 17 7 0 10 -262144 -1 -1 1
1;
#X obj 74 153 sel 0;
#X msg 98 187 -100 1000;
#X obj 39 133 r bump-out;
#X connect 0 0 2 0;
#X connect 1 0 3 0;
#X connect 2 0 4 0;
#X connect 3 0 2 0;
#X connect 3 1 2 1;
#X connect 5 0 11 0;
#X connect 6 0 7 0;
#X connect 7 0 14 0;
#X connect 8 0 9 0;
#X connect 9 0 5 0;
#X connect 9 1 10 0;
#X connect 10 0 12 1;
#X connect 11 0 6 0;
#X connect 11 1 12 0;
#X connect 12 0 13 0;
#X connect 13 0 7 1;
#X connect 15 0 8 0;
#X connect 16 0 17 0;
#X connect 17 0 4 0;
#X connect 18 0 19 0;
#X connect 19 0 4 0;
#X connect 20 0 21 0;
#X connect 21 0 18 0;
#X connect 21 1 22 0;
#X connect 22 0 19 0;
#X connect 23 0 20 0;
#X restore 110 187 pd guts;
#X obj 9 44 bng 15 250 50 0 bump-out empty bump 17 7 0 10 -262144 -1
-1;
