#N canvas 600 191 248 256 10;
#X obj 126 87 r #osc-in;
#X obj 126 142 routeOSC /edit;
#X text 20 16 run tests/edit-osc &;
#X obj 149 115 print #osc-in;
#X obj 126 171 s \$0-gui-in;
#X text 20 32 use the edit subpatch in radio-help;
#X obj 40 80 vu 15 120 \$0-gui-in a_vu_meter -1 -8 0 10 -66577 -1 1
0;
#N canvas 147 336 225 292 source 0;
#X obj 48 120 random 102;
#X obj 48 196 - 101;
#X obj 48 230 pack 0 0;
#X obj 48 70 metro 300;
#X obj 48 94 t b b;
#X obj 141 120 random 20;
#X obj 48 142 t f f;
#X obj 99 172 +;
#X obj 99 197 - 101;
#X obj 48 255 s \$0-gui-in;
#X obj 48 23 loadbang;
#X msg 48 46 1;
#X connect 0 0 6 0;
#X connect 1 0 2 0;
#X connect 2 0 9 0;
#X connect 3 0 4 0;
#X connect 4 0 0 0;
#X connect 4 1 5 0;
#X connect 5 0 7 1;
#X connect 6 0 1 0;
#X connect 6 1 7 0;
#X connect 7 0 8 0;
#X connect 8 0 2 1;
#X connect 10 0 11 0;
#X connect 11 0 3 0;
#X restore 126 198 pd source;
#X connect 0 0 1 0;
#X connect 0 0 3 0;
#X connect 1 0 4 0;
