#N canvas 542 192 270 349 10;
#X text 20 16 run tests/edit-osc &;
#X text 20 32 use the edit subpatch in radio-help;
#X obj 100 80 vu 8 200 \$0-gui-in a_vu_meter -1 -8 0 10 -66577 -1 1
0;
#N canvas 729 462 236 129 guts 0;
#X obj 14 11 r #osc-in;
#X obj 37 39 print #osc-in;
#X obj 14 95 s \$0-gui-in;
#N canvas 147 336 225 292 source 0;
#X obj 48 120 random 102;
#X obj 48 196 - 101;
#X obj 48 230 pack 0 0;
#X obj 48 70 metro 300;
#X obj 48 94 t b b;
#X obj 141 120 random 20;
#X obj 48 142 t f f;
#X obj 99 172 +;
#X obj 99 197 - 101;
#X obj 48 255 s \$0-gui-in;
#X obj 48 23 loadbang;
#X msg 48 46 1;
#X connect 0 0 6 0;
#X connect 1 0 2 0;
#X connect 2 0 9 0;
#X connect 3 0 4 0;
#X connect 4 0 0 0;
#X connect 4 1 5 0;
#X connect 5 0 7 1;
#X connect 6 0 1 0;
#X connect 6 1 7 0;
#X connect 7 0 8 0;
#X connect 8 0 2 1;
#X connect 10 0 11 0;
#X connect 11 0 3 0;
#X restore 145 95 pd source;
#X obj 143 12 r foo7_rcv;
#X obj 143 53 s \$0-gui-in;
#X obj 14 66 route edit;
#X connect 0 0 1 0;
#X connect 0 0 6 0;
#X connect 4 0 5 0;
#X connect 6 0 2 0;
#X restore 172 266 pd guts;
