#N canvas 538 105 451 569 10;
#X obj 63 48 key;
#X floatatom 116 48 5 0 0 1 key key -;
#X obj 195 78 route 113 119 101 114 116 121;
#X obj 189 116 s q;
#X obj 232 116 s w;
#X obj 278 119 s e;
#X obj 309 120 s r;
#X obj 341 121 s t;
#X obj 369 120 s y;
#X obj 18 176 bng 60 250 50 0 empty q q 28 26 0 10 -262144 -1 -1;
#X obj 92 176 bng 60 250 50 0 empty w w 28 26 0 10 -262144 -1 -1;
#X obj 162 177 bng 60 250 50 0 empty e e 28 26 0 10 -262144 -1 -1;
#X obj 233 178 bng 60 250 50 0 empty r r 28 26 0 10 -262144 -1 -1;
#X obj 310 176 bng 60 250 50 0 empty t t 28 26 0 10 -262144 -1 -1;
#X obj 378 176 bng 60 250 50 0 empty y y 28 26 0 10 -262144 -1 -1;
#X obj 158 108 tgl 15 0 empty empty empty 17 7 0 10 -262144 -1 -1 0
1;
#X obj 63 78 s key;
#X obj 196 48 r key;
#X connect 0 0 16 0;
#X connect 2 0 3 0;
#X connect 2 0 15 0;
#X connect 2 1 4 0;
#X connect 2 2 5 0;
#X connect 2 3 6 0;
#X connect 2 4 7 0;
#X connect 2 5 8 0;
#X connect 17 0 2 0;
