#N canvas 553 283 250 392 12;
#N canvas 121 146 450 589 guts 0;
#X obj 35 57 soundinput;
#X text 31 12 stereo input;
#X obj 236 60 adc~ 3 4;
#X obj 289 93 *~;
#X obj 236 93 *~;
#N canvas 92 117 489 295 mic 0;
#X obj 169 193 line~;
#X msg 169 169 \$1 10;
#X obj 122 79 r #transport;
#X obj 122 100 route play;
#X obj 222 79 r #micvolume;
#X obj 169 144 * 1;
#X obj 222 100 t b f f;
#X obj 169 226 outlet~;
#X text 29 15 this is copied from soundinput.pd;
#X text 28 42 it should receive the same messages for additional channels;
#X connect 0 0 7 0;
#X connect 1 0 0 0;
#X connect 2 0 3 0;
#X connect 3 0 5 0;
#X connect 4 0 6 0;
#X connect 5 0 1 0;
#X connect 6 0 5 0;
#X connect 6 1 5 1;
#X restore 308 60 pd mic control;
#X obj 32 465 soundoutput;
#X text 30 515 stereo output;
#X obj 238 488 dac~ 3 4;
#X obj 32 254 osc~ 220;
#X obj 135 254 osc~ 440;
#X obj 238 254 osc~ 660;
#X obj 342 254 osc~ 880;
#X obj 35 124 env~ 8192;
#X obj 35 177 s \$0-adc1;
#X obj 35 150 int;
#X obj 138 125 env~ 8192;
#X obj 138 151 int;
#X obj 236 124 env~ 8192;
#X obj 236 150 int;
#X obj 339 125 env~ 8192;
#X obj 339 151 int;
#X text 226 513 2 extra outputs;
#X text 234 31 2 extra inputs;
#X text 30 537 add for built-in stereo recording;
#X text 31 31 add for mic input control;
#X obj 138 178 s \$0-adc2;
#X obj 236 177 s \$0-adc3;
#X obj 339 178 s \$0-adc4;
#X obj 32 431 *~;
#X obj 50 331 r \$0-dac1;
#X obj 135 431 *~;
#X obj 238 431 *~;
#X obj 342 431 *~;
#X obj 153 331 r \$0-dac2;
#X obj 256 331 r \$0-dac3;
#X obj 360 331 r \$0-dac4;
#X obj 50 397 line~;
#X msg 50 365 \$1 10;
#X obj 153 397 line~;
#X msg 153 365 \$1 10;
#X obj 256 397 line~;
#X msg 256 365 \$1 10;
#X obj 360 397 line~;
#X msg 360 365 \$1 10;
#X obj 32 297 *~ 0.2;
#X obj 135 297 *~ 0.2;
#X obj 238 297 *~ 0.2;
#X obj 342 297 *~ 0.2;
#X connect 0 0 13 0;
#X connect 0 1 16 0;
#X connect 2 0 4 0;
#X connect 2 1 3 0;
#X connect 3 0 20 0;
#X connect 4 0 18 0;
#X connect 5 0 4 1;
#X connect 5 0 3 1;
#X connect 9 0 45 0;
#X connect 10 0 46 0;
#X connect 11 0 47 0;
#X connect 12 0 48 0;
#X connect 13 0 15 0;
#X connect 15 0 14 0;
#X connect 16 0 17 0;
#X connect 17 0 26 0;
#X connect 18 0 19 0;
#X connect 19 0 27 0;
#X connect 20 0 21 0;
#X connect 21 0 28 0;
#X connect 29 0 6 0;
#X connect 30 0 38 0;
#X connect 31 0 6 1;
#X connect 32 0 8 0;
#X connect 33 0 8 1;
#X connect 34 0 40 0;
#X connect 35 0 42 0;
#X connect 36 0 44 0;
#X connect 37 0 29 1;
#X connect 38 0 37 0;
#X connect 39 0 31 1;
#X connect 40 0 39 0;
#X connect 41 0 32 1;
#X connect 42 0 41 0;
#X connect 43 0 33 1;
#X connect 44 0 43 0;
#X connect 45 0 29 0;
#X connect 46 0 31 0;
#X connect 47 0 32 0;
#X connect 48 0 33 0;
#X restore 19 12 pd guts;
#X floatatom 53 88 5 0 0 0 in\ 1 \$0-adc1 - 0;
#X floatatom 53 118 5 0 0 0 in\ 2 \$0-adc2 - 0;
#X floatatom 53 148 5 0 0 0 in\ 3 \$0-adc3 - 0;
#X floatatom 53 178 5 0 0 0 in\ 4 \$0-adc4 - 0;
#X obj 115 88 tgl 19 0 \$0-dac1 empty dac\ 1\ 220\ hz 24 10 0 12 #fcfcfc #000000 #000000 0 1;
#X obj 115 118 tgl 19 0 \$0-dac2 empty dac\ 2\ 440\ hz 24 10 0 12 #fcfcfc #000000 #000000 0 1;
#X obj 115 148 tgl 19 0 \$0-dac3 empty dac\ 3\ 660\ hz 24 10 0 12 #fcfcfc #000000 #000000 0 1;
#X obj 115 178 tgl 19 0 \$0-dac4 empty dac\ 4\ 880\ hz 24 10 0 12 #fcfcfc #000000 #000000 0 1;
#X text 115 55 4 outputs;
#X text 22 55 4 inputs;
#X text 21 229 test multi-channel audio \, ie. more than stereo, f 25;
#X text 21 279 requires multi-channel device connected via USB, f 25;
